<svg width="558" height="470" viewBox="0 0 558 470" fill="none" xmlns="http://www.w3.org/2000/svg">
<path d="M462.41 125.21C452.24 104.44 436.41 85.74 415.41 76.01C379.41 59.3 334.77 72.76 305.61 99.74C290.13 114.07 277.66 132.04 259.53 142.85C228.84 161.15 189.02 154.93 156.21 169.11C126.52 181.94 105.39 211.55 100.48 243.52C95.5699 275.49 106.16 309.01 126.63 334.06C147.1 359.11 176.83 375.86 208.38 382.97L245.82 384.06C281.864 385.246 317.744 378.717 351.06 364.91C384 351.12 413.7 330.52 436.29 303C476.44 254.08 490.24 182.05 462.41 125.21Z" fill="#FDD4A5"/>
<path d="M485.93 425C485.93 425.15 388.51 425.26 268.38 425.26C148.25 425.26 50.8101 425.19 50.8101 425C50.8101 424.81 148.2 424.74 268.38 424.74C388.56 424.74 485.93 424.9 485.93 425Z" fill="#263238"/>
<path d="M363.7 252C364.443 255.02 364.356 258.184 363.45 261.158C362.543 264.133 360.85 266.808 358.55 268.9C355.5 271.6 351.55 273.16 348.75 276.13C347.017 278.105 345.825 280.495 345.29 283.068C344.756 285.641 344.897 288.308 345.7 290.81C346.55 293.294 347.894 295.579 349.653 297.528C351.411 299.478 353.547 301.05 355.93 302.15C359.176 303.666 362.734 304.393 366.314 304.272C369.894 304.15 373.395 303.183 376.53 301.45C384.26 297.08 388.76 288.31 389.9 279.5C391.04 270.69 389.25 261.77 386.9 253.2" fill="#263238"/>
<path d="M461.19 407.35C469.19 406.04 476.69 408.48 484.61 410.23C486.716 410.854 488.939 410.974 491.1 410.58C494.53 409.7 496.97 406.36 497.5 402.86C497.929 399.794 497.217 396.677 495.5 394.1C494.811 392.99 493.873 392.055 492.76 391.37C491.567 390.772 490.263 390.432 488.93 390.37C484.077 389.979 479.207 390.898 474.83 393.03C470.465 395.152 466.505 398.022 463.13 401.51C461.45 403.19 461.95 405.12 461.21 407.38" fill="#263238"/>
<path d="M299 278.23C297.717 270.602 297.873 262.801 299.46 255.23C300.131 251.528 301.487 247.984 303.46 244.78C304.132 243.585 305.155 242.625 306.39 242.03C307.287 241.732 308.249 241.689 309.169 241.906C310.089 242.124 310.931 242.592 311.6 243.26C312.455 244.149 313.11 245.21 313.524 246.372C313.938 247.534 314.1 248.771 314 250C313.822 252.458 313.22 254.867 312.22 257.12C309.13 265.02 304.22 271.58 298.97 278.22" fill="#263238"/>
<path d="M454 307.14C455.81 308.43 496 395 496 395C492.768 393.619 489.188 393.27 485.75 394L483.57 394.58C479.668 395.629 475.968 397.319 472.62 399.58L461.15 407.34C460.696 407.079 460.311 406.713 460.028 406.273C459.744 405.833 459.57 405.331 459.52 404.81V404.48L428.36 351L454 307.14Z" fill="#E3B76B"/>
<path d="M303.09 169.32L313.81 230.25C317.26 238.45 357.49 288.13 357.49 288.13L344.19 330.87L291.35 258.62C286.443 253.374 283.775 246.422 283.91 239.24L285.97 174.14L303.09 169.32Z" fill="#FFBE9D"/>
<path d="M360.14 278.58L387.73 280.67L411.79 284.4C411.79 284.4 454 295.49 454 300.11C454 301.65 442.48 338.34 436 360.32C434.412 365.659 433.116 371.08 432.12 376.56L454 425H350.17V380.59C350.17 380.59 343.17 322.26 344.4 314.29C345.63 306.32 360.14 278.58 360.14 278.58Z" fill="#E3B76B"/>
<path d="M290 144.7C290.162 138.494 290.797 132.309 291.9 126.2C292.05 125.33 292.41 124.28 293.28 124.2C294.36 124.06 294.91 125.45 295.05 126.53C296.009 133.898 295.701 141.376 294.14 148.64" fill="#EB996E"/>
<path d="M302.3 273.72C314.14 263.14 314.54 244.81 313.53 230.22C313.332 229.155 313.494 228.054 313.99 227.09C315.12 225.48 317.87 226.09 318.99 227.71C320.11 229.33 319.99 231.46 319.93 233.42C320.54 231.76 323.14 231.77 324.36 233.05C325.58 234.33 325.79 236.26 325.93 238.05L326.32 242.93L360.91 275.93C360.91 275.93 361.86 272.93 364.4 274.66C366.94 276.39 368.58 280.04 368.58 280.04L344.21 333.23L298.98 278.23C299.85 276.566 300.969 275.045 302.3 273.72Z" fill="#E3B76B"/>
<path d="M349.24 310.53C345.631 315.133 342.936 320.384 341.3 326C339.67 331.653 339.848 337.674 341.81 343.22C343.328 347.057 345.814 350.436 349.027 353.026C352.239 355.617 356.068 357.33 360.14 358" fill="#E3B76B"/>
<path d="M461.19 407.35L459.88 425H485.51L491.51 393.75C483.703 393.314 476.002 395.727 469.84 400.54L461.19 407.35Z" fill="#FFBE9D"/>
<path d="M314.35 269.81C314.495 269.324 314.682 268.853 314.91 268.4C315.31 267.52 315.85 266.22 316.46 264.6C317.07 262.98 317.72 261.02 318.33 258.82C318.964 256.419 319.468 253.985 319.84 251.53C320.186 249.073 320.396 246.6 320.47 244.12C320.47 241.83 320.47 239.77 320.33 238.04C320.19 236.31 320.06 234.92 319.93 233.96C319.844 233.461 319.797 232.956 319.79 232.45C319.953 232.931 320.067 233.426 320.13 233.93C320.389 235.279 320.58 236.641 320.7 238.01C320.895 240.044 320.979 242.087 320.95 244.13C320.874 249.139 320.148 254.118 318.79 258.94C318.232 260.906 317.564 262.839 316.79 264.73C316.13 266.35 315.54 267.63 315.08 268.49C314.87 268.948 314.626 269.389 314.35 269.81Z" fill="#263238"/>
<path d="M321.88 260.52C322.206 259.66 322.58 258.818 323 258C324.751 253.941 325.766 249.604 326 245.19C325.998 244.271 326.048 243.353 326.15 242.44C326.346 243.346 326.42 244.274 326.37 245.2C326.335 249.685 325.311 254.107 323.37 258.15C322.988 259.007 322.486 259.804 321.88 260.52Z" fill="#263238"/>
<path d="M362.5 288.18C362.42 288.13 362.84 287.48 363.08 286.3C363.36 284.758 363.271 283.171 362.82 281.67C362.345 280.159 361.767 278.682 361.09 277.25C360.774 276.657 360.539 276.025 360.39 275.37C360.786 275.905 361.121 276.482 361.39 277.09C362.182 278.499 362.822 279.987 363.3 281.53C363.778 283.11 363.816 284.79 363.41 286.39C363.284 287.062 362.968 287.683 362.5 288.18Z" fill="#263238"/>
<path d="M356.49 358.62C356.334 358.555 356.186 358.471 356.05 358.37L354.87 357.59C353.87 356.9 352.38 355.89 350.64 354.52C348.583 352.936 346.702 351.136 345.03 349.15C342.972 346.692 341.489 343.805 340.69 340.7C339.927 337.594 339.73 334.376 340.11 331.2C340.417 328.624 340.99 326.087 341.82 323.63C342.37 321.974 343.008 320.349 343.73 318.76C343.99 318.2 344.19 317.76 344.34 317.48C344.406 317.324 344.49 317.177 344.59 317.04C344.401 317.652 344.177 318.253 343.92 318.84C343.47 319.98 342.82 321.64 342.17 323.74C341.402 326.186 340.873 328.702 340.59 331.25C340.242 334.368 340.445 337.523 341.19 340.57C341.968 343.606 343.406 346.433 345.4 348.85C347.037 350.823 348.87 352.626 350.87 354.23C352.57 355.63 354 356.68 354.99 357.43L356.11 358.29C356.37 358.49 356.5 358.6 356.49 358.62Z" fill="#263238"/>
<path d="M413.14 368.51C413.001 368.583 412.853 368.637 412.7 368.67C412.4 368.75 411.97 368.9 411.4 369.01C409.789 369.359 408.148 369.557 406.5 369.6C401.005 369.769 395.585 368.288 390.939 365.349C386.292 362.41 382.632 358.148 380.43 353.11C379.759 351.604 379.233 350.037 378.86 348.43C378.72 347.86 378.67 347.43 378.61 347.11C378.576 346.956 378.559 346.798 378.56 346.64C378.765 347.205 378.932 347.783 379.06 348.37C380.652 354.408 384.216 359.74 389.186 363.52C394.156 367.299 400.247 369.309 406.49 369.23C408.122 369.222 409.751 369.082 411.36 368.81C411.948 368.679 412.542 368.579 413.14 368.51Z" fill="#263238"/>
<path d="M429.05 388C428.91 388 430.23 382.43 432.05 375.65C433.87 368.87 435.37 363.4 435.5 363.44C435.63 363.48 434.32 369 432.55 375.78C430.78 382.56 429.19 388 429.05 388Z" fill="#263238"/>
<path d="M443 376.21C442.88 376.28 438.86 369.71 434 361.53C429.14 353.35 425.34 346.66 425.47 346.59C425.6 346.52 429.61 353.08 434.47 361.26C439.33 369.44 443.17 376.13 443 376.21Z" fill="#263238"/>
<path d="M481.39 392.4C481.39 392.5 479.93 392.62 477.65 393.2C476.318 393.538 475.012 393.969 473.74 394.49C472.189 395.146 470.691 395.922 469.26 396.81C467.848 397.719 466.51 398.739 465.26 399.86C464.241 400.792 463.288 401.794 462.41 402.86C460.91 404.67 460.17 405.94 460.08 405.86C460.2 405.536 460.358 405.227 460.55 404.94C461.013 404.121 461.538 403.339 462.12 402.6C462.974 401.495 463.914 400.459 464.93 399.5C466.188 398.335 467.546 397.284 468.99 396.36C470.446 395.455 471.979 394.679 473.57 394.04C474.868 393.528 476.206 393.123 477.57 392.83C478.484 392.618 479.414 392.478 480.35 392.41C480.694 392.357 481.045 392.353 481.39 392.4Z" fill="#263238"/>
<path d="M486.29 386.38C486.29 386.49 484.68 386.29 482.11 386.51C480.611 386.645 479.126 386.906 477.67 387.29C474.101 388.238 470.766 389.909 467.87 392.2C466.693 393.137 465.595 394.171 464.59 395.29C462.88 397.21 462.08 398.61 461.99 398.56C462.125 398.206 462.303 397.87 462.52 397.56C462.734 397.174 462.975 396.803 463.24 396.45C463.573 395.966 463.93 395.499 464.31 395.05C465.293 393.876 466.384 392.798 467.57 391.83C469.037 390.654 470.618 389.629 472.29 388.77C473.973 387.946 475.735 387.296 477.55 386.83C479.038 386.456 480.558 386.225 482.09 386.14C482.673 386.111 483.257 386.111 483.84 386.14C484.284 386.142 484.729 386.169 485.17 386.22C485.549 386.226 485.925 386.28 486.29 386.38Z" fill="#263238"/>
<g opacity="0.3">
<path d="M379.63 348.77C377.28 353.23 379.24 358.67 381.39 363.24C383.06 366.78 384.92 370.37 387.96 372.84C389.454 374.061 391.184 374.96 393.042 375.481C394.899 376.002 396.845 376.133 398.755 375.866C400.666 375.6 402.501 374.941 404.146 373.931C405.79 372.922 407.208 371.583 408.31 370C401.935 369.905 395.739 367.884 390.534 364.202C385.33 360.52 381.361 355.35 379.15 349.37" fill="black"/>
</g>
<g opacity="0.3">
<path d="M425.54 346.59C423.74 350.88 425.1 356.75 426.98 361C428.86 365.25 430.86 370 429.35 374.41C428.961 375.193 428.759 376.056 428.76 376.93C428.86 377.79 429.76 378.62 430.57 378.22C430.989 377.926 431.279 377.482 431.38 376.98C432.8 372.7 434.223 368.423 435.65 364.15" fill="black"/>
</g>
<path d="M330.94 290.1C331.101 287.415 331.435 284.742 331.94 282.1C332.28 279.443 332.791 276.811 333.47 274.22C333.319 276.906 332.985 279.579 332.47 282.22C332.133 284.877 331.622 287.51 330.94 290.1Z" fill="#FAFAFA"/>
<path d="M320.41 287.89C320.28 287.97 318.56 285.57 316.18 282.81C313.8 280.05 311.7 277.98 311.8 277.87C313.593 279.181 315.201 280.729 316.58 282.47C318.086 284.103 319.374 285.925 320.41 287.89Z" fill="#FAFAFA"/>
<path d="M329.45 262.13C329.149 262.774 328.769 263.379 328.32 263.93C327.56 265 326.45 266.43 325.16 267.93C323.87 269.43 322.63 270.78 321.7 271.7C321.234 272.234 320.699 272.705 320.11 273.1C320 273 322.19 270.63 324.76 267.59C327.33 264.55 329.33 262 329.45 262.13Z" fill="#FAFAFA"/>
<path d="M325.92 249.54C325.77 249.6 325.2 248.33 324.1 247.06C323 245.79 321.82 245.06 321.9 244.91C322.94 245.21 323.851 245.846 324.49 246.72C325.259 247.481 325.761 248.47 325.92 249.54Z" fill="#FAFAFA"/>
<path d="M316.8 257.3C315.983 257.685 315.101 257.912 314.2 257.97C313.326 258.198 312.415 258.253 311.52 258.13C313.21 257.517 315.003 257.235 316.8 257.3Z" fill="#FAFAFA"/>
<path d="M339.81 268.41C339.833 266.854 339.722 265.298 339.48 263.76C339.066 262.258 338.521 260.796 337.85 259.39C338.984 260.555 339.728 262.044 339.98 263.65C340.408 265.217 340.349 266.878 339.81 268.41Z" fill="#FAFAFA"/>
<path d="M352.1 281.63C350.256 278.686 347.779 276.189 344.85 274.32C346.504 274.962 348.004 275.944 349.253 277.203C350.502 278.463 351.472 279.971 352.1 281.63Z" fill="#FAFAFA"/>
<path d="M332.37 304.57C329.393 305.686 326.095 305.574 323.2 304.26C323.25 304.11 325.2 304.74 327.77 304.81C330.34 304.88 332.33 304.42 332.37 304.57Z" fill="#FAFAFA"/>
<path d="M341.63 309.32C341.49 309.26 342.27 306.96 342.92 304.04C343.57 301.12 343.86 298.7 344.01 298.72C344.113 300.55 343.917 302.384 343.43 304.15C343.112 305.959 342.504 307.705 341.63 309.32Z" fill="#FAFAFA"/>
<path d="M361.86 310.09C360.278 308.753 358.816 307.281 357.49 305.69C356.027 304.217 354.689 302.625 353.49 300.93C355.066 302.274 356.524 303.749 357.85 305.34C359.312 306.813 360.653 308.401 361.86 310.09Z" fill="#FAFAFA"/>
<path d="M371.28 333.46C370.081 332.59 368.987 331.583 368.02 330.46C366.936 329.453 365.97 328.326 365.14 327.1C366.339 327.97 367.433 328.977 368.4 330.1C369.494 331.098 370.461 332.227 371.28 333.46Z" fill="#FAFAFA"/>
<path d="M353.77 335.69C352.62 336.914 351.267 337.929 349.77 338.69C348.362 339.628 346.797 340.305 345.15 340.69C345.15 340.55 347.15 339.69 349.51 338.28C351.87 336.87 353.67 335.57 353.77 335.69Z" fill="#FAFAFA"/>
<path d="M361.83 357.92C361.68 357.92 362.28 355.26 362.58 351.97C362.88 348.68 362.79 345.97 362.94 345.97C363.307 347.949 363.361 349.974 363.1 351.97C363 354.009 362.571 356.018 361.83 357.92Z" fill="#FAFAFA"/>
<path d="M392.14 339.85C390.488 338.839 389.023 337.55 387.81 336.04C386.473 334.644 385.393 333.022 384.62 331.25C384.75 331.16 386.12 333.33 388.2 335.7C390.28 338.07 392.24 339.72 392.14 339.85Z" fill="#FAFAFA"/>
<path d="M403.21 349.28C403.09 349.19 404.61 347.11 406.31 344.44C408.01 341.77 409.26 339.53 409.39 339.6C408.741 341.418 407.85 343.14 406.74 344.72C405.78 346.396 404.592 347.931 403.21 349.28Z" fill="#FAFAFA"/>
<path d="M401.59 326.2C398.176 325.633 394.826 324.728 391.59 323.5C393.314 323.706 395.015 324.074 396.67 324.6C398.36 324.966 400.008 325.502 401.59 326.2Z" fill="#FAFAFA"/>
<path d="M393.52 366.82C393.343 365.245 393.343 363.655 393.52 362.08C393.533 360.495 393.714 358.917 394.06 357.37C394.24 358.945 394.24 360.535 394.06 362.11C394.05 363.695 393.869 365.274 393.52 366.82Z" fill="#FAFAFA"/>
<path d="M400.5 380.73C401.024 379.115 401.445 377.468 401.76 375.8C401.898 374.107 401.925 372.407 401.84 370.71C402.356 372.374 402.503 374.131 402.272 375.858C402.041 377.585 401.436 379.24 400.5 380.71V380.73Z" fill="#FAFAFA"/>
<path d="M382.41 377.66C381.9 374.206 382.577 370.68 384.33 367.66C384.47 367.72 383.55 369.83 383.03 372.6C382.51 375.37 382.56 377.65 382.41 377.66Z" fill="#FAFAFA"/>
<path d="M365.91 384.71C364.28 383.578 362.711 382.359 361.21 381.06C359.604 379.897 358.059 378.652 356.58 377.33C358.378 378.226 360.057 379.341 361.58 380.65C363.177 381.83 364.63 383.192 365.91 384.71Z" fill="#FAFAFA"/>
<path d="M377.08 365.09C373.253 367.518 369.241 369.642 365.08 371.44C366.963 370.144 368.942 368.994 371 368C372.949 366.875 374.981 365.902 377.08 365.09Z" fill="#FAFAFA"/>
<path d="M411.79 409.12C411.578 409.189 411.36 409.243 411.14 409.28C410.71 409.36 410.08 409.52 409.26 409.63C406.944 409.984 404.602 410.135 402.26 410.08C396.21 409.992 390.248 408.622 384.766 406.061C379.285 403.499 374.409 399.804 370.46 395.22C368.166 392.581 366.202 389.673 364.61 386.56C363.525 384.474 362.628 382.295 361.93 380.05C361.66 379.26 361.53 378.63 361.41 378.21C361.343 377.995 361.3 377.774 361.28 377.55C361.376 377.753 361.453 377.963 361.51 378.18C361.66 378.59 361.82 379.18 362.12 379.99C364.037 385.472 366.991 390.534 370.82 394.9C374.779 399.379 379.61 403.003 385.017 405.549C390.425 408.096 396.296 409.512 402.27 409.71C404.607 409.797 406.947 409.703 409.27 409.43C410.1 409.35 410.73 409.22 411.16 409.18C411.367 409.136 411.578 409.116 411.79 409.12Z" fill="#263238"/>
<path d="M381.91 403.94C381.569 402.353 381.733 400.699 382.38 399.21C382.868 397.661 383.834 396.306 385.14 395.34C384.257 396.619 383.497 397.978 382.87 399.4C382.412 400.881 382.091 402.401 381.91 403.94Z" fill="#FAFAFA"/>
<path d="M373.68 400.5C372.73 401.235 371.859 402.066 371.08 402.98C370.43 403.987 369.881 405.055 369.44 406.17C369.473 404.902 369.899 403.676 370.659 402.661C371.418 401.646 372.474 400.891 373.68 400.5Z" fill="#FAFAFA"/>
<path d="M405.33 419.34C403.693 419.209 402.112 418.686 400.72 417.816C399.328 416.946 398.165 415.754 397.33 414.34C399.505 416.688 402.266 418.414 405.33 419.34Z" fill="#FAFAFA"/>
<path d="M410.25 391.64C410.04 393.11 409.419 394.491 408.458 395.623C407.497 396.756 406.236 397.593 404.82 398.04C405.989 397.233 407.074 396.312 408.06 395.29C408.914 394.152 409.648 392.929 410.25 391.64Z" fill="#FAFAFA"/>
<path d="M424.24 412.29C424.12 412.19 425.44 410.52 426.66 408.22C427.88 405.92 428.53 403.89 428.66 403.94C428.094 407.121 426.54 410.042 424.22 412.29H424.24Z" fill="#FAFAFA"/>
<path d="M442.73 415C442.79 415.15 440.97 415.87 439.14 417.38C437.31 418.89 436.21 420.51 436.08 420.38C436.655 419 437.6 417.806 438.81 416.93C439.912 415.935 441.27 415.267 442.73 415Z" fill="#FAFAFA"/>
<path d="M428.63 391.33C428.47 391.38 427.63 388.46 425.76 385.22C423.89 381.98 421.89 379.7 422.02 379.6C422.569 379.987 423.052 380.46 423.45 381C425.554 383.459 427.158 386.306 428.17 389.38C428.421 390.003 428.576 390.661 428.63 391.33Z" fill="#FAFAFA"/>
<path d="M431.39 361.56C428.277 362.635 425.059 363.376 421.79 363.77C424.903 362.698 428.121 361.957 431.39 361.56Z" fill="#FAFAFA"/>
<path d="M422.88 352.66C421.738 351.598 420.712 350.419 419.82 349.14C418.802 347.962 417.913 346.678 417.17 345.31C418.323 346.357 419.349 347.535 420.23 348.82C421.258 349.994 422.147 351.283 422.88 352.66Z" fill="#FAFAFA"/>
<path d="M444 347.32C440.76 347.24 437.572 346.483 434.64 345.1C436.224 345.371 437.79 345.735 439.33 346.19C440.908 346.472 442.468 346.849 444 347.32Z" fill="#FAFAFA"/>
<path d="M459 347.05C459.43 345.635 459.941 344.246 460.53 342.89C460.952 341.469 461.463 340.077 462.06 338.72C461.979 340.217 461.64 341.688 461.06 343.07C460.614 344.508 459.916 345.855 459 347.05Z" fill="#FAFAFA"/>
<path d="M455.58 367.37C452.479 366.677 449.677 365.018 447.58 362.63C447.68 362.51 449.26 363.89 451.45 365.18C453.64 366.47 455.63 367.22 455.58 367.37Z" fill="#FAFAFA"/>
<path d="M465.32 366.75C465.521 364.743 465.889 362.756 466.42 360.81C466.782 358.832 467.31 356.889 468 355C467.439 358.991 466.532 362.926 465.29 366.76L465.32 366.75Z" fill="#FAFAFA"/>
<path d="M457.19 389.47C454.694 386.645 452.464 383.596 450.53 380.36C451.84 381.717 453.025 383.19 454.07 384.76C455.253 386.231 456.297 387.807 457.19 389.47Z" fill="#FAFAFA"/>
<path d="M471.07 380.78C470.93 380.85 470.02 379.04 468.58 377.02C467.14 375 465.75 373.53 465.86 373.42C467.118 374.301 468.188 375.423 469.01 376.72C469.965 377.919 470.666 379.301 471.07 380.78Z" fill="#FAFAFA"/>
<path d="M484.09 378.83C482.95 377.491 481.882 376.092 480.89 374.64C479.754 373.301 478.685 371.906 477.69 370.46C480.35 372.804 482.525 375.648 484.09 378.83Z" fill="#FAFAFA"/>
<path d="M481 387.46C480.822 386.259 480.418 385.102 479.81 384.05C479.078 383.079 478.173 382.252 477.14 381.61C477.14 381.55 477.6 381.61 478.23 381.92C479.043 382.353 479.731 382.986 480.23 383.76C480.739 384.532 481.045 385.419 481.12 386.34C481.22 387 481.09 387.46 481 387.46Z" fill="#FAFAFA"/>
<path d="M470.88 399.29C470.8 399.29 470.83 399.02 470.75 398.67C470.655 398.22 470.412 397.815 470.06 397.52C469.691 397.247 469.239 397.109 468.78 397.13C468.42 397.13 468.19 397.22 468.15 397.13C468.11 397.04 468.3 396.86 468.73 396.74C469.013 396.666 469.309 396.659 469.595 396.718C469.881 396.777 470.15 396.901 470.38 397.081C470.61 397.261 470.796 397.492 470.923 397.755C471.049 398.019 471.113 398.308 471.11 398.6C471.1 399.08 470.94 399.31 470.88 399.29Z" fill="#FAFAFA"/>
<path d="M366.84 418.2C364.972 417.48 363.275 416.38 361.857 414.968C360.438 413.556 359.329 411.864 358.6 410C360.64 413.373 363.467 416.2 366.84 418.24V418.2Z" fill="#FAFAFA"/>
<path d="M303.19 170C301.58 154.79 298.67 140.48 297.88 125.57C297.911 125.196 297.864 124.82 297.742 124.465C297.62 124.111 297.425 123.785 297.17 123.51C296.952 123.383 296.711 123.301 296.46 123.27C296.21 123.239 295.956 123.259 295.714 123.329C295.472 123.399 295.246 123.518 295.051 123.678C294.856 123.838 294.696 124.036 294.58 124.26C294.144 125.196 293.971 126.233 294.08 127.26C294.097 135.189 292.744 143.062 290.08 150.53C288.37 155.38 286.08 160.03 284.8 165C283.52 169.97 285.93 171.66 288.17 176.29" fill="#FFBE9D"/>
<path d="M288.2 176.27C286.219 174.75 284.682 172.726 283.752 170.409C282.821 168.092 282.53 165.568 282.91 163.1C283.42 160.1 284.91 157.38 286.09 154.58C287.27 151.78 288.18 148.67 287.46 145.72C287.062 144.625 286.793 143.487 286.66 142.33C286.66 141.17 287.41 139.87 288.57 139.82C289.008 139.855 289.433 139.992 289.809 140.22C290.186 140.447 290.504 140.759 290.74 141.13C292.69 143.54 294.25 150.58 293.27 155.84" fill="#FFBE9D"/>
<path d="M293.27 155.84C293.27 155.84 293.37 155.03 293.43 153.57C293.493 151.511 293.322 149.451 292.92 147.43C292.651 146.038 292.249 144.675 291.72 143.36C291.442 142.644 291.065 141.971 290.6 141.36C290.391 141.032 290.118 140.75 289.796 140.532C289.475 140.313 289.112 140.163 288.73 140.09C288.337 140.109 287.961 140.256 287.659 140.509C287.357 140.761 287.147 141.106 287.06 141.49C286.846 142.343 286.902 143.241 287.22 144.06C287.556 144.975 287.791 145.924 287.92 146.89C288.017 147.89 287.98 148.899 287.81 149.89C287.11 153.95 284.95 157.23 283.81 160.48C283.248 161.998 282.947 163.601 282.92 165.22C282.914 166.63 283.123 168.033 283.54 169.38C284.146 171.345 285.169 173.157 286.54 174.69C287.54 175.76 288.19 176.23 288.16 176.28C287.981 176.189 287.814 176.079 287.66 175.95C287.208 175.606 286.784 175.228 286.39 174.82C284.928 173.312 283.833 171.489 283.19 169.49C282.734 168.112 282.498 166.671 282.49 165.22C282.499 163.549 282.793 161.892 283.36 160.32C284.46 157 286.59 153.72 287.25 149.81C287.421 148.86 287.458 147.89 287.36 146.93C287.24 145.991 287.015 145.069 286.69 144.18C286.344 143.261 286.295 142.258 286.55 141.31C286.699 140.837 286.972 140.412 287.34 140.08C287.524 139.908 287.742 139.776 287.979 139.692C288.217 139.607 288.469 139.573 288.72 139.59C289.178 139.651 289.618 139.808 290.011 140.051C290.404 140.294 290.741 140.617 291 141C291.486 141.662 291.877 142.389 292.16 143.16C292.689 144.503 293.077 145.897 293.32 147.32C293.699 149.37 293.816 151.46 293.67 153.54C293.635 154.104 293.561 154.666 293.45 155.22C293.42 155.434 293.359 155.643 293.27 155.84Z" fill="#EB996E"/>
<path d="M424 237.05C424.327 238.481 425.101 239.77 426.211 240.73C427.321 241.69 428.707 242.272 430.17 242.39C431.636 242.462 433.096 242.16 434.413 241.513C435.73 240.866 436.861 239.894 437.7 238.69C439.361 236.241 440.029 233.253 439.57 230.33C439 226.12 436.2 222.07 432.14 220.82C428.08 219.57 423.03 221.82 421.91 225.9L417.23 232.43L424 237.05Z" fill="#263238"/>
<path d="M418.47 224.22C418.924 220.601 418.646 216.928 417.654 213.419C416.661 209.909 414.973 206.635 412.691 203.79C410.409 200.946 407.578 198.588 404.367 196.859C401.157 195.129 397.631 194.061 394 193.72C379.49 192.34 366.58 203.15 364.41 217.57C362.5 230.21 360.86 242.97 360.92 247.57C361.1 261.57 369.27 266.99 372.59 268.57C373.782 269 375.015 269.305 376.27 269.48C376.282 269.482 376.293 269.487 376.303 269.494C376.314 269.501 376.322 269.51 376.329 269.52C376.335 269.53 376.34 269.542 376.342 269.554C376.343 269.566 376.343 269.578 376.34 269.59L373.24 285.59C371.83 296.1 377.7 305.48 388.19 307.01C398.68 308.54 406.95 300.47 408.56 289.95L418.47 224.22Z" fill="#FFBE9D"/>
<path d="M366.82 225.74C367.05 226.07 368.89 225.08 371.26 225.43C373.63 225.78 375.18 227.22 375.48 226.96C375.63 226.85 375.42 226.3 374.75 225.64C373.83 224.78 372.667 224.225 371.42 224.05C370.189 223.871 368.933 224.085 367.83 224.66C367 225.11 366.7 225.59 366.82 225.74Z" fill="#263238"/>
<path d="M387.86 230.3C388.09 230.63 389.94 229.64 392.3 229.99C394.66 230.34 396.23 231.78 396.53 231.52C396.67 231.41 396.47 230.86 395.79 230.19C394.872 229.335 393.713 228.783 392.47 228.61C391.239 228.43 389.983 228.644 388.88 229.22C388.07 229.67 387.75 230.15 387.86 230.3Z" fill="#263238"/>
<path d="M379.68 241.48C378.49 240.91 377.233 240.49 375.94 240.23C375.34 240.08 374.79 239.87 374.75 239.45C374.789 238.82 375.019 238.216 375.41 237.72L377.87 233.38C381.3 227.19 383.87 222.07 383.63 221.93C383.39 221.79 380.39 226.7 376.96 232.93L374.57 237.3C374.091 237.979 373.858 238.801 373.91 239.63C373.973 239.85 374.084 240.054 374.234 240.226C374.384 240.399 374.571 240.537 374.78 240.63C375.1 240.767 375.436 240.864 375.78 240.92C377.051 241.271 378.361 241.459 379.68 241.48Z" fill="#263238"/>
<path d="M376.36 269.58C376.36 269.58 385.36 271.66 397.81 266.46C397.81 266.46 392.45 278.01 375.53 273.9L376.36 269.58Z" fill="#EB996E"/>
<path d="M379.85 247.33C380.38 246.842 381.024 246.495 381.723 246.321C382.421 246.146 383.153 246.149 383.85 246.33C384.365 246.457 384.849 246.685 385.275 247.001C385.7 247.317 386.059 247.714 386.33 248.17C386.59 248.609 386.707 249.118 386.666 249.626C386.624 250.135 386.427 250.618 386.1 251.01C385.66 251.382 385.119 251.612 384.546 251.671C383.973 251.73 383.396 251.614 382.89 251.34C381.828 250.787 380.89 250.025 380.13 249.1C379.886 248.874 379.689 248.602 379.55 248.3C379.481 248.156 379.457 247.995 379.482 247.838C379.507 247.681 379.579 247.535 379.69 247.42" fill="#EB996E"/>
<path d="M386.4 244.13C386.02 244.05 385.64 246.62 383.18 248.13C380.72 249.64 378.02 248.95 377.95 249.31C377.89 249.47 378.49 249.9 379.64 250.1C381.14 250.337 382.676 250.04 383.98 249.26C385.231 248.508 386.141 247.3 386.52 245.89C386.77 244.82 386.58 244.14 386.4 244.13Z" fill="#263238"/>
<path d="M389.49 222.6C389.63 223.28 392.04 223.32 394.76 224.06C397.48 224.8 399.63 225.88 400.08 225.36C400.28 225.11 399.98 224.45 399.17 223.69C398.072 222.751 396.775 222.073 395.377 221.709C393.979 221.346 392.516 221.305 391.1 221.59C390 221.85 389.44 222.28 389.49 222.6Z" fill="#263238"/>
<path d="M369.21 218.45C369.54 219.05 371.26 218.73 373.21 218.99C375.16 219.25 376.78 219.87 377.21 219.37C377.42 219.12 377.21 218.54 376.58 217.93C375.696 217.176 374.607 216.703 373.453 216.571C372.299 216.439 371.131 216.655 370.1 217.19C369.37 217.64 369.06 218.16 369.21 218.45Z" fill="#263238"/>
<path d="M361.67 214.44C364.56 218.85 373.74 216.12 379.28 213.09C382.174 214.936 385.674 215.58 389.035 214.885C392.397 214.191 395.355 212.212 397.28 209.37C400.45 213.37 406.9 212.07 409.28 207.52C411.66 202.97 410.28 196.7 407.08 192.72C403.88 188.74 399.14 186.72 394.48 185.87C383.43 183.87 371.4 188.11 364.79 198.1C361.74 202.71 359.91 208.92 361.72 214.44" fill="#263238"/>
<path d="M392.21 187.44C392.21 187.64 389.6 187.14 385.5 187.82C380.174 188.706 375.293 191.333 371.62 195.29C368.163 199.433 365.877 204.426 365 209.75C364.696 211.97 364.579 214.211 364.65 216.45C364.437 215.872 364.312 215.265 364.28 214.65C364.105 212.986 364.132 211.307 364.36 209.65C365.085 204.119 367.383 198.913 370.98 194.65C374.782 190.533 379.905 187.876 385.46 187.14C387.118 186.917 388.796 186.89 390.46 187.06C391.059 187.096 391.65 187.225 392.21 187.44Z" fill="#455A64"/>
<path d="M377.27 208C377.105 207.494 377.031 206.962 377.05 206.43C376.997 204.979 377.149 203.529 377.5 202.12C378.035 199.758 379.048 197.53 380.476 195.574C381.904 193.618 383.718 191.974 385.805 190.745C387.892 189.516 390.208 188.728 392.612 188.427C395.015 188.127 397.455 188.322 399.78 189C401.183 189.385 402.529 189.957 403.78 190.7C404.262 190.951 404.693 191.29 405.05 191.7C403.306 190.875 401.492 190.205 399.63 189.7C395.101 188.546 390.299 189.23 386.272 191.601C382.245 193.973 379.318 197.84 378.13 202.36C377.15 205.7 377.46 208 377.27 208Z" fill="#455A64"/>
<path d="M403.78 203.2C402.696 207.114 402.072 211.141 401.92 215.2C401.77 219.281 403.039 223.288 405.51 226.54C409.37 231.19 415.81 232.61 421.75 233.74C424.928 225.813 425.885 217.17 424.52 208.74C423.84 204.65 422.52 200.48 419.64 197.5C417.499 195.388 414.717 194.045 411.731 193.683C408.746 193.322 405.724 193.96 403.14 195.5" fill="#263238"/>
<path d="M407.08 222.56C405.52 225.94 405.63 229.85 406.17 233.56C406.71 237.27 407.65 240.9 407.61 244.62C407.57 248.34 406.39 252.29 403.47 254.62C402.584 255.21 401.754 255.88 400.99 256.62C400.613 256.996 400.36 257.479 400.267 258.003C400.174 258.527 400.245 259.067 400.47 259.55C401.03 260.45 402.72 260.43 402.96 259.4L402.81 259.66C402.663 259.909 402.583 260.193 402.58 260.482C402.577 260.771 402.65 261.057 402.792 261.309C402.934 261.561 403.139 261.772 403.388 261.919C403.637 262.067 403.921 262.147 404.21 262.15C405.232 262.101 406.233 261.843 407.151 261.393C408.07 260.942 408.886 260.308 409.55 259.53C411.46 257.32 412.22 254.35 412.72 251.53C414.26 242.7 413.96 233.53 416.4 224.92" fill="#263238"/>
<path d="M373.17 280.55C373.859 283.558 375.187 286.383 377.063 288.832C378.94 291.282 381.322 293.299 384.047 294.746C386.773 296.194 389.777 297.038 392.858 297.222C395.938 297.405 399.022 296.924 401.9 295.81C407.08 293.81 411.26 289.91 415.29 286.1C416.011 290.437 415.813 294.878 414.707 299.133C413.602 303.389 411.614 307.365 408.873 310.803C406.132 314.241 402.699 317.064 398.796 319.089C394.894 321.115 390.609 322.297 386.22 322.56C379.59 322.96 372.47 320.94 368.3 315.77C365.39 312.17 364.22 307.4 364.3 302.77C364.502 298.133 365.385 293.551 366.92 289.17C368.1 285.39 369.97 281.17 373.79 280.12" fill="#E3B76B"/>
<path d="M420.61 234C424.61 236.15 426.75 240.65 427.52 245.09C428.29 249.53 427.9 254.09 428.09 258.58C428.28 263.07 429.14 267.79 431.99 271.28C434.99 275 439.74 276.76 443.99 279.03C453.31 284.03 460.99 292.56 463.79 302.78C466.59 313 464.05 324.78 456.4 332.13C449.4 338.79 439.3 341.13 429.66 341.13C422.79 341.13 415.24 339.65 410.95 334.28C406.66 328.91 406.95 321.38 408.45 314.76C409.95 308.14 412.7 301.71 412.81 294.92C411.783 299.124 409.994 303.103 407.53 306.66C406.82 307.66 405.61 308.76 404.53 308.18C403.45 307.6 403.78 305.73 404.34 304.48C412.62 286.05 409.74 248.9 414.65 228.55" fill="#263238"/>
<path d="M413.79 231.91C414.04 231.83 423.71 230 422.46 239.56C421.21 249.12 411.88 245.9 411.9 245.63C411.92 245.36 413.79 231.91 413.79 231.91Z" fill="#FFBE9D"/>
<path d="M415.29 242.39C415.29 242.39 415.44 242.52 415.71 242.69C416.084 242.91 416.528 242.978 416.95 242.88C418.01 242.64 419.07 241.14 419.34 239.43C419.466 238.611 419.412 237.775 419.18 236.98C419.13 236.669 419.004 236.376 418.814 236.125C418.624 235.874 418.375 235.673 418.09 235.54C417.91 235.476 417.715 235.474 417.534 235.534C417.353 235.594 417.197 235.712 417.09 235.87C416.93 236.12 416.96 236.32 416.91 236.33C416.86 236.34 416.73 236.14 416.85 235.76C416.936 235.529 417.098 235.335 417.31 235.21C417.459 235.121 417.624 235.063 417.796 235.041C417.969 235.018 418.143 235.032 418.31 235.08C418.693 235.209 419.036 235.434 419.307 235.734C419.579 236.033 419.769 236.396 419.86 236.79C420.156 237.671 420.235 238.611 420.09 239.53C419.78 241.45 418.56 243.12 417.09 243.34C416.824 243.383 416.551 243.364 416.293 243.286C416.035 243.208 415.798 243.073 415.6 242.89C415.28 242.62 415.26 242.4 415.29 242.39Z" fill="#EB996E"/>
<path d="M363.29 301.15C363.759 300.129 364.301 299.144 364.91 298.2C366.304 295.893 367.46 293.451 368.36 290.91C369.235 288.367 369.529 285.661 369.22 282.99C369.025 281.894 368.772 280.809 368.46 279.74C368.648 279.983 368.794 280.257 368.89 280.55C369.216 281.316 369.451 282.119 369.59 282.94C370.011 285.669 369.76 288.46 368.86 291.07C367.952 293.649 366.733 296.107 365.23 298.39C364.67 299.27 364.23 299.97 363.86 300.44C363.49 300.91 363.32 301.17 363.29 301.15Z" fill="#263238"/>
<path d="M368.16 290.12C368.02 290.12 367.75 289.3 366.89 288.73C366.03 288.16 365.17 288.16 365.15 288.01C365.13 287.86 365.36 287.84 365.75 287.83C366.267 287.835 366.77 287.999 367.19 288.3C367.613 288.596 367.94 289.01 368.13 289.49C368.26 289.86 368.23 290.1 368.16 290.12Z" fill="#FAFAFA"/>
<path d="M374.34 290.1C373.591 289.258 372.768 288.485 371.88 287.79C370.895 287.239 369.856 286.79 368.78 286.45C369.376 286.368 369.982 286.406 370.562 286.562C371.143 286.718 371.686 286.99 372.16 287.36C373.217 287.954 373.999 288.937 374.34 290.1Z" fill="#FAFAFA"/>
<path d="M378.22 310.39C378.243 309.011 378.438 307.641 378.8 306.31C378.993 304.936 379.359 303.592 379.89 302.31C379.867 303.692 379.672 305.066 379.31 306.4C379.116 307.771 378.75 309.111 378.22 310.39Z" fill="#FAFAFA"/>
<path d="M393.82 313.45C393.57 310.58 393.66 307.689 394.09 304.84C394.353 307.71 394.263 310.602 393.82 313.45Z" fill="#FAFAFA"/>
<path d="M133.62 269.61C133.62 269.61 94.72 286.54 89.86 294.18C85 301.82 69 356.29 69 356.29L110 368.29L109.3 425H209.8L208.97 325L196.37 269.74C196.37 269.74 174.18 268.31 172.12 267.3C170.06 266.29 133.62 269.61 133.62 269.61Z" fill="#E3B76B"/>
<path d="M75.3099 357.89L59.8899 425.04L92.4999 425.14L107.56 366.09L75.3099 357.89Z" fill="#FFBE9D"/>
<path d="M235.45 275.39C232.35 271.24 228.79 267.25 227.16 262.33C226.37 259.95 226.06 257.43 225.22 255.07C224.38 252.71 222.85 250.41 220.51 249.52C218.17 248.63 216.39 249.52 214.87 251.2L203.68 283.93L210.13 309.07C216.57 307.62 224.63 305.9 230.65 303.19C236.67 300.48 240.65 296.14 241.07 289.55C241.36 284.38 238.55 279.55 235.45 275.39Z" fill="#263238"/>
<path d="M271.86 131C272.18 128.71 270.57 126.19 271.73 124.18C272.497 123.144 273.594 122.4 274.84 122.07C275.444 121.794 276.096 121.641 276.76 121.62C277.091 121.615 277.416 121.707 277.695 121.884C277.974 122.062 278.195 122.318 278.33 122.62C278.402 123.003 278.368 123.397 278.232 123.762C278.097 124.127 277.864 124.448 277.56 124.69C276.951 125.169 276.438 125.759 276.05 126.43C275.778 128.076 275.905 129.763 276.42 131.35C277.752 134.842 278.858 138.416 279.73 142.05" fill="#FFBE9D"/>
<path d="M263.65 131.78C263.79 128.31 266.65 114.64 266.75 111.17C269.1 111.89 270.46 114.39 270.9 116.81C271.34 119.23 271.11 121.72 271.53 124.14C272.09 127.39 273.78 130.32 275.48 133.14C277.18 135.96 278.96 138.83 279.73 142.03C280.5 145.23 283.4 153.55 281.14 155.95" fill="#FFBE9D"/>
<path d="M263 155.18L249.09 221.26C248.6 224.26 196.37 269.81 196.37 269.81L206.68 311L274.68 244.47C279.59 239.221 282.262 232.266 282.13 225.08L280.97 163.08L263 155.18Z" fill="#FFBE9D"/>
<path d="M260.62 132.2L263 155.2L281 163.12C281 163.12 281.22 161.49 282 153.52C282.85 144.74 273.41 140.97 269.2 134.52C267.4 131.75 267.87 126.65 266.48 120.33C266.32 119.6 265.32 115.18 264.78 112.81C264.496 111.493 263.724 110.332 262.62 109.56C261.8 109.02 260.88 108.75 260.21 109.56C259.54 110.37 260.62 132.2 260.62 132.2Z" fill="#FFBE9D"/>
<path d="M271.86 159C273.86 157.27 274.34 154.17 273.59 151.6C272.672 149.069 271.223 146.764 269.34 144.84C267.46 142.92 265.879 140.729 264.65 138.34C263.89 136.62 263.53 134.72 262.65 133.03C261.77 131.34 260.28 129.79 258.4 129.72C259.91 139.23 259.87 144.72 262.96 155.14" fill="#FFBE9D"/>
<path d="M260.27 140.58C260.27 140.58 260.2 140.32 260.09 139.82C259.98 139.32 259.79 138.49 259.61 137.64C259.18 135.64 258.61 133.09 258.02 130.16L257.96 129.88H258.25C258.865 129.858 259.479 129.957 260.056 130.174C260.633 130.39 261.161 130.718 261.61 131.14C262.983 132.447 263.96 134.114 264.43 135.95C264.829 137.377 265.354 138.766 266 140.1C266.489 140.976 267.08 141.792 267.76 142.53C268.008 142.814 268.21 143.134 268.36 143.48C268.086 143.226 267.832 142.952 267.6 142.66C266.856 141.957 266.21 141.156 265.68 140.28C264.973 138.942 264.398 137.539 263.96 136.09C263.495 134.346 262.561 132.762 261.26 131.51C260.449 130.749 259.372 130.336 258.26 130.36L258.5 130.06C259.71 136.08 260.49 140.59 260.27 140.58Z" fill="#7C5142"/>
<path d="M268.36 134.73C267.634 131.636 267.08 128.505 266.7 125.35C266.144 122.22 265.76 119.062 265.55 115.89C266.281 118.986 266.835 122.121 267.21 125.28C267.765 128.407 268.149 131.562 268.36 134.73Z" fill="#7C5142"/>
<path d="M274.09 135.51C274.09 135.51 274.16 135.61 274.22 135.86H274.07C273.326 133.72 272.718 131.536 272.25 129.32C271.82 127.39 271.51 125.63 271.32 124.32C271.166 123.635 271.105 122.932 271.14 122.23C271.29 122.23 271.9 125.34 272.76 129.23C273.45 132.34 274.09 134.96 274.22 135.84H274.07C274.06 135.63 274.06 135.51 274.09 135.51Z" fill="#7C5142"/>
<path d="M277.64 148.18C277.56 148.18 277.2 147.66 276.48 146.89C274.578 144.869 271.996 143.622 269.23 143.39C268.651 143.395 268.073 143.358 267.5 143.28C268.054 143.065 268.648 142.977 269.24 143.02C270.681 143.038 272.101 143.373 273.399 144C274.696 144.627 275.84 145.532 276.75 146.65C277.159 147.086 277.464 147.609 277.64 148.18Z" fill="#7C5142"/>
<path d="M264.63 157C264.135 156.139 263.736 155.227 263.44 154.28C262.618 152.036 261.93 149.745 261.38 147.42C260.82 145.114 260.4 142.776 260.12 140.42C259.956 139.429 259.896 138.423 259.94 137.42C260.191 138.375 260.371 139.348 260.48 140.33C260.78 142.12 261.24 144.6 261.88 147.33C262.52 150.06 263.24 152.45 263.79 154.19C264.135 155.106 264.415 156.045 264.63 157Z" fill="#7C5142"/>
<path d="M184.16 271C185.051 269.636 186.433 268.667 188.019 268.294C189.606 267.922 191.275 268.175 192.68 269C200.02 263 207.53 257.18 214.87 251.21C212.47 263.21 210.87 279.94 216.24 290.92C216.24 290.92 223.01 303.5 233.79 301.58L224.17 311L209 325.07" fill="#E3B76B"/>
<path d="M181.78 276.6C181.791 274.99 182.282 273.42 183.19 272.09C183.956 270.67 185.125 269.508 186.55 268.75C184.29 270.896 182.644 273.606 181.78 276.6Z" fill="#263238"/>
<path d="M189.71 284C189.294 283.334 189.009 282.594 188.87 281.82C188.438 279.966 188.387 278.043 188.719 276.168C189.05 274.293 189.758 272.504 190.8 270.91C191.197 270.228 191.72 269.628 192.34 269.14C192.41 269.2 191.83 269.88 191.12 271.14C190.196 272.734 189.557 274.477 189.23 276.29C188.917 278.107 188.917 279.964 189.23 281.78C189.48 283.08 189.79 283.92 189.71 284Z" fill="#263238"/>
<path d="M226.45 309.68C225.712 310.139 224.905 310.477 224.06 310.68C221.75 311.237 219.333 311.165 217.06 310.47C213.694 309.401 210.749 307.303 208.64 304.47C206.107 300.997 204.397 296.992 203.64 292.76C202.228 285.139 201.824 277.366 202.44 269.64C202.67 266.64 203 264.3 203.28 262.64C203.41 261.82 203.53 261.19 203.62 260.76C203.651 260.539 203.705 260.321 203.78 260.11C203.787 260.335 203.767 260.56 203.72 260.78L203.48 262.67C203.27 264.31 202.99 266.67 202.81 269.67C202.298 277.363 202.749 285.089 204.15 292.67C204.899 296.793 206.555 300.697 209 304.1C211.022 306.904 213.873 309.002 217.15 310.1C219.363 310.813 221.723 310.94 224 310.47C224.833 310.262 225.652 309.998 226.45 309.68Z" fill="#FAFAFA"/>
<path d="M110.19 385.17C110.05 385.17 109.93 370.95 109.93 353.42C109.93 335.89 110.05 321.67 110.19 321.67C110.33 321.67 110.45 335.88 110.45 353.42C110.45 370.96 110.34 385.17 110.19 385.17Z" fill="#263238"/>
<path d="M109.39 310.7C109.28 310.7 109.31 309.28 108.82 307.07C108.528 305.779 108.109 304.519 107.57 303.31C106.898 301.839 106.07 300.444 105.1 299.15C104.103 297.874 102.973 296.707 101.73 295.67C100.706 294.833 99.6043 294.096 98.4398 293.47C96.4398 292.42 95.0498 292.07 95.0798 291.97C95.4211 291.987 95.758 292.055 96.0798 292.17C96.4588 292.264 96.83 292.388 97.1898 292.54C97.6804 292.709 98.1583 292.913 98.6198 293.15C99.8211 293.738 100.955 294.456 102 295.29C103.284 296.338 104.447 297.526 105.47 298.83C106.468 300.157 107.307 301.597 107.97 303.12C108.514 304.365 108.92 305.666 109.18 307C109.282 307.508 109.353 308.023 109.39 308.54C109.437 308.928 109.457 309.319 109.45 309.71C109.468 310.041 109.448 310.373 109.39 310.7Z" fill="#263238"/>
<path d="M177.88 269.17C177.963 269.448 178.02 269.732 178.05 270.02C178.185 270.831 178.272 271.649 178.31 272.47C178.429 275.504 178.006 278.535 177.06 281.42C175.651 285.723 173.153 289.588 169.81 292.64C165.617 296.305 160.35 298.515 154.797 298.94C149.244 299.366 143.703 297.983 139 295C135.241 292.484 132.195 289.04 130.16 285C128.797 282.289 127.926 279.356 127.59 276.34C127.509 275.523 127.472 274.702 127.48 273.88C127.456 273.594 127.456 273.306 127.48 273.02C127.527 273.301 127.55 273.585 127.55 273.87C127.576 274.686 127.642 275.501 127.75 276.31C128.16 279.283 129.073 282.164 130.45 284.83C132.49 288.788 135.509 292.158 139.22 294.62C143.838 297.524 149.265 298.87 154.704 298.461C160.143 298.053 165.308 295.911 169.44 292.35C172.747 289.361 175.233 285.573 176.66 281.35C177.618 278.506 178.092 275.521 178.06 272.52C178.06 271.46 177.97 270.64 177.89 270.08C177.81 269.52 177.87 269.18 177.88 269.17Z" fill="#263238"/>
<path d="M109.33 355.93C109.33 356.07 101.02 353.46 90.8798 350.11C80.7398 346.76 72.5498 343.93 72.5998 343.79C72.6498 343.65 80.8998 346.26 91.0498 349.61C101.2 352.96 109.37 355.79 109.33 355.93Z" fill="#FAFAFA"/>
<path d="M208 342.05C208 342.2 185.95 342.41 158.75 342.52C131.55 342.63 109.49 342.61 109.49 342.52C109.49 342.43 131.54 342.16 158.75 342.05C185.96 341.94 208 341.91 208 342.05Z" fill="#FAFAFA"/>
<path d="M208.5 350.76C208.5 350.9 186.33 351.02 159 351.02C131.67 351.02 109.49 350.9 109.49 350.76C109.49 350.62 131.65 350.5 159 350.5C186.35 350.5 208.5 350.61 208.5 350.76Z" fill="#FAFAFA"/>
<path d="M194.92 361.34C194.852 361.618 194.759 361.889 194.64 362.15C194.42 362.71 194.12 363.47 193.75 364.43L193.09 366.07C192.83 366.67 192.52 367.3 192.2 367.99C191.54 369.35 190.86 370.93 189.91 372.59L188.47 375.21C187.97 376.12 187.37 377.02 186.79 377.98C185.65 379.91 184.25 381.85 182.79 383.92C179.543 388.319 175.966 392.464 172.09 396.32C168.159 400.123 163.943 403.619 159.48 406.78C157.38 408.18 155.41 409.55 153.48 410.65C152.48 411.21 151.6 411.79 150.68 412.28L148 413.66C146.33 414.57 144.73 415.23 143.36 415.86C142.67 416.16 142.03 416.46 141.43 416.71L139.77 417.34L137.48 418.19C137.216 418.303 136.941 418.39 136.66 418.45C136.91 418.309 137.17 418.188 137.44 418.09L139.7 417.15L141.33 416.48C141.93 416.22 142.56 415.91 143.24 415.59C144.6 414.94 146.18 414.26 147.83 413.33L150.46 411.93C151.37 411.43 152.28 410.84 153.24 410.28C155.17 409.17 157.12 407.79 159.24 406.39C168.147 400.105 175.981 392.423 182.44 383.64C183.89 381.59 185.3 379.64 186.44 377.75C187.03 376.8 187.64 375.91 188.15 375.01L189.6 372.41C190.6 370.78 191.27 369.21 191.95 367.86C192.28 367.18 192.61 366.56 192.88 365.97C193.15 365.38 193.37 364.84 193.58 364.35C193.99 363.41 194.32 362.67 194.58 362.11C194.68 361.848 194.793 361.591 194.92 361.34Z" fill="#263238"/>
<g opacity="0.3">
<path d="M190.86 370C184.14 378.18 177.1 384.11 167.23 387.93C162.5 389.75 157.55 391 152.97 393.17C148.39 395.34 144.07 398.61 141.97 403.24C140.38 406.82 141.15 412.24 144.97 413.02C146.454 413.202 147.959 412.97 149.32 412.35C168.87 405.26 181.72 387.35 190.8 370" fill="black"/>
</g>
<path d="M252.12 109.76C252.03 109.87 246.41 105.3 239.56 99.55C232.71 93.8 227.24 89 227.34 88.93C227.44 88.86 233.05 93.39 239.9 99.15C246.75 104.91 252.22 109.65 252.12 109.76Z" fill="#263238"/>
<path d="M280.64 102.91C280.5 102.91 279.93 94.0299 279.38 83.0599C278.83 72.0899 278.49 63.1899 278.63 63.1799C278.77 63.1699 279.34 72.0599 279.9 83.0399C280.46 94.0199 280.78 102.91 280.64 102.91Z" fill="#263238"/>
<path d="M262.48 96.56C262.34 96.56 260.59 91.56 258.56 85.23C256.53 78.9 255 73.79 255.14 73.75C255.28 73.71 257.03 78.75 259.06 85.07C261.09 91.39 262.61 96.52 262.48 96.56Z" fill="#263238"/>
<path d="M246.29 119.14C243.657 118.214 241.082 117.128 238.58 115.89C236.005 114.804 233.5 113.558 231.08 112.16C233.713 113.086 236.288 114.172 238.79 115.41C241.364 116.498 243.869 117.744 246.29 119.14Z" fill="#263238"/>
<path d="M220 107.65C220 107.79 219.15 107.81 218.14 107.65C217.13 107.49 216.33 107.31 216.35 107.17C216.37 107.03 217.2 107.01 218.2 107.17C219.2 107.33 220 107.51 220 107.65Z" fill="#263238"/>
<path d="M255.79 67.2899C255.64 67.2899 255.53 66.4799 255.53 65.4699C255.53 64.4599 255.64 63.6399 255.79 63.6399C255.94 63.6399 256.05 64.4599 256.05 65.4699C256.05 66.4799 255.93 67.2899 255.79 67.2899Z" fill="#263238"/>
<path d="M316 81.4099C316.11 81.5099 311.49 86.7999 305.7 93.2299C299.91 99.6599 295.13 104.8 295 104.7C294.87 104.6 299.51 99.3199 305.3 92.8799C311.09 86.4399 315.9 81.3199 316 81.4099Z" fill="#263238"/>
<path d="M323.35 74.1398C323.45 74.2398 322.92 74.9398 322.16 75.6998C321.4 76.4598 320.71 76.9798 320.61 76.8798C320.51 76.7798 321.04 76.0799 321.8 75.3299C322.56 74.5799 323.25 73.9998 323.35 74.1398Z" fill="#263238"/>
<path d="M341.17 99.74C340.741 100.049 340.286 100.32 339.81 100.55C338.92 101.04 337.62 101.73 336 102.55C332.75 104.19 328.2 106.33 323.08 108.46C317.96 110.59 313.23 112.29 309.77 113.46C308.05 114.03 306.65 114.46 305.67 114.75C305.174 114.93 304.662 115.061 304.14 115.14C304.613 114.906 305.105 114.712 305.61 114.56L309.61 113.11C313.03 111.88 317.72 110.11 322.84 108.01C327.96 105.91 332.51 103.8 335.84 102.25L339.72 100.41C340.186 100.151 340.671 99.9272 341.17 99.74Z" fill="#263238"/>
<path d="M326.55 124.36C325.696 124.74 324.804 125.032 323.89 125.23C322.23 125.69 319.89 126.23 317.31 126.68C314.73 127.13 312.31 127.38 310.62 127.5C309.695 127.618 308.759 127.634 307.83 127.55C308.738 127.341 309.661 127.2 310.59 127.13C312.29 126.92 314.64 126.6 317.22 126.13C319.8 125.66 322.13 125.21 323.81 124.85C324.706 124.603 325.624 124.438 326.55 124.36Z" fill="#263238"/>
<path d="M339.84 121.9C337.936 122.247 335.984 122.247 334.08 121.9C335.984 121.553 337.936 121.553 339.84 121.9Z" fill="#263238"/>
<path d="M126.164 207.211C126.164 207.211 132.303 273.5 132.784 284C133.265 294.5 171.25 293 171.25 280.925C171.25 268.85 171.25 259.06 171.25 259.06C171.25 259.06 187.248 256.585 187.436 240.589C187.548 232.807 186.423 216.756 185.26 202.298C184.641 194.568 181.013 187.389 175.156 182.304C169.3 177.22 161.682 174.636 153.94 175.108C149.988 175.336 146.122 176.355 142.571 178.104C139.019 179.853 135.855 182.296 133.265 185.289C130.675 188.283 128.713 191.765 127.493 195.531C126.273 199.296 125.821 203.268 126.164 207.211Z" fill="#FFBE9D"/>
<path d="M181.362 215.259C181.113 215.556 179.406 214.386 177.077 214.497C174.749 214.609 173.095 215.946 172.829 215.649C172.562 215.352 172.953 214.98 173.664 214.386C174.631 213.611 175.801 213.164 177.018 213.105C178.235 213.045 179.441 213.375 180.473 214.052C181.22 214.59 181.486 215.11 181.362 215.259Z" fill="#263238"/>
<path d="M158.878 215.652C158.593 215.936 156.991 214.595 154.66 214.538C152.329 214.481 150.585 215.652 150.336 215.35C150.087 215.048 150.496 214.67 151.261 214.122C152.29 213.409 153.503 213.052 154.731 213.102C155.945 213.137 157.116 213.581 158.077 214.368C158.771 214.972 159.002 215.52 158.878 215.652Z" fill="#263238"/>
<path d="M166.903 231.155C168.119 230.736 169.382 230.488 170.659 230.419C171.258 230.419 171.805 230.23 171.91 229.796C171.965 229.139 171.83 228.48 171.523 227.908C170.958 226.373 170.371 224.768 169.759 223.094C168.139 219.016 166.824 214.806 165.827 210.504C167.75 214.436 169.377 218.527 170.694 222.736C171.276 224.416 171.822 226.02 172.369 227.568C172.728 228.332 172.833 229.204 172.669 230.041C172.584 230.265 172.453 230.465 172.285 230.625C172.117 230.785 171.916 230.902 171.699 230.966C171.372 231.066 171.034 231.116 170.694 231.117C169.436 231.288 168.163 231.301 166.903 231.155Z" fill="#263238"/>
<path d="M159.349 232.121C159.781 232.121 159.781 235.031 162.177 237.115C164.572 239.2 167.537 238.89 167.556 239.303C167.576 239.716 166.889 239.86 165.593 239.902C163.956 239.921 162.365 239.337 161.097 238.25C159.895 237.218 159.115 235.741 158.917 234.123C158.858 232.843 159.173 232.1 159.349 232.121Z" fill="#263238"/>
<path d="M158.035 204.654C157.792 205.36 155.348 205.027 152.438 205.399C149.528 205.772 147.252 206.576 146.841 205.949C146.673 205.654 147.084 204.987 148.017 204.321C149.262 203.471 150.682 202.947 152.158 202.791C153.622 202.606 155.106 202.795 156.486 203.34C157.605 203.791 158.128 204.34 158.035 204.654Z" fill="#263238"/>
<path d="M181.318 205.86C180.821 206.582 178.927 205.86 176.629 205.86C174.33 205.86 172.381 206.334 171.939 205.612C171.737 205.241 172.05 204.539 172.896 203.879C174.038 203.083 175.364 202.681 176.708 202.725C178.052 202.769 179.355 203.257 180.454 204.127C181.263 204.787 181.539 205.53 181.318 205.86Z" fill="#263238"/>
<path d="M134.406 182.02C131.713 177.592 139.114 171.253 144.537 169.55C149.96 167.847 157.097 170.477 162.501 172.275C165.891 173.41 169.299 175 172.877 174.848C175.273 174.601 177.621 174.002 179.844 173.07C182.064 172.12 184.456 171.644 186.868 171.67C188.074 171.702 189.248 172.062 190.266 172.711C191.284 173.361 192.108 174.276 192.649 175.359C192.885 175.912 192.999 176.51 192.983 177.111C192.968 177.713 192.822 178.304 192.557 178.843C192.292 179.383 191.914 179.858 191.449 180.237C190.984 180.615 190.442 180.888 189.862 181.036C190.625 180.619 191.476 180.394 192.344 180.38C193.212 180.365 194.07 180.562 194.846 180.952C195.622 181.343 196.293 181.916 196.801 182.624C197.309 183.331 197.639 184.151 197.764 185.014C197.888 185.877 197.804 186.758 197.516 187.581C197.229 188.404 196.748 189.145 196.115 189.741C195.481 190.337 194.713 190.771 193.877 191.004C193.041 191.238 192.161 191.265 191.312 191.084C192.875 189.892 195.266 191.859 195.078 193.827C194.867 194.794 194.409 195.688 193.748 196.421C193.088 197.155 192.248 197.702 191.312 198.009C186.736 200.015 181.388 199.371 176.643 197.782C171.898 196.193 167.51 193.676 162.821 191.954C158.133 190.232 150.243 187.148 145.535 188.813C142.051 190.043 139.641 194.244 137.683 193.316C136.756 192.823 135.957 192.117 135.352 191.255C134.747 190.394 134.352 189.402 134.199 188.359C133.938 186.267 134.008 184.147 134.406 182.077" fill="#263238"/>
<path d="M141.616 191.077C138.96 193.121 137.214 196.096 136.744 199.376V199.701C136.082 204.347 136.218 209.089 135.516 213.735C135.064 218.449 133.004 222.875 129.67 226.298C128.227 227.617 125.772 228.535 124.505 226.986C124.097 226.344 123.888 225.601 123.901 224.845C123.024 213.621 119.886 203.659 120.003 191.899C119.997 190.327 120.374 188.776 121.103 187.376C121.832 185.976 122.892 184.767 124.193 183.85C126.688 182.071 129.748 180.255 132.535 181.536C135.321 182.817 138.927 187.961 141.09 190.121" fill="#263238"/>
<path d="M126.364 215.692C126.364 215.692 126.859 215.382 127.295 214.493C127.88 213.207 128.079 211.785 127.869 210.393C127.631 206.757 124.326 202.87 123.91 197.842C123.58 195.52 123.995 193.155 125.098 191.073C126.078 189.434 127.589 188.161 129.393 187.456C130.602 186.95 131.928 186.77 133.232 186.934C134.163 187.089 134.657 187.302 134.697 187.205C134.737 187.108 134.301 186.799 133.331 186.509C131.931 186.166 130.458 186.233 129.096 186.702C127.054 187.404 125.321 188.769 124.187 190.57C122.895 192.8 122.368 195.375 122.683 197.919C122.974 200.403 123.725 202.814 124.9 205.036C125.845 206.752 126.544 208.587 126.978 210.489C127.336 212.244 127.121 214.063 126.364 215.692Z" fill="#455A64"/>
</svg>
