<svg width="478" height="427" viewBox="0 0 478 427" fill="none" xmlns="http://www.w3.org/2000/svg">
<path d="M69.8405 116.447C77.4613 98.8238 89.7092 82.8821 106.053 72.7586C122.397 62.6351 142.934 58.7965 161.314 64.3491C207.771 78.3756 224.155 142.73 270.58 156.893C301.418 166.284 334.605 149.803 366.577 153.972C398.299 158.1 412.092 184.672 419.383 215.823C422.851 230.655 419.97 246.564 413.436 261.258C401.003 289.263 376.153 309.832 346.531 317.686L329.237 320.591C275.09 329.794 219.475 324.599 167.969 305.527C162.883 303.627 158.16 301.712 153.903 299.821C119.822 284.668 90.3289 258.337 73.9124 224.844C57.4959 191.352 55.0334 150.681 69.8405 116.447Z" fill="#FDD4A5"/>
<path d="M401.11 388.465C401.11 388.588 314.686 388.694 208.1 388.694C101.514 388.694 15.0632 388.588 15.0632 388.465C15.0632 388.342 101.47 388.236 208.1 388.236C314.73 388.236 401.11 388.342 401.11 388.465Z" fill="#263238"/>
<path d="M327.859 74.1903C321.55 71.4799 314.21 75.3519 311.377 79.6463C308.543 83.9407 307.32 89.0799 306.51 94.1839C304.848 104.663 304.588 115.316 305.736 125.864C306.071 128.97 306.678 132.35 309.054 134.382C311.43 136.415 314.598 136.477 317.519 135.966C320.159 135.509 322.843 134.506 324.559 132.446C327.199 129.287 326.856 124.694 326.574 120.584C325.602 106.411 327.09 92.1763 330.974 78.5111" fill="#263238"/>
<path d="M314.105 79.9279C317 74.1727 325.8 71.0663 332.91 72.9935C338.912 74.6127 345.327 80.7727 345.767 87.0735C346.392 96.2607 341.429 105.641 344.368 114.353C347.791 124.509 360.393 129.428 363.614 139.645C364.276 141.758 364.496 143.985 364.258 146.186C364.02 148.388 363.331 150.517 362.232 152.44C361.097 154.402 359.363 156.215 357.119 156.585C354.33 157.034 351.751 155.159 349.551 153.382C343.594 148.594 337.539 143.702 333.386 137.278C328.502 129.718 326.618 120.557 326.539 111.529C326.46 102.5 328.07 93.6031 329.672 84.7503" fill="#263238"/>
<path d="M339.211 91.0776C339.438 89.2747 339.301 87.4445 338.807 85.6957C338.313 83.9469 337.473 82.3152 336.336 80.8975C335.199 79.4799 333.789 78.3052 332.189 77.4433C330.589 76.5813 328.832 76.0497 327.023 75.88C319.798 75.1936 313.366 80.5792 312.283 87.76C311.333 94.052 310.523 100.414 310.523 102.72C310.611 109.681 314.686 112.4 316.331 113.201C316.924 113.415 317.538 113.568 318.162 113.658C318.166 113.666 318.169 113.676 318.169 113.685C318.169 113.694 318.166 113.703 318.162 113.711L316.613 121.702C315.909 126.938 318.839 131.602 324.058 132.367C329.276 133.133 333.403 129.111 334.204 123.875L339.211 91.0776Z" fill="#936754"/>
<path d="M313.894 91.2272C313.85 91.51 313.917 91.7989 314.081 92.0334C314.245 92.268 314.493 92.43 314.774 92.4856C314.912 92.5153 315.054 92.5175 315.193 92.492C315.332 92.4664 315.465 92.4137 315.583 92.3369C315.702 92.26 315.804 92.1606 315.884 92.0441C315.964 91.9277 316.02 91.7966 316.05 91.6584C316.091 91.376 316.024 91.0882 315.86 90.8542C315.696 90.6202 315.449 90.4577 315.17 90.4C315.031 90.3679 314.888 90.3639 314.748 90.3884C314.608 90.4128 314.475 90.4652 314.356 90.5425C314.237 90.6197 314.134 90.7201 314.055 90.8378C313.976 90.9554 313.921 91.0879 313.894 91.2272Z" fill="#263238"/>
<path d="M313.894 89.6607C314.008 89.8191 314.923 89.3263 316.102 89.5023C317.282 89.6783 318.056 90.3823 318.206 90.2679C318.355 90.1535 318.206 89.9335 317.845 89.6079C317.387 89.1766 316.805 88.8996 316.182 88.8159C315.578 88.7308 314.963 88.8353 314.422 89.1151C313.99 89.3439 313.832 89.5815 313.894 89.6607Z" fill="#263238"/>
<path d="M325.043 93.0311C324.999 93.3139 325.066 93.6027 325.23 93.8373C325.394 94.0718 325.643 94.2338 325.923 94.2895C326.061 94.3218 326.204 94.3261 326.343 94.3021C326.482 94.2782 326.615 94.2266 326.734 94.1503C326.853 94.0739 326.956 93.9745 327.036 93.8578C327.116 93.7412 327.171 93.6096 327.199 93.4711C327.246 93.188 327.18 92.898 327.015 92.6629C326.851 92.4279 326.601 92.2663 326.319 92.2127C326.182 92.1804 326.039 92.1761 325.9 92.2C325.76 92.224 325.627 92.2756 325.508 92.3519C325.389 92.4283 325.287 92.5277 325.207 92.6444C325.127 92.761 325.071 92.8925 325.043 93.0311Z" fill="#263238"/>
<path d="M325.439 91.5616C325.554 91.7288 326.478 91.236 327.648 91.412C328.818 91.588 329.61 92.292 329.76 92.1776C329.91 92.0632 329.76 91.8432 329.39 91.5088C328.931 91.0856 328.354 90.8124 327.736 90.7256C327.133 90.6386 326.517 90.7433 325.976 91.0248C325.545 91.2536 325.386 91.4912 325.439 91.5616Z" fill="#263238"/>
<path d="M319.886 99.64C319.295 99.357 318.672 99.1472 318.03 99.0153C317.73 98.9449 317.458 98.8392 317.431 98.628C317.454 98.3082 317.57 98.0021 317.766 97.748C318.153 97.0616 318.558 96.3401 318.989 95.5921C320.096 93.7708 321.055 91.8639 321.858 89.8896C320.608 91.6167 319.498 93.4412 318.54 95.3457C318.118 96.1025 317.722 96.8328 317.352 97.528C317.084 97.8799 316.958 98.3197 317 98.7601C317.029 98.8722 317.082 98.9764 317.157 99.0648C317.232 99.1532 317.325 99.2235 317.431 99.2705C317.591 99.3436 317.759 99.394 317.933 99.42C318.571 99.5794 319.228 99.6534 319.886 99.64Z" fill="#263238"/>
<path d="M318.241 113.72C318.241 113.72 322.738 114.75 328.924 112.162C328.924 112.162 326.284 117.918 317.818 115.867L318.241 113.72Z" fill="#7C5142"/>
<path d="M319.974 102.588C320.24 102.34 320.564 102.163 320.916 102.074C321.269 101.985 321.638 101.986 321.99 102.078C322.503 102.196 322.949 102.512 323.23 102.958C323.359 103.177 323.417 103.431 323.396 103.684C323.376 103.937 323.278 104.178 323.116 104.374C322.896 104.558 322.626 104.672 322.341 104.702C322.055 104.732 321.768 104.676 321.514 104.542C320.99 104.26 320.524 103.881 320.142 103.424C320.022 103.31 319.924 103.176 319.851 103.028C319.82 102.956 319.81 102.876 319.822 102.798C319.835 102.72 319.869 102.647 319.922 102.588" fill="#7C5142"/>
<path d="M323.239 100.995C323.046 100.995 322.861 102.236 321.629 102.984C320.397 103.732 319.068 103.398 319.033 103.574C318.998 103.75 319.297 103.864 319.869 103.97C320.618 104.085 321.383 103.935 322.034 103.547C322.657 103.171 323.111 102.569 323.301 101.866C323.424 101.338 323.327 101.004 323.239 100.995Z" fill="#263238"/>
<path d="M325.21 89.4231C325.281 89.7575 326.478 89.7839 327.85 90.1535C329.223 90.5231 330.279 91.0335 330.49 90.7959C330.596 90.6727 330.446 90.3383 330.042 89.9687C329.499 89.4929 328.85 89.1548 328.15 88.9831C327.455 88.7936 326.725 88.7725 326.02 88.9215C325.474 89.0799 325.184 89.2647 325.21 89.4231Z" fill="#263238"/>
<path d="M314.677 87.3199C314.844 87.6191 315.698 87.4607 316.675 87.5927C317.651 87.7247 318.435 88.0327 318.681 87.7775C318.927 87.5223 318.681 87.3727 318.364 87.0647C317.929 86.6804 317.384 86.4432 316.807 86.3871C316.234 86.3104 315.651 86.4182 315.143 86.6951C314.756 86.9063 314.607 87.1703 314.677 87.3199Z" fill="#263238"/>
<path d="M317.695 76.76C318.121 79.403 319.277 81.8745 321.033 83.8958C322.788 85.9171 325.073 87.4079 327.63 88.2L327.235 86.2288C329.544 90.7426 333.463 94.2253 338.217 95.988C339.857 93.2048 340.478 89.9379 339.973 86.7471C339.469 83.5563 337.871 80.6402 335.452 78.4984C333.034 76.3567 329.946 75.1227 326.718 75.0078C323.489 74.893 320.321 75.9044 317.757 77.8688" fill="#263238"/>
<path d="M362.76 145.039C363.289 144.385 363.744 143.673 364.115 142.918C365.05 140.819 365.293 138.477 364.81 136.23C364.499 134.678 363.925 133.19 363.112 131.83C362.172 130.281 361.055 128.846 359.786 127.553C357.146 124.755 353.626 122.273 350.484 119.123C348.894 117.611 347.594 115.822 346.647 113.843C345.808 111.98 345.253 110.001 345.002 107.973C344.658 104.556 344.658 101.113 345.002 97.6951C345.222 94.7823 345.45 92.4151 345.6 90.8047C345.679 90.0215 345.732 89.4055 345.776 88.9303C345.791 88.7109 345.823 88.4932 345.873 88.2791C345.896 88.4984 345.896 88.7197 345.873 88.9391C345.873 89.4143 345.82 90.0391 345.776 90.8135C345.67 92.4943 345.512 94.8439 345.318 97.7127C345.04 101.112 345.087 104.53 345.459 107.921C345.717 109.903 346.265 111.836 347.087 113.658C348.019 115.595 349.291 117.348 350.845 118.833C353.978 121.957 357.462 124.438 360.129 127.281C361.414 128.61 362.536 130.087 363.473 131.681C364.293 133.074 364.868 134.598 365.171 136.186C365.625 138.495 365.316 140.888 364.291 143.006C364.004 143.57 363.653 144.099 363.244 144.581C363.094 144.746 362.933 144.899 362.76 145.039Z" fill="#263238"/>
<path d="M369.519 361.088L373.69 381.539L381.654 396.763C381.791 397.023 381.873 397.308 381.896 397.601C381.918 397.894 381.879 398.188 381.783 398.466C381.686 398.743 381.533 398.998 381.334 399.213C381.135 399.429 380.893 399.602 380.624 399.72C380.312 399.855 379.972 399.914 379.633 399.893C379.293 399.871 378.963 399.77 378.671 399.597C374.887 397.326 361.009 388.905 360.789 387.391C360.525 385.631 354.955 366.113 354.955 366.113L369.519 361.088Z" fill="#E3B76B"/>
<g opacity="0.6">
<path d="M380.624 399.72L360.472 386.018L360.666 386.898C360.837 387.644 361.267 388.306 361.88 388.764C363.517 389.987 368.111 393.27 378.6 399.632C378.902 399.813 379.243 399.918 379.595 399.936C379.946 399.955 380.297 399.886 380.615 399.738L380.624 399.72Z" fill="white"/>
</g>
<g opacity="0.6">
<path d="M363.156 378.494C363.448 378.621 363.682 378.851 363.814 379.141C363.945 379.43 363.965 379.758 363.869 380.061C363.756 380.36 363.531 380.603 363.242 380.739C362.953 380.875 362.623 380.894 362.32 380.791C362.012 380.655 361.765 380.41 361.627 380.103C361.489 379.796 361.47 379.449 361.572 379.128C361.723 378.831 361.984 378.604 362.299 378.496C362.615 378.387 362.96 378.406 363.262 378.547" fill="white"/>
</g>
<path d="M373.945 391.879C374.289 391.132 374.773 390.457 375.37 389.89C376.048 389.426 376.806 389.091 377.606 388.905C377.606 388.852 377.324 388.755 376.831 388.799C376.188 388.87 375.579 389.124 375.077 389.531C374.574 389.938 374.2 390.482 373.998 391.096C373.857 391.562 373.892 391.87 373.945 391.879Z" fill="#263238"/>
<path d="M376.013 394.273C376.136 394.334 376.638 393.525 377.615 392.988C378.247 392.716 378.893 392.478 379.551 392.275C379.192 392.152 378.809 392.117 378.434 392.172C378.059 392.227 377.703 392.371 377.395 392.592C376.277 393.208 375.899 394.237 376.013 394.273Z" fill="#263238"/>
<path d="M370.451 389.001C371.173 388.222 371.956 387.501 372.792 386.845C373.712 386.316 374.667 385.851 375.652 385.455C374.54 385.487 373.46 385.835 372.539 386.458C371.618 387.082 370.894 387.955 370.451 388.975V389.001Z" fill="#263238"/>
<path d="M368.665 382.894C368.744 383 369.765 382.278 371.217 381.891C372.669 381.504 373.901 381.592 373.918 381.451C372.99 381.186 372.008 381.181 371.077 381.435C370.146 381.69 369.303 382.194 368.638 382.894H368.665Z" fill="#263238"/>
<path d="M367.283 376.919C368.111 376.436 368.999 376.063 369.923 375.81C370.872 375.697 371.832 375.717 372.774 375.872C372.774 375.819 372.519 375.617 371.991 375.45C371.291 375.248 370.553 375.215 369.837 375.352C369.122 375.49 368.449 375.795 367.873 376.242C367.433 376.585 367.248 376.884 367.283 376.919Z" fill="#263238"/>
<path d="M369.615 374.675C369.624 374.41 369.576 374.146 369.474 373.901C369.244 373.211 368.879 372.574 368.401 372.026C368.084 371.6 367.636 371.291 367.125 371.146C366.955 371.12 366.782 371.143 366.626 371.213C366.469 371.283 366.337 371.398 366.245 371.542C366.081 371.847 366.04 372.203 366.13 372.537C366.333 373.21 366.764 373.791 367.348 374.181C367.932 374.571 368.634 374.746 369.334 374.675C370.022 374.588 370.669 374.299 371.193 373.845C371.718 373.391 372.096 372.792 372.282 372.123C372.328 371.954 372.337 371.777 372.308 371.603C372.279 371.43 372.213 371.265 372.114 371.12C371.997 370.989 371.842 370.896 371.671 370.854C371.5 370.812 371.32 370.822 371.155 370.882C370.68 371.105 370.272 371.452 369.976 371.886C369.523 372.454 369.175 373.097 368.946 373.786C368.84 374.031 368.786 374.295 368.788 374.561C369.146 373.673 369.629 372.84 370.222 372.088C370.493 371.712 370.853 371.41 371.27 371.208C371.36 371.169 371.46 371.161 371.556 371.185C371.651 371.209 371.736 371.263 371.798 371.34C371.855 371.439 371.891 371.549 371.903 371.663C371.916 371.776 371.904 371.891 371.868 372C371.693 372.578 371.355 373.093 370.895 373.483C370.434 373.874 369.871 374.122 369.272 374.2C368.683 374.257 368.093 374.114 367.595 373.795C367.097 373.476 366.721 372.999 366.526 372.44C366.46 372.21 366.475 371.964 366.57 371.745C366.617 371.659 366.69 371.591 366.779 371.549C366.868 371.508 366.967 371.497 367.063 371.516C367.498 371.648 367.881 371.908 368.163 372.264C368.789 372.973 369.281 373.79 369.615 374.675Z" fill="#263238"/>
<path d="M314.298 363.235L315.266 379.841C315.266 379.841 298.714 386.406 298.59 389.521L330.86 388.799L330.42 362.857L314.298 363.235Z" fill="#E3B76B"/>
<g opacity="0.6">
<path d="M325.219 378.221C325.531 378.308 325.8 378.507 325.973 378.78C326.147 379.053 326.214 379.381 326.161 379.7C326.087 380.016 325.894 380.292 325.622 380.469C325.349 380.646 325.019 380.711 324.7 380.65C324.368 380.559 324.081 380.347 323.897 380.055C323.713 379.764 323.645 379.414 323.706 379.075C323.82 378.754 324.054 378.489 324.359 378.336C324.664 378.184 325.017 378.155 325.342 378.257" fill="white"/>
</g>
<g opacity="0.6">
<path d="M330.86 388.773L330.719 386.133L299.831 387.796C299.831 387.796 298.406 388.456 298.591 389.468L330.86 388.773Z" fill="white"/>
</g>
<path d="M314.747 379.691C314.747 379.849 315.539 379.902 316.331 380.386C317.123 380.87 317.546 381.53 317.687 381.469C317.827 381.407 317.572 380.492 316.613 379.92C315.654 379.348 314.703 379.541 314.747 379.691Z" fill="#263238"/>
<path d="M311.386 381.161C311.386 381.319 312.046 381.574 312.591 382.225C313.137 382.877 313.313 383.581 313.471 383.572C313.63 383.563 313.709 382.692 313.014 381.865C312.319 381.037 311.386 381.011 311.386 381.161Z" fill="#263238"/>
<path d="M309.555 385.262C309.705 385.262 309.907 384.496 309.476 383.642C309.045 382.789 308.314 382.463 308.244 382.595C308.174 382.727 308.649 383.176 308.983 383.889C309.318 384.602 309.397 385.244 309.555 385.262Z" fill="#263238"/>
<path d="M314.941 375.881C315.011 376.021 315.733 375.784 316.622 375.828C317.51 375.872 318.214 376.136 318.294 375.995C318.373 375.854 317.695 375.309 316.639 375.282C315.583 375.256 314.862 375.757 314.941 375.881Z" fill="#263238"/>
<g opacity="0.3">
<path d="M314.501 366.518L314.668 369.483L330.526 368.982L330.482 366.315L314.501 366.518Z" fill="black"/>
</g>
<path d="M314.809 372.528C315.343 372.658 315.902 372.643 316.428 372.484C317.01 372.367 317.574 372.178 318.109 371.921C318.414 371.771 318.708 371.6 318.989 371.41C319.165 371.304 319.325 371.174 319.464 371.023C319.575 370.906 319.641 370.754 319.65 370.593C319.66 370.432 319.613 370.273 319.517 370.143C319.435 370.037 319.33 369.95 319.209 369.891C319.089 369.831 318.956 369.8 318.822 369.8C318.616 369.806 318.412 369.838 318.214 369.897C317.872 369.989 317.54 370.113 317.22 370.266C316.68 370.525 316.184 370.866 315.75 371.278C315.02 371.982 314.774 372.581 314.826 372.607C314.879 372.633 315.258 372.158 316.006 371.569C316.441 371.215 316.92 370.919 317.431 370.689C317.715 370.562 318.01 370.459 318.311 370.381C318.654 370.284 318.945 370.275 319.033 370.425C319.121 370.574 319.077 370.504 319.033 370.609C318.928 370.718 318.809 370.812 318.681 370.891C318.398 371.078 318.104 371.249 317.801 371.401C317.305 371.659 316.787 371.872 316.252 372.035C315.759 372.161 315.276 372.326 314.809 372.528Z" fill="#263238"/>
<path d="M315.02 372.748C315.311 372.277 315.447 371.726 315.407 371.173C315.425 370.576 315.339 369.98 315.152 369.413C315.042 369.074 314.897 368.746 314.721 368.436C314.626 368.226 314.479 368.043 314.294 367.905C314.11 367.766 313.893 367.677 313.665 367.644C313.522 367.652 313.385 367.701 313.268 367.783C313.152 367.865 313.06 367.979 313.005 368.11C312.924 368.301 312.87 368.503 312.846 368.709C312.726 369.688 312.998 370.675 313.603 371.454C314.254 372.273 314.914 372.449 314.923 372.396C314.932 372.343 314.422 372.018 313.92 371.226C313.628 370.771 313.442 370.257 313.374 369.721C313.33 369.411 313.33 369.097 313.374 368.788C313.418 368.445 313.542 368.163 313.665 368.198C313.788 368.234 314.105 368.436 314.246 368.709C314.408 368.991 314.549 369.285 314.668 369.589C314.859 370.103 314.974 370.643 315.011 371.19C315.09 372.132 314.932 372.722 315.02 372.748Z" fill="#263238"/>
<path d="M339.387 185.519C339.387 185.519 348.874 206.12 350.308 212.13C351.743 218.141 378.231 376.946 378.231 376.946L353.89 378.424L320.837 223.069L334.134 377.298L310.189 379.295C310.189 379.295 292.087 216.319 292.853 211.726C294.015 204.782 299.893 184.806 299.893 184.806L339.387 185.519Z" fill="#263238"/>
<path d="M320.643 222.074C320.643 222.074 320.643 222.206 320.441 222.338C320.293 222.413 320.127 222.444 319.962 222.429C319.797 222.413 319.64 222.351 319.508 222.25C319.156 221.878 318.952 221.39 318.936 220.878L318.619 218.986C318.153 216.178 317.546 212.289 316.912 208.003C316.278 203.718 315.706 199.819 315.328 197.003C315.161 195.657 315.02 194.53 314.906 193.659C314.834 193.253 314.801 192.84 314.809 192.427C314.94 192.819 315.031 193.223 315.082 193.633C315.231 194.513 315.416 195.613 315.645 196.95C316.111 199.758 316.718 203.638 317.405 207.933C318.091 212.227 318.602 216.117 318.98 218.933C319.068 219.628 319.156 220.262 319.226 220.834C319.224 221.297 319.379 221.747 319.666 222.11C319.77 222.206 319.898 222.271 320.036 222.298C320.175 222.324 320.318 222.311 320.45 222.259C320.582 222.171 320.617 222.057 320.643 222.074Z" fill="#455A64"/>
<path d="M318.153 195.56C318.153 195.56 318.153 195.419 318.382 195.287C318.672 195.12 319.015 195.07 319.341 195.146C319.597 195.196 319.832 195.324 320.015 195.511C320.197 195.698 320.318 195.936 320.362 196.194C320.419 196.512 320.374 196.84 320.233 197.13C320.092 197.421 319.863 197.66 319.578 197.813C319.289 197.943 318.966 197.984 318.653 197.931C318.339 197.878 318.049 197.733 317.818 197.514C317.634 197.337 317.498 197.114 317.426 196.869C317.353 196.624 317.346 196.363 317.405 196.114C317.616 195.234 318.214 195.076 318.206 195.129C317.965 195.432 317.8 195.788 317.722 196.167C317.693 196.358 317.712 196.553 317.778 196.735C317.844 196.916 317.955 197.078 318.1 197.206C318.273 197.358 318.486 197.457 318.713 197.493C318.941 197.529 319.174 197.5 319.385 197.408C319.583 197.296 319.744 197.127 319.846 196.923C319.948 196.72 319.986 196.49 319.957 196.264C319.933 196.077 319.855 195.901 319.733 195.758C319.611 195.614 319.451 195.509 319.27 195.454C318.897 195.359 318.502 195.396 318.153 195.56Z" fill="#455A64"/>
<path d="M276.247 94.5271L261.331 71.4799L256.79 63.8943C256.79 63.8943 255.444 56.2911 254.802 54.1527C253.464 49.7527 253.042 49.8671 252.584 50.1135C251.282 50.7647 254.634 57.9455 253.015 56.8191C251.396 55.6927 249.935 47.5615 248.615 48.2919C246.855 49.2599 250.525 56.7047 250.789 57.3647C251.053 58.0247 250.111 58.4119 249.909 57.8135C249.61 56.9335 246.292 47.9223 244.567 48.8551C243.617 49.3655 244.699 50.9935 244.699 50.9935C244.699 50.9935 248.43 59.2039 247.603 59.6175C246.776 60.0311 244.409 55.2791 243.731 53.6247C243.054 51.9703 241.971 51.6447 241.531 52.5423C241.206 53.1583 243.168 58.2799 243.881 59.9079C244.594 61.5359 246.618 65.9447 243.881 64.5807C241.144 63.2167 238.469 63.2167 237.721 63.7007C237.569 63.8324 237.462 64.0081 237.414 64.2035C237.367 64.3988 237.381 64.6041 237.456 64.7908C237.53 64.9775 237.661 65.1364 237.83 65.2454C237.999 65.3544 238.198 65.4082 238.398 65.3991C239.432 65.5327 240.441 65.8081 241.399 66.2175C242.183 66.5158 242.91 66.9475 243.546 67.4935C244.294 68.1271 244.893 68.6991 245.394 69.1919L249.099 76.8919L265.458 109.003L299.717 137.374L308.358 121.798L276.247 94.5271Z" fill="#936754"/>
<path d="M364.731 223.166C364.942 223.843 365.171 224.635 365.391 225.586C365.586 226.404 365.637 227.249 365.541 228.085C365.468 229.124 365.252 230.149 364.898 231.13C364.476 232.01 365.33 232.89 366.095 232.502C366.861 232.115 368.075 229.739 368.128 226.65C368.181 223.562 371.182 227.39 372.299 228.771C373.417 230.153 377.078 234.236 377.773 234.227C378.794 234.227 378.961 233.118 377.817 231.772C376.673 230.426 373.514 226.14 374.297 225.612C375.08 225.084 380.624 232.142 380.624 232.142C380.624 232.142 381.574 233.849 382.472 233.242C384.082 232.133 377.588 225.049 376.946 224.389C376.506 223.931 377.306 223.298 377.755 223.817C378.204 224.336 383.167 231.006 384.795 229.898C386.062 229.018 379.515 224.019 379.242 222.066C378.97 220.112 383.827 226.386 385.006 225.524C385.438 225.198 385.728 224.899 382.419 221.705C380.818 220.147 374.675 215.466 374.675 215.466L361.66 172.68L345.503 172.944L364.731 223.166Z" fill="#936754"/>
<path d="M314.747 121.772C312.119 120.762 309.545 119.614 307.038 118.331L281.413 98.9182L269.973 114.195C269.973 114.195 299.215 140.595 299.699 140.454C300.183 140.313 314.747 121.772 314.747 121.772Z" fill="#E3B76B"/>
<path d="M316.683 121.71L314.747 121.772C312.013 121.864 309.372 122.792 307.181 124.429C304.989 126.067 303.352 128.337 302.489 130.933C300.535 136.811 300.65 138.73 299.294 143.121C296.056 153.61 301.873 166.344 301.873 166.344L299.866 184.824L339.387 185.537L341.376 163.29L348.759 129.982C348.759 129.982 347.122 122.837 340.839 122.256C337.583 121.939 316.683 121.71 316.683 121.71Z" fill="#E3B76B"/>
<path d="M342.001 122.819C342.001 122.819 351.364 122.775 354.215 133.573C357.066 144.37 362.76 172.768 362.76 172.768L345.019 178.101L335.48 139.125C334.818 136.916 334.559 134.606 334.714 132.305C335.005 128.407 336.466 123.347 342.001 122.819Z" fill="#E3B76B"/>
<path d="M313.876 122.238L317 116.263L322.28 119.255V121.851L323.952 119.255L336.404 116.263V123.646L321.866 125.23L313.876 122.238Z" fill="#E3B76B"/>
<path d="M304.126 131.32C303.94 131.759 303.72 132.183 303.466 132.587C303.237 132.983 302.964 133.467 302.691 134.057C302.418 134.646 302.058 135.289 301.758 136.054C301.459 136.82 301.09 137.629 300.799 138.545C300.509 139.46 300.201 140.437 299.919 141.466C298.749 146.006 298.45 150.727 299.039 155.379C299.198 156.444 299.321 157.465 299.55 158.397C299.717 159.27 299.929 160.133 300.183 160.985C300.377 161.785 300.65 162.472 300.852 163.088C301.016 163.618 301.21 164.138 301.433 164.645C301.628 165.081 301.79 165.531 301.917 165.992C301.668 165.583 301.451 165.157 301.266 164.716C301.016 164.216 300.796 163.701 300.606 163.176C300.386 162.56 300.086 161.873 299.875 161.081C299.594 160.215 299.359 159.333 299.171 158.441C298.934 157.5 298.793 156.479 298.617 155.397C298.32 153.062 298.237 150.706 298.37 148.357C298.541 145.994 298.927 143.653 299.523 141.361C299.831 140.313 300.104 139.319 300.465 138.413C300.763 137.565 301.107 136.733 301.494 135.922C301.792 135.246 302.124 134.585 302.489 133.942C302.754 133.441 303.047 132.957 303.369 132.49C303.585 132.078 303.839 131.686 304.126 131.32Z" fill="#263238"/>
<path d="M321.347 118.789C321.267 119.407 321.11 120.013 320.881 120.593C320.538 121.693 320.001 123.233 319.455 124.852C319.358 125.107 319.27 125.362 319.182 125.609L319.086 125.873L318.848 125.732C317.711 125.046 316.654 124.234 315.698 123.312C315.285 122.962 314.934 122.546 314.659 122.08C316.057 123.255 317.527 124.343 319.059 125.336L318.725 125.459L318.998 124.694C319.578 123.039 320.133 121.552 320.546 120.487C320.738 119.888 321.007 119.317 321.347 118.789Z" fill="#263238"/>
<path d="M331.573 124.28C330.976 124.614 330.344 124.882 329.69 125.081C328.51 125.53 326.874 126.11 325.034 126.735L324.77 126.832V126.559V126.33C324.48 124.359 324.251 122.573 324.102 121.279C323.976 120.583 323.926 119.875 323.952 119.167C324.182 119.838 324.338 120.531 324.418 121.235C324.647 122.511 324.938 124.298 325.228 126.26V126.489L324.929 126.304C326.768 125.688 328.449 125.151 329.637 124.782C330.26 124.54 330.91 124.371 331.573 124.28Z" fill="#263238"/>
<path d="M338.12 177.634C338.982 178.554 339.552 179.709 339.757 180.953C339.962 182.197 339.794 183.473 339.273 184.621C339.407 183.428 339.407 182.224 339.273 181.031C339.01 179.861 338.623 178.723 338.12 177.634Z" fill="#263238"/>
<path d="M361.255 166.52C360.439 166.863 359.589 167.122 358.721 167.294C357.137 167.708 354.937 168.174 352.482 168.676C350.026 169.178 347.782 169.459 346.163 169.653C345.291 169.798 344.407 169.862 343.523 169.846C344.387 169.6 345.27 169.426 346.163 169.327C347.765 169.054 349.991 168.685 352.438 168.227C354.884 167.77 357.093 167.347 358.694 166.986C359.534 166.764 360.391 166.608 361.255 166.52Z" fill="#FAFAFA"/>
<path d="M359.24 155.714C358.395 156.125 357.511 156.45 356.6 156.682C354.963 157.192 352.675 157.808 350.141 158.442C347.606 159.075 345.31 159.63 343.655 160.061C342.773 160.336 341.873 160.553 340.962 160.712C341.808 160.304 342.692 159.983 343.602 159.753C345.239 159.234 347.527 158.618 350.062 157.993C352.596 157.368 354.893 156.814 356.547 156.374C357.43 156.096 358.329 155.875 359.24 155.714Z" fill="#FAFAFA"/>
<path d="M345.002 178.101C344.86 177.769 344.751 177.424 344.676 177.071C344.491 176.314 344.245 175.364 343.963 174.229C343.382 171.826 342.608 168.5 341.772 164.822C340.936 161.143 340.223 157.782 339.713 155.379C339.484 154.244 339.299 153.285 339.141 152.51C339.056 152.161 339.006 151.805 338.991 151.446C339.144 151.77 339.253 152.113 339.317 152.466L340.03 155.309C340.619 157.711 341.394 161.038 342.221 164.725C343.048 168.412 343.778 171.765 344.28 174.158C344.509 175.302 344.702 176.262 344.852 177.036C344.948 177.383 344.999 177.741 345.002 178.101Z" fill="#263238"/>
<path d="M358.29 147.424C358.29 147.547 345.028 147.292 328.678 146.852C312.327 146.412 299.074 145.972 299.074 145.831C299.074 145.69 312.336 145.954 328.686 146.394C345.037 146.834 358.29 147.292 358.29 147.424Z" fill="#FAFAFA"/>
<path d="M353.749 132.35C353.583 132.399 353.411 132.426 353.238 132.429L351.769 132.552C350.484 132.658 348.636 132.781 346.339 132.922C341.754 133.194 335.418 133.494 328.414 133.687C321.409 133.881 315.064 133.916 310.479 133.89C308.182 133.89 306.326 133.89 305.041 133.819L303.562 133.766C303.388 133.765 303.215 133.75 303.043 133.722C303.215 133.698 303.39 133.698 303.562 133.722L305.041 133.678L310.47 133.608C315.064 133.555 321.4 133.458 328.405 133.274C335.41 133.089 341.737 132.834 346.322 132.64L351.76 132.42H353.238C353.405 132.377 353.577 132.354 353.749 132.35Z" fill="#FAFAFA"/>
<path d="M290.38 133.027C290.283 132.939 293.31 129.296 297.13 124.887C300.949 120.478 304.17 116.967 304.231 117.046C304.293 117.125 301.301 120.769 297.482 125.186C293.662 129.604 290.477 133.08 290.38 133.027Z" fill="#FAFAFA"/>
<path d="M340.012 163.88C340.012 164.012 330.966 163.211 319.834 162.12C308.702 161.029 299.682 160.008 299.69 159.876C299.699 159.744 308.737 160.554 319.878 161.636C331.018 162.718 340.021 163.792 340.012 163.88Z" fill="#FAFAFA"/>
<path d="M340.461 176.094C340.461 176.226 331.661 176.094 320.872 175.883C310.083 175.672 301.292 175.338 301.292 175.214C301.292 175.091 310.092 175.214 320.881 175.426C331.67 175.637 340.461 175.971 340.461 176.094Z" fill="#FAFAFA"/>
<path d="M313.876 184.683C313.855 184.467 313.855 184.249 313.876 184.032C313.876 183.61 313.876 182.976 313.876 182.175C313.876 180.556 313.999 178.215 314.193 175.329C314.29 173.886 314.413 172.31 314.589 170.621C314.765 168.931 315.02 167.101 315.258 165.235C315.733 161.442 316.138 157.262 316.578 152.915C317.18 145.402 318.253 137.934 319.79 130.554C320.432 127.738 321.092 125.486 321.55 123.946C321.796 123.215 321.999 122.626 322.157 122.186C322.214 121.975 322.293 121.771 322.395 121.578C322.368 121.794 322.317 122.007 322.245 122.212C322.104 122.661 321.937 123.259 321.717 123.972C321.277 125.521 320.67 127.782 320.071 130.598C318.634 137.978 317.609 145.431 317 152.924C316.56 157.324 316.12 161.495 315.645 165.244C315.39 167.136 315.126 168.931 314.932 170.612C314.739 172.293 314.598 173.877 314.475 175.311C314.246 178.189 314.114 180.521 314.026 182.131L313.92 183.988C313.929 184.221 313.915 184.454 313.876 184.683Z" fill="#263238"/>
<path d="M337.733 145.822H328.158V148.313H337.733V145.822Z" fill="#FAFAFA"/>
<g opacity="0.3">
<path d="M339.264 153.399C337.165 156.691 336.106 160.538 336.225 164.441C336.344 168.343 337.636 172.119 339.933 175.276C340.52 171.169 341.106 167.063 341.693 162.956" fill="black"/>
</g>
<path d="M333.72 91.9224C334.846 94.2368 334.292 97.0088 333.474 99.4552C332.655 101.902 331.608 104.374 331.819 106.944C332.013 109.329 333.298 111.52 333.526 113.905C333.922 117.918 331.353 121.561 330.297 125.459C329.64 127.974 329.608 130.611 330.205 133.14C330.801 135.67 332.008 138.015 333.72 139.97C333.874 140.187 334.073 140.368 334.301 140.503C334.53 140.638 334.785 140.723 335.049 140.754C335.352 140.711 335.634 140.572 335.851 140.356C336.068 140.14 336.21 139.86 336.254 139.557C336.328 138.951 336.313 138.337 336.21 137.735C335.726 131.98 341.262 127.369 342.062 121.649C342.59 117.926 341.05 114.248 340.822 110.499C340.531 105.782 342.309 101.206 342.89 96.516C343.157 94.917 343.064 93.2785 342.617 91.72C342.388 90.9434 341.973 90.234 341.409 89.6531C340.845 89.0721 340.148 88.6369 339.378 88.3848C338.598 88.1685 337.766 88.2473 337.04 88.606C336.315 88.9648 335.747 89.5785 335.445 90.3296" fill="#263238"/>
<path d="M227.161 127.175L208.531 138.967L221.731 102.843L225.295 95.7239C225.77 95.1255 226.351 94.4391 227.055 93.6559C227.674 92.9875 228.403 92.4308 229.211 92.0103C230.189 91.4401 231.244 91.0133 232.344 90.7431C232.562 90.7274 232.77 90.6438 232.938 90.5039C233.106 90.3641 233.226 90.1752 233.282 89.9636C233.337 89.752 233.325 89.5284 233.247 89.3241C233.168 89.1199 233.028 88.9452 232.846 88.8247C232.01 88.3847 229.167 88.7279 226.36 90.5847C223.553 92.4415 225.163 87.3903 225.726 85.5511C226.29 83.7119 227.742 77.9479 227.31 77.3231C226.677 76.4431 225.594 76.9271 225.075 78.7751C224.556 80.6231 222.629 86.0615 221.678 85.7183C220.728 85.3751 223.694 76.0383 223.694 76.0383C223.694 76.0383 224.653 74.1463 223.562 73.7151C221.59 72.9407 219.162 83.0783 218.959 84.0463C218.818 84.7239 217.762 84.3895 217.956 83.6767C218.15 82.9639 221.133 74.4455 219.135 73.6359C217.595 73.0111 217.058 81.9607 215.466 83.3775C213.873 84.7943 216.566 76.6367 215.07 76.0999C214.515 75.8975 214.075 75.8271 213.213 80.7375C212.79 83.1223 212.333 91.4823 212.333 91.4823L207.994 100.036L208.1 100.133L190.342 137.638C186.936 146.632 192.498 153.901 198.068 157.192C200.617 158.696 203.538 159.449 206.496 159.365C209.455 159.281 212.329 158.363 214.788 156.717L236.304 142.346L227.161 127.175Z" fill="#FFBE9D"/>
<path d="M327.314 206.314C327.762 206.974 328.255 207.766 328.801 208.716C329.266 209.534 329.585 210.428 329.742 211.356C329.994 212.511 330.083 213.696 330.006 214.876C329.948 215.1 329.962 215.337 330.048 215.553C330.133 215.768 330.285 215.951 330.481 216.074C330.677 216.198 330.907 216.256 331.138 216.24C331.369 216.224 331.589 216.134 331.766 215.985C332.47 215.298 333.025 212.377 332.118 209.024C331.212 205.671 335.638 208.857 337.284 209.992C338.93 211.127 344.166 214.392 344.914 214.163C346.005 213.829 345.855 212.588 344.183 211.523C342.511 210.458 337.768 206.806 338.402 205.97C339.035 205.134 347.307 211.022 347.307 211.022C347.307 211.022 348.865 212.562 349.639 211.62C351.03 209.922 341.781 204.316 340.892 203.806C340.267 203.454 340.892 202.521 341.578 202.926C342.265 203.33 349.683 208.98 351.118 207.264C352.218 205.944 343.558 202.582 342.661 200.558C341.763 198.534 348.97 203.779 349.974 202.477C350.343 201.993 350.554 201.597 345.978 199.168C343.761 197.989 335.647 194.874 335.647 194.874L285.883 130.634L271.451 143.64L327.314 206.314Z" fill="#FFBE9D"/>
<path d="M238.759 363.473L239.71 379.77C239.71 379.77 223.456 386.212 223.342 389.239L255.022 389.081L254.573 363.077L238.759 363.473Z" fill="#455A64"/>
<g opacity="0.6">
<path d="M249.469 378.178C249.775 378.266 250.039 378.463 250.211 378.732C250.383 379.001 250.45 379.323 250.402 379.638C250.326 379.949 250.134 380.219 249.866 380.392C249.597 380.566 249.273 380.63 248.958 380.571C248.633 380.48 248.353 380.271 248.174 379.984C247.995 379.698 247.93 379.355 247.99 379.022C248.101 378.707 248.33 378.447 248.629 378.297C248.928 378.147 249.273 378.12 249.592 378.222" fill="white"/>
</g>
<g opacity="0.6">
<path d="M255.021 389.081V386.441L224.6 387.611C224.6 387.611 223.201 388.253 223.385 389.239L255.021 389.081Z" fill="white"/>
</g>
<path d="M239.19 379.621C239.19 379.779 239.974 379.832 240.748 380.307C241.522 380.782 241.936 381.434 242.077 381.363C242.218 381.293 241.971 380.413 241.021 379.85C240.07 379.286 239.155 379.48 239.19 379.621Z" fill="#263238"/>
<path d="M235.899 381.073C235.899 381.222 236.542 381.469 237.087 382.111C237.633 382.753 237.791 383.44 237.967 383.431C238.143 383.422 238.205 382.551 237.518 381.759C236.832 380.967 235.899 380.923 235.899 381.073Z" fill="#263238"/>
<path d="M234.104 385.085C234.245 385.085 234.438 384.337 234.025 383.501C233.611 382.665 232.881 382.34 232.819 382.472C232.758 382.604 233.215 383.044 233.541 383.739C233.866 384.434 233.945 385.077 234.104 385.085Z" fill="#263238"/>
<path d="M239.384 375.881C239.454 376.021 240.158 375.793 241.038 375.837C241.918 375.881 242.596 376.136 242.675 376.004C242.754 375.872 242.085 375.326 241.056 375.3C240.026 375.273 239.305 375.766 239.384 375.881Z" fill="#263238"/>
<path d="M239.252 372.589C239.776 372.725 240.329 372.71 240.845 372.545C241.414 372.435 241.967 372.251 242.49 372C242.794 371.852 243.088 371.685 243.37 371.498C243.55 371.398 243.711 371.267 243.846 371.111C243.944 371 244.003 370.859 244.012 370.711C244.022 370.563 243.982 370.416 243.898 370.293C243.817 370.187 243.713 370.102 243.595 370.042C243.476 369.983 243.345 369.951 243.212 369.949C243.009 369.955 242.808 369.988 242.614 370.046C242.278 370.138 241.951 370.259 241.637 370.407C241.108 370.663 240.621 370.998 240.194 371.401C239.481 372.097 239.243 372.677 239.314 372.713C239.384 372.748 239.727 372.264 240.466 371.692C240.892 371.355 241.36 371.074 241.857 370.856C242.143 370.736 242.437 370.636 242.737 370.557C243.071 370.46 243.362 370.451 243.45 370.601C243.538 370.75 243.45 370.68 243.45 370.777C243.35 370.887 243.234 370.982 243.106 371.058C242.839 371.239 242.563 371.407 242.279 371.56C241.792 371.812 241.282 372.018 240.757 372.176C240.247 372.282 239.744 372.42 239.252 372.589Z" fill="#263238"/>
<path d="M239.463 372.809C239.754 372.351 239.89 371.811 239.85 371.269C239.863 370.673 239.777 370.078 239.595 369.509C239.485 369.179 239.34 368.86 239.164 368.559C239.073 368.352 238.93 368.172 238.75 368.035C238.57 367.898 238.358 367.809 238.134 367.776C237.994 367.784 237.859 367.831 237.744 367.912C237.629 367.993 237.538 368.104 237.483 368.233C237.409 368.423 237.358 368.621 237.334 368.823C237.276 369.176 237.276 369.535 237.334 369.888C237.433 370.481 237.678 371.04 238.046 371.516C238.68 372.317 239.331 372.493 239.34 372.396C239.349 372.299 238.847 372.026 238.354 371.252C238.076 370.801 237.893 370.298 237.818 369.773C237.778 369.467 237.778 369.156 237.818 368.849C237.862 368.515 237.985 368.242 238.108 368.269C238.231 368.295 238.539 368.515 238.68 368.779C238.841 369.06 238.977 369.354 239.085 369.659C239.277 370.164 239.393 370.695 239.428 371.234C239.56 372.202 239.375 372.792 239.463 372.809Z" fill="#263238"/>
<path d="M293.574 363.235L294.815 379.515C294.815 379.515 278.685 386.247 278.623 389.274L310.303 388.007L307.751 362.628L293.574 363.235Z" fill="#455A64"/>
<g opacity="0.6">
<path d="M304.548 377.72C304.855 377.801 305.121 377.992 305.296 378.256C305.471 378.521 305.543 378.84 305.498 379.154C305.43 379.465 305.245 379.738 304.982 379.917C304.718 380.096 304.396 380.166 304.081 380.113C303.754 380.028 303.47 379.824 303.285 379.541C303.099 379.258 303.026 378.916 303.078 378.582C303.183 378.266 303.407 378.002 303.703 377.848C303.998 377.694 304.343 377.66 304.662 377.755" fill="white"/>
</g>
<g opacity="0.6">
<path d="M310.277 388.007L310.083 385.438L279.802 387.62C279.802 387.62 278.421 388.289 278.623 389.274L310.277 388.007Z" fill="white"/>
</g>
<path d="M294.296 379.374C294.296 379.533 295.079 379.568 295.862 380.034C296.646 380.501 297.077 381.134 297.218 381.073C297.358 381.011 297.086 380.122 296.135 379.568C295.185 379.013 294.252 379.233 294.296 379.374Z" fill="#263238"/>
<path d="M291.031 380.888C291.031 381.038 291.682 381.266 292.228 381.9C292.774 382.534 292.958 383.22 293.108 383.211C293.258 383.202 293.328 382.331 292.624 381.548C291.92 380.765 291.031 380.738 291.031 380.888Z" fill="#263238"/>
<path d="M289.306 384.936C289.447 384.936 289.632 384.179 289.201 383.352C288.769 382.525 288.03 382.208 287.969 382.34C287.907 382.472 288.373 382.912 288.717 383.598C289.06 384.285 289.148 384.927 289.306 384.936Z" fill="#263238"/>
<path d="M294.419 375.634C294.489 375.775 295.193 375.529 296.073 375.555C296.953 375.581 297.64 375.828 297.71 375.696C297.781 375.564 297.112 375.027 296.082 375.018C295.053 375.009 294.34 375.52 294.419 375.634Z" fill="#263238"/>
<path d="M294.234 372.343C294.758 372.471 295.308 372.447 295.818 372.273C296.385 372.149 296.935 371.957 297.455 371.701C297.761 371.549 298.055 371.376 298.335 371.182C298.51 371.074 298.667 370.94 298.802 370.786C298.894 370.668 298.945 370.522 298.945 370.372C298.945 370.222 298.894 370.076 298.802 369.958C298.719 369.856 298.614 369.774 298.495 369.718C298.377 369.661 298.247 369.632 298.115 369.633C297.915 369.64 297.716 369.676 297.526 369.738C297.19 369.836 296.863 369.963 296.549 370.117C296.023 370.381 295.542 370.725 295.123 371.138C294.419 371.85 294.19 372.431 294.243 372.458C294.296 372.484 294.657 372.009 295.378 371.419C296.045 370.87 296.823 370.471 297.658 370.249C297.992 370.152 298.282 370.134 298.37 370.249C298.458 370.363 298.37 370.319 298.37 370.425C298.268 370.533 298.153 370.627 298.027 370.706C297.765 370.895 297.491 371.068 297.209 371.226C296.728 371.485 296.224 371.7 295.704 371.868C295.204 371.994 294.713 372.153 294.234 372.343Z" fill="#263238"/>
<path d="M294.446 372.563C294.719 372.095 294.842 371.554 294.798 371.014C294.804 370.416 294.709 369.821 294.516 369.254C294.399 368.926 294.249 368.61 294.067 368.313C293.975 368.107 293.831 367.929 293.649 367.796C293.466 367.664 293.253 367.581 293.029 367.556C292.888 367.563 292.753 367.611 292.639 367.694C292.525 367.777 292.437 367.891 292.386 368.022C292.31 368.211 292.263 368.409 292.246 368.612C292.202 368.967 292.217 369.326 292.29 369.677C292.398 370.267 292.652 370.82 293.029 371.287C293.68 372.079 294.331 372.237 294.34 372.167C294.349 372.097 293.838 371.815 293.337 371.041C293.048 370.599 292.856 370.101 292.774 369.58C292.73 369.273 292.73 368.962 292.774 368.656C292.774 368.322 292.923 368.04 293.055 368.075C293.187 368.11 293.486 368.304 293.627 368.568C293.797 368.848 293.941 369.142 294.058 369.448C294.253 369.951 294.377 370.478 294.428 371.014C294.498 371.956 294.358 372.537 294.446 372.563Z" fill="#263238"/>
<path d="M267.5 87.4256L264.393 123.462L246.345 122.018C246.23 119.915 246.345 111.758 246.345 111.758C246.345 111.758 238.838 110.596 238.75 103.09C238.697 99.4376 239.225 91.9048 239.771 85.12C240.062 81.4922 241.764 78.1233 244.512 75.7373C247.26 73.3513 250.834 72.1386 254.467 72.36C256.321 72.4672 258.135 72.9453 259.802 73.766C261.468 74.5868 262.953 75.7334 264.168 77.1382C265.383 78.5429 266.304 80.1772 266.876 81.9442C267.449 83.7112 267.661 85.5751 267.5 87.4256Z" fill="#FFBE9D"/>
<path d="M246.371 111.652C249.837 111.718 253.244 110.75 256.157 108.871C256.157 108.871 253.842 114.274 246.354 113.597L246.371 111.652Z" fill="#D1734A"/>
<path d="M241.584 91.315C241.707 91.4558 242.552 90.9014 243.705 90.9542C244.857 91.007 245.676 91.6406 245.808 91.4998C245.94 91.359 245.746 91.183 245.394 90.9014C244.916 90.5344 244.336 90.3226 243.734 90.2943C243.131 90.266 242.535 90.4225 242.024 90.743C241.654 90.9982 241.522 91.2446 241.584 91.315Z" fill="#263238"/>
<path d="M252.144 91.4734C252.285 91.6054 253.077 90.9806 254.23 90.9542C255.382 90.9278 256.245 91.4734 256.368 91.3326C256.491 91.1918 256.289 91.0158 255.91 90.7606C255.402 90.428 254.802 90.262 254.194 90.2854C253.594 90.3017 253.015 90.5082 252.54 90.875C252.197 91.1566 252.082 91.4118 252.144 91.4734Z" fill="#263238"/>
<path d="M248.562 98.4519C247.955 98.2566 247.325 98.1413 246.688 98.1087C246.389 98.1087 246.116 98.0207 246.063 97.8183C246.036 97.512 246.103 97.2048 246.257 96.9383C246.538 96.2226 246.832 95.4746 247.137 94.6943C247.945 92.7929 248.602 90.8302 249.099 88.8247C248.14 90.6581 247.327 92.5649 246.67 94.5271C246.38 95.3103 246.107 96.0583 245.834 96.7799C245.655 97.1361 245.603 97.5426 245.685 97.9327C245.727 98.037 245.792 98.1301 245.876 98.2049C245.96 98.2797 246.06 98.3341 246.169 98.3639C246.332 98.4103 246.501 98.434 246.67 98.4343C247.298 98.514 247.933 98.5199 248.562 98.4519Z" fill="#263238"/>
<path d="M251.959 99.2438C251.765 99.2438 251.765 100.485 250.692 101.373C249.618 102.262 248.29 102.13 248.281 102.306C248.272 102.482 248.58 102.544 249.161 102.561C249.894 102.57 250.607 102.321 251.176 101.857C251.715 101.417 252.064 100.787 252.153 100.097C252.179 99.5518 252.038 99.235 251.959 99.2438Z" fill="#263238"/>
<path d="M252.452 86.1319C252.566 86.4487 253.719 86.2991 255.092 86.4663C256.465 86.6335 257.538 86.9943 257.732 86.7127C257.811 86.5807 257.618 86.2815 257.178 85.9823C256.59 85.6014 255.921 85.366 255.224 85.2959C254.534 85.2132 253.833 85.2977 253.182 85.5423C252.654 85.7447 252.408 85.9911 252.452 86.1319Z" fill="#263238"/>
<path d="M241.839 86.6598C242.077 86.9678 242.983 86.6598 244.083 86.6598C245.183 86.6598 246.116 86.8622 246.327 86.5542C246.424 86.3958 246.274 86.0966 245.87 85.815C245.323 85.4751 244.689 85.3039 244.045 85.3227C243.402 85.3415 242.779 85.5494 242.253 85.9206C241.866 86.2022 241.734 86.519 241.839 86.6598Z" fill="#263238"/>
<path d="M259.351 79.1976C260.551 80.1384 261.339 81.5072 261.551 83.0168V83.1664C261.85 85.3048 261.789 87.4872 262.105 89.6256C262.31 91.795 263.24 93.832 264.745 95.4072C265.397 96.0144 266.505 96.4368 267.077 95.724C267.262 95.4286 267.356 95.0863 267.35 94.7384C267.746 89.5728 269.163 84.988 269.11 79.576C269.113 78.8524 268.943 78.1386 268.613 77.4942C268.284 76.8497 267.806 76.2933 267.218 75.8712C266.092 75.0528 264.71 74.2168 263.452 74.8064C262.193 75.396 260.565 77.7632 259.589 78.7576" fill="#263238"/>
<path d="M264.966 90.8399C265.098 90.7871 270.122 89.3175 269.964 94.4479C269.806 99.5783 264.684 98.3639 264.684 98.2143C264.684 98.0647 264.966 90.8399 264.966 90.8399Z" fill="#FFBE9D"/>
<path d="M266.303 96.2958C266.303 96.2958 266.391 96.3662 266.541 96.4366C266.755 96.5246 266.995 96.5246 267.21 96.4366C267.548 96.2369 267.828 95.9508 268.02 95.6075C268.211 95.2642 268.308 94.8761 268.301 94.483C268.324 94.0445 268.252 93.6061 268.09 93.1982C268.046 93.0368 267.964 92.8884 267.851 92.7657C267.738 92.6431 267.596 92.5499 267.438 92.4942C267.336 92.4621 267.226 92.4675 267.128 92.5094C267.029 92.5514 266.949 92.6271 266.902 92.723C266.831 92.8638 266.858 92.9606 266.831 92.9694C266.805 92.9782 266.726 92.8814 266.77 92.6702C266.804 92.5447 266.878 92.4336 266.981 92.3534C267.127 92.2517 267.307 92.2106 267.482 92.239C267.686 92.2927 267.874 92.3966 268.027 92.541C268.181 92.6855 268.296 92.866 268.362 93.0662C268.57 93.5175 268.661 94.0138 268.626 94.5094C268.637 94.9666 268.512 95.4167 268.268 95.8034C268.024 96.19 267.671 96.496 267.254 96.683C267.114 96.7168 266.968 96.7201 266.827 96.6928C266.686 96.6655 266.552 96.6081 266.435 96.5246C266.312 96.4278 266.286 96.3046 266.303 96.2958Z" fill="#D1734A"/>
<path d="M263.716 75.6423C264.974 73.5831 261.516 70.6351 258.982 69.8431C256.447 69.0511 253.112 70.2743 250.586 71.1103C249.002 71.6383 247.41 72.3775 245.738 72.3071C244.618 72.1921 243.521 71.9134 242.482 71.4799C241.444 71.0383 240.327 70.8166 239.199 70.8287C238.636 70.8436 238.087 71.011 237.611 71.3132C237.135 71.6154 236.751 72.041 236.498 72.5447C236.387 72.8018 236.334 73.0798 236.341 73.3594C236.349 73.6391 236.417 73.9139 236.54 74.1648C236.664 74.4157 236.841 74.6368 237.058 74.8129C237.276 74.989 237.529 75.1158 237.8 75.1847C237.444 74.991 237.046 74.8863 236.64 74.8795C236.235 74.8727 235.833 74.964 235.471 75.1457C235.108 75.3274 234.795 75.5941 234.557 75.923C234.32 76.2519 234.166 76.6333 234.107 77.0347C234.049 77.4362 234.089 77.8457 234.223 78.2285C234.357 78.6113 234.582 78.956 234.878 79.2332C235.174 79.5104 235.533 79.712 235.924 79.8207C236.314 79.9294 236.726 79.942 237.122 79.8575C236.392 79.3031 235.274 80.2183 235.362 81.1335C235.461 81.5829 235.675 81.9988 235.984 82.3399C236.293 82.6811 236.685 82.9356 237.122 83.0783C239.261 84.0111 241.76 83.7119 243.978 82.9727C246.195 82.2335 248.246 81.0631 250.437 80.2623C252.628 79.4615 256.315 78.0271 258.515 78.8015C260.143 79.3735 261.27 81.3271 262.185 80.8959C262.618 80.6663 262.991 80.338 263.274 79.9374C263.557 79.5369 263.741 79.0754 263.813 78.5903C263.935 77.6174 263.902 76.6314 263.716 75.6687" fill="#263238"/>
<path d="M237.175 74.9999C237.175 74.9999 237.439 75.3783 237.994 75.9855C238.786 76.8127 239.763 77.4401 240.845 77.8159C242.431 78.3958 244.18 78.3326 245.72 77.6399C247.48 76.8567 248.958 75.2903 250.683 73.8119C252.273 72.3175 254.287 71.3522 256.447 71.0487C257.341 70.9386 258.248 71.0344 259.099 71.3288C259.95 71.6231 260.723 72.1083 261.358 72.7471C261.766 73.1923 262.08 73.7161 262.28 74.2864C262.479 74.8568 262.561 75.4618 262.519 76.0647C262.493 76.3877 262.419 76.705 262.299 77.0063C262.211 77.2087 262.15 77.3055 262.132 77.2967C262.231 76.8892 262.296 76.4742 262.326 76.0559C262.328 74.9139 261.886 73.8157 261.094 72.9935C260.492 72.4162 259.769 71.9807 258.977 71.7189C258.185 71.457 257.345 71.3753 256.518 71.4799C254.447 71.8114 252.524 72.759 251 74.1991C249.31 75.6423 247.77 77.2527 245.905 78.0623C245.087 78.4247 244.205 78.6207 243.311 78.6388C242.416 78.6569 241.527 78.4969 240.695 78.1679C239.573 77.7519 238.581 77.0478 237.818 76.1263C237.612 75.878 237.433 75.6097 237.281 75.3255C237.23 75.2225 237.195 75.1129 237.175 74.9999Z" fill="#455A64"/>
<path d="M266.277 90.6024C266.277 90.6024 266.057 90.4616 265.863 90.0568C265.603 89.4716 265.514 88.8247 265.608 88.1912C265.714 86.5368 267.183 84.768 267.368 82.48C267.515 81.4234 267.33 80.3473 266.84 79.4C266.404 78.6542 265.732 78.0751 264.93 77.7544C264.393 77.5241 263.803 77.442 263.223 77.5168C262.81 77.5872 262.589 77.684 262.572 77.64C262.554 77.596 262.748 77.4552 263.179 77.3232C263.802 77.1672 264.457 77.1978 265.062 77.4112C265.97 77.7304 266.74 78.3517 267.245 79.1712C267.819 80.1857 268.054 81.3577 267.914 82.5152C267.784 83.6455 267.45 84.7428 266.928 85.7536C266.508 86.5345 266.197 87.3695 266.004 88.2352C265.845 89.0333 265.94 89.8613 266.277 90.6024Z" fill="#455A64"/>
<path d="M281.756 203.779L311.254 375.397L287.995 378.23L254.969 225.137L257.723 376.022H235.45L226.642 202.274L281.756 203.779Z" fill="#263238"/>
<path d="M228.824 149.157L220.508 154.323L211.074 136.195C215.219 133.203 228.507 124.649 231.878 122.449C232.711 121.891 233.595 121.41 234.518 121.015C236.76 120.137 239.11 119.563 241.505 119.308C243.634 119.017 245.254 118.877 246.301 118.745C252.363 120.663 258.869 120.663 264.93 118.745C265.661 118.745 266.374 118.833 267.06 118.912C273.22 119.792 279.195 124.113 282.9 128.125L297.578 141.325L283.182 158.538L278.729 153.258L279.776 177.573L284.026 207.809H226.518C226.518 207.809 226.395 200.681 226.914 190.773C227.654 176.833 228.384 155.159 228.384 155.159" fill="#E3B76B"/>
<path d="M228.261 164.443C228.478 163.119 228.601 161.781 228.63 160.439C228.798 157.975 229.018 154.561 229.326 150.759C229.634 146.958 229.977 143.596 230.206 141.132C230.401 139.809 230.498 138.474 230.496 137.137C230.133 138.426 229.885 139.746 229.757 141.079C229.396 143.534 228.991 146.94 228.674 150.706C228.358 154.473 228.217 157.905 228.164 160.386C228.076 161.739 228.108 163.096 228.261 164.443Z" fill="#263238"/>
<path d="M277.682 140.454C277.524 141.363 277.476 142.288 277.541 143.209C277.541 144.907 277.646 147.257 277.831 149.844C278.016 152.431 278.28 154.763 278.526 156.444C278.588 157.365 278.774 158.274 279.081 159.146C279.138 158.229 279.103 157.309 278.975 156.4C278.826 154.455 278.658 152.238 278.474 149.791C278.289 147.345 278.139 145.127 277.99 143.191C277.99 142.27 277.886 141.352 277.682 140.454Z" fill="#263238"/>
<path d="M272.921 143.332H263.346V145.822H272.921V143.332Z" fill="#FAFAFA"/>
<path d="M281.941 127.439C281.198 127.22 280.427 127.11 279.653 127.113C277.535 127.24 275.501 127.984 273.801 129.252C272.683 129.991 271.539 130.915 270.281 131.848C268.906 132.845 267.431 133.697 265.881 134.391C264.147 135.127 262.338 135.67 260.486 136.01C258.493 136.348 256.467 136.454 254.449 136.327C252.431 136.207 250.435 135.834 248.509 135.218C247.594 134.928 246.695 134.588 245.817 134.197C244.981 133.813 244.17 133.378 243.388 132.895C240.264 131.056 238.187 128.495 235.996 126.981C234.332 125.666 232.254 124.986 230.135 125.063C229.364 125.149 228.612 125.36 227.909 125.688L228.041 125.6C228.166 125.512 228.298 125.436 228.437 125.371C228.964 125.113 229.533 124.949 230.117 124.887C232.293 124.737 234.448 125.384 236.181 126.709C238.442 128.24 240.537 130.765 243.599 132.534C244.373 133.005 245.176 133.429 246.001 133.801C246.863 134.177 247.744 134.506 248.641 134.787C250.534 135.387 252.494 135.75 254.476 135.869C256.455 135.993 258.442 135.893 260.398 135.57C262.209 135.238 263.979 134.712 265.678 134.004C267.211 133.335 268.671 132.509 270.034 131.54C271.319 130.66 272.481 129.709 273.625 128.979C275.383 127.708 277.484 126.996 279.653 126.937C280.249 126.934 280.843 127.023 281.413 127.201C281.557 127.244 281.698 127.297 281.835 127.36C281.897 127.404 281.941 127.43 281.941 127.439Z" fill="#FAFAFA"/>
<path d="M228.912 145.946C228.841 145.946 228.278 145.189 227.152 144.186C226.474 143.581 225.74 143.042 224.961 142.575C223.996 142.018 222.975 141.564 221.916 141.22C220.853 140.893 219.759 140.678 218.651 140.578C217.742 140.506 216.829 140.521 215.923 140.622C214.383 140.806 213.459 141.141 213.433 141.053C213.406 140.965 213.644 140.921 214.057 140.771C214.647 140.554 215.258 140.398 215.879 140.305C216.804 140.156 217.742 140.106 218.677 140.155C219.824 140.237 220.957 140.446 222.057 140.78C223.147 141.137 224.192 141.618 225.172 142.214C225.971 142.717 226.712 143.308 227.381 143.974C227.638 144.222 227.88 144.487 228.102 144.766C228.289 144.965 228.457 145.18 228.604 145.409C228.815 145.717 228.938 145.919 228.912 145.946Z" fill="#FAFAFA"/>
<path d="M277.488 154.42C277.352 154.525 277.204 154.613 277.048 154.684L275.737 155.37L274.777 155.863C274.417 156.03 274.021 156.18 273.598 156.365C272.718 156.708 271.838 157.148 270.703 157.491L268.943 158.063C268.345 158.257 267.702 158.398 267.051 158.582C265.749 158.961 264.314 159.198 262.809 159.462C259.535 159.965 256.221 160.168 252.909 160.07C249.598 159.915 246.307 159.455 243.08 158.697C241.601 158.292 240.193 157.931 238.926 157.447C238.284 157.218 237.659 157.034 237.078 156.787L235.406 156.074C234.333 155.652 233.426 155.133 232.608 154.719C232.203 154.508 231.816 154.323 231.481 154.13L230.601 153.566L229.343 152.774C229.189 152.691 229.047 152.587 228.921 152.466C229.086 152.528 229.245 152.605 229.396 152.695L230.689 153.408L231.622 153.936C231.965 154.121 232.353 154.288 232.757 154.49C233.585 154.878 234.517 155.37 235.573 155.775L237.237 156.462C237.817 156.69 238.442 156.866 239.085 157.095C240.352 157.553 241.725 157.896 243.212 158.283C249.621 159.826 256.271 160.092 262.783 159.066C264.27 158.794 265.696 158.574 266.989 158.186C267.641 158.01 268.283 157.887 268.881 157.702L270.597 157.157C271.697 156.84 272.648 156.418 273.501 156.101C273.924 155.934 274.329 155.793 274.689 155.634L275.657 155.186L277.004 154.578C277.156 154.501 277.319 154.448 277.488 154.42Z" fill="#FAFAFA"/>
<path d="M293.24 139.61C292.352 139.474 291.455 139.401 290.556 139.39C288.398 139.493 286.297 140.124 284.44 141.229C282.586 142.358 280.865 143.692 279.31 145.206C278.678 145.858 277.999 146.461 277.277 147.01C277.811 146.276 278.415 145.595 279.081 144.978C280.595 143.369 282.321 141.975 284.211 140.833C286.129 139.685 288.321 139.077 290.556 139.073C291.228 139.078 291.896 139.17 292.545 139.346C292.791 139.39 293.027 139.479 293.24 139.61Z" fill="#FAFAFA"/>
<path d="M278.65 172.962C278.5 173.057 278.341 173.136 278.174 173.199L276.784 173.824C276.186 174.097 275.438 174.414 274.549 174.704C273.66 174.994 272.674 175.417 271.539 175.742L269.779 176.279C269.154 176.464 268.503 176.596 267.826 176.772C266.479 177.133 265.018 177.388 263.478 177.652C256.785 178.798 249.951 178.857 243.238 177.828C241.698 177.555 240.229 177.326 238.838 176.948C238.161 176.781 237.501 176.658 236.885 176.482L235.125 175.971C233.981 175.672 232.978 175.285 232.089 174.986C231.2 174.686 230.443 174.387 229.836 174.106L228.437 173.516C228.272 173.451 228.113 173.371 227.962 173.278C228.138 173.305 228.31 173.355 228.472 173.428L229.906 173.947C230.522 174.176 231.27 174.458 232.168 174.73C233.066 175.003 234.069 175.364 235.213 175.61L236.973 176.086C237.598 176.244 238.258 176.367 238.926 176.517C240.273 176.842 241.742 177.054 243.274 177.309C249.957 178.292 256.751 178.235 263.417 177.142C264.948 176.86 266.409 176.622 267.746 176.262C268.415 176.094 269.075 175.971 269.691 175.795L271.451 175.285C272.586 174.986 273.59 174.607 274.478 174.317C275.367 174.026 276.115 173.745 276.731 173.498L278.148 172.962C278.314 172.938 278.483 172.938 278.65 172.962Z" fill="#FAFAFA"/>
<path d="M281.958 196.053C281.771 196.078 281.582 196.078 281.395 196.053L279.811 195.85C278.438 195.657 276.441 195.419 273.968 195.164C271.495 194.909 268.547 194.68 265.273 194.513C262 194.346 258.383 194.302 254.599 194.381C250.815 194.46 247.207 194.698 243.942 194.988C240.677 195.278 237.738 195.648 235.283 196.018C232.828 196.387 230.839 196.713 229.475 196.968L227.9 197.232C227.717 197.271 227.532 197.295 227.345 197.302C227.517 197.226 227.697 197.173 227.882 197.144L229.44 196.792C230.795 196.484 232.775 196.106 235.23 195.701C237.685 195.296 240.625 194.9 243.898 194.566C247.172 194.231 250.789 194.011 254.59 193.923C258.392 193.835 262.009 193.923 265.291 194.09C268.573 194.258 271.53 194.539 274.003 194.847C276.476 195.155 278.465 195.428 279.837 195.674L281.413 195.965C281.596 195.982 281.779 196.011 281.958 196.053Z" fill="#FAFAFA"/>
<path d="M116.545 365.681L112.585 388.333H132.174L134.339 366.913L116.545 365.681Z" fill="#E3B76B"/>
<path d="M132.57 386.52C131.628 386.675 130.672 386.731 129.718 386.687C127.958 386.687 125.521 386.687 122.837 386.555L115.964 386.265C115.009 386.277 114.054 386.201 113.113 386.036C114.059 385.888 115.017 385.838 115.973 385.886C117.733 385.886 120.17 385.886 122.854 386.018L129.727 386.3C130.679 386.287 131.631 386.361 132.57 386.52Z" fill="#263238"/>
<g opacity="0.6">
<path d="M112.585 388.333H132.174L132.359 386.476L112.937 385.992L112.585 388.113" fill="white"/>
</g>
<path d="M122.15 386.467C122.35 383.569 122.709 380.684 123.224 377.826C123.58 374.947 124.088 372.088 124.746 369.263C124.541 372.158 124.183 375.039 123.673 377.896C123.311 380.777 122.803 383.638 122.15 386.467Z" fill="#263238"/>
<path d="M131.487 386.432C131.682 385.054 131.567 383.65 131.153 382.322C130.681 380.9 129.825 379.636 128.68 378.67C127.254 377.517 125.472 376.895 123.638 376.91C121.803 376.883 120.011 377.465 118.543 378.565C117.354 379.492 116.416 380.702 115.815 382.085C115.273 383.371 114.975 384.746 114.935 386.141C114.935 386.141 114.935 386.045 114.873 385.851C114.85 385.558 114.85 385.264 114.873 384.971C114.904 383.925 115.125 382.893 115.524 381.926C116.114 380.476 117.069 379.203 118.296 378.23C119.834 377.058 121.722 376.438 123.655 376.47C125.413 376.449 127.129 377.005 128.54 378.052C129.952 379.1 130.981 380.581 131.47 382.269C131.78 383.271 131.879 384.325 131.76 385.367C131.733 385.65 131.68 385.93 131.602 386.203C131.54 386.344 131.505 386.441 131.487 386.432Z" fill="#263238"/>
<path d="M200.787 359.354L205.548 374.965C205.548 374.965 223.025 375.37 224.187 378.169L194.267 388.491L185.845 364.467L200.787 359.354Z" fill="#E3B76B"/>
<g opacity="0.6">
<path d="M195.842 376.84C195.586 377.027 195.408 377.302 195.342 377.612C195.275 377.922 195.325 378.245 195.481 378.521C195.656 378.786 195.927 378.974 196.237 379.044C196.546 379.115 196.872 379.063 197.144 378.899C197.412 378.703 197.598 378.416 197.668 378.091C197.738 377.767 197.686 377.428 197.523 377.139C197.311 376.886 197.011 376.724 196.683 376.686C196.355 376.648 196.026 376.738 195.763 376.937" fill="white"/>
</g>
<g opacity="0.6">
<path d="M194.24 388.491L193.483 386.036L222.479 377.06C222.479 377.06 224.011 377.183 224.187 378.169L194.24 388.491Z" fill="white"/>
</g>
<path d="M205.988 374.649C206.032 374.798 205.319 375.115 204.765 375.837C204.211 376.558 204.035 377.297 203.885 377.289C203.735 377.28 203.656 376.356 204.342 375.529C205.029 374.701 205.971 374.499 205.988 374.649Z" fill="#263238"/>
<path d="M209.57 374.86C209.658 374.992 209.112 375.458 208.822 376.25C208.531 377.042 208.619 377.746 208.478 377.79C208.338 377.834 207.95 377.034 208.32 376.03C208.69 375.027 209.526 374.728 209.57 374.86Z" fill="#263238"/>
<path d="M212.65 378.01C212.535 378.09 212.078 377.43 212.174 376.497C212.271 375.564 212.852 375.01 212.949 375.106C213.046 375.203 212.782 375.784 212.711 376.55C212.641 377.315 212.79 377.94 212.65 378.01Z" fill="#263238"/>
<path d="M204.501 371.208C204.501 371.366 203.744 371.393 202.943 371.736C202.142 372.079 201.579 372.554 201.456 372.457C201.333 372.361 201.782 371.621 202.732 371.234C203.682 370.847 204.536 371.067 204.501 371.208Z" fill="#263238"/>
<g opacity="0.3">
<path d="M201.729 362.443L202.582 365.224L187.816 370.17L186.945 367.697L201.729 362.443Z" fill="black"/>
</g>
<path d="M203.48 368.04C203.034 368.343 202.514 368.519 201.975 368.55C201.393 368.642 200.802 368.662 200.215 368.612C199.872 368.58 199.531 368.527 199.195 368.453C198.992 368.414 198.797 368.345 198.614 368.251C198.482 368.179 198.378 368.066 198.318 367.93C198.257 367.793 198.244 367.64 198.279 367.494C198.32 367.368 198.388 367.253 198.48 367.157C198.571 367.061 198.683 366.986 198.807 366.94C198.998 366.876 199.196 366.838 199.397 366.825C199.745 366.795 200.096 366.795 200.444 366.825C201.027 366.876 201.598 367.022 202.134 367.257C203.014 367.661 203.48 368.137 203.436 368.137C203.392 368.137 202.891 367.864 202.002 367.573C201.485 367.411 200.95 367.313 200.409 367.283C200.09 367.257 199.769 367.257 199.45 367.283C199.106 367.283 198.834 367.397 198.807 367.565C198.781 367.732 198.807 367.653 198.895 367.723C199.028 367.792 199.17 367.84 199.318 367.864C199.646 367.94 199.963 368.002 200.268 368.049C200.811 368.117 201.359 368.135 201.905 368.101C202.428 368.046 202.954 368.026 203.48 368.04Z" fill="#263238"/>
<path d="M203.366 368.348C203.322 368.348 202.855 367.969 202.486 367.037C202.269 366.492 202.147 365.915 202.125 365.329C202.114 364.979 202.138 364.628 202.195 364.282C202.207 364.057 202.277 363.838 202.399 363.648C202.521 363.459 202.69 363.304 202.89 363.2C203.025 363.156 203.17 363.151 203.307 363.187C203.445 363.223 203.569 363.298 203.665 363.402C203.8 363.551 203.916 363.716 204.008 363.895C204.447 364.756 204.532 365.753 204.246 366.676C203.929 367.653 203.366 368.04 203.366 367.996C203.572 367.535 203.748 367.062 203.894 366.579C204.008 366.06 204.008 365.523 203.894 365.004C203.832 364.695 203.722 364.398 203.568 364.124C203.41 363.825 203.207 363.605 203.093 363.675C202.978 363.745 202.776 364.053 202.741 364.353C202.681 364.663 202.652 364.978 202.653 365.294C202.654 365.833 202.728 366.368 202.873 366.887C203.093 367.811 203.48 368.304 203.366 368.348Z" fill="#263238"/>
<path d="M112.963 161.953L107.322 173.56C106.075 176.128 105.629 179.013 106.043 181.838C106.458 184.663 107.713 187.298 109.646 189.4C111.162 191.045 113.044 192.31 115.14 193.091C117.237 193.872 119.488 194.148 121.71 193.897L143.64 191.397V178.356L122.062 178.981L127.457 169.485L112.963 161.953Z" fill="#B78876"/>
<path d="M140.745 120.672C137.128 114.565 136.09 106.425 135.175 99.3847C134.743 96.0671 133.987 91.3503 136.319 89.2735C138.818 87.0559 139.055 83.6327 141.924 81.9167C144.793 80.2007 148.683 80.0599 151.393 82.0223" fill="#263238"/>
<path d="M150.759 142.32C152.073 142.423 153.395 142.26 154.644 141.84C155.894 141.421 157.046 140.753 158.032 139.879C159.017 139.004 159.817 137.939 160.381 136.748C160.946 135.557 161.265 134.265 161.319 132.948C161.539 127.615 161.733 122.221 161.733 122.221C161.733 122.221 169.829 121.481 170.436 113.482C171.043 105.483 170.832 86.9942 170.832 86.9942C166.406 84.7571 161.463 83.7408 156.513 84.0502C151.563 84.3595 146.785 85.9833 142.672 88.7542L143.095 116.914L143.042 132.077C143.068 137.137 145.699 141.88 150.759 142.32Z" fill="#B78876"/>
<path d="M162.507 103.688C161.126 101.972 158.891 101.277 157.043 102.474C156.135 103.1 155.479 104.029 155.192 105.094C154.905 106.16 155.006 107.292 155.476 108.29C155.89 109.029 156.451 109.674 157.125 110.185C157.798 110.697 158.57 111.065 159.392 111.265C160.128 111.429 160.778 111.857 161.219 112.469C161.66 113.08 161.862 113.832 161.786 114.582C161.548 116.598 158.204 117.337 156.691 118.982C154.341 121.561 149.184 122.643 145.717 123.039C142.25 123.435 142.716 123.462 140.745 120.654C139.414 118.753 138.738 116.471 138.818 114.151L138.501 96.4456C138.376 94.3184 138.518 92.1839 138.923 90.092C139.337 87.9705 140.538 86.0841 142.285 84.812C144.239 83.536 146.685 83.4392 148.929 82.7264C151.701 81.8464 154.059 80.0072 156.655 78.6872C159.251 77.3672 162.437 76.584 165.042 77.8952C166.907 78.8368 168.157 80.7112 169.97 81.7496C172.548 83.228 176.077 82.9024 177.318 86.7128C177.741 88.0409 177.722 89.4704 177.265 90.7872C175.505 95.9616 169.072 98.0296 164.461 95.7768C164.373 96.6568 165.227 98.6104 164.294 101.374C163.995 102.254 163.889 103.609 162.534 103.635" fill="#263238"/>
<path d="M161.055 108.678C161.055 108.678 161.055 108.827 160.95 109.021C160.843 109.154 160.71 109.263 160.558 109.34C160.406 109.418 160.24 109.462 160.07 109.47C159.507 109.434 158.98 109.184 158.595 108.772C158.211 108.359 157.998 107.816 158.002 107.252C157.982 106.945 158.025 106.636 158.128 106.346C158.231 106.055 158.391 105.789 158.6 105.562C158.931 105.198 159.368 104.945 159.85 104.841C160.677 104.674 161.152 104.973 161.117 105.026C161.082 105.078 160.624 105.026 159.964 105.228C159.546 105.364 159.184 105.633 158.933 105.993C158.682 106.354 158.556 106.787 158.574 107.226C158.575 107.658 158.725 108.078 158.999 108.413C159.273 108.747 159.655 108.978 160.078 109.065C160.73 109.1 161.002 108.625 161.055 108.678Z" fill="#7C5142"/>
<path d="M141.361 90.3295C143 89.6172 144.402 88.4511 145.4 86.9687C146.398 85.4862 146.952 83.7492 146.995 81.9625C147.039 80.1758 146.571 78.4138 145.646 76.8844C144.721 75.355 143.378 74.122 141.776 73.3306C140.173 72.5392 138.378 72.2226 136.601 72.418C134.825 72.6134 133.141 73.3127 131.749 74.4335C130.357 75.5542 129.314 77.0497 128.744 78.7435C128.174 80.4374 128.1 82.2589 128.531 83.9935C128.733 84.5264 128.733 85.1149 128.531 85.6479C128.187 86.2375 127.387 86.3167 126.771 86.5279C124.509 87.4079 124.201 90.8311 125.891 92.5999C127.58 94.3687 130.291 94.6151 132.649 93.9903C132.077 96.0407 133.925 98.2407 136.046 98.4871C137.115 98.5422 138.179 98.306 139.124 97.8039C140.07 97.3018 140.861 96.5525 141.414 95.6359C142.498 93.7836 143.123 91.6984 143.235 89.5551" fill="#263238"/>
<path d="M146.791 80.5967C146.834 80.8649 146.834 81.1382 146.791 81.4063C146.754 82.1537 146.648 82.8961 146.474 83.6239C145.907 86.0346 144.685 88.2418 142.943 90.0013C141.2 91.7609 139.005 93.0044 136.6 93.5943C135.875 93.7681 135.136 93.8741 134.391 93.9111C134.121 93.9599 133.844 93.9599 133.573 93.9111C133.573 93.8319 134.735 93.8143 136.521 93.3127C138.839 92.6643 140.949 91.426 142.646 89.7186C144.342 88.0112 145.567 85.8932 146.201 83.5711C146.694 81.7583 146.703 80.5879 146.791 80.5967Z" fill="#F5F5F5"/>
<path d="M137.92 73.1783C137.92 73.1783 137.999 73.1255 138.158 73.0903C138.396 73.0292 138.642 73.0025 138.888 73.0111C139.811 73.0527 140.696 73.3888 141.414 73.9703C141.912 74.3631 142.337 74.8395 142.672 75.3783C143.047 76.0024 143.309 76.6875 143.446 77.4023C143.727 79.0258 143.661 80.6901 143.253 82.2863C142.607 85.1737 141.323 87.8799 139.495 90.2063C138.961 90.9088 138.373 91.5679 137.735 92.1775C137.512 92.42 137.254 92.6276 136.97 92.7935C136.908 92.7319 137.964 91.8079 139.284 90.0127C140.997 87.6615 142.21 84.984 142.848 82.1455C143.243 80.611 143.321 79.0119 143.077 77.4463C142.956 76.7732 142.724 76.1248 142.39 75.5279C142.09 75.0187 141.706 74.5636 141.255 74.1815C140.575 73.6366 139.748 73.3086 138.879 73.2399C138.272 73.1343 137.92 73.2399 137.92 73.1783Z" fill="#455A64"/>
<path d="M128.17 85.9472C128.17 85.9472 128.24 85.7096 128.46 85.3488C128.777 84.8355 129.152 84.3601 129.578 83.932C130.989 82.4917 132.826 81.5431 134.818 81.2262C136.81 80.9094 138.85 81.2409 140.639 82.172C141.175 82.4455 141.679 82.776 142.144 83.1576C142.47 83.4304 142.619 83.6064 142.602 83.6328C142.584 83.6592 141.854 83.0696 140.498 82.4624C138.743 81.6539 136.786 81.3895 134.878 81.7032C132.971 82.0169 131.202 82.8942 129.798 84.2224C128.68 85.1728 128.24 85.9912 128.17 85.9472Z" fill="#455A64"/>
<path d="M143.922 89.0798C143.966 89.027 144.978 89.8454 146.72 91.0158C148.982 92.5468 151.383 93.8609 153.892 94.9406C155.267 95.5427 156.674 96.0685 158.107 96.5158C159.241 96.9262 160.425 97.1837 161.627 97.2814C162.439 97.3168 163.243 97.115 163.942 96.7006C164.426 96.4014 164.619 96.1286 164.654 96.155C164.69 96.1814 164.522 96.4806 164.038 96.8502C163.336 97.3533 162.491 97.6185 161.627 97.607C160.373 97.5588 159.134 97.3245 157.949 96.9118C153.845 95.6978 149.977 93.7965 146.509 91.2886C145.629 90.6638 144.995 90.1182 144.546 89.731C144.311 89.5416 144.101 89.3228 143.922 89.0798Z" fill="#455A64"/>
<path d="M141.511 78.9599C141.422 78.5944 141.392 78.2171 141.423 77.8423C141.431 76.8174 141.619 75.8018 141.977 74.8415C142.508 73.3741 143.587 72.1693 144.987 71.4799C145.821 71.0593 146.76 70.8911 147.688 70.9959C148.689 71.1228 149.618 71.5814 150.328 72.2983C151.035 72.9977 151.551 73.8675 151.824 74.8239C152.061 75.7067 152.127 76.6267 152.018 77.5343C151.814 79.049 151.292 80.5036 150.487 81.8023C149.953 82.669 149.366 83.5008 148.727 84.2927C148.514 84.6132 148.266 84.9085 147.987 85.1727C148.158 84.8384 148.358 84.5203 148.586 84.2223C148.982 83.6327 149.58 82.7879 150.196 81.6791C150.935 80.4018 151.411 78.9895 151.595 77.5255C151.686 76.672 151.614 75.8091 151.384 74.9823C151.121 74.1065 150.646 73.3088 150.003 72.6591C149.36 72.0163 148.526 71.5994 147.627 71.4711C146.785 71.3759 145.933 71.5224 145.171 71.8935C143.849 72.5271 142.815 73.6366 142.276 74.9999C141.904 75.9246 141.675 76.9011 141.599 77.8951C141.587 78.2513 141.558 78.6067 141.511 78.9599Z" fill="#263238"/>
<path d="M232.837 60.4359C231.535 59.7759 227.777 66.7631 227.715 64.8359C227.654 62.9087 233.295 56.8367 231.904 56.2031C230.091 55.3759 226.299 62.7591 225.938 63.3575C225.577 63.9559 224.688 63.4543 225.058 62.9263C225.577 62.1695 230.822 54.1263 229.053 53.2463C228.067 52.7887 227.416 54.6279 227.416 54.6279C227.416 54.6279 223.06 62.5479 222.233 62.1079C221.406 61.6679 223.799 56.9599 224.723 55.4287C225.647 53.8975 225.278 52.8591 224.275 53.0087C223.588 53.1143 220.649 57.7519 219.778 59.2919C218.907 60.8319 216.575 65.0999 216.011 62.0639C215.448 59.0279 213.864 56.9071 213.046 56.6255C212.85 56.5849 212.646 56.6055 212.463 56.6843C212.279 56.7632 212.124 56.8965 212.018 57.0664C211.913 57.2363 211.862 57.4344 211.872 57.6341C211.883 57.8338 211.955 58.0255 212.078 58.1831C212.593 59.09 212.978 60.0645 213.222 61.0783C213.45 61.8876 213.539 62.7296 213.486 63.5687C213.415 64.5367 213.319 65.3287 213.222 66.0591L211.506 69.6583C211.506 69.6583 199.08 97.9503 196.959 102.033C194.839 106.117 177.599 123.963 177.599 123.963L181.234 144.845L209.174 114.6L223.931 73.0639L224.292 72.0343C224.292 72.0343 229.572 66.4111 230.91 64.6159C233.647 60.9199 233.321 60.6823 232.837 60.4359Z" fill="#B78876"/>
<path d="M129.657 200.505C129.657 200.505 120.857 220.393 118.974 240.105L109.672 366.535L140.71 369.8L149.8 238.741C149.8 238.741 178.277 370.979 179.395 370.979C180.512 370.979 204.378 362.091 204.378 362.091L176.306 201.148L129.657 200.505Z" fill="#455A64"/>
<path d="M163 241.962C163 242.112 156.673 240.704 148.92 238.821C141.167 236.938 134.963 235.301 135.007 235.134C135.051 234.966 141.326 236.383 149.087 238.266C156.849 240.15 163 241.804 163 241.962Z" fill="#263238"/>
<path d="M142.523 342.432C142.523 342.432 142.417 342.432 142.197 342.494C141.885 342.541 141.571 342.571 141.255 342.582C140.095 342.621 138.935 342.551 137.788 342.37C136.091 342.092 134.417 341.686 132.781 341.156C130.933 340.575 128.935 339.845 126.832 339.15C124.858 338.487 122.829 338.001 120.769 337.698C119.09 337.466 117.388 337.466 115.709 337.698C114.164 337.951 112.664 338.428 111.256 339.114C111.334 339.038 111.423 338.972 111.52 338.921C111.782 338.745 112.056 338.586 112.338 338.446C113.384 337.925 114.503 337.566 115.656 337.381C117.366 337.11 119.106 337.089 120.822 337.319C122.916 337.603 124.979 338.086 126.982 338.762L132.922 340.795C134.532 341.341 136.179 341.774 137.85 342.089C139.396 342.325 140.958 342.44 142.523 342.432Z" fill="#FAFAFA"/>
<path d="M142.646 331.766C142.224 331.795 141.8 331.795 141.378 331.766C140.231 331.727 139.081 331.759 137.938 331.863C135.034 332.074 131.118 333.016 126.744 333.922C124.679 334.347 122.584 334.614 120.478 334.723C118.755 334.815 117.027 334.7 115.33 334.38C114.187 334.157 113.074 333.803 112.013 333.324C111.727 333.192 111.448 333.045 111.177 332.884C111.076 332.838 110.984 332.776 110.904 332.699C112.35 333.303 113.854 333.757 115.392 334.054C118.243 334.591 122.3 334.371 126.656 333.473C131.012 332.576 134.972 331.669 137.92 331.546C139.075 331.467 140.235 331.482 141.387 331.59C141.812 331.598 142.235 331.657 142.646 331.766Z" fill="#FAFAFA"/>
<path d="M197.989 319.42C197.949 319.522 197.893 319.618 197.822 319.701C197.64 319.961 197.433 320.202 197.206 320.423C196.353 321.227 195.331 321.828 194.214 322.183C192.563 322.703 190.824 322.885 189.101 322.72C187.165 322.579 185.088 322.113 182.941 321.752C180.908 321.388 178.831 321.331 176.781 321.585C175.11 321.804 173.474 322.239 171.915 322.878C170.486 323.502 169.107 324.231 167.787 325.061C167.787 325.061 167.858 324.973 168.016 324.832C168.175 324.691 168.43 324.497 168.764 324.269C169.709 323.603 170.721 323.036 171.783 322.579C173.358 321.883 175.022 321.409 176.728 321.171C178.816 320.883 180.937 320.927 183.011 321.303C185.211 321.664 187.262 322.139 189.171 322.297C190.843 322.479 192.535 322.335 194.152 321.875C195.239 321.561 196.249 321.025 197.118 320.3C197.69 319.763 197.954 319.393 197.989 319.42Z" fill="#FAFAFA"/>
<path d="M202.679 342.722C202.444 343.075 202.17 343.4 201.861 343.69C201.069 344.531 200.207 345.303 199.282 345.996C196.216 348.306 192.65 349.865 188.872 350.545C185.093 351.208 181.213 350.997 177.529 349.929C176.417 349.61 175.331 349.204 174.282 348.715C173.89 348.552 173.518 348.346 173.173 348.099C173.576 348.222 173.97 348.372 174.352 348.548C175.414 348.973 176.501 349.332 177.608 349.621C181.259 350.58 185.074 350.739 188.793 350.088C192.503 349.413 196.018 347.929 199.089 345.741C201.438 344.042 202.6 342.652 202.679 342.722Z" fill="#FAFAFA"/>
<path d="M194.979 309.713C194.979 309.713 194.539 309.713 193.756 309.713C192.646 309.767 191.555 310.02 190.535 310.461C189.028 311.129 187.621 312.002 186.355 313.057C184.894 314.228 183.381 315.653 181.586 316.921C179.909 318.157 177.953 318.961 175.892 319.261C174.225 319.488 172.534 319.488 170.867 319.261C169.45 319.085 168.315 318.848 167.541 318.681C167.131 318.614 166.727 318.511 166.335 318.373C166.75 318.375 167.163 318.422 167.567 318.513C168.359 318.619 169.494 318.804 170.902 318.936C172.541 319.122 174.197 319.098 175.83 318.865C177.822 318.549 179.708 317.758 181.33 316.56C183.09 315.319 184.604 313.92 186.091 312.75C187.398 311.682 188.857 310.816 190.421 310.18C191.48 309.751 192.614 309.539 193.756 309.555C194.052 309.567 194.346 309.602 194.636 309.661C194.753 309.657 194.869 309.675 194.979 309.713Z" fill="#FAFAFA"/>
<path d="M145.286 304.68C145.286 304.68 145.198 304.759 145.004 304.874C144.721 305.039 144.427 305.186 144.124 305.314C143.021 305.785 141.851 306.082 140.657 306.194C138.894 306.359 137.117 306.279 135.377 305.956C133.253 305.561 131.157 305.029 129.102 304.363C127.067 303.702 124.996 303.158 122.898 302.735C121.19 302.394 119.445 302.273 117.706 302.374C116.107 302.528 114.541 302.922 113.06 303.545C113.146 303.468 113.244 303.405 113.35 303.36C113.633 303.192 113.927 303.045 114.23 302.92C115.335 302.452 116.504 302.155 117.698 302.04C119.461 301.884 121.238 301.973 122.978 302.304C125.1 302.707 127.196 303.241 129.252 303.906C131.272 304.566 133.329 305.106 135.412 305.525C137.121 305.859 138.866 305.972 140.604 305.859C142.217 305.714 143.796 305.316 145.286 304.68Z" fill="#FAFAFA"/>
<path d="M190.826 283.041C190.826 283.041 190.826 283.164 190.738 283.375C190.634 283.678 190.507 283.972 190.359 284.255C189.798 285.326 189.047 286.287 188.142 287.089C186.802 288.277 185.257 289.214 183.583 289.852C181.534 290.596 179.405 291.095 177.239 291.339C174.951 291.638 172.768 291.832 170.806 292.131C169.063 292.331 167.335 292.639 165.631 293.055C164.499 293.381 163.444 293.928 162.525 294.666C162.21 294.977 161.878 295.271 161.531 295.546C161.584 295.445 161.652 295.353 161.733 295.273C161.943 295.024 162.17 294.789 162.411 294.569C163.311 293.765 164.373 293.165 165.526 292.809C167.237 292.337 168.982 291.993 170.744 291.779C172.715 291.445 174.907 291.251 177.177 290.899C179.309 290.657 181.407 290.178 183.434 289.474C185.073 288.859 186.595 287.966 187.931 286.834C189.143 285.779 190.128 284.488 190.826 283.041Z" fill="#FAFAFA"/>
<path d="M114.987 280.498C116.351 281.385 117.832 282.078 119.387 282.557C121.084 283.043 122.859 283.198 124.614 283.014C126.756 282.724 128.819 282.015 130.686 280.929C132.719 279.838 134.594 278.641 136.459 277.814C138.098 277.044 139.87 276.599 141.678 276.502C142.904 276.433 144.129 276.646 145.259 277.127C145.568 277.263 145.862 277.428 146.139 277.62C146.241 277.675 146.333 277.747 146.412 277.831C146.412 277.875 145.998 277.602 145.215 277.294C144.089 276.886 142.889 276.724 141.695 276.819C139.939 276.962 138.223 277.427 136.635 278.192C134.822 279.072 132.957 280.234 130.898 281.334C128.981 282.453 126.854 283.166 124.65 283.428C122.847 283.603 121.028 283.414 119.299 282.874C118.136 282.518 117.031 281.996 116.017 281.325C115.739 281.147 115.475 280.95 115.225 280.735C115.058 280.586 114.978 280.506 114.987 280.498Z" fill="#FAFAFA"/>
<path d="M185.827 257.362C185.638 257.755 185.408 258.126 185.141 258.471C184.43 259.421 183.635 260.305 182.765 261.111C179.839 263.782 176.196 265.538 172.284 266.162C170.14 266.439 167.969 266.439 165.825 266.162C164.099 265.965 162.355 265.983 160.633 266.215C159.48 266.388 158.371 266.782 157.368 267.377C156.664 267.817 156.338 268.151 156.312 268.125C156.286 268.098 156.374 268.019 156.523 267.861C156.757 267.632 157.007 267.42 157.271 267.227C158.266 266.559 159.391 266.106 160.571 265.898C162.316 265.609 164.092 265.556 165.851 265.74C167.967 265.975 170.104 265.951 172.214 265.67C176.045 265.055 179.627 263.378 182.554 260.83C183.729 259.756 184.823 258.597 185.827 257.362Z" fill="#FAFAFA"/>
<path d="M146.562 255.154C145.12 254.665 143.62 254.369 142.1 254.274C140.458 254.232 138.823 254.498 137.278 255.057C136.398 255.365 135.518 255.858 134.594 256.245C134.094 256.458 133.567 256.597 133.027 256.658C132.461 256.708 131.89 256.633 131.355 256.438C130.374 256.01 129.441 255.475 128.575 254.846C127.747 254.333 126.861 253.922 125.935 253.622C124.377 253.103 122.734 252.885 121.095 252.98C119.592 253.113 118.113 253.441 116.695 253.957C116.695 253.957 116.783 253.886 116.967 253.79C117.251 253.642 117.545 253.515 117.847 253.411C118.907 253.006 120.017 252.751 121.147 252.654C122.831 252.513 124.527 252.705 126.137 253.218C127.091 253.52 128.005 253.94 128.856 254.467C129.7 255.07 130.602 255.586 131.549 256.007C132.509 256.326 133.555 256.263 134.471 255.831C135.395 255.462 136.231 254.951 137.181 254.661C138.776 254.101 140.465 253.859 142.153 253.948C143.287 254.008 144.407 254.227 145.479 254.599C145.78 254.697 146.074 254.815 146.359 254.951C146.474 255.083 146.571 255.136 146.562 255.154Z" fill="#FAFAFA"/>
<path d="M185.827 251.994C185.542 252.344 185.224 252.665 184.877 252.954C183.986 253.802 183.04 254.59 182.043 255.312C181.41 255.761 180.723 256.28 179.931 256.738C179.535 256.975 179.139 257.239 178.717 257.477L177.379 258.172C175.366 259.166 173.251 259.936 171.07 260.469C168.882 260.971 166.644 261.225 164.399 261.226L162.894 261.182C162.402 261.182 161.935 261.094 161.478 261.058C160.554 260.997 159.718 260.812 158.952 260.689C157.743 260.475 156.549 260.181 155.379 259.809C154.945 259.684 154.521 259.525 154.112 259.334C154.112 259.237 155.96 259.888 159.005 260.407C159.77 260.513 160.606 260.671 161.513 260.715C161.962 260.715 162.393 260.803 162.912 260.812H164.399C166.609 260.787 168.809 260.528 170.964 260.038C173.109 259.508 175.194 258.759 177.186 257.802L178.514 257.134C178.946 256.905 179.342 256.65 179.738 256.421C180.53 255.99 181.207 255.479 181.858 255.057C183.117 254.177 184.111 253.402 184.762 252.83C185.093 252.522 185.449 252.242 185.827 251.994Z" fill="#FAFAFA"/>
<path d="M180.486 226.809C180.308 226.945 180.116 227.063 179.914 227.161L178.224 228.041C176.746 228.806 174.607 229.924 171.853 231.085C168.639 232.494 165.24 233.436 161.759 233.884C159.692 234.116 157.604 234.08 155.546 233.778C153.352 233.394 151.198 232.805 149.114 232.018C144.828 230.461 140.903 228.604 137.102 227.618C133.747 226.729 130.258 226.455 126.806 226.809C124.475 227.043 122.18 227.551 119.968 228.322C119.185 228.604 118.586 228.833 118.208 229C118.003 229.095 117.791 229.174 117.574 229.237C117.75 229.145 117.933 229.065 118.12 229C118.507 228.797 119.106 228.542 119.88 228.234C122.088 227.389 124.395 226.827 126.744 226.562C130.241 226.162 133.781 226.407 137.19 227.284C141.035 228.261 144.986 230.109 149.237 231.684C151.298 232.448 153.425 233.023 155.59 233.4C157.609 233.709 159.658 233.756 161.689 233.541C165.135 233.111 168.505 232.208 171.703 230.857C174.458 229.739 176.614 228.674 178.118 227.953L179.878 227.117C180.073 226.999 180.276 226.896 180.486 226.809Z" fill="#FAFAFA"/>
<path d="M178.655 213.688C178.171 213.107 177.615 212.589 177.001 212.148C175.229 211.066 173.179 210.528 171.105 210.599C169.683 210.601 168.272 210.848 166.934 211.33C165.482 211.849 163.968 212.509 162.384 213.23C158.99 214.946 155.424 216.297 151.745 217.261C142.925 219.446 133.626 218.599 125.345 214.858C124.667 214.542 124.166 214.278 123.814 214.102C123.633 214.021 123.462 213.921 123.303 213.802C123.495 213.853 123.681 213.924 123.858 214.014L125.415 214.7C127.338 215.489 129.31 216.15 131.32 216.68C134.306 217.44 137.366 217.871 140.446 217.965C144.214 218.095 147.983 217.71 151.648 216.821C155.293 215.863 158.832 214.536 162.208 212.861C163.801 212.148 165.332 211.488 166.81 210.986C168.188 210.496 169.643 210.257 171.105 210.282C173.234 210.251 175.323 210.865 177.098 212.042C177.562 212.379 177.976 212.779 178.33 213.23C178.451 213.373 178.56 213.527 178.655 213.688Z" fill="#FAFAFA"/>
<path d="M196.378 131.989L184.006 115.726L183.46 116.122L163.722 128.548L142.654 129.278C142.654 129.278 127.879 129.278 122.335 140.921C121.728 142.197 109.593 166.441 109.593 166.441L128.328 173.314L131.364 164.654L135.236 184.296L129.657 200.488L176.614 203.005L172.68 179.491L176.2 151.331L196.378 131.989Z" fill="#E3B76B"/>
<path d="M163.687 169.908C163.748 170.358 163.748 170.814 163.687 171.263C163.568 172.496 163.271 173.705 162.807 174.854C161.195 178.667 158.283 181.786 154.587 183.654C150.897 185.433 146.816 186.25 142.725 186.03C141.494 185.989 140.268 185.863 139.055 185.651C138.607 185.603 138.167 185.5 137.744 185.343C137.744 185.238 139.654 185.598 142.734 185.625C146.739 185.724 150.71 184.874 154.323 183.143C157.903 181.335 160.763 178.366 162.437 174.722C163.044 173.173 163.463 171.557 163.687 169.908Z" fill="#263238"/>
<path d="M135.421 185.202C135.263 185.202 133.01 175.038 130.387 162.437C127.765 149.835 125.759 139.557 125.917 139.557C126.075 139.557 128.319 149.721 130.951 162.322C133.582 174.924 135.579 185.167 135.421 185.202Z" fill="#263238"/>
<g opacity="0.2">
<path d="M141.211 186.012C140.701 184.164 142.144 182.272 143.851 181.445C145.559 180.617 147.556 180.512 149.422 180.072C153.064 179.21 156.277 177.072 158.477 174.044C158.767 173.63 159.119 173.164 159.621 173.164C159.867 173.173 160.102 173.265 160.289 173.425C160.476 173.584 160.603 173.803 160.651 174.044C160.825 174.614 160.855 175.219 160.739 175.804C159.859 180.309 156.224 182.193 152.502 184.19C148.779 186.188 145.796 186.381 141.185 186.012" fill="black"/>
</g>
</svg>
