<svg width="412" height="412" viewBox="0 0 412 412" fill="none" xmlns="http://www.w3.org/2000/svg">
<path d="M41.7028 293.163L42.3125 294.629C47.4543 306.989 58.8337 315.691 72.0425 316.877C73.7439 317.03 75.4544 317.055 77.1595 316.952C83.3484 316.502 89.3302 314.529 94.573 311.21C99.8158 307.891 104.157 303.327 107.211 297.925C110.77 291.531 112.657 283.835 118.269 279.188C125.57 273.131 136.183 274.524 145.461 276.229C154.739 277.935 165.344 279.295 172.653 273.214C177.201 269.407 179.393 263.326 179.978 257.385C181.519 241.654 172.768 226.073 159.996 217.009C147.224 207.945 131.016 204.838 115.36 205.588C93.5077 206.634 71.5563 215.303 56.6749 231.593C41.7934 247.884 34.9789 272.118 41.7028 293.163Z" fill="#FDD4A5"/>
<path d="M370.685 57.4493L369.976 56.032C364.01 44.0428 352.079 36.1159 338.821 35.844C337.114 35.8042 335.406 35.8923 333.712 36.1077C327.569 36.9739 321.736 39.3435 316.729 43.0062C311.722 46.6689 307.697 51.5112 305.012 57.1032C301.889 63.6952 300.521 71.5315 295.231 76.5414C288.4 83.0757 277.688 82.4 268.319 81.3123C258.95 80.2247 248.271 79.5819 241.424 86.141C237.131 90.261 235.359 96.4492 235.17 102.415C234.684 118.219 244.456 133.208 257.813 141.374C271.17 149.54 287.527 151.55 303.043 149.762C324.78 147.249 346.097 137.13 359.899 119.884C373.701 102.637 378.801 77.9999 370.685 57.4493Z" fill="#FDD4A5"/>
<path d="M368.724 211.036C371.777 198.651 364.212 186.136 351.827 183.082C339.442 180.029 326.927 187.594 323.873 199.979C320.82 212.364 328.384 224.879 340.769 227.933C353.155 230.986 365.67 223.422 368.724 211.036Z" fill="#FDD4A5"/>
<path d="M395.676 351.502C395.676 351.617 309.98 351.716 204.36 351.716C98.7398 351.716 13.0273 351.617 13.0273 351.502C13.0273 351.387 98.6739 351.288 204.36 351.288C310.046 351.288 395.676 351.387 395.676 351.502Z" fill="#263238"/>
<path d="M248.428 112.888C247.518 111.366 246.155 110.167 244.53 109.457C242.905 108.748 241.099 108.565 239.364 108.933C237.226 107.461 234.655 106.753 232.065 106.924C229.475 107.094 227.019 108.133 225.092 109.872C223.511 109.044 221.744 108.634 219.959 108.683C218.175 108.732 216.433 109.238 214.9 110.152C213.382 111.11 212.133 112.437 211.268 114.01C210.403 115.582 209.952 117.348 209.956 119.142C208.155 118.977 206.346 119.369 204.776 120.267C203.206 121.165 201.951 122.524 201.18 124.16C200.463 125.839 200.27 127.696 200.625 129.487C200.981 131.278 201.87 132.919 203.174 134.197C201.255 134.958 199.682 136.399 198.755 138.244C197.828 140.09 197.612 142.211 198.147 144.206C198.682 146.2 199.931 147.929 201.657 149.062C203.383 150.196 205.465 150.656 207.508 150.355L247.39 122.776C248.559 121.435 249.285 119.765 249.471 117.996C249.657 116.227 249.293 114.443 248.428 112.888Z" fill="#263238"/>
<path d="M206.388 151.55C206.582 142.662 210.135 134.177 216.33 127.801C222.526 121.425 230.905 117.631 239.784 117.181L241.605 117.099C261.299 117.346 272.2 134.403 271.525 154.319L272.085 220.642L269.803 229.072L251.411 258.621L229.707 237.93L226.411 218.278C226.411 218.278 207.385 216.193 206.165 197.101C205.58 187.872 205.901 168.813 206.388 151.55Z" fill="#FFBF9D"/>
<path d="M226.254 218.278C226.254 218.278 238.35 218.451 250.611 209.799C250.611 209.799 246.129 223.807 227.202 222.983L226.254 218.278Z" fill="#FF9A6C"/>
<path d="M213.367 170.016C213.394 170.724 213.695 171.393 214.204 171.884C214.714 172.376 215.394 172.651 216.102 172.653C216.449 172.663 216.793 172.603 217.116 172.477C217.439 172.35 217.733 172.161 217.98 171.918C218.228 171.676 218.424 171.386 218.557 171.067C218.691 170.747 218.758 170.404 218.756 170.057C218.73 169.35 218.43 168.68 217.92 168.189C217.409 167.699 216.728 167.426 216.02 167.429C215.674 167.417 215.33 167.476 215.007 167.602C214.684 167.727 214.39 167.916 214.143 168.158C213.895 168.399 213.699 168.688 213.565 169.008C213.432 169.327 213.364 169.67 213.367 170.016Z" fill="#263238"/>
<path d="M210.763 161.694C211.117 162.031 213.078 160.408 215.979 160.276C218.879 160.144 221.088 161.52 221.376 161.141C221.524 160.977 221.153 160.317 220.189 159.716C218.896 158.893 217.378 158.495 215.847 158.579C214.341 158.644 212.896 159.193 211.727 160.144C210.862 160.878 210.59 161.504 210.763 161.694Z" fill="#263238"/>
<path d="M239.158 169.085C239.185 169.793 239.487 170.463 239.999 170.953C240.511 171.443 241.193 171.716 241.902 171.713C242.247 171.723 242.591 171.664 242.913 171.538C243.235 171.412 243.529 171.223 243.776 170.982C244.024 170.74 244.22 170.452 244.354 170.133C244.488 169.814 244.556 169.472 244.555 169.126C244.529 168.418 244.23 167.749 243.719 167.258C243.208 166.768 242.527 166.495 241.819 166.497C241.473 166.486 241.128 166.545 240.805 166.67C240.482 166.795 240.187 166.984 239.939 167.226C239.691 167.467 239.493 167.756 239.359 168.076C239.225 168.395 239.156 168.738 239.158 169.085Z" fill="#263238"/>
<path d="M238.49 159.988C238.845 160.326 240.814 158.702 243.715 158.579C246.615 158.455 248.815 159.815 249.112 159.444C249.252 159.279 248.889 158.62 247.917 158.01C246.622 157.192 245.105 156.795 243.574 156.873C242.068 156.943 240.624 157.494 239.454 158.447C238.589 159.18 238.317 159.856 238.49 159.988Z" fill="#263238"/>
<path d="M230.061 182.186C230.061 182.022 228.24 181.791 225.298 181.552C224.557 181.511 223.848 181.387 223.7 180.885C223.595 180.114 223.728 179.329 224.079 178.635C224.68 176.789 225.315 174.861 225.974 172.867C228.603 164.627 230.457 157.813 230.094 157.705C229.731 157.598 227.367 164.223 224.746 172.488C224.109 174.526 223.508 176.473 222.942 178.33C222.521 179.259 222.44 180.306 222.711 181.288C222.829 181.547 223.005 181.775 223.225 181.955C223.445 182.135 223.703 182.262 223.98 182.327C224.396 182.419 224.822 182.461 225.249 182.45C228.248 182.425 230.053 182.359 230.061 182.186Z" fill="#263238"/>
<path d="M211.052 153.783C211.571 154.451 213.565 153.783 215.996 153.734C218.426 153.684 220.445 154.187 220.94 153.487C221.146 153.149 220.824 152.481 219.926 151.839C218.734 151.082 217.342 150.7 215.93 150.743C214.519 150.786 213.152 151.25 212.007 152.077C211.101 152.77 210.829 153.454 211.052 153.783Z" fill="#263238"/>
<path d="M237.93 150.998C238.507 151.657 240.724 150.957 243.393 150.916C246.063 150.874 248.337 151.352 248.84 150.652C249.071 150.306 248.708 149.638 247.711 149.004C246.358 148.248 244.825 147.875 243.276 147.924C241.727 147.974 240.221 148.444 238.919 149.284C237.988 149.968 237.683 150.668 237.93 150.998Z" fill="#263238"/>
<path d="M207.755 142.709C207.755 142.709 212.114 130.513 217.643 127.456C224.367 123.748 227.729 131.28 234.214 129.104C240.699 126.929 247.118 123.386 254.097 128.214C261.744 133.504 258.497 137.616 259.387 146.07C262.996 180.349 269.695 189.784 270.626 173.51C270.733 171.73 275.521 170.09 275.859 162.567C276.295 152.803 276.056 140.995 273.56 134.197C271.459 128.429 267.973 124.605 261.875 120.452C252.251 113.902 239.512 114.338 230.91 115.624C222.307 116.909 206.198 127.761 207.755 142.709Z" fill="#263238"/>
<path d="M269.448 173.04C269.43 172.343 269.554 171.65 269.813 171.003C270.071 170.356 270.46 169.768 270.953 169.276C271.447 168.784 272.036 168.398 272.683 168.141C273.331 167.884 274.025 167.762 274.722 167.783C278.265 167.956 282.286 169.802 282.434 177.168C282.69 190.253 269.654 187.74 269.629 187.361C269.588 187.122 269.497 178.528 269.448 173.04Z" fill="#FFBF9D"/>
<path d="M272.324 182.417C272.381 182.417 272.555 182.574 272.942 182.747C273.471 182.957 274.061 182.957 274.59 182.747C275.949 182.219 277.062 180.011 277.062 177.654C277.077 176.517 276.838 175.391 276.361 174.358C276.233 173.954 276.01 173.587 275.71 173.287C275.411 172.988 275.043 172.764 274.639 172.636C274.379 172.57 274.104 172.599 273.863 172.717C273.621 172.834 273.429 173.033 273.321 173.279C273.156 173.65 273.238 173.905 273.173 173.93C273.107 173.955 272.892 173.716 272.983 173.172C273.051 172.85 273.225 172.56 273.477 172.348C273.649 172.209 273.847 172.106 274.059 172.045C274.272 171.984 274.494 171.967 274.713 171.993C275.249 172.095 275.751 172.331 276.17 172.68C276.59 173.029 276.914 173.479 277.111 173.988C277.67 175.117 277.952 176.362 277.935 177.621C277.935 180.258 276.625 182.747 274.763 183.323C274.416 183.429 274.05 183.454 273.692 183.399C273.334 183.343 272.993 183.207 272.695 183.002C272.357 182.738 272.283 182.442 272.324 182.417Z" fill="#FF9A6C"/>
<path d="M267.883 147.76C266.235 148.996 264.587 150.273 262.543 150.57C260.5 150.866 258.168 149.803 257.723 147.793C257.525 146.895 257.723 145.823 257.064 145.148C256.314 144.324 255.028 144.67 253.949 144.835C252.058 145.062 250.146 144.631 248.534 143.616C246.923 142.6 245.71 141.06 245.099 139.256C244.217 140.756 241.976 140.797 240.485 139.915C238.993 139.034 237.972 137.534 236.768 136.273C235.565 135.012 233.917 133.917 232.228 134.238C231.281 134.419 230.415 135.062 229.451 134.996C227.746 134.922 226.823 132.952 226.477 131.263C226.131 129.574 225.826 127.596 224.351 126.739C222.876 125.883 221.277 126.517 219.728 126.822C218.179 127.127 216.144 126.822 215.666 125.322C215.579 124.914 215.574 124.492 215.652 124.082C215.729 123.671 215.888 123.281 216.119 122.933C217.078 121.308 218.563 120.059 220.328 119.393C222.093 118.726 224.032 118.681 225.826 119.266C226.336 117.071 227.491 115.079 229.143 113.546C230.796 112.014 232.869 111.012 235.096 110.668C237.324 110.325 239.603 110.657 241.639 111.621C243.676 112.585 245.378 114.137 246.525 116.077C247.836 114.771 249.442 113.799 251.207 113.244C252.973 112.689 254.846 112.567 256.668 112.888C258.497 113.244 260.216 114.026 261.685 115.172C263.154 116.317 264.332 117.793 265.122 119.48C266.691 119.013 268.36 119.008 269.931 119.465C271.502 119.923 272.908 120.823 273.98 122.059C275.024 123.335 275.687 124.879 275.893 126.515C276.098 128.15 275.838 129.81 275.142 131.304C277.532 132.54 279.641 134.782 279.822 137.476C280.004 140.171 277.548 142.997 274.936 142.42C275.479 143.464 275.625 144.67 275.348 145.813C275.071 146.957 274.389 147.962 273.428 148.641C272.424 149.243 271.234 149.455 270.083 149.236C268.933 149.018 267.904 148.384 267.191 147.455" fill="#263238"/>
<path d="M275.876 142.313C275.925 142.313 276.172 143.401 275.208 144.868C274.603 145.709 273.708 146.296 272.695 146.516C272.044 146.65 271.371 146.638 270.725 146.479C270.08 146.321 269.477 146.021 268.962 145.601L269.506 145.494C268.887 146.74 268.075 147.88 267.1 148.872C266.446 149.541 265.672 150.081 264.818 150.462C264.005 150.809 263.115 150.934 262.238 150.825C261.492 150.794 260.762 150.6 260.099 150.257C259.436 149.914 258.855 149.43 258.399 148.839C257.839 148.033 257.439 147.126 257.22 146.169C257.094 145.833 257.041 145.473 257.064 145.115C257.121 145.115 257.245 145.461 257.492 146.079C257.795 146.969 258.24 147.803 258.811 148.551C260.129 150.364 264.167 151.138 266.573 148.37C267.494 147.437 268.269 146.37 268.872 145.205L269.086 144.81L269.415 145.098C269.853 145.455 270.362 145.713 270.908 145.856C271.454 145.998 272.024 146.021 272.58 145.922C273.477 145.759 274.285 145.276 274.854 144.563C275.344 143.89 275.691 143.125 275.876 142.313Z" fill="#455A64"/>
<path d="M249.961 113.621C249.961 113.671 249.631 113.728 249.071 114.009C248.259 114.4 247.588 115.033 247.151 115.821L247.011 116.077L246.821 115.846C245.096 113.716 242.859 112.058 240.32 111.026C238.687 110.371 236.936 110.065 235.178 110.128C233.249 110.23 231.386 110.867 229.797 111.965C228.542 112.831 227.486 113.954 226.699 115.261C225.982 116.481 225.564 117.853 225.48 119.266V119.686L225.084 119.595C223.452 119.219 221.739 119.438 220.254 120.213C218.769 120.988 217.609 122.268 216.984 123.822C216.526 125.071 216.318 126.399 216.374 127.728C216.239 127.39 216.169 127.029 216.168 126.665C216.085 125.365 216.346 124.066 216.925 122.898C217.503 121.731 218.379 120.737 219.464 120.016C220.306 119.461 221.249 119.079 222.239 118.891C223.229 118.703 224.246 118.713 225.232 118.92L224.812 119.241C224.881 117.709 225.319 116.216 226.089 114.89C226.92 113.492 228.044 112.291 229.385 111.372C231.085 110.19 233.085 109.515 235.153 109.427C237.007 109.373 238.851 109.719 240.559 110.441C243.18 111.544 245.457 113.331 247.151 115.615H246.821C247.326 114.788 248.091 114.15 248.997 113.803C249.298 113.662 249.629 113.599 249.961 113.621Z" fill="#455A64"/>
<path d="M229.146 191.992C229.245 191.695 229.904 191.654 230.794 191.407C231.991 191.089 233.135 190.598 234.189 189.948C234.763 189.585 235.314 189.186 235.837 188.754C236.239 188.386 236.614 187.99 236.958 187.567C237.543 186.842 237.831 186.249 238.144 186.273C238.457 186.298 238.688 187.056 238.309 188.251C238.079 188.93 237.727 189.561 237.271 190.113C236.71 190.758 236.054 191.314 235.326 191.761C234.011 192.611 232.456 193.013 230.893 192.907C229.674 192.816 229.072 192.272 229.146 191.992Z" fill="#263238"/>
<path d="M310.352 349.022L313.994 282.937L310.574 229.13L273.255 219.184C273.255 219.184 268.468 238.861 250.908 240.608C230.877 242.577 226.839 222.035 226.839 222.035L215.485 222.637L195.445 224.73C187.986 225.465 181.043 228.868 175.891 234.313L175.793 234.42L137.411 275.76L172.966 308.72L186.661 293.682L191.786 342.397L190.246 351.263L307.682 350.439L310.352 349.022Z" fill="#E3B76B"/>
<path d="M308.069 228.47C308.069 228.47 321.064 233.522 327.293 241.053C339.192 255.424 360.187 279.229 360.187 279.229L323.931 311.678L308.078 295.931L308.069 228.47Z" fill="#E3B76B"/>
<path d="M313.664 257.657C313.895 257.657 313.557 276.131 312.906 298.906C312.255 321.681 311.563 340.147 311.332 340.106C311.101 340.065 311.447 321.632 312.09 298.848C312.733 276.065 313.441 257.648 313.664 257.657Z" fill="#263238"/>
<path d="M181.774 246.813C181.997 246.813 183.628 260.631 185.417 277.721C187.205 294.811 188.465 308.687 188.243 308.712C188.02 308.736 186.389 294.901 184.601 277.803C182.813 260.705 181.552 246.837 181.774 246.813Z" fill="#263238"/>
<g opacity="0.3">
<path d="M312.156 304.765C315.304 297.962 317.002 290.579 317.144 283.085C317.286 275.591 315.868 268.149 312.98 261.233L312.156 304.765Z" fill="black"/>
</g>
<g opacity="0.3">
<path d="M228.141 305.762C217.033 300.76 205.201 302.515 201.616 309.494C200.067 316.597 206.56 325.53 216.926 330.21C228.026 335.212 239.512 333.432 243.088 326.452C244.646 319.35 238.515 310.442 228.141 305.762Z" fill="white"/>
</g>
<path d="M228.759 303.52C217.421 298.42 205.555 300.224 202.243 307.583C201.967 308.196 201.757 308.837 201.617 309.494C205.201 302.515 216.811 300.867 227.911 305.869C238.293 310.549 244.613 319.407 243.064 326.51C243.138 326.37 243.212 326.222 243.278 326.073C246.591 318.723 240.089 308.629 228.759 303.52Z" fill="#455A64"/>
<path d="M216.762 330.136C206.387 325.455 200.067 316.597 201.616 309.536C201.542 309.676 201.468 309.824 201.402 309.972C198.106 317.322 204.591 327.416 215.921 332.525C227.251 337.634 239.125 335.821 242.437 328.463C242.711 327.849 242.921 327.208 243.064 326.551C239.479 333.489 227.869 335.137 216.762 330.136Z" fill="#263238"/>
<path d="M243.402 332.204C242.919 332.03 242.524 331.674 242.302 331.211C242.08 330.749 242.049 330.217 242.215 329.732L244.687 322.876C244.863 322.395 245.219 322.001 245.681 321.779C246.143 321.557 246.674 321.525 247.159 321.69C247.641 321.865 248.035 322.222 248.256 322.684C248.478 323.146 248.51 323.676 248.346 324.162L245.874 331.017C245.698 331.499 245.342 331.893 244.88 332.114C244.418 332.336 243.887 332.368 243.402 332.204Z" fill="#455A64"/>
<path d="M270.272 337.931L242.965 329.369L244.753 323.659L272.06 332.22C272.816 332.459 273.447 332.988 273.815 333.69C274.182 334.393 274.256 335.212 274.021 335.969C273.783 336.726 273.254 337.356 272.552 337.724C271.849 338.091 271.029 338.166 270.272 337.931Z" fill="#455A64"/>
<path d="M246.648 346.822C243.476 347.876 240.707 344.3 242.364 341.391C244.836 337.082 248.486 330.984 250.562 329.402C253.084 327.474 265.32 322.744 270.882 320.643C272.639 319.98 274.585 320.021 276.312 320.758C281.438 322.95 292.446 327.523 295.718 327.837C300.027 328.24 308.078 351.51 308.078 351.51C307.548 352.548 306.816 353.47 305.925 354.22C305.033 354.97 304 355.534 302.886 355.877C298.857 357.319 289.389 354.295 289.389 354.295C289.389 354.295 281.833 353.694 279.781 355.045C277.73 356.396 273.189 357.682 271.986 357.377C270.783 357.072 268.278 354.625 269.333 352.647L270.157 350.785C270.157 350.785 263.936 352.375 262.313 350.2C261.266 348.758 260.79 346.979 260.978 345.207C260.978 345.207 256.322 344.663 255.655 342.125C254.987 339.587 257.154 337.288 257.154 337.288L258.802 335.244L254.328 337.354C254.328 337.354 249.804 344.267 247.604 346.253C247.327 346.505 247.002 346.698 246.648 346.822Z" fill="#FFBF9D"/>
<path d="M285.31 329.402L339.908 322.555L328.57 307.517L357.41 281.75L381.924 312.543C387.618 319.259 391.194 326.897 390.856 335.821C390.634 341.589 388.219 347.547 380.968 351.032C363.887 359.231 296.591 352.581 296.591 352.581L285.31 329.402Z" fill="#FFBF9D"/>
<path d="M267.396 329.279C265.994 330.556 264.495 331.724 262.914 332.772C261.422 333.944 259.841 334.996 258.184 335.92C259.587 334.643 261.085 333.475 262.667 332.426C264.164 331.263 265.745 330.21 267.396 329.279Z" fill="#FF9A6C"/>
<path d="M271.962 339.06C272.011 339.183 269.432 340.32 266.424 342.034C263.417 343.748 261.077 345.33 261.002 345.207C261.437 344.767 261.924 344.382 262.453 344.061C263.384 343.402 264.702 342.529 266.218 341.663C267.511 340.925 268.845 340.262 270.215 339.678C270.769 339.399 271.356 339.192 271.962 339.06Z" fill="#FF9A6C"/>
<path d="M278.339 346.195C276.996 347.188 275.571 348.065 274.079 348.816C272.658 349.681 271.164 350.42 269.613 351.024C272.377 349.155 275.296 347.529 278.339 346.162V346.195Z" fill="#FF9A6C"/>
<path d="M366.433 316.754C366.082 316.882 365.717 316.967 365.345 317.009L362.362 317.57C359.833 318.031 356.347 318.682 352.515 319.473C348.684 320.264 345.223 321.039 342.726 321.615L339.76 322.283C339.399 322.385 339.029 322.451 338.656 322.481C338.996 322.322 339.352 322.2 339.719 322.118C340.403 321.92 341.408 321.64 342.652 321.294C345.124 320.643 348.593 319.819 352.433 319.028C356.273 318.237 359.767 317.636 362.321 317.248C363.598 317.051 364.62 316.91 365.337 316.82C365.7 316.767 366.066 316.745 366.433 316.754Z" fill="#FF9A6C"/>
<path d="M144.357 282.105C144.357 282.105 124.861 301.881 113.976 314.15C104.722 324.582 104.912 334.898 111.916 343.188C117.684 349.986 146.367 356.586 146.367 356.586L149.762 329.6L144.769 326.798L169.448 305.374L144.357 282.105Z" fill="#FFBF9D"/>
<path d="M181 337.98C181 337.98 179.41 331.339 177.152 329.74C174.894 328.142 170.56 329.74 170.56 329.74C169.977 328.242 168.866 327.008 167.437 326.271C165.171 325.225 155.275 322.102 155.275 322.102C155.275 322.102 150.232 319.49 146.936 323.14C146.936 323.14 145.197 325.917 144.324 326.09C143.451 326.263 139.05 325.785 137.921 331.264C136.793 336.744 134.576 338.071 135.713 341.976C136.85 345.882 134.815 347.11 135.4 349.887C135.985 352.664 138.943 356.784 141.374 356.635C143.805 356.487 157.706 356.635 157.706 356.635C157.706 356.635 163.086 356.314 163.259 351.279C163.259 351.279 166.218 351.279 166.218 347.802C166.218 347.802 169.695 349.714 171.079 346.764C171.079 346.764 176.468 347.456 176.847 343.287L175.455 337.519L181 337.98Z" fill="#FFBF9D"/>
<path d="M181 337.98H180.654L179.591 337.931L175.413 337.692L175.496 337.593C175.891 339.158 176.369 341.087 176.921 343.311V343.353C176.89 343.969 176.698 344.566 176.366 345.086C176.034 345.606 175.572 346.031 175.026 346.319C173.79 346.907 172.412 347.13 171.054 346.962L171.203 346.879C171.014 347.325 170.716 347.715 170.336 348.013C169.955 348.312 169.505 348.508 169.027 348.585C168.024 348.682 167.014 348.478 166.127 348L166.374 347.86C166.411 348.74 166.159 349.608 165.657 350.332C165.367 350.692 165.003 350.987 164.589 351.194C164.175 351.402 163.722 351.518 163.259 351.535L163.432 351.362C163.429 352.078 163.281 352.787 162.998 353.445C162.715 354.103 162.302 354.698 161.784 355.193C160.649 356.185 159.225 356.786 157.722 356.907C153.083 356.907 148.098 356.825 142.89 356.907H141.909H141.423C141.242 356.907 141.061 356.907 140.879 356.907C140.19 356.767 139.546 356.456 139.009 356.001C137.939 355.122 137.044 354.048 136.372 352.837C135.611 351.635 135.181 350.254 135.128 348.832C135.128 347.357 135.845 346.072 135.878 344.712C135.907 344.135 135.865 343.557 135.754 342.99C135.647 342.438 135.466 341.869 135.35 341.268C135.234 340.671 135.203 340.061 135.26 339.455C135.325 338.86 135.455 338.275 135.647 337.708C136.026 336.588 136.471 335.541 136.875 334.47C137.245 333.408 137.548 332.323 137.781 331.223C137.998 330.094 138.475 329.03 139.174 328.117C139.905 327.237 140.893 326.609 142 326.32C142.539 326.179 143.091 326.091 143.648 326.057C143.9 326.049 144.151 326.022 144.398 325.974C144.611 325.881 144.802 325.743 144.958 325.571C145.668 324.816 146.295 323.987 146.829 323.099C147.362 322.507 148.008 322.028 148.727 321.687C149.447 321.346 150.227 321.151 151.023 321.113C152.534 321.059 154.035 321.373 155.398 322.027C158.628 323.066 161.652 324.054 164.462 325.035C165.163 325.282 165.838 325.529 166.506 325.785C167.172 326.012 167.808 326.319 168.401 326.7C169.475 327.488 170.304 328.566 170.791 329.806L170.609 329.724C171.757 329.337 172.952 329.106 174.161 329.04C175.245 328.945 176.333 329.187 177.276 329.732C177.998 330.322 178.58 331.065 178.981 331.907C179.334 332.588 179.644 333.29 179.912 334.008C180.39 335.294 180.687 336.307 180.868 337L181.066 337.782C181.075 337.873 181.075 337.964 181.066 338.054C181.066 338.054 181.066 337.972 180.984 337.791L180.753 337.016C180.547 336.34 180.234 335.327 179.731 334.058C179.455 333.352 179.136 332.664 178.775 331.998C178.386 331.19 177.824 330.478 177.127 329.913C176.218 329.403 175.174 329.184 174.136 329.287C172.957 329.36 171.792 329.593 170.675 329.979L170.552 330.02L170.494 329.897C170.025 328.716 169.231 327.693 168.203 326.947C167.625 326.584 167.005 326.291 166.358 326.073C165.698 325.826 165.023 325.587 164.322 325.34C161.537 324.376 158.505 323.404 155.258 322.382C153.952 321.774 152.519 321.492 151.081 321.558C150.346 321.609 149.626 321.79 148.955 322.093C148.274 322.42 147.661 322.873 147.15 323.428C146.596 324.333 145.95 325.178 145.222 325.95C145.02 326.167 144.772 326.336 144.497 326.444C144.225 326.498 143.95 326.531 143.673 326.543C143.149 326.578 142.631 326.663 142.124 326.798C141.104 327.059 140.192 327.636 139.52 328.446C138.856 329.306 138.407 330.312 138.21 331.38C137.972 332.497 137.664 333.598 137.287 334.676C136.916 335.764 136.463 336.826 136.067 337.906C135.888 338.441 135.764 338.993 135.696 339.554C135.649 340.121 135.679 340.692 135.787 341.251C135.886 341.803 136.067 342.364 136.191 342.974C136.313 343.572 136.357 344.184 136.323 344.795C136.282 346.27 135.598 347.588 135.573 348.915C135.631 350.26 136.041 351.566 136.759 352.705C137.403 353.867 138.258 354.898 139.281 355.746C139.756 356.149 140.321 356.432 140.929 356.57C141.085 356.57 141.234 356.57 141.382 356.57H141.885H142.865C148.114 356.52 153.091 356.57 157.697 356.627C159.115 356.513 160.46 355.95 161.537 355.02C162.025 354.562 162.414 354.009 162.682 353.396C162.949 352.783 163.09 352.122 163.094 351.452V351.288H163.268C163.678 351.273 164.08 351.171 164.448 350.989C164.816 350.808 165.141 350.55 165.402 350.233C165.854 349.575 166.082 348.789 166.053 347.992V347.728L166.3 347.852C167.124 348.298 168.061 348.49 168.994 348.404C169.422 348.338 169.826 348.165 170.168 347.899C170.51 347.634 170.778 347.286 170.947 346.888L170.988 346.797H171.104C172.402 346.96 173.721 346.757 174.911 346.212C175.423 345.949 175.858 345.557 176.172 345.074C176.485 344.591 176.667 344.035 176.699 343.46C176.171 341.227 175.718 339.29 175.339 337.692V337.585H175.454L179.574 337.914L180.654 338.013C180.769 337.996 180.884 337.985 181 337.98Z" fill="#FF9A6C"/>
<path d="M163.416 351.79C162.664 351.274 161.827 350.894 160.944 350.67C160.12 350.455 159.131 350.315 158.01 350.126L154.393 349.516C151.83 349.071 149.515 348.643 147.801 348.305C146.888 348.168 145.988 347.961 145.106 347.687C146.031 347.715 146.952 347.822 147.859 348.008C149.507 348.264 151.871 348.643 154.451 349.096L158.068 349.739C159.059 349.898 160.041 350.11 161.01 350.373C161.671 350.557 162.296 350.856 162.855 351.255C163.267 351.551 163.432 351.774 163.416 351.79Z" fill="#FF9A6C"/>
<path d="M150.668 338.466C150.668 338.409 151.591 338.936 153.14 339.603C154.69 340.271 156.848 341.029 159.213 342.075C161.265 342.904 163.133 344.131 164.709 345.684C165.178 346.164 165.587 346.698 165.929 347.275C166.072 347.477 166.178 347.703 166.242 347.942C165.699 347.228 165.116 346.546 164.495 345.899C162.892 344.446 161.045 343.285 159.04 342.471C156.708 341.457 154.516 340.666 153.009 339.9C152.412 339.61 151.831 339.289 151.27 338.936C150.858 338.664 150.652 338.491 150.668 338.466Z" fill="#FF9A6C"/>
<path d="M171.467 346.574C171.222 346.358 171.006 346.112 170.824 345.841C170.29 345.133 169.8 344.393 169.357 343.624C168.789 342.66 168.171 341.482 167.462 340.197C166.719 338.795 165.838 337.47 164.833 336.241C163.808 335.046 162.549 334.073 161.134 333.382C159.823 332.723 158.571 332.262 157.549 331.808C156.732 331.463 155.944 331.053 155.193 330.581C154.907 330.425 154.649 330.224 154.426 329.987C154.714 330.114 154.989 330.266 155.25 330.44C156.025 330.849 156.823 331.212 157.64 331.528C158.67 331.948 159.931 332.352 161.274 333.028C162.751 333.724 164.065 334.724 165.13 335.961C166.153 337.212 167.04 338.568 167.775 340.007L169.588 343.476C170.115 344.457 170.593 345.215 170.923 345.75C171.136 346.002 171.319 346.279 171.467 346.574Z" fill="#FF9A6C"/>
<path d="M170.263 329.196C171.222 330.586 172.108 332.024 172.916 333.506C173.851 334.919 174.618 336.438 175.199 338.03C174.24 336.64 173.354 335.202 172.546 333.72C171.611 332.307 170.845 330.788 170.263 329.196Z" fill="#FF9A6C"/>
<path d="M227.597 384.874H323.181L293.204 356.957C293.204 356.957 209.098 357.781 209.354 358.827C209.511 363.195 211 367.41 213.622 370.907C218.154 377.293 227.597 384.874 227.597 384.874Z" fill="#263238"/>
<path d="M121.952 356.273C122.117 357.006 131.321 386.159 131.321 386.159L227.63 384.874L224.656 380.878L122.224 353.084L121.952 356.273Z" fill="#263238"/>
<path d="M124.754 353.405L133.175 378.85L223.42 375.835L207.78 352.573L124.754 353.405Z" fill="#F0F0F0"/>
<path d="M133.175 376.403L133.019 382.418L223.411 382.221L223.42 375.835L133.175 376.403Z" fill="#E0E0E0"/>
<path d="M124.754 353.405L124.638 358.102L133.018 382.418L133.175 376.403L124.754 353.405Z" fill="#E0E0E0"/>
<path d="M223.419 375.835V382.196L312.477 381.652L312.815 374.969L223.419 375.835Z" fill="#E0E0E0"/>
<path d="M207.78 352.573C207.78 352.573 217.182 352.079 225.249 352.194L286.933 353.084L312.815 374.978L223.419 375.802L207.78 352.573Z" fill="#F0F0F0"/>
<path d="M223.419 382.196C223.383 382.05 223.369 381.9 223.378 381.751C223.378 381.405 223.378 380.985 223.329 380.482C223.329 379.304 223.329 377.73 223.255 375.835V375.925L217.239 366.944C214.619 362.988 212.295 359.396 210.582 356.784L208.604 353.677C208.35 353.304 208.124 352.913 207.928 352.507C208.232 352.844 208.507 353.205 208.752 353.587L210.845 356.619C212.592 359.181 214.965 362.749 217.602 366.705C219.851 370.132 221.92 373.297 223.535 375.769V375.81V375.859C223.535 377.754 223.477 379.328 223.461 380.507C223.461 381.009 223.461 381.429 223.411 381.776C223.432 381.915 223.435 382.056 223.419 382.196Z" fill="#263238"/>
<path d="M208.851 371.525L192.495 371.855L188.185 365.131L203.998 364.958L208.851 371.525Z" fill="#E0E0E0"/>
<path d="M186.941 371.805H170.577L166.267 365.09L182.08 364.917L186.941 371.805Z" fill="#E0E0E0"/>
<path d="M165.006 371.805H148.642L144.332 365.09L160.145 364.917L165.006 371.805Z" fill="#E0E0E0"/>
<path d="M204.064 362.403L179.599 362.543L174.49 355.647L198.518 355.506L204.064 362.403Z" fill="#E0E0E0"/>
<path d="M171.499 362.477L147.035 362.618L141.926 355.721L165.962 355.589L171.499 362.477Z" fill="#E0E0E0"/>
<g opacity="0.3">
<path d="M199.713 365.007L191.539 370.363L192.495 371.855H195.173L204.558 365.716L203.998 364.958L199.713 365.007Z" fill="white"/>
</g>
<g opacity="0.3">
<path d="M181.222 364.917L169.999 370.915L169.398 369.976L179.302 364.941L181.222 364.917Z" fill="white"/>
</g>
<g opacity="0.3">
<path d="M182.244 365.139L170.626 371.739L174.647 371.764L183.274 366.614L182.244 365.139Z" fill="white"/>
</g>
<g opacity="0.3">
<path d="M148.642 371.805L160.145 364.917L155.983 364.958L147.241 369.622L148.642 371.805Z" fill="white"/>
</g>
<g opacity="0.3">
<path d="M198.518 355.506L199.507 356.742L186.644 362.543H179.599L178.849 361.538L194.497 355.506H198.518Z" fill="white"/>
</g>
<path d="M291.713 370.701L275.348 371.022L271.039 364.307L286.851 364.125L291.713 370.701Z" fill="#E0E0E0"/>
<path d="M269.794 370.981H253.43L249.12 364.257L264.933 364.084L269.794 370.981Z" fill="#E0E0E0"/>
<path d="M247.859 370.981H231.495L227.185 364.257L242.998 364.084L247.859 370.981Z" fill="#E0E0E0"/>
<path d="M286.917 361.579L262.453 361.711L257.344 354.823L281.372 354.682L286.917 361.579Z" fill="#E0E0E0"/>
<g opacity="0.3">
<path d="M282.574 364.175L274.392 369.531L275.348 371.022H278.026L287.411 364.884L286.851 364.125L282.574 364.175Z" fill="white"/>
</g>
<g opacity="0.3">
<path d="M264.076 364.084L252.861 370.083L252.251 369.144L262.156 364.109L264.076 364.084Z" fill="white"/>
</g>
<g opacity="0.3">
<path d="M265.097 364.315L253.479 370.907L257.5 370.94L266.136 365.782L265.097 364.315Z" fill="white"/>
</g>
<g opacity="0.3">
<path d="M231.495 370.981L242.998 364.084L238.836 364.126L230.102 368.789L231.495 370.981Z" fill="white"/>
</g>
<g opacity="0.3">
<path d="M281.372 354.682L282.369 355.91L269.498 361.711H262.453L261.711 360.706L277.35 354.682H281.372Z" fill="white"/>
</g>
<path d="M213.556 355.235C213.388 355.233 213.226 355.171 213.1 355.061C212.973 354.951 212.889 354.799 212.864 354.633C212.719 353.743 212.262 352.934 211.575 352.35C210.888 351.766 210.016 351.445 209.115 351.445C208.213 351.445 207.341 351.766 206.654 352.35C205.967 352.934 205.51 353.743 205.365 354.633C205.34 354.799 205.257 354.951 205.13 355.061C205.003 355.171 204.841 355.233 204.673 355.235C204.57 355.236 204.468 355.215 204.373 355.172C204.279 355.13 204.196 355.067 204.129 354.988C204.062 354.909 204.013 354.816 203.986 354.717C203.959 354.617 203.955 354.512 203.973 354.411C204.158 353.179 204.779 352.055 205.722 351.243C206.666 350.43 207.87 349.983 209.115 349.983C210.36 349.983 211.564 350.43 212.507 351.243C213.451 352.055 214.071 353.179 214.256 354.411C214.275 354.512 214.27 354.617 214.243 354.717C214.216 354.816 214.168 354.909 214.101 354.988C214.034 355.067 213.95 355.13 213.856 355.172C213.762 355.215 213.659 355.236 213.556 355.235Z" fill="#E0E0E0"/>
<path d="M213.556 355.235C213.556 355.235 213.664 355.235 213.828 355.127C213.945 355.067 214.041 354.972 214.102 354.856C214.164 354.739 214.189 354.607 214.174 354.477C213.986 353.444 213.492 352.491 212.757 351.741C212.165 351.131 211.428 350.681 210.615 350.433C209.802 350.186 208.94 350.147 208.108 350.323C207.277 350.498 206.503 350.881 205.859 351.436C205.215 351.99 204.722 352.699 204.427 353.496C204.344 353.727 204.278 353.964 204.229 354.205C204.184 354.293 204.161 354.39 204.161 354.489C204.161 354.588 204.184 354.685 204.229 354.773C204.279 354.838 204.345 354.889 204.42 354.922C204.495 354.955 204.577 354.969 204.659 354.963C204.74 354.956 204.819 354.929 204.888 354.885C204.957 354.84 205.013 354.779 205.053 354.707C205.119 354.584 205.143 354.246 205.226 354.032C205.301 353.793 205.398 353.561 205.514 353.339C205.837 352.735 206.31 352.224 206.887 351.855C207.464 351.485 208.126 351.27 208.81 351.23C209.754 351.182 210.683 351.478 211.426 352.063C212.168 352.647 212.674 353.482 212.848 354.411C212.842 354.547 212.874 354.683 212.939 354.804C213.004 354.924 213.101 355.025 213.219 355.095C213.383 355.185 213.491 355.177 213.491 355.202C213.39 355.241 213.278 355.241 213.177 355.202C213.053 355.156 212.945 355.076 212.864 354.971C212.772 354.819 212.711 354.651 212.683 354.477C212.56 353.973 212.336 353.5 212.025 353.087C211.713 352.673 211.32 352.327 210.87 352.07C210.248 351.73 209.543 351.572 208.835 351.617C208.025 351.672 207.258 352 206.66 352.548C206.325 352.836 206.045 353.182 205.836 353.57C205.731 353.767 205.645 353.974 205.58 354.188C205.498 354.419 205.522 354.584 205.399 354.913C205.331 355.059 205.226 355.185 205.095 355.278C204.963 355.37 204.809 355.426 204.649 355.441C204.489 355.451 204.329 355.42 204.185 355.351C204.041 355.282 203.917 355.176 203.825 355.045C203.732 354.908 203.678 354.749 203.668 354.584C203.672 354.439 203.691 354.295 203.726 354.155C203.781 353.893 203.853 353.634 203.94 353.381C204.29 352.43 204.899 351.596 205.698 350.974C206.498 350.352 207.456 349.967 208.464 349.862C209.28 349.778 210.104 349.884 210.873 350.169C211.641 350.455 212.334 350.914 212.897 351.51C213.652 352.311 214.129 353.334 214.257 354.427C214.27 354.587 214.232 354.747 214.147 354.884C214.062 355.02 213.936 355.126 213.787 355.185C213.664 355.276 213.556 355.243 213.556 355.235Z" fill="#263238"/>
<path d="M216.712 359.099C216.546 359.097 216.385 359.037 216.258 358.929C216.132 358.82 216.047 358.67 216.02 358.506C215.875 357.616 215.418 356.807 214.732 356.223C214.045 355.639 213.172 355.318 212.271 355.318C211.369 355.318 210.497 355.639 209.81 356.223C209.123 356.807 208.667 357.616 208.522 358.506C208.495 358.67 208.41 358.82 208.284 358.929C208.157 359.037 207.996 359.097 207.83 359.099C207.726 359.101 207.624 359.079 207.53 359.037C207.435 358.994 207.352 358.931 207.285 358.852C207.218 358.774 207.169 358.681 207.142 358.581C207.115 358.481 207.111 358.377 207.129 358.275C207.326 357.053 207.951 355.94 208.893 355.137C209.835 354.334 211.033 353.893 212.271 353.893C213.509 353.893 214.706 354.334 215.649 355.137C216.591 355.94 217.216 357.053 217.413 358.275C217.431 358.377 217.426 358.481 217.4 358.581C217.373 358.681 217.324 358.774 217.257 358.852C217.19 358.931 217.106 358.994 217.012 359.037C216.918 359.079 216.816 359.101 216.712 359.099Z" fill="#E0E0E0"/>
<path d="M216.712 359.099C216.712 359.099 216.819 359.099 216.992 359C217.109 358.938 217.204 358.841 217.264 358.723C217.324 358.606 217.347 358.472 217.33 358.341C217.143 357.312 216.652 356.362 215.921 355.614C215.381 355.068 214.725 354.651 214.002 354.392C213.279 354.134 212.507 354.042 211.743 354.122C210.813 354.233 209.931 354.6 209.197 355.182C208.462 355.764 207.903 356.538 207.582 357.418C207.5 357.65 207.434 357.886 207.384 358.127C207.318 358.39 207.31 358.531 207.384 358.687C207.435 358.752 207.5 358.803 207.575 358.836C207.65 358.869 207.732 358.883 207.814 358.877C207.896 358.87 207.975 358.843 208.043 358.799C208.112 358.754 208.169 358.693 208.208 358.621C208.266 358.506 208.291 358.168 208.373 357.954C208.447 357.714 208.544 357.483 208.661 357.262C208.981 356.655 209.453 356.141 210.031 355.772C210.609 355.402 211.273 355.188 211.957 355.152C212.9 355.102 213.828 355.396 214.569 355.98C215.31 356.564 215.814 357.397 215.987 358.325C215.986 358.462 216.02 358.597 216.084 358.718C216.149 358.838 216.243 358.941 216.358 359.017C216.522 359.099 216.63 359.099 216.63 359.116C216.63 359.132 216.522 359.165 216.316 359.116C216.19 359.069 216.081 358.986 216.003 358.877C215.91 358.729 215.848 358.563 215.822 358.39C215.7 357.887 215.477 357.413 215.165 357C214.853 356.586 214.46 356.24 214.009 355.984C213.346 355.614 212.584 355.46 211.829 355.544C211.074 355.628 210.364 355.946 209.799 356.454C209.468 356.745 209.189 357.091 208.975 357.476C208.872 357.673 208.789 357.88 208.727 358.094C208.637 358.333 208.661 358.489 208.538 358.827C208.47 358.973 208.364 359.099 208.232 359.191C208.1 359.283 207.946 359.338 207.785 359.352C207.625 359.365 207.463 359.336 207.318 359.267C207.172 359.198 207.047 359.092 206.956 358.959C206.856 358.822 206.799 358.659 206.791 358.489C206.795 358.345 206.814 358.201 206.849 358.061C206.905 357.801 206.976 357.545 207.063 357.295C207.374 356.431 207.901 355.662 208.595 355.061C209.288 354.459 210.124 354.046 211.022 353.86C211.921 353.674 212.852 353.722 213.727 353.998C214.602 354.275 215.392 354.772 216.02 355.441C216.772 356.248 217.25 357.271 217.388 358.366C217.4 358.526 217.36 358.685 217.274 358.82C217.187 358.955 217.06 359.059 216.91 359.116C216.794 359.149 216.712 359.107 216.712 359.099Z" fill="#263238"/>
<path d="M219.283 363.087C219.117 363.087 218.956 363.027 218.831 362.918C218.705 362.809 218.623 362.659 218.599 362.494C218.46 361.599 218.005 360.783 217.316 360.194C216.628 359.604 215.752 359.28 214.846 359.28C213.94 359.28 213.063 359.604 212.375 360.194C211.687 360.783 211.232 361.599 211.092 362.494C211.068 362.66 210.985 362.812 210.858 362.921C210.731 363.03 210.568 363.089 210.4 363.087C210.297 363.087 210.196 363.065 210.102 363.022C210.009 362.979 209.926 362.916 209.859 362.838C209.792 362.759 209.744 362.667 209.716 362.568C209.689 362.469 209.683 362.365 209.7 362.263C209.896 361.041 210.522 359.929 211.464 359.126C212.406 358.323 213.604 357.882 214.842 357.882C216.08 357.882 217.277 358.323 218.219 359.126C219.162 359.929 219.787 361.041 219.983 362.263C220.002 362.365 219.997 362.47 219.97 362.569C219.943 362.669 219.895 362.762 219.828 362.841C219.761 362.919 219.677 362.982 219.583 363.025C219.489 363.068 219.386 363.089 219.283 363.087Z" fill="#E0E0E0"/>
<path d="M219.283 363.087C219.283 363.087 219.398 363.087 219.563 362.988C219.681 362.927 219.778 362.831 219.84 362.713C219.902 362.595 219.926 362.461 219.909 362.329C219.722 361.298 219.228 360.348 218.492 359.602C217.954 359.056 217.299 358.638 216.577 358.38C215.856 358.122 215.085 358.03 214.322 358.11C213.391 358.218 212.508 358.584 211.773 359.166C211.038 359.749 210.48 360.524 210.161 361.406C210.074 361.636 210.008 361.873 209.963 362.115C209.898 362.379 209.881 362.519 209.963 362.675C210.013 362.742 210.078 362.795 210.153 362.829C210.228 362.864 210.311 362.878 210.394 362.872C210.476 362.865 210.556 362.838 210.625 362.792C210.694 362.746 210.75 362.683 210.787 362.609C210.845 362.486 210.87 362.156 210.961 361.942C211.027 361.701 211.121 361.469 211.241 361.25C211.469 360.824 211.77 360.442 212.131 360.121C212.759 359.57 213.544 359.232 214.375 359.154C215.207 359.075 216.042 359.261 216.761 359.684C217.236 359.966 217.644 360.347 217.958 360.8C218.272 361.254 218.485 361.77 218.583 362.313C218.578 362.449 218.611 362.584 218.676 362.705C218.741 362.825 218.837 362.925 218.953 362.997C219.118 363.087 219.233 363.087 219.225 363.104C219.217 363.12 219.118 363.153 218.92 363.104C218.798 363.051 218.691 362.969 218.607 362.865C218.508 362.716 218.443 362.547 218.418 362.37C218.298 361.867 218.075 361.394 217.763 360.981C217.451 360.569 217.056 360.225 216.605 359.973C216.18 359.734 215.712 359.584 215.228 359.53C214.745 359.476 214.255 359.52 213.788 359.659C213.322 359.798 212.888 360.03 212.513 360.34C212.137 360.65 211.828 361.032 211.603 361.464C211.5 361.661 211.417 361.868 211.356 362.082C211.265 362.321 211.29 362.477 211.167 362.807C211.1 362.953 210.997 363.079 210.867 363.173C210.737 363.267 210.584 363.326 210.425 363.343C210.265 363.351 210.107 363.319 209.963 363.25C209.819 363.181 209.694 363.077 209.601 362.947C209.504 362.809 209.45 362.646 209.444 362.477C209.444 362.333 209.463 362.189 209.502 362.049C209.55 361.788 209.622 361.531 209.716 361.283C210.027 360.419 210.555 359.65 211.248 359.049C211.941 358.448 212.777 358.034 213.676 357.848C214.574 357.662 215.506 357.71 216.381 357.986C217.256 358.263 218.045 358.76 218.673 359.429C219.425 360.235 219.901 361.259 220.033 362.354C220.045 362.514 220.005 362.673 219.919 362.808C219.832 362.944 219.705 363.047 219.555 363.104C219.398 363.137 219.283 363.096 219.283 363.087Z" fill="#263238"/>
<path d="M221.837 367.347C221.671 367.346 221.51 367.285 221.383 367.177C221.257 367.068 221.172 366.919 221.145 366.754C221 365.864 220.543 365.055 219.857 364.471C219.17 363.887 218.297 363.566 217.396 363.566C216.494 363.566 215.622 363.887 214.935 364.471C214.248 365.055 213.792 365.864 213.647 366.754C213.62 366.919 213.535 367.068 213.409 367.177C213.282 367.285 213.121 367.346 212.955 367.347C212.851 367.349 212.749 367.328 212.655 367.285C212.56 367.242 212.477 367.18 212.41 367.101C212.343 367.022 212.294 366.929 212.267 366.83C212.24 366.73 212.236 366.625 212.254 366.523C212.451 365.301 213.076 364.189 214.018 363.386C214.96 362.583 216.158 362.142 217.396 362.142C218.634 362.142 219.831 362.583 220.774 363.386C221.716 364.189 222.341 365.301 222.538 366.523C222.556 366.625 222.551 366.73 222.525 366.83C222.498 366.929 222.449 367.022 222.382 367.101C222.315 367.18 222.231 367.242 222.137 367.285C222.043 367.328 221.941 367.349 221.837 367.347Z" fill="#E0E0E0"/>
<path d="M221.837 367.347C221.933 367.322 222.027 367.289 222.118 367.249C222.234 367.186 222.329 367.089 222.389 366.972C222.45 366.854 222.473 366.721 222.455 366.589C222.266 365.561 221.776 364.611 221.046 363.862C220.451 363.253 219.711 362.805 218.896 362.56C218.081 362.314 217.217 362.279 216.384 362.457C215.552 362.636 214.778 363.022 214.135 363.581C213.492 364.139 213.001 364.851 212.707 365.65C212.625 365.881 212.559 366.118 212.51 366.359C212.444 366.622 212.436 366.762 212.51 366.919C212.56 366.984 212.626 367.035 212.701 367.068C212.776 367.101 212.858 367.115 212.94 367.108C213.021 367.102 213.1 367.075 213.169 367.031C213.238 366.986 213.294 366.925 213.334 366.853C213.391 366.738 213.416 366.4 213.499 366.186C213.573 365.946 213.669 365.714 213.787 365.493C214.107 364.887 214.579 364.373 215.156 364.004C215.734 363.634 216.398 363.42 217.083 363.384C218.025 363.334 218.953 363.628 219.695 364.212C220.436 364.796 220.94 365.629 221.112 366.556C221.107 366.694 221.138 366.831 221.203 366.953C221.269 367.075 221.365 367.177 221.483 367.249C221.571 367.289 221.662 367.323 221.755 367.347C221.755 367.347 221.648 367.397 221.442 367.347C221.316 367.301 221.207 367.218 221.129 367.108C221.035 366.961 220.974 366.795 220.947 366.622C220.833 366.121 220.617 365.649 220.314 365.234C220.011 364.819 219.626 364.47 219.184 364.208C218.521 363.837 217.758 363.683 217.003 363.768C216.248 363.852 215.539 364.17 214.973 364.678C214.642 364.969 214.364 365.314 214.149 365.699C214.045 365.899 213.962 366.109 213.902 366.326C213.812 366.556 213.836 366.713 213.713 367.051C213.645 367.197 213.54 367.323 213.409 367.415C213.277 367.508 213.123 367.564 212.963 367.578C212.803 367.589 212.643 367.559 212.499 367.49C212.354 367.42 212.23 367.314 212.139 367.183C212.041 367.048 211.984 366.888 211.974 366.721C211.977 366.574 211.997 366.427 212.032 366.284C212.088 366.025 212.159 365.769 212.246 365.518C212.557 364.655 213.084 363.886 213.778 363.284C214.471 362.683 215.307 362.27 216.205 362.084C217.104 361.898 218.035 361.945 218.91 362.222C219.785 362.499 220.575 362.995 221.203 363.664C221.955 364.471 222.434 365.495 222.571 366.589C222.583 366.749 222.543 366.909 222.457 367.044C222.37 367.179 222.243 367.283 222.093 367.339C221.945 367.397 221.837 367.364 221.837 367.347Z" fill="#263238"/>
<path d="M225.067 372.555C224.898 372.557 224.735 372.496 224.607 372.385C224.48 372.275 224.397 372.121 224.375 371.954C224.236 371.058 223.781 370.242 223.092 369.653C222.404 369.064 221.528 368.74 220.622 368.74C219.716 368.74 218.839 369.064 218.151 369.653C217.463 370.242 217.008 371.058 216.868 371.954C216.847 372.12 216.765 372.272 216.639 372.383C216.514 372.493 216.352 372.555 216.185 372.555C216.081 372.557 215.979 372.535 215.885 372.493C215.79 372.45 215.707 372.387 215.64 372.308C215.573 372.23 215.524 372.137 215.497 372.037C215.47 371.937 215.466 371.833 215.484 371.731C215.669 370.5 216.29 369.376 217.233 368.563C218.177 367.751 219.381 367.304 220.626 367.304C221.871 367.304 223.075 367.751 224.018 368.563C224.962 369.376 225.583 370.5 225.768 371.731C225.784 371.833 225.779 371.937 225.751 372.036C225.724 372.135 225.675 372.227 225.608 372.305C225.542 372.384 225.459 372.447 225.365 372.49C225.272 372.533 225.17 372.555 225.067 372.555Z" fill="#E0E0E0"/>
<path d="M225.068 372.555C225.068 372.555 225.175 372.555 225.34 372.448C225.457 372.388 225.553 372.293 225.615 372.177C225.677 372.061 225.702 371.928 225.686 371.797C225.497 370.764 225.004 369.811 224.268 369.061C223.674 368.452 222.935 368.004 222.12 367.758C221.305 367.513 220.442 367.477 219.61 367.656C218.778 367.835 218.004 368.221 217.362 368.78C216.72 369.338 216.23 370.05 215.938 370.849C215.853 371.08 215.787 371.317 215.74 371.558C215.674 371.83 215.666 371.97 215.74 372.127C215.79 372.191 215.856 372.242 215.931 372.276C216.006 372.309 216.088 372.323 216.17 372.316C216.252 372.309 216.33 372.283 216.399 372.238C216.468 372.194 216.525 372.133 216.564 372.061C216.622 371.937 216.646 371.599 216.737 371.385C216.808 371.147 216.904 370.918 217.026 370.701C217.251 370.276 217.55 369.894 217.907 369.572C218.535 369.022 219.321 368.683 220.152 368.605C220.983 368.527 221.818 368.712 222.538 369.135C223.013 369.417 223.422 369.797 223.736 370.251C224.05 370.704 224.263 371.221 224.359 371.764C224.355 371.901 224.387 372.036 224.452 372.156C224.518 372.276 224.613 372.377 224.73 372.448C224.821 372.49 224.914 372.525 225.01 372.555C225.01 372.555 224.895 372.604 224.697 372.555C224.575 372.502 224.467 372.42 224.384 372.316C224.284 372.169 224.221 371.999 224.203 371.822C224.095 371.322 223.887 370.85 223.591 370.433C223.295 370.017 222.917 369.665 222.48 369.399C221.865 369.049 221.159 368.892 220.453 368.946C219.642 368.999 218.873 369.324 218.27 369.869C217.947 370.157 217.681 370.504 217.487 370.891C217.382 371.088 217.296 371.295 217.232 371.509C217.141 371.739 217.166 371.904 217.042 372.234C216.977 372.38 216.873 372.505 216.743 372.598C216.613 372.691 216.46 372.747 216.3 372.761C216.141 372.772 215.981 372.741 215.837 372.671C215.692 372.602 215.568 372.497 215.476 372.365C215.383 372.229 215.329 372.069 215.32 371.904C215.319 371.759 215.339 371.615 215.378 371.476C215.424 371.214 215.495 370.957 215.592 370.709C215.941 369.757 216.549 368.922 217.349 368.299C218.149 367.675 219.107 367.289 220.116 367.183C220.931 367.099 221.755 367.204 222.524 367.49C223.293 367.776 223.986 368.234 224.549 368.831C225.3 369.637 225.777 370.661 225.908 371.756C225.92 371.914 225.88 372.073 225.796 372.207C225.711 372.342 225.586 372.447 225.439 372.506C225.175 372.604 225.06 372.563 225.068 372.555Z" fill="#263238"/>
<path d="M133.356 383.481C133.097 382.349 132.975 381.19 132.994 380.029C132.87 378.874 132.89 377.709 133.051 376.56C133.312 377.692 133.436 378.851 133.422 380.012C133.541 381.167 133.519 382.332 133.356 383.481Z" fill="#263238"/>
<path d="M223.419 379.246H223.189H222.505L219.884 379.32L210.227 379.493C202.078 379.617 190.822 379.699 178.388 379.74L146.548 379.864L136.899 379.905H133.603H134.287L136.908 379.831L146.557 379.65C154.706 379.534 165.97 379.452 178.404 379.403L210.244 379.287L219.893 379.246H222.48H223.164C223.248 379.231 223.335 379.231 223.419 379.246Z" fill="#263238"/>
<path d="M295.371 378.554C295.371 378.669 279.361 378.768 259.601 378.768C239.842 378.768 223.823 378.669 223.823 378.554C223.823 378.438 239.842 378.339 259.601 378.339C279.361 378.339 295.371 378.438 295.371 378.554Z" fill="#263238"/>
<path d="M311.719 379.806C311.719 379.93 300.365 380.021 286.365 380.021C272.365 380.021 261.019 379.93 261.019 379.806C261.019 379.683 272.365 379.592 286.365 379.592C300.365 379.592 311.719 379.691 311.719 379.806Z" fill="#263238"/>
</svg>
