<svg width="492" height="440" viewBox="0 0 492 440" fill="none" xmlns="http://www.w3.org/2000/svg">
<path d="M423.993 143.44C409.869 108.724 382.993 77.7393 347.433 65.8769C311.872 54.0145 267.96 65.1201 247.623 96.6065C235.303 115.755 232.663 139.374 225.06 160.846C220.237 174.548 212.617 188.25 199.813 195.114C188.593 201.124 175.234 200.948 162.509 201.274C131.78 202.083 98.5598 208.014 77.7566 230.648C55.4926 254.883 53.8998 293.366 67.7422 323.224C81.5846 353.082 109.56 365.754 138.353 381.753L300.071 383.258C349.8 371.58 393.8 337.295 417.261 291.896C440.721 246.497 443.247 190.784 423.993 143.44Z" fill="#FDD4A5"/>
<path d="M186.604 84.7528C173.298 70.1624 150.084 65.56 132.44 74.3424C122.549 72.16 106.093 91.3088 101.323 100.197C96.5534 109.085 96.8086 120.041 99.9678 129.624C106.128 148.377 123.666 162.994 143.281 165.29C162.897 167.587 183.48 157.221 192.993 139.92C202.505 122.619 199.918 99.3344 186.604 84.7528Z" fill="#FDD4A5"/>
<path d="M129.888 326.612L112.138 354.191C112.138 354.191 78.1439 345.417 74.3599 350.24L126.605 386.575L156.015 344.731L129.888 326.612Z" fill="#E3B76B"/>
<path opacity="0.3" d="M129.888 326.612L112.138 354.191C112.138 354.191 78.1439 345.417 74.3599 350.24L126.605 386.575L156.015 344.731L129.888 326.612Z" fill="black"/>
<path d="M129.87 363.167C130.257 363.673 130.448 364.302 130.407 364.938C130.367 365.573 130.098 366.173 129.65 366.626C129.162 367.038 128.536 367.248 127.898 367.214C127.26 367.179 126.659 366.903 126.218 366.441C125.8 365.906 125.594 365.236 125.639 364.559C125.685 363.882 125.979 363.245 126.465 362.771C127.503 362.023 129.439 362.226 129.985 363.361" fill="#E0E0E0"/>
<path d="M126.614 386.531L129.536 382.369L78.2671 348.982C78.2671 348.982 75.2399 348.374 74.3599 350.24L126.614 386.531Z" fill="#E0E0E0"/>
<path d="M111.478 353.337C111.311 353.601 112.499 354.605 113.186 356.294C113.872 357.984 113.793 359.524 114.066 359.585C114.338 359.647 115.016 357.913 114.154 355.872C113.291 353.83 111.584 353.065 111.478 353.337Z" fill="#263238"/>
<path d="M104.421 351.789C104.192 352 104.993 353.206 105.107 354.886C105.222 356.567 104.685 357.878 104.94 358.046C105.195 358.213 106.374 356.884 106.19 354.79C106.005 352.695 104.597 351.551 104.421 351.789Z" fill="#263238"/>
<path d="M96.7471 356.189C96.9407 356.4 98.1815 355.379 98.5071 353.549C98.8327 351.718 98.0143 350.31 97.7591 350.451C97.5039 350.592 97.7591 351.842 97.4423 353.364C97.1255 354.886 96.5095 355.986 96.7471 356.189Z" fill="#263238"/>
<path d="M116.222 347.503C116.16 347.811 117.577 348.269 118.95 349.369C120.322 350.469 121.132 351.709 121.422 351.577C121.713 351.445 121.255 349.817 119.662 348.515C118.07 347.213 116.23 347.213 116.222 347.503Z" fill="#263238"/>
<path d="M119.9 342.003C119.829 342.109 120.727 342.962 122.54 343.807C123.599 344.295 124.713 344.652 125.857 344.872C126.537 345.001 127.225 345.084 127.917 345.118C128.323 345.158 128.732 345.134 129.131 345.048C129.425 344.984 129.689 344.823 129.882 344.592C130.075 344.361 130.185 344.073 130.196 343.772C130.187 343.507 130.118 343.247 129.995 343.013C129.871 342.778 129.696 342.574 129.483 342.417C129.155 342.181 128.793 341.997 128.409 341.871C127.756 341.62 127.082 341.429 126.394 341.299C125.234 341.077 124.045 341.044 122.874 341.202C120.885 341.484 119.812 342.144 119.865 342.258C119.917 342.373 121.061 342.029 122.945 341.959C124.036 341.929 125.126 342.033 126.192 342.267C126.813 342.415 127.422 342.609 128.013 342.848C128.665 343.094 129.14 343.411 129.113 343.728C129.113 343.851 129.113 343.895 128.849 343.974C128.56 344.034 128.264 344.052 127.969 344.027C127.322 344.002 126.675 343.943 126.033 343.851C124.942 343.692 123.87 343.427 122.83 343.059C121 342.478 119.997 341.862 119.9 342.003Z" fill="#263238"/>
<path d="M119.979 342.602C120.041 342.698 121.185 342.135 122.425 340.551C123.147 339.615 123.7 338.561 124.062 337.436C124.277 336.769 124.425 336.082 124.502 335.386C124.601 334.942 124.585 334.481 124.454 334.047C124.323 333.612 124.082 333.218 123.754 332.904C123.515 332.751 123.237 332.67 122.953 332.67C122.67 332.67 122.392 332.751 122.153 332.904C121.804 333.113 121.487 333.371 121.211 333.67C120.717 334.191 120.304 334.785 119.988 335.43C119.446 336.522 119.183 337.731 119.222 338.95C119.301 341.009 120.155 342.056 120.243 341.986C120.331 341.915 119.865 340.806 119.988 338.958C120.059 337.898 120.359 336.865 120.868 335.931C121.161 335.372 121.531 334.856 121.968 334.4C122.443 333.898 122.962 333.599 123.129 333.793C123.288 334.004 123.398 334.247 123.453 334.506C123.508 334.764 123.505 335.031 123.446 335.289C123.388 335.922 123.276 336.549 123.112 337.163C122.815 338.205 122.374 339.201 121.801 340.12C120.806 341.695 119.865 342.461 119.979 342.602Z" fill="#263238"/>
<path d="M135.37 352.07L117.629 379.65C117.629 379.65 83.6263 370.85 79.8511 375.654L132.097 411.99L161.48 370.146L135.37 352.07Z" fill="#E3B76B"/>
<path d="M135.353 388.625C135.74 389.13 135.932 389.759 135.894 390.394C135.855 391.03 135.588 391.63 135.141 392.084C134.654 392.5 134.024 392.714 133.384 392.679C132.744 392.645 132.141 392.365 131.701 391.899C130.873 390.931 130.917 388.977 131.956 388.238C132.994 387.499 134.921 387.684 135.476 388.819" fill="#E0E0E0"/>
<path d="M132.097 411.99L135.018 407.827L83.7583 374.44C83.7583 374.44 80.7311 373.833 79.8511 375.654L132.097 411.99Z" fill="#E0E0E0"/>
<path d="M116.961 378.796C116.793 379.06 117.99 380.063 118.721 381.753C119.451 383.442 119.328 384.982 119.601 385.044C119.873 385.105 120.551 383.372 119.689 381.339C118.826 379.306 117.075 378.523 116.961 378.796Z" fill="#263238"/>
<path d="M109.903 377.256C109.674 377.458 110.484 378.664 110.598 380.345C110.712 382.025 110.167 383.337 110.431 383.504C110.695 383.671 111.856 382.342 111.672 380.257C111.487 378.171 110.079 377.009 109.903 377.256Z" fill="#263238"/>
<path d="M102.238 381.647C102.432 381.867 103.673 380.838 103.998 379.007C104.324 377.177 103.506 375.769 103.25 375.91C102.995 376.05 103.25 377.309 102.934 378.822C102.617 380.336 102.001 381.445 102.238 381.647Z" fill="#263238"/>
<path d="M121.704 372.961C121.651 373.269 123.068 373.727 124.441 374.827C125.814 375.927 126.623 377.168 126.905 377.045C127.186 376.921 126.746 375.285 125.145 373.982C123.543 372.68 121.722 372.671 121.704 372.961Z" fill="#263238"/>
<path d="M125.4 367.462C125.321 367.567 126.218 368.421 128.04 369.265C129.1 369.758 130.217 370.116 131.366 370.33C132.043 370.46 132.728 370.542 133.417 370.577C133.825 370.619 134.238 370.599 134.64 370.515C134.933 370.451 135.196 370.29 135.387 370.059C135.579 369.828 135.687 369.539 135.696 369.239C135.694 368.971 135.629 368.708 135.505 368.471C135.381 368.233 135.202 368.029 134.983 367.875C134.656 367.638 134.294 367.454 133.909 367.33C132.152 366.649 130.252 366.419 128.383 366.661C126.394 366.942 125.312 367.602 125.365 367.717C125.417 367.831 126.57 367.488 128.445 367.426C129.536 367.387 130.627 367.491 131.692 367.734C132.318 367.874 132.93 368.068 133.522 368.315C134.173 368.553 134.649 368.878 134.613 369.195C134.613 369.327 134.613 369.362 134.358 369.45C134.068 369.502 133.772 369.517 133.478 369.494C132.833 369.478 132.189 369.419 131.551 369.318C130.461 369.16 129.388 368.898 128.348 368.535C126.517 367.937 125.479 367.321 125.4 367.462Z" fill="#263238"/>
<path d="M125.47 368.06C125.532 368.157 126.676 367.594 127.917 366.01C128.631 365.069 129.185 364.016 129.554 362.894C129.766 362.227 129.91 361.54 129.985 360.844C130.084 360.401 130.067 359.94 129.936 359.505C129.805 359.07 129.564 358.677 129.237 358.362C128.998 358.21 128.72 358.128 128.436 358.128C128.152 358.128 127.874 358.21 127.635 358.362C127.288 358.574 126.974 358.835 126.702 359.137C126.204 359.657 125.789 360.251 125.47 360.897C124.936 361.976 124.676 363.17 124.714 364.373C124.793 366.441 125.646 367.479 125.726 367.409C125.805 367.338 125.356 366.23 125.479 364.39C125.549 363.327 125.85 362.291 126.359 361.354C126.653 360.812 127.024 360.314 127.459 359.876C127.926 359.374 128.445 359.075 128.612 359.278C128.77 359.487 128.881 359.729 128.938 359.986C128.994 360.242 128.994 360.508 128.938 360.765C128.876 361.398 128.762 362.025 128.594 362.639C128.306 363.684 127.864 364.681 127.283 365.596C126.28 367.154 125.4 367.919 125.47 368.06Z" fill="#263238"/>
<path d="M127.881 357.658C127.881 357.658 143.158 328.988 141.081 331.848C135.441 339.636 168.59 292.397 183.629 268.206C186.019 264.363 189.248 261.11 193.073 258.692C196.898 256.273 201.221 254.752 205.717 254.241C210.264 253.725 214.868 254.257 219.178 255.796C223.487 257.335 227.386 259.84 230.577 263.12L316.096 350.856L355.863 374C355.863 374 346.077 394.873 314.503 399.256C282.929 403.638 263.551 378.092 247.623 361.821C228.87 342.654 210.091 316.897 210.091 316.897L160.257 382.668C160.257 382.668 129.474 359.533 127.881 357.658Z" fill="#263238"/>
<path d="M189.2 259.441C177.545 262.242 167.282 269.13 160.274 278.854L116.336 339.231L137.518 353.76L189.2 259.441Z" fill="#263238"/>
<path d="M181.861 266.288C181.861 266.288 181.861 266.376 181.702 266.517L181.183 267.124L180.303 268.118C179.969 268.505 179.634 268.998 179.229 269.535C177.584 271.665 175.472 274.929 172.893 278.986C167.816 287.144 161.163 298.628 153.973 311.405L135.59 344.159C133.232 348.321 131.322 351.701 129.976 354.068L128.427 356.708C128.251 356.989 128.119 357.218 128.013 357.394C127.908 357.57 127.864 357.632 127.855 357.623C127.846 357.614 127.855 357.535 127.969 357.377L128.348 356.664L129.817 353.945L135.309 343.965C139.955 335.553 146.361 323.928 153.569 311.15C160.776 298.373 167.473 286.897 172.621 278.775C175.261 274.745 177.399 271.497 179.08 269.394C179.502 268.866 179.845 268.382 180.197 267.995L181.077 267.027L181.632 266.446L181.861 266.288Z" fill="#455A64"/>
<path d="M208.912 300.863C208.989 301.667 209.006 302.476 208.965 303.283C208.965 304.779 209.053 306.803 209.308 309.1C209.529 311.031 209.852 312.949 210.276 314.846C210.488 315.627 210.65 316.421 210.76 317.222C210.405 316.49 210.136 315.719 209.959 314.925C208.924 311.135 208.478 307.209 208.639 303.283C208.628 302.468 208.719 301.655 208.912 300.863Z" fill="#455A64"/>
<path d="M214.746 299.015C214.553 299.886 214.306 300.744 214.007 301.585C213.523 303.16 212.907 305.351 212.37 307.806C211.833 310.262 211.49 312.506 211.261 314.142C211.183 315.03 211.05 315.911 210.865 316.782C210.794 315.887 210.82 314.987 210.944 314.098C211.339 309.794 212.264 305.556 213.699 301.479C213.959 300.623 214.31 299.797 214.746 299.015Z" fill="#455A64"/>
<path d="M272.483 150.031L295.363 203.491C296.285 205.647 296.76 207.967 296.759 210.312C296.758 212.656 296.28 214.976 295.355 217.13C294.43 219.285 293.077 221.229 291.378 222.844C289.679 224.46 287.67 225.714 285.472 226.53C281.305 228.065 276.708 227.941 272.63 226.184C268.552 224.427 265.305 221.17 263.56 217.087C261.844 213.066 260.401 209.713 260.198 209.308C260.198 209.308 246.039 213.858 239.289 200.807C236.025 194.498 230.366 180.963 225.385 168.652C222.808 162.277 222.726 155.164 225.156 148.731C227.586 142.298 232.349 137.016 238.497 133.936L239.765 133.302C253.827 127.248 266.825 135.81 272.483 150.031Z" fill="#FFBE9D"/>
<path d="M260.04 209.132C266.16 206.203 271.269 201.519 274.718 195.677C274.718 195.677 275.413 207.117 261.721 212.546L260.04 209.132Z" fill="#EB996E"/>
<path d="M233.481 176.73C233.595 176.984 233.758 177.212 233.961 177.401C234.164 177.591 234.403 177.738 234.664 177.834C234.925 177.93 235.202 177.973 235.479 177.96C235.757 177.947 236.029 177.879 236.28 177.76C236.526 177.66 236.75 177.512 236.938 177.324C237.126 177.136 237.275 176.913 237.376 176.667C237.476 176.421 237.527 176.158 237.525 175.892C237.522 175.627 237.467 175.364 237.362 175.12C237.122 174.629 236.7 174.251 236.186 174.067C235.671 173.882 235.105 173.907 234.608 174.134C234.363 174.23 234.14 174.374 233.951 174.557C233.762 174.739 233.61 174.957 233.506 175.198C233.401 175.44 233.345 175.699 233.341 175.962C233.337 176.225 233.384 176.486 233.481 176.73Z" fill="#263238"/>
<path d="M230.868 174.24C231.22 174.363 232.118 172.603 234.142 171.6C236.166 170.597 238.146 170.861 238.234 170.509C238.286 170.342 237.829 170.025 236.949 169.875C235.773 169.708 234.575 169.908 233.517 170.447C232.468 170.974 231.612 171.818 231.07 172.858C230.683 173.624 230.701 174.17 230.868 174.24Z" fill="#263238"/>
<path d="M253.237 167.147C253.475 167.64 253.898 168.019 254.413 168.204C254.928 168.388 255.495 168.363 255.992 168.133C256.238 168.033 256.462 167.884 256.65 167.697C256.838 167.509 256.987 167.286 257.088 167.04C257.188 166.794 257.239 166.531 257.237 166.265C257.234 165.999 257.179 165.737 257.074 165.493C256.836 165 256.414 164.62 255.899 164.436C255.383 164.252 254.816 164.277 254.32 164.507C254.074 164.607 253.85 164.755 253.662 164.943C253.474 165.131 253.325 165.354 253.224 165.6C253.123 165.845 253.072 166.109 253.075 166.375C253.077 166.64 253.132 166.903 253.237 167.147Z" fill="#263238"/>
<path d="M251.293 164.287C251.627 164.454 252.745 162.826 254.883 162.087C257.021 161.348 258.949 161.876 259.089 161.533C259.16 161.383 258.755 160.996 257.893 160.741C256.749 160.421 255.534 160.464 254.417 160.864C253.306 161.246 252.344 161.97 251.671 162.932C251.24 163.68 251.134 164.208 251.293 164.287Z" fill="#263238"/>
<path d="M251.645 182.749C251.601 182.626 250.237 183.04 248.072 183.805C247.526 184.008 246.989 184.149 246.725 183.805C246.416 183.295 246.269 182.703 246.303 182.107C246.162 180.62 246.013 179.053 245.863 177.417C245.177 170.773 244.402 165.405 244.103 165.44C243.804 165.475 244.173 170.878 244.86 177.531C245.036 179.159 245.212 180.717 245.379 182.204C245.366 182.991 245.631 183.758 246.127 184.369C246.293 184.512 246.489 184.615 246.701 184.672C246.913 184.728 247.135 184.736 247.35 184.694C247.673 184.628 247.986 184.521 248.283 184.377C250.421 183.497 251.697 182.864 251.645 182.749Z" fill="#263238"/>
<path d="M259.054 156.402C258.737 155.83 256.564 156.49 253.897 156.605C251.231 156.719 248.996 156.35 248.741 156.948C248.626 157.238 249.093 157.749 250.043 158.189C251.298 158.724 252.658 158.965 254.02 158.893C255.382 158.821 256.71 158.439 257.901 157.775C258.799 157.23 259.204 156.64 259.054 156.402Z" fill="#263238"/>
<path d="M233.851 166.866C233.244 166.654 232.241 167.957 230.692 169.013C229.143 170.069 227.621 170.632 227.612 171.283C227.612 171.591 228.113 171.882 228.958 171.899C230.052 171.877 231.114 171.531 232.01 170.904C232.906 170.278 233.596 169.399 233.992 168.379C234.247 167.534 234.141 166.98 233.851 166.866Z" fill="#263238"/>
<path d="M276.293 160.292C276.469 160.081 283.976 153.094 288.191 162.219C292.406 171.345 282.383 173.659 282.251 173.439C282.119 173.219 276.293 160.292 276.293 160.292Z" fill="#FFBE9D"/>
<path d="M283.439 168.696C283.439 168.643 283.65 168.696 283.976 168.696C284.428 168.68 284.856 168.491 285.173 168.168C285.973 167.367 286.053 165.466 285.357 163.768C285.021 162.975 284.509 162.268 283.861 161.7C283.646 161.452 283.372 161.262 283.065 161.145C282.758 161.029 282.427 160.989 282.101 161.031C281.895 161.067 281.708 161.175 281.574 161.336C281.44 161.498 281.368 161.701 281.371 161.911C281.371 162.219 281.503 162.378 281.468 162.413C281.433 162.448 281.195 162.351 281.098 161.938C281.043 161.687 281.078 161.426 281.195 161.198C281.359 160.896 281.633 160.669 281.961 160.565C282.369 160.465 282.796 160.471 283.202 160.584C283.607 160.696 283.977 160.911 284.275 161.207C285.04 161.814 285.644 162.6 286.035 163.495C286.827 165.361 286.686 167.517 285.542 168.511C285.331 168.696 285.08 168.832 284.808 168.906C284.537 168.981 284.253 168.993 283.976 168.942C283.553 168.907 283.413 168.722 283.439 168.696Z" fill="#EB996E"/>
<path d="M281.16 157.52C279.629 157.872 277.895 160.327 277.948 161.92C278.001 163.513 278.608 165.009 278.669 166.584C278.731 168.159 278.001 169.981 276.469 170.341C275.931 170.429 275.378 170.372 274.868 170.178C274.358 169.983 273.909 169.657 273.565 169.233C272.892 168.378 272.39 167.401 272.087 166.355C270.512 161.893 269.306 157.291 267.361 152.988C265.417 148.685 262.609 144.593 258.561 142.111C254.513 139.629 249.137 139.022 245.097 141.477C242.457 143.097 240.592 145.833 238.013 147.637C236.472 148.683 234.713 149.363 232.87 149.627C231.026 149.891 229.147 149.731 227.374 149.16C227.251 149.16 227.04 149.081 226.776 149.037C226.192 148.944 225.654 148.662 225.246 148.235C224.837 147.807 224.58 147.257 224.514 146.669C224.459 146.292 224.492 145.906 224.611 145.543C227.559 137.702 236.755 131.305 244.93 129.492C253.105 127.679 262.53 129.386 269.033 134.631C275.537 139.876 279.4 149.732 281.16 157.52Z" fill="#263238"/>
<path d="M259.09 185.249C259.09 185.381 258.597 185.381 257.91 185.495C257.035 185.646 256.205 185.992 255.482 186.507C254.747 187.023 254.117 187.674 253.625 188.426C253.229 189.006 253.044 189.429 252.912 189.394C252.78 189.358 252.762 188.874 253.044 188.135C253.432 187.169 254.096 186.34 254.954 185.75C255.805 185.146 256.831 184.837 257.875 184.87C258.676 184.897 259.107 185.134 259.09 185.249Z" fill="#263238"/>
<path d="M260.691 165.792C260.602 166.587 260.227 167.322 259.636 167.861C259.045 168.4 258.279 168.706 257.479 168.722C258.122 168.364 258.74 167.961 259.327 167.517C260.225 166.716 260.559 165.748 260.691 165.792Z" fill="#EB996E"/>
<path d="M187.519 182.045L201.405 156.64L212.845 147.417L227.612 149.45C227.612 149.45 231.853 154.281 230.252 156.675C228.65 159.069 227.137 165.079 225.473 162.888C223.81 160.697 223.467 156.068 223.467 156.068L219.569 155.857V162.738L227.418 165.123C227.418 165.123 235.18 158.664 235.963 160.081C236.746 161.497 236.06 164.12 231.616 167.877C227.172 171.635 221.804 177.434 221.804 177.434L214.817 179.089L208.542 189.103L187.519 182.045Z" fill="#FFBE9D"/>
<path d="M265.971 214.72L193.054 236.887L210.126 188.214L187 180.928L160.644 234.96C152.724 253.66 154.854 261.923 162.246 270.037C168.186 276.558 183.788 273.372 192.456 271.797L256.247 261.853L265.971 214.72Z" fill="#E3B76B"/>
<path opacity="0.4" d="M265.971 214.72L193.054 236.887L210.126 188.214L187 180.928L160.644 234.96C152.724 253.66 154.854 261.923 162.246 270.037C168.186 276.558 183.788 273.372 192.456 271.797L256.027 261.888L265.971 214.72Z" fill="black"/>
<path d="M179.678 209.986C178.586 210.094 177.485 210.053 176.404 209.862C175.303 209.818 174.214 209.622 173.166 209.282C174.259 209.185 175.361 209.238 176.44 209.44C177.54 209.466 178.63 209.65 179.678 209.986Z" fill="#FAFAFA"/>
<path d="M180.84 207.416C178.789 207.143 176.791 206.567 174.909 205.709C175.944 205.767 176.964 205.981 177.936 206.342C178.953 206.551 179.932 206.913 180.84 207.416Z" fill="#FAFAFA"/>
<path d="M252.305 255.684C252.305 255.684 281.714 303.116 281.521 310.191C281.327 317.266 295.117 332.702 301.206 338.791C307.296 344.881 342.47 373.991 355.863 373.991C355.863 373.991 373.138 349.105 371.914 334.497C370.691 319.889 343.57 242.88 343.57 242.88C343.57 242.88 322.511 198.704 303.09 194.383C298.162 193.292 290.277 191.576 290.277 191.576C290.277 191.963 291.412 201.599 281.635 207.557C267.934 215.899 251.645 221.945 251.645 221.945L252.305 255.684Z" fill="#E3B76B"/>
<path d="M286.502 208.419L242.502 221.117L204.125 229.125L221.197 180.453L196.75 172.814L171.714 227.277C163.794 245.977 165.924 254.241 173.316 262.354C179.256 268.875 194.85 265.689 203.526 264.07L278.45 257.074L286.502 208.419Z" fill="#E3B76B"/>
<path d="M198.633 173.21L211.921 148.922L223.361 139.7L238.128 141.733C238.128 141.733 242.369 146.564 240.768 148.958C239.166 151.351 237.652 157.362 235.989 155.17C234.326 152.979 233.983 148.35 233.983 148.35L230.085 148.139V155.021L237.934 157.406C237.934 157.406 245.696 150.946 246.479 152.363C247.262 153.78 246.576 156.402 242.141 160.16C237.705 163.918 232.32 169.717 232.32 169.717L225.332 171.371L219.903 180.048L198.633 173.21Z" fill="#FFBE9D"/>
<path d="M219.903 180.048C219.903 180.048 219.903 179.995 219.982 179.898L220.237 179.458L221.267 177.76L225.236 171.309H225.28L232.258 169.629L232.188 169.673C235.559 165.999 239.138 162.52 242.906 159.253C243.974 158.307 244.91 157.221 245.687 156.024C246.084 155.417 246.359 154.739 246.496 154.026C246.566 153.681 246.566 153.325 246.496 152.979C246.457 152.816 246.395 152.658 246.312 152.513C246.312 152.442 246.153 152.398 245.986 152.425C245.258 152.601 244.565 152.898 243.936 153.305C243.276 153.709 242.616 154.185 241.964 154.616C240.662 155.54 239.368 156.543 238.092 157.599L238.004 157.669H237.89L230.04 155.293L229.882 155.241V155.082C229.882 152.9 229.882 150.568 229.882 148.209V147.963H230.128L234.027 148.165H234.22V148.368C234.361 150.278 234.801 152.155 235.523 153.929C235.677 154.279 235.866 154.612 236.086 154.924C236.288 155.241 236.552 155.487 236.799 155.443C237.111 155.323 237.372 155.099 237.538 154.809C237.758 154.502 237.955 154.178 238.128 153.841C238.84 152.469 239.386 151.017 240.125 149.644C240.213 149.477 240.31 149.301 240.416 149.133C240.522 148.983 240.616 148.824 240.697 148.658C240.697 148.579 240.776 148.509 240.812 148.429L240.864 148.183C240.909 148.014 240.926 147.839 240.917 147.664C240.885 146.94 240.705 146.23 240.389 145.578C239.767 144.254 238.965 143.022 238.004 141.917L238.145 141.988L223.335 139.92H223.493L212.053 149.116L212.097 149.063L202.329 166.769L199.628 171.6L198.915 172.858C198.837 173.001 198.752 173.139 198.66 173.272C198.66 173.272 198.721 173.122 198.871 172.832C199.02 172.541 199.258 172.101 199.54 171.547L202.18 166.672C204.476 162.439 207.776 156.358 211.816 148.896L223.256 139.656L223.326 139.594H223.414L238.18 141.609H238.26L238.312 141.671C239.302 142.811 240.132 144.081 240.776 145.446C241.116 146.157 241.308 146.929 241.34 147.717C241.35 147.921 241.329 148.126 241.278 148.324L241.208 148.632C241.169 148.728 241.125 148.822 241.076 148.913C240.99 149.091 240.89 149.262 240.776 149.424C240.68 149.582 240.583 149.749 240.495 149.917C239.782 151.245 239.236 152.697 238.506 154.105C238.325 154.464 238.116 154.808 237.881 155.135C237.651 155.531 237.275 155.821 236.834 155.945C236.706 155.961 236.575 155.951 236.451 155.914C236.327 155.878 236.212 155.816 236.112 155.733C235.945 155.591 235.8 155.425 235.681 155.241C235.448 154.906 235.248 154.549 235.083 154.176C234.338 152.351 233.884 150.421 233.736 148.456L233.956 148.667L230.058 148.456L230.296 148.227C230.296 150.594 230.296 152.926 230.296 155.1L230.137 154.889L237.978 157.282L237.784 157.326C239.069 156.27 240.372 155.267 241.683 154.334C242.343 153.868 243.012 153.454 243.689 153.014C244.366 152.566 245.117 152.241 245.907 152.055C246.039 152.029 246.176 152.041 246.302 152.089C246.428 152.138 246.538 152.22 246.62 152.328C246.728 152.511 246.808 152.71 246.857 152.917C246.951 153.313 246.966 153.722 246.901 154.123C246.75 154.886 246.451 155.613 246.021 156.261C245.223 157.487 244.261 158.597 243.161 159.561C239.397 162.789 235.813 166.22 232.425 169.84L225.429 171.468L225.508 171.415L221.434 177.804C220.976 178.525 220.616 179.08 220.36 179.467L220.079 179.889L219.903 180.048Z" fill="#EB996E"/>
<path d="M282.462 268.127C282.09 267.914 281.734 267.672 281.398 267.405C281.072 267.15 280.667 266.86 280.174 266.525C279.682 266.191 279.154 265.813 278.511 265.443C277.046 264.549 275.523 263.752 273.953 263.058C272.021 262.228 270.03 261.546 267.995 261.017C264.28 260.101 260.47 259.623 256.643 259.591C255.174 259.591 254.003 259.591 253.123 259.591C252.696 259.623 252.266 259.623 251.838 259.591C252.256 259.488 252.684 259.429 253.114 259.415C253.933 259.327 255.13 259.265 256.634 259.239C260.489 259.175 264.335 259.616 268.074 260.55C270.134 261.083 272.147 261.784 274.094 262.645C275.672 263.366 277.195 264.202 278.652 265.144C279.286 265.531 279.814 265.945 280.289 266.288C280.702 266.577 281.098 266.888 281.477 267.221C281.836 267.488 282.166 267.791 282.462 268.127Z" fill="#263238"/>
<path d="M277.64 210.716C277.214 210.914 276.773 211.076 276.32 211.2L272.677 212.353C269.588 213.312 265.32 214.605 260.594 216.005C255.869 217.404 251.583 218.645 248.477 219.525L244.781 220.537C244.335 220.687 243.875 220.794 243.408 220.853C243.831 220.656 244.269 220.494 244.719 220.369L248.371 219.217C251.451 218.257 255.728 216.964 260.454 215.565C265.179 214.165 269.474 212.925 272.58 212.045L276.276 211.024C276.72 210.878 277.177 210.775 277.64 210.716Z" fill="#263238"/>
<path d="M347.019 337.04C346.883 337.235 346.727 337.415 346.553 337.577C346.385 337.744 346.192 337.964 345.937 338.193L345.057 338.967C343.047 340.51 340.735 341.613 338.272 342.205C334.616 343.081 330.807 343.105 327.14 342.276C322.683 341.171 318.472 339.243 314.723 336.591C310.986 333.958 307.418 331.092 304.04 328.011C300.889 325.23 298.038 322.731 295.513 320.848C293.526 319.325 291.442 317.935 289.273 316.685C288.508 316.254 287.901 315.929 287.513 315.717C287.296 315.618 287.087 315.5 286.889 315.365C287.117 315.434 287.338 315.525 287.549 315.638C287.98 315.814 288.596 316.122 289.388 316.518C291.602 317.708 293.723 319.064 295.733 320.575C298.293 322.458 301.18 324.913 304.348 327.668C307.709 330.712 311.253 333.548 314.961 336.16C318.664 338.776 322.816 340.691 327.21 341.809C330.822 342.634 334.572 342.634 338.184 341.809C340.614 341.252 342.906 340.211 344.925 338.747L345.849 338.017C346.113 337.797 346.306 337.585 346.482 337.436C346.654 337.294 346.833 337.162 347.019 337.04Z" fill="#263238"/>
<path d="M330.343 287.038C330.056 287.11 329.759 287.14 329.463 287.126C328.667 287.148 327.87 287.115 327.078 287.03C325.889 286.915 324.712 286.703 323.558 286.396C320.743 285.654 318.088 284.401 315.726 282.7C314.768 282.004 313.865 281.236 313.025 280.403C312.459 279.851 311.93 279.263 311.441 278.643C311.244 278.425 311.081 278.179 310.957 277.913C311.018 277.86 311.793 278.837 313.253 280.192C314.108 280.984 315.017 281.716 315.973 282.383C317.152 283.184 318.387 283.899 319.669 284.521C320.961 285.12 322.296 285.621 323.664 286.017C324.787 286.333 325.931 286.572 327.087 286.73C329.102 286.977 330.343 286.959 330.343 287.038Z" fill="#263238"/>
<g opacity="0.2">
<path d="M296.789 321.411C300.361 319.942 304.541 321.086 307.789 323.171C311.036 325.257 313.649 328.178 316.589 330.695C319.528 333.212 323.004 335.403 326.867 335.518C332.446 335.694 337.427 331.531 343.041 331.602C345.118 331.602 347.582 332.737 347.697 334.814C347.785 336.415 346.421 337.691 345.057 338.58C338.993 342.575 334.937 345.25 321.693 340.164C312.547 335.12 304.163 328.807 296.789 321.411Z" fill="black"/>
</g>
<path d="M282.251 310.094C282.137 310.156 275.871 298.848 268.259 284.856C260.647 270.864 254.549 259.45 254.663 259.389C254.777 259.327 261.043 270.626 268.655 284.636C276.267 298.645 282.365 310.033 282.251 310.094Z" fill="#263238"/>
<path d="M240.02 260.269C239.777 259.841 239.571 259.394 239.404 258.931C239.025 258.051 238.524 256.775 237.943 255.182C234.916 246.856 232.849 238.211 231.783 229.416C231.589 227.726 231.457 226.362 231.405 225.412C231.346 224.924 231.328 224.433 231.352 223.942C231.467 224.419 231.544 224.905 231.581 225.394C231.695 226.336 231.871 227.7 232.109 229.372C232.575 232.725 233.367 237.345 234.555 242.37C235.743 247.394 237.133 251.865 238.216 255.077C238.761 256.678 239.219 257.972 239.536 258.861C239.734 259.317 239.896 259.787 240.02 260.269Z" fill="#FAFAFA"/>
<path d="M245.142 260.198C244.908 259.744 244.708 259.274 244.543 258.79C244.191 257.91 243.707 256.529 243.153 254.857C240.287 246.131 238.418 237.11 237.582 227.964C237.424 226.204 237.336 224.787 237.301 223.801C237.257 223.292 237.257 222.78 237.301 222.27C237.406 222.772 237.471 223.281 237.494 223.793C237.582 224.769 237.723 226.186 237.926 227.929C238.313 231.449 238.99 236.227 240.073 241.481C241.155 246.734 242.458 251.407 243.478 254.76C243.998 256.441 244.429 257.796 244.737 258.729C244.906 259.208 245.041 259.699 245.142 260.198Z" fill="#FAFAFA"/>
<path d="M311.124 278.863C310.988 278.923 310.847 278.967 310.701 278.995L309.469 279.303C308.396 279.558 306.829 279.893 304.902 280.262C294.811 282.17 284.543 282.976 274.278 282.665C272.307 282.594 270.714 282.515 269.614 282.418L268.356 282.313C268.207 282.302 268.06 282.279 267.916 282.242C268.065 282.22 268.216 282.22 268.365 282.242H269.632C270.723 282.242 272.316 282.313 274.278 282.339C278.212 282.383 283.641 282.339 289.625 281.837C295.609 281.336 300.977 280.605 304.849 279.945C306.785 279.62 308.369 279.338 309.434 279.127L310.684 278.907C310.827 278.871 310.976 278.856 311.124 278.863Z" fill="#FAFAFA"/>
<path d="M348.269 264.088C347.921 264.415 347.544 264.71 347.142 264.968C346.394 265.54 345.286 266.332 343.895 267.273C336.608 272.17 328.685 276.046 320.346 278.793C318.745 279.312 317.442 279.673 316.527 279.937C316.062 280.086 315.585 280.198 315.102 280.271C315.543 280.063 316.003 279.895 316.474 279.769C317.354 279.479 318.657 279.048 320.241 278.485C328.485 275.579 336.364 271.726 343.719 267.001C345.127 266.121 346.262 265.355 347.037 264.827C347.427 264.548 347.839 264.3 348.269 264.088Z" fill="#FAFAFA"/>
<path d="M347.538 256.326L347.362 256.467L346.834 256.863L344.775 258.35L343.27 259.415C342.716 259.793 342.091 260.172 341.431 260.594C340.102 261.421 338.624 262.425 336.881 263.366L334.18 264.88C333.238 265.399 332.217 265.874 331.188 266.402C329.129 267.485 326.841 268.453 324.456 269.509C319.217 271.668 313.837 273.464 308.352 274.885C302.853 276.246 297.266 277.222 291.632 277.807C288.992 278.018 286.554 278.256 284.231 278.273C283.069 278.273 281.952 278.37 280.878 278.361L277.772 278.3C275.801 278.3 274.023 278.124 272.492 278.027C271.709 277.974 270.978 277.93 270.309 277.869L268.488 277.64L265.971 277.314L265.311 277.217H265.091H265.32L265.98 277.27L268.505 277.508L270.327 277.693C270.996 277.745 271.726 277.772 272.509 277.816C274.067 277.886 275.845 278.045 277.789 278.027H280.878C281.952 278.027 283.069 277.948 284.231 277.913C286.545 277.913 289.009 277.622 291.597 277.402C302.848 276.257 313.871 273.47 324.315 269.13C326.7 268.092 328.988 267.141 331.047 266.077C332.077 265.557 333.097 265.1 334.039 264.581L336.749 263.093C338.509 262.213 339.979 261.193 341.325 260.383C341.985 259.978 342.619 259.609 343.182 259.239L344.696 258.209L346.808 256.801L347.362 256.441C347.459 256.353 347.529 256.317 347.538 256.326Z" fill="#FAFAFA"/>
<path d="M214.834 198.563C214.834 198.686 208.885 197.076 201.634 194.964C194.383 192.852 188.496 191.048 188.531 190.96C188.566 190.872 194.48 192.447 201.731 194.559C208.982 196.671 214.869 198.44 214.834 198.563Z" fill="#FAFAFA"/>
<path d="M213.673 201.872C213.673 201.995 207.627 200.349 200.253 198.202C192.878 196.055 186.921 194.207 186.956 194.093C186.991 193.978 193.001 195.615 200.385 197.762C207.768 199.909 213.708 201.757 213.673 201.872Z" fill="#FAFAFA"/>
<g opacity="0.3">
<path d="M289.564 282.779C289.185 275.018 283.932 268.03 277.182 264.185C270.433 260.339 262.539 259.292 254.777 259.723L274.621 294.043C276.899 294.223 279.19 294.093 281.433 293.656C283.93 293.234 286.189 291.917 287.786 289.951C289.178 287.833 289.805 285.302 289.564 282.779Z" fill="black"/>
</g>
</svg>
