<svg width="442" height="473" viewBox="0 0 442 473" fill="none" xmlns="http://www.w3.org/2000/svg">
<path d="M119.84 242.744L121.732 242.952C137.587 244.702 153.234 237.853 162.06 224.741C163.197 223.055 164.208 221.287 165.087 219.453C168.183 212.736 169.572 205.358 169.131 197.974C168.691 190.591 166.434 183.431 162.561 177.129C157.936 169.731 151.001 163.318 149.374 154.785C147.274 143.688 154.842 133.414 161.956 124.73C169.07 116.046 176.619 105.753 174.462 94.6568C173.119 87.7132 168.039 81.9331 162.164 77.8937C146.64 67.2134 125.317 67.3458 108.516 75.4625C91.7155 83.5792 79.1905 98.6868 70.9414 115.393C59.438 138.797 55.8054 166.704 64.2437 191.612C72.682 216.521 94.0143 237.616 119.84 242.744Z" fill="#FCD3A3"/>
<path d="M347.457 68.3864C333.021 48.4542 311.575 34.0561 286.62 35.6265L288.01 35.5602C284.524 35.2792 281.018 35.7336 277.718 36.8941L277.472 36.9414H277.633C266.435 40.3017 256.99 47.8972 251.306 58.1129C247.561 65.2896 245.826 73.3454 246.286 81.4273C246.746 89.5092 249.382 97.3164 253.917 104.022C259.366 111.855 267.444 118.061 270.746 127.01C274.464 137.085 271.304 148.446 273.461 158.966C277.491 178.709 300.829 190.487 320.487 186.059C340.145 181.632 355.129 164.557 361.95 145.589C371.287 119.593 363.624 90.7215 347.457 68.3864Z" fill="#FCD3A3"/>
<path d="M288.701 277.821C307.055 277.821 321.934 262.943 321.934 244.588C321.934 226.234 307.055 211.355 288.701 211.355C270.347 211.355 255.468 226.234 255.468 244.588C255.468 262.943 270.347 277.821 288.701 277.821Z" fill="#FCD3A3"/>
<path d="M149.686 403.176H92.3304V411.056H149.686V403.176Z" fill="#3C3C3C"/>
<path d="M149.79 411.151H92.2358V403.072H149.79V411.151ZM92.4345 410.952H149.592V403.27H92.4345V410.952Z" fill="#3C3C3C"/>
<path d="M97.647 408.426L105.906 449.161H136.452L144.436 411.056L97.647 408.426Z" fill="#3C3C3C"/>
<path d="M97.647 445.311L102.055 451.365H139.186L144.436 445.311H97.647Z" fill="#759582"/>
<path d="M118.856 409.618C118.743 409.618 118.601 390.745 118.535 367.474C118.468 344.202 118.535 325.329 118.62 325.329C118.705 325.329 118.875 344.193 118.941 367.474C119.008 390.755 118.97 409.618 118.856 409.618Z" fill="#3C3C3C"/>
<path d="M131.684 362.394C131.644 362.547 131.59 362.695 131.523 362.838L131.012 364.059L130.643 364.939C130.52 365.27 130.397 365.629 130.256 366.008C130.114 366.386 129.972 366.802 129.82 367.237C129.669 367.673 129.546 368.183 129.395 368.637C128.714 370.942 128.177 373.286 127.787 375.657C127.341 378.569 127.045 381.502 126.897 384.445C126.686 389.81 126.838 395.183 127.351 400.527C127.541 402.57 127.72 404.226 127.862 405.371C127.919 405.9 127.966 406.317 128.004 406.686C128.017 406.84 128.017 406.995 128.004 407.149C127.944 407.005 127.909 406.851 127.9 406.695C127.834 406.354 127.768 405.919 127.673 405.39C127.493 404.254 127.257 402.599 127.039 400.555C126.44 395.217 126.247 389.841 126.462 384.473C126.613 381.516 126.929 378.569 127.408 375.647C127.811 373.261 128.38 370.906 129.111 368.6C129.272 368.108 129.395 367.654 129.565 367.199C129.735 366.745 129.887 366.358 130.038 365.979C130.189 365.601 130.322 365.241 130.454 364.91C130.587 364.579 130.738 364.305 130.861 364.04C131.098 363.557 131.287 363.16 131.448 362.848C131.502 362.685 131.582 362.532 131.684 362.394Z" fill="#3C3C3C"/>
<path d="M130.17 347.182C130.12 347.394 130.057 347.602 129.981 347.806C129.839 348.242 129.641 348.828 129.385 349.557C129.253 349.944 129.111 350.37 128.95 350.824C128.789 351.278 128.657 351.77 128.486 352.347C128.155 353.445 127.768 354.684 127.418 356.075C127.238 356.775 127.039 357.503 126.84 358.26C126.642 359.017 126.49 359.821 126.301 360.644C125.904 362.29 125.62 364.068 125.242 365.932C124.617 369.716 124.059 373.821 123.671 378.23C123.283 382.638 123.151 386.744 123.094 390.585C123.038 394.425 123.094 397.822 123.293 400.688C123.34 402.126 123.435 403.422 123.511 404.566C123.586 405.711 123.643 406.686 123.719 407.49C123.794 408.294 123.823 408.88 123.861 409.334C123.877 409.552 123.877 409.77 123.861 409.987C123.806 409.776 123.771 409.561 123.756 409.344C123.7 408.89 123.634 408.275 123.539 407.509C123.444 406.742 123.35 405.721 123.265 404.585C123.179 403.45 123.047 402.145 122.981 400.707C122.792 397.869 122.706 394.397 122.697 390.585C122.688 386.772 122.886 382.581 123.246 378.201C123.605 373.821 124.192 369.687 124.854 365.903C125.232 364.011 125.535 362.252 125.951 360.606C126.147 359.78 126.336 358.985 126.519 358.222C126.727 357.465 126.926 356.737 127.124 356.037C127.484 354.646 127.891 353.407 128.25 352.319C128.43 351.78 128.591 351.269 128.742 350.796C128.893 350.323 129.073 349.926 129.215 349.547C129.499 348.819 129.726 348.242 129.887 347.816C129.96 347.596 130.055 347.383 130.17 347.182Z" fill="#3C3C3C"/>
<path d="M115.233 412.958C115.224 412.885 115.224 412.812 115.233 412.74C115.233 412.57 115.214 412.352 115.176 412.087C115.176 411.482 115.082 410.649 115.015 409.59C114.874 407.386 114.675 404.254 114.438 400.395C113.937 392.637 113.218 381.919 111.913 370.123C111.25 364.229 110.475 358.629 109.671 353.549C109.245 351.023 108.857 348.611 108.412 346.369C107.968 344.127 107.57 342.036 107.173 340.134C106.776 338.233 106.378 336.521 106.038 335.017C105.697 333.512 105.385 332.179 105.092 331.157C104.799 330.135 104.638 329.312 104.496 328.726C104.43 328.47 104.382 328.262 104.345 328.092C104.307 327.922 104.345 327.874 104.345 327.874C104.384 327.939 104.413 328.009 104.43 328.082L104.609 328.707L105.196 331.1C105.489 332.15 105.83 333.437 106.142 334.941C106.454 336.445 106.937 338.148 107.334 340.049C107.731 341.951 108.204 344.032 108.62 346.283C109.037 348.535 109.481 350.938 109.917 353.473C110.74 358.553 111.525 364.153 112.196 370.056C113.502 381.853 114.174 392.59 114.599 400.328C114.817 404.216 114.959 407.357 115.044 409.533C115.091 410.593 115.12 411.425 115.138 412.04C115.138 412.305 115.138 412.513 115.138 412.683C115.176 412.772 115.208 412.864 115.233 412.958Z" fill="#3C3C3C"/>
<path d="M118.44 334.402C118.185 331.734 115.489 329.672 112.764 329.672C111.42 329.734 110.107 330.101 108.924 330.743C107.741 331.385 106.719 332.287 105.934 333.38C104.388 335.586 103.271 338.064 102.642 340.683C100.689 346.959 100.004 353.561 100.627 360.104C101.393 366.613 104.032 373.017 108.706 377.615C109.462 378.362 110.446 379.11 111.487 378.883C112.052 378.706 112.559 378.379 112.953 377.937C117.526 373.754 121.151 368.641 123.585 362.942C126.02 357.242 127.207 351.089 127.068 344.893C126.992 342.414 126.67 339.841 125.299 337.779C123.927 335.717 120.729 333.531 118.402 334.354" fill="#759582"/>
<path d="M118.62 325.329L84.5637 305.208C84.1893 305.043 83.8916 304.742 83.7312 304.366C83.5988 303.865 83.9772 303.42 84.3461 303.004C86.6902 300.571 89.5311 298.672 92.6752 297.436C95.8194 296.201 99.1929 295.657 102.566 295.843C105.939 296.083 109.202 297.142 112.073 298.927C114.944 300.712 117.337 303.17 119.045 306.088C122.338 311.972 122.442 319.748 118.667 325.329" fill="#759582"/>
<path d="M89.4357 298.785L89.8803 298.728C90.1736 298.728 90.6087 298.662 91.1669 298.671C92.7516 298.645 94.3353 298.769 95.8969 299.04C101.098 299.921 105.939 302.27 109.851 305.809C113.763 309.349 116.582 313.932 117.976 319.02C118.398 320.545 118.68 322.106 118.818 323.683C118.835 323.998 118.835 324.314 118.818 324.629C118.793 324.895 118.706 325.151 118.563 325.377C118.651 324.806 118.651 324.226 118.563 323.655C118.374 322.096 118.057 320.555 117.617 319.048C116.186 314.041 113.381 309.535 109.521 306.041C105.66 302.547 100.898 300.203 95.7739 299.276C94.2128 298.986 92.6312 298.818 91.0439 298.775C90.06 298.803 89.4357 298.822 89.4357 298.785Z" fill="#3C3C3C"/>
<path d="M114.003 311.442C113.462 311.769 112.884 312.033 112.282 312.227C111.194 312.653 109.68 313.173 107.977 313.741C106.274 314.309 104.723 314.687 103.588 314.99C102.974 315.182 102.338 315.3 101.696 315.34C102.269 315.069 102.868 314.857 103.484 314.706L107.826 313.353L112.159 311.953C112.753 311.716 113.372 311.545 114.003 311.442Z" fill="#3C3C3C"/>
<path d="M108.63 297.044C108.937 298.281 109.074 299.554 109.037 300.828C109.131 302.093 109.061 303.365 108.829 304.612C108.664 303.358 108.598 302.093 108.63 300.828C108.529 299.569 108.529 298.303 108.63 297.044Z" fill="#3C3C3C"/>
<path d="M84.2231 304.83C85.0206 304.464 85.8504 304.172 86.7017 303.959C88.2436 303.477 90.4005 302.871 92.8128 302.294C95.2251 301.717 97.4104 301.273 99.0091 300.989C99.8638 300.793 100.735 300.676 101.611 300.639C100.779 300.911 99.9283 301.123 99.0659 301.273C97.4861 301.623 95.2819 302.115 92.9074 302.692C90.533 303.269 88.3477 303.827 86.7773 304.234C85.9413 304.493 85.0877 304.693 84.2231 304.83Z" fill="#3C3C3C"/>
<path d="M104.25 328.603C101.317 326.38 98.224 325.944 94.544 326.086C90.8598 326.331 87.2537 327.261 83.911 328.83C78.1593 331.346 72.7577 335.064 69.3237 340.314C65.8897 345.564 64.6883 352.527 67.2614 358.288C67.4613 358.886 67.8759 359.388 68.425 359.698C69.0532 359.869 69.7213 359.819 70.317 359.556C76.8538 357.418 83.438 355.27 89.4546 351.922C95.4711 348.573 100.939 343.937 104.165 337.864C104.999 336.433 105.527 334.845 105.716 333.2C105.805 332.377 105.716 331.544 105.457 330.758C105.197 329.972 104.773 329.25 104.212 328.64" fill="#759582"/>
<path d="M104.297 327.912C104.145 327.987 103.986 328.05 103.824 328.101L102.453 328.574L101.507 328.905L100.353 329.359C99.5201 329.691 98.5646 330.031 97.5145 330.514L95.9063 331.251C95.3482 331.507 94.7995 331.819 94.2035 332.122C93.021 332.699 91.8196 333.446 90.5425 334.203C85.0579 337.602 80.179 341.893 76.1066 346.898C75.1606 348.062 74.3092 349.159 73.5807 350.266C73.2023 350.805 72.8239 351.316 72.4928 351.836C72.1617 352.357 71.8685 352.858 71.5468 353.331C70.9319 354.277 70.4778 355.223 70.0427 355.961C69.8251 356.358 69.617 356.718 69.4467 357.058L68.9926 358.004C68.7278 358.544 68.5196 358.95 68.3494 359.3C68.2834 359.457 68.2009 359.606 68.1034 359.745C68.1407 359.581 68.1978 359.422 68.2737 359.272L68.8507 357.938C68.9769 357.642 69.1188 357.326 69.2764 356.992C69.4373 356.652 69.6359 356.283 69.844 355.885C70.2603 355.091 70.6954 354.173 71.3009 353.218L72.2469 351.695C72.5685 351.165 72.9469 350.654 73.3159 350.096C74.0443 348.98 74.9241 347.873 75.8322 346.681C77.867 344.157 80.0935 341.795 82.4921 339.614C84.9433 337.497 87.5558 335.574 90.306 333.862C91.602 333.115 92.8129 332.377 94.0143 331.8C94.6103 331.507 95.1685 331.195 95.7361 330.949L97.3537 330.23C98.3849 329.757 99.3592 329.445 100.192 329.123C100.617 328.972 101.005 328.82 101.365 328.707L102.377 328.404L103.768 328.007C103.941 327.959 104.118 327.927 104.297 327.912Z" fill="#3C3C3C"/>
<path d="M81.3758 340.323C79.041 341.217 76.6599 341.984 74.2429 342.622C71.8635 343.384 69.4445 344.015 66.9966 344.514C69.332 343.623 71.713 342.856 74.1294 342.215C76.5072 341.449 78.9266 340.817 81.3758 340.323Z" fill="#3C3C3C"/>
<path d="M81.0825 356.065C80.9672 355.33 80.9166 354.586 80.9311 353.842C80.9311 352.47 80.9311 350.569 80.9311 348.469C80.9311 346.368 81.1109 344.476 81.2244 343.105C81.2449 342.36 81.3368 341.619 81.4987 340.891C81.5622 341.634 81.5622 342.381 81.4987 343.124C81.4987 344.628 81.3947 346.454 81.3379 348.478C81.2812 350.502 81.2339 352.338 81.196 353.842C81.2338 354.585 81.1957 355.33 81.0825 356.065Z" fill="#3C3C3C"/>
<path d="M94.5724 349.188C94.4589 349.188 94.0994 345.337 93.7683 340.57C93.4372 335.802 93.2669 331.933 93.3804 331.923C93.494 331.914 93.8534 335.773 94.1751 340.541C94.4967 345.309 94.6859 349.188 94.5724 349.188Z" fill="#3C3C3C"/>
<path d="M77.762 331.545C78.5216 331.455 79.2877 331.433 80.0513 331.478C81.4608 331.478 83.4096 331.526 85.557 331.601C87.7044 331.677 89.6532 331.762 91.0627 331.838C91.828 331.843 92.5913 331.919 93.3426 332.065C92.5829 332.154 91.8168 332.177 91.0533 332.131C89.6437 332.131 87.695 332.074 85.5475 332.008C83.4001 331.942 81.4514 331.847 80.0418 331.762C79.2767 331.762 78.5133 331.69 77.762 331.545Z" fill="#3C3C3C"/>
<path d="M110.162 378.513C110.118 378.366 110.099 378.213 110.106 378.059C110.106 377.719 110.087 377.284 110.049 376.754C110.049 375.609 109.983 373.963 110.049 371.92C110.115 369.876 110.229 367.455 110.465 364.768C110.702 362.081 111.118 359.139 111.667 356.074C112.215 353.009 112.915 350.115 113.606 347.504C114.296 344.893 115.053 342.575 115.734 340.645C116.416 338.715 117.012 337.173 117.456 336.123C117.674 335.631 117.844 335.225 117.976 334.912C118.033 334.768 118.103 334.628 118.185 334.496C118.159 334.649 118.115 334.799 118.052 334.941C117.939 335.262 117.787 335.669 117.607 336.18C117.201 337.239 116.661 338.8 116.009 340.74C115.356 342.679 114.665 344.997 113.975 347.598C113.284 350.2 112.632 353.085 112.083 356.112C111.534 359.139 111.137 362.1 110.853 364.778C110.569 367.455 110.418 369.867 110.342 371.901C110.267 373.935 110.238 375.581 110.238 376.716C110.238 377.255 110.238 377.662 110.238 378.031C110.227 378.194 110.202 378.355 110.162 378.513Z" fill="#3C3C3C"/>
<path d="M111.96 356.188C111.559 356.732 111.103 357.233 110.598 357.683C109.718 358.562 108.46 359.745 107.031 360.994C105.603 362.242 104.269 363.34 103.247 364.097C102.74 364.542 102.185 364.929 101.592 365.251C102.039 364.747 102.533 364.288 103.068 363.879L106.738 360.691L110.371 357.475C110.857 356.995 111.389 356.564 111.96 356.188Z" fill="#3C3C3C"/>
<path d="M122.754 364.882C122.211 364.259 121.726 363.588 121.306 362.876L117.929 357.957L114.495 353.094C113.98 352.445 113.519 351.755 113.114 351.032C113.705 351.614 114.243 352.247 114.722 352.924C115.668 354.126 116.936 355.819 118.27 357.739C119.604 359.66 120.748 361.429 121.543 362.734C122.01 363.412 122.416 364.131 122.754 364.882Z" fill="#3C3C3C"/>
<path d="M117.097 337.542C117.153 337.637 113.568 340.049 109.084 342.934C104.6 345.82 100.92 348.071 100.863 347.977C100.807 347.882 104.382 345.47 108.867 342.584C113.351 339.699 117.03 337.448 117.097 337.542Z" fill="#3C3C3C"/>
<path d="M127.209 348.45C125.306 346.886 123.493 345.215 121.779 343.445C119.976 341.767 118.261 339.996 116.643 338.138C118.545 339.707 120.358 341.38 122.073 343.152C123.877 344.826 125.592 346.594 127.209 348.45Z" fill="#3C3C3C"/>
<path d="M129.792 348.232L132.876 347.977C135.06 347.803 137.181 347.158 139.091 346.085C140.025 345.539 140.992 345.052 141.986 344.628C145.77 343.105 150.036 343.379 154.133 343.171C160.84 342.833 167.412 341.154 173.459 338.233C173.812 338.07 174.106 337.802 174.301 337.467C174.935 336.312 173.762 335.291 172.75 334.629C167.566 331.431 162.287 328.196 156.403 326.606C150.519 325.017 143.85 325.292 138.826 328.744C132.942 332.803 130.795 341.128 129.792 348.204" fill="#759582"/>
<path d="M174.32 337.079C174.14 337.012 173.966 336.929 173.8 336.833L172.343 336.067C171.075 335.404 169.25 334.421 166.951 333.323C164.273 332.001 161.48 330.925 158.607 330.107C155.089 329.089 151.404 328.783 147.766 329.208C144.134 329.616 140.704 331.09 137.909 333.446C135.723 335.474 133.975 337.927 132.772 340.655C131.694 342.953 131.031 344.921 130.539 346.264L129.991 347.816C129.937 347.998 129.868 348.176 129.783 348.346C129.804 348.155 129.848 347.968 129.915 347.788C130.038 347.39 130.199 346.842 130.388 346.208C130.987 344.276 131.698 342.381 132.517 340.532C133.698 337.745 135.447 335.235 137.653 333.162C140.515 330.737 144.037 329.225 147.766 328.82C151.447 328.395 155.176 328.717 158.73 329.766C161.616 330.617 164.418 331.728 167.102 333.087C169.392 334.231 171.198 335.253 172.438 335.925L173.857 336.757C174.021 336.849 174.177 336.957 174.32 337.079Z" fill="#3C3C3C"/>
<path d="M166.932 341.052C166.866 341.146 162.845 338.535 157.935 335.234C153.026 331.932 149.109 329.17 149.176 329.075C149.242 328.981 153.262 331.592 158.172 334.893C163.082 338.195 166.989 340.957 166.932 341.052Z" fill="#3C3C3C"/>
<path d="M162.637 328.867C161.691 329.186 160.703 329.364 159.705 329.397C158.712 329.534 157.703 329.518 156.715 329.35C157.69 329.179 158.677 329.081 159.667 329.057C160.651 328.919 161.644 328.856 162.637 328.867Z" fill="#3C3C3C"/>
<path d="M145.013 326.569C144.683 327.322 144.236 328.018 143.689 328.631C143.228 329.339 142.667 329.976 142.024 330.523C142.347 329.769 142.792 329.072 143.339 328.461C143.804 327.754 144.368 327.117 145.013 326.569Z" fill="#3C3C3C"/>
<path d="M148.617 343.398C147.935 343.119 147.285 342.767 146.678 342.348C145.524 341.648 143.944 340.607 142.27 339.396C140.595 338.186 139.11 337.022 138.041 336.18C137.442 335.754 136.885 335.273 136.376 334.742C137.028 335.084 137.645 335.486 138.221 335.944L142.506 339.065C144.181 340.276 145.723 341.345 146.839 342.112C147.466 342.491 148.061 342.921 148.617 343.398Z" fill="#3C3C3C"/>
<path d="M134.285 361.315C131.343 360.539 127.843 363.387 127.238 366.367C126.632 369.347 127.749 372.383 129.054 375.127C131.853 381.27 136.006 386.7 141.201 391.01C146.439 395.318 152.98 397.729 159.761 397.85C158.522 392.079 160.092 386.062 159.402 380.207C158.792 375.046 156.449 370.244 152.756 366.588C149.063 362.931 144.239 360.635 139.072 360.076C137.18 359.877 135.033 359.584 134.285 361.315Z" fill="#759582"/>
<path d="M159.761 397.85C159.616 397.799 159.476 397.733 159.345 397.651C158.957 397.44 158.59 397.193 158.248 396.913C157.013 395.843 156.023 394.52 155.343 393.035C154.88 392.089 154.397 391.143 153.849 390.045C153.3 388.948 152.818 387.784 152.269 386.554C151.694 385.274 151.043 384.03 150.32 382.827C149.526 381.55 148.634 380.335 147.653 379.195C145.647 376.83 143.49 374.786 141.617 372.837C139.922 371.138 138.383 369.289 137.019 367.313C136.098 365.978 135.342 364.535 134.768 363.018C134.615 362.606 134.482 362.186 134.371 361.76C134.318 361.617 134.289 361.467 134.286 361.315C134.286 361.315 134.484 361.911 134.91 362.961C135.538 364.439 136.325 365.844 137.256 367.152C138.648 369.085 140.198 370.898 141.891 372.573C143.783 374.465 145.931 376.546 147.965 378.93C148.96 380.088 149.865 381.321 150.67 382.619C151.393 383.84 152.04 385.104 152.61 386.403L154.152 389.903C154.643 390.991 155.154 391.994 155.608 392.902C156.245 394.374 157.179 395.698 158.352 396.79C159.203 397.528 159.79 397.802 159.761 397.85Z" fill="#3C3C3C"/>
<path d="M144.578 393.054C144.596 392.386 144.688 391.723 144.852 391.076C145.079 389.866 145.458 388.238 145.969 386.403C146.479 384.568 147.019 382.979 147.454 381.834C147.652 381.197 147.922 380.585 148.258 380.008C148.139 380.654 147.961 381.287 147.728 381.9C147.369 383.073 146.867 384.691 146.356 386.498C145.846 388.305 145.41 389.932 145.136 391.124C145.013 391.784 144.826 392.43 144.578 393.054Z" fill="#3C3C3C"/>
<path d="M159.203 378.901C158.503 378.806 157.813 378.648 157.141 378.428C155.873 378.097 154.123 377.643 152.184 377.208C150.245 376.773 148.466 376.432 147.18 376.186C146.478 376.093 145.785 375.941 145.108 375.732C145.818 375.711 146.529 375.768 147.227 375.903C148.532 376.073 150.32 376.366 152.269 376.849C154.218 377.331 155.968 377.795 157.217 378.192C157.902 378.358 158.568 378.595 159.203 378.901Z" fill="#3C3C3C"/>
<path d="M133.689 383.017C133.717 382.245 133.822 381.478 134.002 380.727C134.257 379.327 134.673 377.397 135.222 375.297C135.771 373.197 136.357 371.305 136.811 369.962C137.028 369.219 137.31 368.498 137.653 367.805C137.532 368.567 137.345 369.317 137.095 370.047C136.698 371.409 136.149 373.301 135.619 375.401C135.09 377.501 134.617 379.403 134.285 380.794C134.145 381.549 133.946 382.292 133.689 383.017Z" fill="#3C3C3C"/>
<path d="M152.496 366.575C152.496 366.688 148.826 366.386 144.313 365.913C139.801 365.44 136.159 364.967 136.168 364.844C138.908 364.925 141.643 365.146 144.36 365.506C147.089 365.723 149.804 366.08 152.496 366.575Z" fill="#3C3C3C"/>
<path d="M149.781 411.018C149.781 411.132 136.906 411.226 121.013 411.226C105.12 411.226 92.2358 411.132 92.2358 411.018C92.2358 410.904 105.12 410.819 121.013 410.819C136.906 410.819 149.781 410.904 149.781 411.018Z" fill="#759582"/>
<path d="M140.822 427.592C140.822 427.705 132.138 427.791 121.439 427.791C110.74 427.791 102.046 427.705 102.046 427.592C102.046 427.478 110.73 427.384 121.439 427.384C132.147 427.384 140.822 427.488 140.822 427.592Z" fill="#759582"/>
<path d="M140.482 429.967C140.482 430.08 131.968 430.175 121.439 430.175C110.91 430.175 102.386 430.08 102.386 429.967C102.386 429.853 110.9 429.768 121.439 429.768C131.977 429.768 140.482 429.853 140.482 429.967Z" fill="#759582"/>
<path d="M141.144 425.643C141.144 425.757 132.166 425.851 121.089 425.851C110.011 425.851 101.034 425.757 101.034 425.643C101.034 425.53 110.011 425.445 121.089 425.445C132.166 425.445 141.144 425.53 141.144 425.643Z" fill="#759582"/>
<path d="M202.577 93.8108C197.149 97.2723 190.829 99.0756 184.391 98.9999C182.356 98.875 180.315 98.8523 178.277 98.9318C176.225 99.0164 174.26 99.78 172.689 101.103C171.917 101.777 171.367 102.668 171.11 103.66C170.853 104.652 170.901 105.698 171.248 106.662C172.397 109.291 176.116 110.332 176.681 113.146C177.089 115.171 175.58 117.099 173.877 118.277C172.173 119.455 170.187 120.224 168.756 121.723C167.892 122.62 167.282 123.731 166.988 124.941C166.693 126.152 166.726 127.419 167.081 128.612C167.436 129.806 168.102 130.884 169.01 131.737C169.919 132.589 171.037 133.185 172.251 133.464C173.701 133.805 175.483 133.815 176.272 135.08C176.69 136.042 176.766 137.117 176.486 138.128C176.103 140.297 176.392 142.532 177.313 144.534C177.788 145.525 178.527 146.365 179.45 146.961C180.373 147.558 181.443 147.887 182.541 147.912C183.398 147.912 184.235 147.62 185.092 147.639C185.52 147.613 185.945 147.717 186.312 147.938C186.679 148.159 186.97 148.486 187.146 148.876C187.237 149.459 187.211 150.055 187.069 150.628C186.757 153.5 189.619 155.749 192.394 156.567C197.934 158.222 204.077 156.625 208.789 153.218C213.501 149.81 216.723 144.767 218.914 139.413C221.104 134.058 222.282 128.372 223.451 122.706" fill="#3C3C3C"/>
<path d="M264.457 237.013C263.837 235.479 262.905 234.09 261.722 232.934C254.391 225.145 243.282 221.397 232.602 222.01C221.922 222.624 211.69 227.268 203.395 233.995C198.965 237.587 192.988 244.51 191.43 250C197.933 251.568 207.65 249.387 213.822 246.71C219.995 244.032 226.031 240.8 232.68 240.119C240.391 239.33 247.965 242.066 255.559 243.614C257.077 243.984 258.645 244.109 260.203 243.984C260.981 243.914 261.736 243.68 262.417 243.298C263.099 242.915 263.691 242.392 264.156 241.764C264.564 241.047 264.803 240.247 264.856 239.423C264.908 238.6 264.772 237.776 264.457 237.013Z" fill="#E3B76B"/>
<g opacity="0.3">
<path d="M264.457 237.013C263.837 235.479 262.905 234.09 261.722 232.934C254.391 225.145 243.282 221.397 232.602 222.01C221.922 222.624 211.69 227.268 203.395 233.995C198.965 237.587 192.988 244.51 191.43 250C197.933 251.568 207.65 249.387 213.822 246.71C219.995 244.032 226.031 240.8 232.68 240.119C240.391 239.33 247.965 242.066 255.559 243.614C257.077 243.984 258.645 244.109 260.203 243.984C260.981 243.914 261.736 243.68 262.417 243.298C263.099 242.915 263.691 242.392 264.156 241.764C264.564 241.047 264.803 240.247 264.856 239.423C264.908 238.6 264.772 237.776 264.457 237.013Z" fill="black"/>
</g>
<path d="M259.152 329.891L277.717 317.868C277.717 317.868 296.215 332.695 299.827 330.807L277.786 294.015L248.082 311.54L259.152 329.891Z" fill="#E3B76B"/>
<path d="M269.296 307.431C269.19 307.012 269.243 306.568 269.444 306.185C269.645 305.803 269.981 305.508 270.387 305.358C270.802 305.237 271.249 305.28 271.633 305.48C272.017 305.679 272.31 306.019 272.451 306.429C272.559 306.872 272.5 307.34 272.285 307.743C272.069 308.146 271.712 308.454 271.282 308.609C270.837 308.691 270.377 308.596 269.999 308.346C269.621 308.095 269.356 307.708 269.257 307.266" fill="#E0E0E0"/>
<g opacity="0.6">
<path d="M277.786 294.015L274.865 295.904L297.121 330.466C297.121 330.466 298.815 331.683 299.856 330.807L277.786 294.015Z" fill="white"/>
</g>
<path d="M277.873 318.569C278.049 318.462 277.591 317.508 277.64 316.281C277.688 315.054 278.165 314.129 278 314.003C277.834 313.876 276.948 314.772 276.919 316.262C276.89 317.751 277.737 318.715 277.873 318.569Z" fill="#3C3C3C"/>
<path d="M281.787 321.48C281.982 321.421 281.787 320.506 282.215 319.387C282.644 318.267 283.315 317.664 283.189 317.488C283.062 317.313 281.991 317.81 281.524 319.143C281.057 320.477 281.612 321.577 281.787 321.48Z" fill="#3C3C3C"/>
<path d="M287.726 320.905C287.658 320.72 286.616 321.013 285.905 322.064C285.195 323.115 285.311 324.186 285.506 324.177C285.701 324.167 285.915 323.33 286.48 322.473C287.044 321.616 287.813 321.1 287.726 320.905Z" fill="#3C3C3C"/>
<path d="M273.336 320.847C273.463 320.672 272.713 319.99 272.178 318.9C271.642 317.809 271.487 316.855 271.272 316.855C271.058 316.855 270.883 317.994 271.535 319.24C272.188 320.487 273.249 321.022 273.336 320.847Z" fill="#3C3C3C"/>
<path opacity="0.3" d="M262.082 303.255L270.523 322.512L267.69 324.517L257.954 305.737L262.082 303.255Z" fill="black"/>
<path d="M251.022 227.696C250.263 227.696 225.291 227.141 211.807 236.049L201.098 242.066L201.38 252.872C201.38 252.872 199.092 256.689 199.598 258.977C200.105 261.265 199.53 270.932 199.53 270.932C199.53 270.932 195.529 271.185 195.023 278.059C195.023 278.059 189.473 280.347 187.039 284.416C184.605 288.486 159.663 334.273 158.144 341.652C156.625 349.032 155.593 362 161.191 366.322C166.789 370.645 179.319 369.117 179.319 369.117C179.319 369.117 181.101 374.462 192.043 374.715C202.986 374.968 219.761 362.253 219.761 362.253L270.133 327.915L258.178 302.398L240.586 313.156L259.405 291.28C259.405 291.28 268.06 276.53 265.509 261.012C263.63 249.494 251.022 227.696 251.022 227.696Z" fill="#3C3C3C"/>
<path d="M255.335 235.601H254.741H253.047C251.568 235.601 249.445 235.601 246.817 235.601C244.188 235.601 241.053 235.728 237.607 236.098C233.866 236.455 230.176 237.226 226.605 238.395C219.002 240.966 212.888 245.045 208.536 247.956L203.415 251.5L202.023 252.473C201.869 252.597 201.698 252.698 201.516 252.775C201.516 252.775 201.653 252.629 201.954 252.386L203.298 251.354C204.476 250.458 206.219 249.183 208.331 247.664C212.644 244.675 218.758 240.518 226.44 237.928C230.047 236.745 233.777 235.978 237.558 235.64C240.636 235.355 243.726 235.228 246.817 235.26C249.445 235.26 251.577 235.358 253.047 235.436L254.741 235.533C254.941 235.529 255.141 235.552 255.335 235.601Z" fill="#455A64"/>
<path d="M203.94 243.546C203.542 243.946 203.268 244.453 203.152 245.006C203.102 245.29 203.124 245.583 203.216 245.856C203.308 246.13 203.466 246.377 203.678 246.573C203.935 246.81 204.252 246.973 204.595 247.045C204.938 247.117 205.293 247.096 205.625 246.982C205.943 246.836 206.215 246.607 206.414 246.319C206.613 246.032 206.73 245.696 206.754 245.347C206.773 245.058 206.72 244.768 206.6 244.505C206.479 244.241 206.294 244.012 206.063 243.838C205.597 243.513 205.044 243.337 204.476 243.331C204.476 243.331 204.622 243.205 204.953 243.185C205.42 243.158 205.883 243.289 206.267 243.555C206.574 243.746 206.825 244.013 206.996 244.331C207.166 244.649 207.251 245.006 207.241 245.366C207.249 245.821 207.118 246.268 206.866 246.647C206.614 247.026 206.252 247.319 205.829 247.487C205.406 247.655 204.942 247.691 204.498 247.588C204.055 247.486 203.653 247.251 203.347 246.914C203.097 246.663 202.914 246.353 202.815 246.013C202.717 245.672 202.705 245.313 202.782 244.967C202.884 244.51 203.13 244.097 203.483 243.789C203.755 243.555 203.931 243.516 203.94 243.546Z" fill="#455A64"/>
<path d="M212.907 244.86C212.858 244.909 212.508 244.646 212.011 244.139C211.287 243.507 210.78 242.663 210.561 241.726C210.343 240.79 210.424 239.809 210.794 238.921C211.018 238.24 211.223 237.85 211.281 237.87C211.34 237.889 211.281 238.327 211.145 239.009C210.94 239.86 210.91 240.745 211.057 241.608C211.31 242.448 211.727 243.229 212.284 243.906C212.693 244.461 212.956 244.811 212.907 244.86Z" fill="#455A64"/>
<path d="M215.02 243.565C215.02 243.614 214.63 243.4 214.173 242.922C213.585 242.278 213.149 241.509 212.897 240.674C212.506 239.514 212.489 238.261 212.849 237.091C213.024 237.091 212.849 238.707 213.384 240.528C213.805 241.602 214.354 242.622 215.02 243.565Z" fill="#455A64"/>
<path d="M241.978 235.601C241.9 235.601 241.871 235.144 241.803 234.423C241.728 233.506 241.521 232.604 241.189 231.746C240.824 230.904 240.31 230.135 239.671 229.477C239.184 228.952 238.872 228.621 238.921 228.562C238.97 228.504 239.359 228.738 239.894 229.215C240.648 229.846 241.242 230.647 241.627 231.551C241.989 232.461 242.161 233.435 242.134 234.413C242.176 234.816 242.123 235.223 241.978 235.601Z" fill="#455A64"/>
<path d="M245.249 235.601C245.171 235.601 245.161 235.144 245.171 234.433C245.227 233.531 245.151 232.626 244.947 231.746C244.621 230.901 244.196 230.097 243.682 229.351C243.302 228.747 243.097 228.377 243.156 228.309C243.214 228.241 243.526 228.592 243.974 229.146C244.6 229.873 245.094 230.703 245.434 231.6C245.668 232.537 245.698 233.513 245.522 234.462C245.424 235.124 245.317 235.601 245.249 235.601Z" fill="#455A64"/>
<path d="M202.188 346.179C202.292 345.782 202.446 345.399 202.646 345.04C202.986 344.31 203.512 343.249 204.203 341.896C205.586 339.179 207.621 335.275 210.171 330.466C215.273 320.847 222.399 307.597 230.334 293.003L236.175 282.342C237.951 279.042 239.327 275.542 240.274 271.915C241.883 265.752 242.214 259.325 241.248 253.028C240.61 248.786 239.402 244.65 237.655 240.732C237.042 239.34 236.506 238.288 236.136 237.578L235.708 236.77C235.658 236.679 235.616 236.585 235.582 236.487C235.648 236.569 235.707 236.657 235.757 236.75L236.224 237.529C236.623 238.22 237.198 239.262 237.84 240.644C242.389 250.464 243.383 261.56 240.654 272.032C239.708 275.702 238.325 279.245 236.536 282.586C234.666 286.022 232.729 289.586 230.753 293.237L210.473 330.631L204.359 341.983L202.714 345.079L202.305 345.897C202.274 345.994 202.235 346.089 202.188 346.179Z" fill="#455A64"/>
<path d="M258.373 313.234C258.202 313.377 258.019 313.508 257.828 313.623L256.211 314.597L250.243 318.355C245.21 321.47 238.278 325.802 230.694 330.709C223.11 335.616 216.315 340.124 211.447 343.414L205.605 347.309L203.999 348.341C203.818 348.471 203.626 348.585 203.425 348.681C203.58 348.523 203.753 348.382 203.941 348.263L205.489 347.143L211.233 343.122C216.1 339.763 222.915 335.168 230.461 330.252C238.006 325.335 245.015 321.051 250.097 318.024C252.638 316.505 254.712 315.298 256.143 314.48L257.808 313.506C257.989 313.4 258.177 313.309 258.373 313.234Z" fill="#455A64"/>
<path d="M266.249 330.524C266.06 330.216 265.904 329.89 265.781 329.551L264.565 326.786C263.513 324.459 262.014 321.266 260.33 317.751C258.645 314.236 257.185 311.15 256.036 308.736L254.761 305.99C254.585 305.663 254.448 305.317 254.352 304.958C254.588 305.256 254.785 305.583 254.936 305.932C255.286 306.565 255.773 307.47 256.357 308.609C257.526 310.878 259.113 314.042 260.787 317.566C262.462 321.09 263.922 324.303 264.896 326.679C265.382 327.857 265.743 328.83 265.966 329.512C266.096 329.838 266.19 330.178 266.249 330.524Z" fill="#455A64"/>
<path d="M202.188 346.179C202.101 346.072 210.707 338.459 221.426 329.171C232.145 319.883 240.897 312.445 240.995 312.552C241.092 312.659 232.476 320.302 221.757 329.551C211.038 338.8 202.286 346.286 202.188 346.179Z" fill="#455A64"/>
<path d="M191.518 364.025C192.304 363.347 193.001 362.572 193.591 361.718C194.633 360.101 195.909 357.726 197.349 355.146C198.79 352.566 200.007 350.161 200.903 348.438C201.338 347.482 201.846 346.561 202.422 345.683C202.111 346.69 201.71 347.668 201.224 348.604C200.406 350.375 199.219 352.79 197.797 355.419C196.376 358.047 195.032 360.345 193.903 361.951C193.45 362.589 192.905 363.157 192.287 363.635C192.059 363.815 191.797 363.948 191.518 364.025Z" fill="#455A64"/>
<path d="M200.64 366.78C200.562 366.78 201.117 365.68 201.731 363.859C202.496 361.47 203.024 359.012 203.308 356.519C203.655 354.039 203.655 351.522 203.308 349.042C203.193 348.301 202.973 347.579 202.655 346.9C202.49 346.678 202.346 346.44 202.227 346.189C202.227 346.189 202.48 346.355 202.821 346.803C203.226 347.471 203.509 348.206 203.658 348.974C204.129 351.481 204.195 354.049 203.853 356.577C203.572 359.109 202.984 361.597 202.1 363.986C201.828 364.707 201.503 365.407 201.127 366.079C200.835 366.547 200.669 366.8 200.64 366.78Z" fill="#455A64"/>
<path d="M190.096 351.992C190.719 351.709 191.372 351.499 192.043 351.368C193.578 350.953 195.079 350.419 196.532 349.772C199.91 348.195 202.12 346.024 202.237 346.179C201.813 346.716 201.307 347.183 200.737 347.562C199.505 348.621 198.132 349.506 196.658 350.19C195.18 350.857 193.632 351.357 192.043 351.68C191.412 351.872 190.756 351.976 190.096 351.992Z" fill="#455A64"/>
<path d="M202.977 281.252C202.94 281.326 202.894 281.394 202.84 281.456L202.412 282.031C202.032 282.537 201.487 283.287 200.835 284.28C199 287.11 197.455 290.117 196.22 293.256C194.433 297.927 192.947 302.707 191.771 307.568C190.32 313.029 188.85 319.114 186.406 325.189C183.963 331.264 180.789 336.658 178.783 341.935C176.898 346.562 175.872 351.494 175.756 356.489C175.755 358.4 175.971 360.304 176.398 362.165C176.741 363.57 177.207 364.941 177.79 366.264C178.162 367.102 178.582 367.918 179.046 368.708C179.183 368.961 179.299 369.165 179.397 369.331C179.439 369.402 179.475 369.477 179.504 369.555C179.444 369.497 179.391 369.431 179.348 369.36L178.959 368.766C178.457 367.991 178.005 367.184 177.605 366.352C176.986 365.027 176.491 363.649 176.126 362.233C175.664 360.35 175.419 358.419 175.395 356.48C175.447 351.434 176.437 346.442 178.316 341.759C180.312 336.434 183.398 330.992 185.9 324.985C188.402 318.978 189.794 312.893 191.274 307.46C192.481 302.587 194.009 297.8 195.85 293.13C197.118 289.984 198.721 286.985 200.63 284.182C201.312 283.209 201.886 282.459 202.295 281.982L202.762 281.437C202.908 281.359 202.967 281.242 202.977 281.252Z" fill="#455A64"/>
<path d="M204.632 250.526C204.49 250.933 204.321 251.33 204.126 251.714C203.66 252.784 203.333 253.91 203.152 255.063C202.935 256.775 202.994 258.51 203.327 260.203C203.629 262.15 204.437 264.098 204.982 266.376C205.258 267.476 205.353 268.614 205.265 269.744C205.181 270.785 205.014 271.816 204.768 272.831C204.356 274.534 203.852 276.214 203.259 277.864C202.763 279.276 202.285 280.395 202.013 281.174C201.879 281.585 201.699 281.98 201.477 282.352C201.556 281.927 201.673 281.51 201.828 281.106C202.12 280.22 202.48 279.091 202.918 277.747C203.356 276.404 203.892 274.641 204.311 272.723C204.868 270.691 204.929 268.553 204.486 266.493C203.96 264.322 203.142 262.267 202.87 260.281C202.544 258.54 202.517 256.755 202.792 255.004C203 253.831 203.384 252.695 203.931 251.636C204.072 251.347 204.231 251.067 204.408 250.799C204.525 250.614 204.632 250.516 204.632 250.526Z" fill="#455A64"/>
<path d="M205.8 279.821C206.883 278.613 207.716 277.204 208.253 275.674C208.795 274.008 209.051 272.264 209.013 270.514C208.936 268.359 208.669 266.215 208.214 264.108C207.742 261.983 207.381 259.835 207.134 257.672C206.979 255.889 207.015 254.094 207.241 252.318C207.381 251.119 207.669 249.941 208.098 248.813C208.212 248.508 208.349 248.212 208.507 247.927C208.623 247.732 208.682 247.635 208.701 247.635C208.721 247.635 208.536 248.083 208.283 248.881C207.932 250.016 207.7 251.184 207.591 252.366C207.426 254.115 207.426 255.875 207.591 257.624C207.776 259.571 208.263 261.742 208.701 264.01C209.164 266.149 209.422 268.326 209.47 270.514C209.49 272.312 209.186 274.099 208.575 275.79C208.166 276.936 207.552 277.999 206.764 278.925C206.546 279.171 206.312 279.402 206.063 279.617C205.907 279.763 205.81 279.831 205.8 279.821Z" fill="#455A64"/>
<path d="M230.49 272.149C230.105 272.258 229.71 272.33 229.312 272.363C228.552 272.461 227.452 272.636 226.109 272.87C222.598 273.478 219.141 274.364 215.769 275.518C212.402 276.686 209.13 278.115 205.985 279.792C204.778 280.444 203.814 280.979 203.152 281.369C202.821 281.595 202.465 281.781 202.091 281.924C202.388 281.649 202.714 281.407 203.064 281.203C203.697 280.765 204.641 280.171 205.829 279.48C212.07 275.903 218.931 273.538 226.05 272.509C227.413 272.324 228.523 272.208 229.292 272.169C229.689 272.113 230.091 272.106 230.49 272.149Z" fill="#455A64"/>
<path d="M232.077 261.527C232.077 261.625 230.636 261.605 228.367 261.956C227.049 262.166 225.747 262.472 224.473 262.871C221.329 263.858 218.388 265.401 215.789 267.427C214.728 268.255 213.729 269.16 212.8 270.134C211.223 271.798 210.424 272.996 210.347 272.938C210.473 272.623 210.643 272.328 210.853 272.061C211.359 271.296 211.922 270.571 212.537 269.89C213.429 268.865 214.406 267.917 215.458 267.057C216.769 266.02 218.17 265.102 219.644 264.312C221.137 263.547 222.694 262.915 224.298 262.423C225.606 262.037 226.945 261.763 228.299 261.605C229.212 261.484 230.133 261.432 231.054 261.449C231.397 261.435 231.74 261.462 232.077 261.527Z" fill="#455A64"/>
<path d="M234.248 283.803C233.901 283.983 233.535 284.123 233.157 284.221C232.437 284.455 231.415 284.806 230.139 285.253C226.843 286.432 223.616 287.794 220.472 289.333C217.337 290.883 214.295 292.612 211.359 294.512C210.23 295.242 209.324 295.846 208.701 296.274C208.4 296.513 208.073 296.719 207.728 296.888C207.992 296.597 208.289 296.339 208.614 296.118C209.198 295.641 210.074 294.989 211.184 294.171C214.078 292.166 217.117 290.379 220.277 288.826C223.423 287.273 226.676 285.948 230.013 284.864C231.298 284.465 232.349 284.163 233.079 283.988C233.46 283.878 233.852 283.815 234.248 283.803Z" fill="#455A64"/>
<path d="M264.993 258.324C264.657 258.255 264.33 258.147 264.019 258.003C263.416 257.77 262.53 257.439 261.381 257.03C258.216 255.993 254.954 255.279 251.645 254.897L251.889 254.674C252.006 258.87 251.976 263.845 251.606 269.151C251.257 274.32 250.571 279.462 249.552 284.543V284.436C250.452 287.382 251.535 290.269 252.794 293.081C253.252 294.054 253.67 294.853 253.953 295.378C254.121 295.632 254.274 295.895 254.41 296.167C254.198 295.944 254.008 295.699 253.846 295.437C253.377 294.712 252.952 293.962 252.57 293.188C251.228 290.397 250.086 287.515 249.153 284.562V284.513V284.455C250.104 279.383 250.754 274.26 251.1 269.112C251.47 263.825 251.519 258.87 251.46 254.683V254.43H251.713C255.034 254.844 258.299 255.621 261.449 256.747C262.588 257.166 263.455 257.546 264.049 257.808C264.378 257.952 264.694 258.124 264.993 258.324Z" fill="#455A64"/>
<path d="M265.733 262.55C265.036 262.42 264.352 262.231 263.688 261.985C262.442 261.615 260.7 261.128 258.762 260.68C254.868 259.765 251.694 259.181 251.713 259.035C252.426 259.008 253.139 259.07 253.836 259.22C255.14 259.405 256.922 259.717 258.879 260.194C262.802 261.07 265.801 262.413 265.733 262.55Z" fill="#455A64"/>
<path d="M261.099 247.567C261.099 247.635 259.911 247.294 258.013 246.846C255.539 246.268 253.027 245.868 250.497 245.649C247.964 245.451 245.421 245.418 242.883 245.551C241.828 245.65 240.769 245.689 239.709 245.668C239.977 245.562 240.26 245.497 240.547 245.473C241.092 245.386 241.881 245.279 242.854 245.191C245.408 244.955 247.978 244.939 250.536 245.142C253.094 245.357 255.626 245.81 258.1 246.496C259.074 246.768 259.804 247.012 260.31 247.216C260.59 247.29 260.856 247.409 261.099 247.567Z" fill="#455A64"/>
<path d="M241.248 251.957C240.83 252.131 240.396 252.265 239.953 252.356C239.116 252.58 237.889 252.853 236.351 253.126C232.351 253.825 228.279 254.027 224.23 253.729C221.883 253.495 219.537 253.242 217.707 252.094C216.844 251.555 216.142 250.795 215.672 249.893C215.284 249.082 215.167 248.167 215.341 247.284C215.538 246.062 215.902 244.873 216.422 243.75C216.586 243.325 216.819 242.93 217.113 242.582C217.113 242.582 216.918 243.02 216.607 243.818C216.168 244.951 215.861 246.13 215.692 247.333C215.567 248.134 215.697 248.955 216.061 249.679C216.522 250.493 217.195 251.166 218.009 251.626C219.712 252.678 222 252.931 224.327 253.155C228.343 253.446 232.378 253.293 236.36 252.697C237.889 252.483 239.125 252.259 239.972 252.094C240.393 252.01 240.819 251.964 241.248 251.957Z" fill="#455A64"/>
<path d="M238.765 77.4547C234.111 67.3686 222.594 69.3546 217.084 72.032C211.545 74.6465 207.197 79.2527 204.904 84.9317C203.288 88.826 201.984 93.2655 198.732 95.641C197.237 96.5288 195.693 97.3317 194.107 98.0457C193.293 98.4406 192.579 99.0143 192.017 99.7241C191.456 100.434 191.062 101.261 190.865 102.144C190.379 105.503 193.786 107.83 196.59 109.183C194.906 110.332 194.468 112.932 195.061 115.025C195.78 117.025 196.915 118.85 198.391 120.379C203.358 125.863 209.039 130.654 215.283 134.623C220.598 137.933 224.045 138.322 229.75 135.947C232.067 134.973 234.228 133.396 236.701 133.114C239.573 132.792 242.319 134.262 245.161 134.856C248.004 135.45 251.587 134.632 252.512 131.644C252.741 130.452 252.871 129.244 252.901 128.032C253.047 126.834 253.641 125.53 254.722 125.257C255.598 125.033 256.474 125.569 257.331 125.851C259.385 126.532 262.481 141.778 264.448 140.854C264.448 140.854 267.31 115.015 261.8 99.8955C260.037 95.0277 256.279 84.7857 253.281 80.7843C249.153 75.2934 239.262 76.5104 238.765 77.4839" fill="#3C3C3C"/>
<path d="M232.865 79.1292C225.534 76.5687 215.643 82.196 213.394 89.6243C210.892 97.8704 208.175 108.044 207.698 114.528C206.725 127.564 216.003 131.429 216.003 131.429L212.235 151.806L244.003 141.535L255.092 93.5186L256.124 89.488L232.865 79.1292Z" fill="#FFBE9D"/>
<path d="M213.394 99.6718C213.501 99.9541 215.01 99.5452 216.665 100.197C218.32 100.85 219.216 102.145 219.469 102.028C219.722 101.911 219.547 101.541 219.167 100.947C218.645 100.166 217.893 99.5673 217.015 99.2336C216.156 98.8843 215.206 98.8228 214.309 99.0584C213.657 99.3018 213.394 99.5452 213.394 99.6718Z" fill="#3C3C3C"/>
<path d="M229.837 104.004C230.032 104.228 231.346 103.391 233.118 103.517C234.89 103.644 236.136 104.617 236.351 104.413C236.565 104.208 236.273 103.916 235.727 103.439C234.994 102.86 234.1 102.52 233.167 102.466C232.241 102.399 231.317 102.628 230.529 103.118C229.944 103.517 229.75 103.897 229.837 104.004Z" fill="#3C3C3C"/>
<path d="M222.458 111.296C221.612 110.793 220.706 110.401 219.761 110.128C219.333 109.972 218.933 109.787 218.933 109.466C219 109.001 219.212 108.568 219.537 108.229L221.63 105.162C224.551 100.791 226.819 97.15 226.644 97.0332C226.469 96.9163 223.938 100.363 220.988 104.734C220.277 105.824 219.595 106.847 218.943 107.84C218.534 108.306 218.306 108.904 218.301 109.524C218.33 109.694 218.397 109.856 218.496 109.997C218.595 110.139 218.725 110.256 218.875 110.342C219.108 110.46 219.353 110.555 219.605 110.624C220.523 110.969 221.482 111.194 222.458 111.296Z" fill="#3C3C3C"/>
<path d="M216.013 131.43C222.045 132.948 228.377 132.79 234.326 130.972C234.326 130.972 228.163 138.819 215.419 134.613L216.013 131.43Z" fill="#EB996E"/>
<path d="M221.513 117.118C221.348 116.904 221.591 117.381 221.513 117.118V117.118Z" fill="#EB996E"/>
<path d="M227.17 116.271C226.979 115.87 226.708 115.513 226.373 115.221C226.038 114.93 225.646 114.711 225.223 114.577C224.65 114.372 224.034 114.315 223.433 114.412C222.832 114.509 222.265 114.757 221.786 115.132C221.59 115.412 221.461 115.733 221.408 116.07C221.356 116.408 221.382 116.753 221.484 117.079C222.097 117.868 222.156 118.53 223.013 119.026C223.63 119.23 224.283 119.297 224.929 119.223C225.574 119.149 226.196 118.936 226.751 118.598C227.051 118.3 227.252 117.916 227.327 117.5C227.401 117.084 227.347 116.655 227.17 116.271Z" fill="#EB996E"/>
<path d="M227.287 113.691C227.004 113.613 226.556 115.492 224.638 116.446C222.721 117.4 220.744 116.729 220.676 116.991C220.676 117.099 221.036 117.459 221.883 117.683C222.98 117.958 224.138 117.837 225.154 117.342C226.134 116.863 226.888 116.021 227.257 114.996C227.52 114.227 227.413 113.711 227.287 113.691Z" fill="#3C3C3C"/>
<path d="M233.42 94.8234C233.323 95.3199 234.773 95.797 236.244 96.9068C237.714 98.0167 238.716 99.1558 239.164 98.854C239.359 98.7177 239.349 98.2017 239.057 97.5104C238.663 96.6518 238.048 95.9128 237.275 95.3686C236.525 94.8133 235.635 94.4763 234.705 94.395C233.936 94.434 233.469 94.5897 233.42 94.8234Z" fill="#3C3C3C"/>
<path d="M214.465 93.0027C214.844 93.3726 216.178 92.8177 217.814 92.6424C219.449 92.4672 220.881 92.6424 221.163 92.1751C221.28 91.9512 221.027 91.5715 220.374 91.2016C219.499 90.8089 218.531 90.6705 217.58 90.8024C216.63 90.9019 215.729 91.27 214.981 91.8636C214.436 92.3893 214.289 92.8177 214.465 93.0027Z" fill="#3C3C3C"/>
<path d="M257.915 89.459C257.368 88.4842 256.512 87.7201 255.481 87.2879C249.161 83.8194 242.617 80.7752 235.893 78.1753L233.128 79.7427C232.765 82.4359 233.21 85.1763 234.406 87.6165C235.602 90.0568 237.495 92.0872 239.846 93.4506C241.734 94.502 244.188 95.4951 244.431 97.6467C244.675 99.7983 242.348 101.395 241.033 103.206C240.23 104.336 239.779 105.68 239.74 107.066C239.7 108.452 240.072 109.82 240.81 110.994C241.657 112.309 242.942 113.302 243.73 114.655C244.219 115.573 244.496 116.589 244.542 117.629C244.587 118.668 244.4 119.704 243.993 120.662C243.205 122.609 241.89 125.169 240.099 126.25C242.517 126.794 245.045 126.569 247.329 125.607C249.614 124.646 251.541 122.995 252.843 120.886C254.323 118.374 254.439 115.327 254.634 112.416C255.081 105.794 256.134 99.2277 257.779 92.7983C258.193 91.7311 258.241 90.5564 257.915 89.459Z" fill="#3C3C3C"/>
<path d="M236.331 78.477C234.628 80.7303 232.581 82.7015 230.266 84.3184C227.871 85.808 224.814 86.509 222.195 85.4575C222.847 84.7371 223.509 84.0166 224.142 83.2865C219.482 86.4778 214.206 88.6598 208.652 89.6925C212.138 85.4575 215.73 81.1349 220.491 78.3991C225.252 75.6634 231.492 74.8261 236.136 77.7371" fill="#3C3C3C"/>
<path d="M258.558 103.099L243.721 114.626C245.424 116.485 244.762 121.217 243.088 123.096C241.413 124.975 239.193 126.581 238.541 129.015C237.821 131.673 239.232 134.428 239.271 137.183C239.33 141.078 236.711 144.427 234.686 147.756C232.661 151.086 231.2 155.545 233.459 158.728C236 162.311 241.754 161.795 245.23 159.118C248.705 156.44 250.691 152.303 253.271 148.759C255.851 145.215 259.882 142.499 264.253 142.918C265.609 129.379 263.654 115.714 258.558 103.099Z" fill="#3C3C3C"/>
<path d="M261.04 135.236C260.953 135.071 261.829 134.438 263.328 133.23C265.445 131.596 267.331 129.684 268.936 127.545C269.995 126.087 270.838 124.484 271.438 122.784C272.129 120.878 272.428 118.851 272.314 116.826C272.159 114.619 271.46 112.485 270.279 110.614C268.96 108.565 267.289 106.766 265.343 105.299C261.352 102.193 256.581 100.431 252.414 98.5714C248.536 97.0732 244.875 95.0628 241.53 92.5937C239.247 90.8901 237.358 88.7153 235.99 86.2168C235.085 84.4157 234.939 83.2961 235.075 83.2961C235.211 83.2961 235.727 84.2016 236.828 85.7398C238.418 87.8777 240.368 89.7226 242.591 91.1918C245.953 93.3274 249.55 95.0686 253.31 96.3809C255.432 97.2279 257.701 98.1041 260.018 99.1751C262.474 100.28 264.797 101.662 266.94 103.293C269.124 104.952 270.988 106.994 272.441 109.32C273.803 111.553 274.576 114.095 274.69 116.709C274.754 119.043 274.33 121.364 273.443 123.524C272.695 125.376 271.664 127.1 270.386 128.635C268.568 130.804 266.379 132.634 263.922 134.039C262.16 135.032 261.099 135.372 261.04 135.236Z" fill="#3C3C3C"/>
<path d="M261.323 100.275C260.877 100.183 260.443 100.043 260.028 99.8566C259.21 99.5548 258.081 99.0972 256.591 98.4936C252.792 96.988 249.223 94.9561 245.989 92.4575C242.741 89.9055 240.297 86.4712 238.95 82.566C238.558 81.3852 238.326 80.1574 238.259 78.9151C238.241 78.5908 238.241 78.2658 238.259 77.9415C238.243 77.8253 238.243 77.7074 238.259 77.5911C238.408 79.2438 238.735 80.8757 239.232 82.4589C240.665 86.2376 243.094 89.558 246.261 92.068C249.469 94.5301 252.972 96.5808 256.688 98.1723L260.057 99.6716C260.497 99.8333 260.92 100.035 261.323 100.275Z" fill="#455A64"/>
<path d="M261.79 115.015C261.732 115.015 262.033 114.431 262.189 113.341C262.362 111.781 262.089 110.204 261.401 108.794C260.394 106.695 258.84 104.906 256.903 103.615C254.771 102.067 252.122 100.84 249.474 99.2531C246.971 97.7649 244.728 95.8772 242.835 93.6648C241.284 91.8594 239.975 89.8597 238.94 87.7163C238.251 86.2777 237.707 84.7743 237.314 83.2281C237.159 82.6829 237.1 82.2546 237.042 81.9625C236.997 81.8177 236.977 81.6662 236.983 81.5146C237.187 82.0595 237.359 82.6153 237.499 83.1795C237.963 84.6864 238.553 86.1519 239.262 87.5605C240.309 89.6636 241.617 91.6263 243.156 93.4019C245.03 95.5637 247.239 97.411 249.698 98.8734C252.307 100.431 254.975 101.687 257.136 103.284C259.123 104.636 260.699 106.509 261.693 108.697C262.374 110.171 262.601 111.815 262.345 113.418C262.27 113.848 262.142 114.266 261.965 114.665C261.878 114.879 261.809 115.025 261.79 115.015Z" fill="#455A64"/>
<path d="M179.747 105.143C179.747 105.143 179.747 105.085 179.835 104.987C179.932 104.837 180.04 104.694 180.156 104.559C180.603 104.025 181.17 103.604 181.811 103.332C182.844 102.97 183.93 102.783 185.024 102.777C186.28 102.709 187.721 102.612 189.308 102.612C191.024 102.642 192.738 102.482 194.419 102.135C196.316 101.647 198.073 100.724 199.55 99.4379C201.177 97.9933 202.587 96.3209 203.736 94.4727C204.958 92.4693 206.073 90.4024 207.075 88.2808C208.099 86.1446 209.27 84.0821 210.58 82.1084C211.818 80.2537 213.374 78.6321 215.175 77.3185C218.28 75.1536 221.955 73.9545 225.739 73.872C228.269 73.784 230.79 74.2284 233.138 75.1766L234.228 75.6537L234.978 76.082C235.192 76.1916 235.398 76.3185 235.591 76.4617C235.364 76.3869 235.146 76.289 234.939 76.1696L234.16 75.79L233.07 75.3616C230.729 74.4997 228.24 74.1157 225.748 74.2322C222.052 74.3664 218.474 75.5704 215.448 77.6982C213.697 78.9881 212.188 80.5766 210.989 82.3908C209.704 84.3371 208.556 86.3702 207.552 88.4756C206.538 90.6143 205.41 92.6974 204.174 94.7161C202.994 96.5988 201.545 98.298 199.871 99.7592C198.333 101.084 196.506 102.027 194.536 102.514C192.821 102.854 191.074 102.998 189.327 102.943C187.74 102.943 186.319 102.943 185.053 103.03C183.987 103.01 182.925 103.164 181.909 103.488C181.279 103.726 180.713 104.106 180.254 104.598C180.096 104.79 179.927 104.972 179.747 105.143Z" fill="#455A64"/>
<path d="M173.789 92.0097C167.948 77.2601 160.159 62.8026 159.088 51.811L147.454 52.2783C147.697 56.5328 149.226 91.9415 157.472 105.941C165.718 119.941 193.251 152.673 193.251 152.673L202.938 127.759C202.938 127.759 179.64 106.769 173.789 92.0097Z" fill="#FFBE9D"/>
<path d="M154.396 28.9126H149.304C149.304 28.9126 149.8 31.9112 152.108 32.0767C154.415 32.2422 153.967 31.7165 153.967 31.7165L153.451 32.1935L150.277 32.8166C150.277 32.8166 150.433 35.2895 152.526 35.6789L155.613 32.8166L154.396 28.9126Z" fill="#FFBE9D"/>
<path d="M168.337 28.4648C167.87 32.3007 167.821 32.067 167.821 32.067L163.167 35.9029L161.98 30.2562C161.903 29.882 161.705 29.5436 161.416 29.2936C161.128 29.0436 160.764 28.896 160.383 28.8737L158.27 28.7374C158.27 28.7374 159.088 25.8167 156.43 26.0601C156.43 26.0601 154.97 25.6609 153.792 30.5482C152.507 35.8931 146.977 48.4522 147.454 52.6482L159.254 53.1253C159.127 49.231 162.34 45.0739 163.927 43.2825C164.406 42.7492 164.741 42.1024 164.9 41.4035C165.119 40.4433 165.574 39.553 166.224 38.8138C167.685 37.1977 170.752 34.2867 170.752 34.2867V25.3981C170.752 25.3981 168.785 24.7652 168.337 28.4648ZM158.874 37.0517L156.45 38.1518L156.859 35.6789L158.874 35.4842V37.0517Z" fill="#FFBE9D"/>
<path d="M156.323 38.4147C156.322 38.0641 156.361 37.7146 156.44 37.373C156.557 36.7012 156.722 35.7471 156.946 34.5594L157.764 30.412C157.956 29.6148 158.09 28.8045 158.163 27.9878C158.163 27.1992 157.871 26.2938 157.024 26.2451C156.177 26.1964 155.554 26.7708 155.145 27.4621C154.95 27.8211 154.794 28.1997 154.678 28.5914L154.298 29.75L153.033 33.7805C152.653 34.9293 152.302 35.8445 152.059 36.4676C151.948 36.8136 151.787 37.1415 151.582 37.4412C151.638 37.1057 151.737 36.7787 151.874 36.4676C152.078 35.825 152.38 34.9001 152.711 33.7513C153.042 32.6025 153.441 31.1811 153.87 29.6818C153.996 29.2924 154.113 28.903 154.24 28.5038C154.358 28.0774 154.525 27.6659 154.736 27.2771C154.972 26.8663 155.282 26.5031 155.651 26.2062C155.857 26.0442 156.093 25.9254 156.346 25.8569C156.598 25.7883 156.862 25.7713 157.122 25.807C157.382 25.8491 157.633 25.9382 157.861 26.0699C158.081 26.2234 158.261 26.427 158.387 26.6637C158.599 27.0996 158.7 27.5814 158.679 28.0657C158.599 28.9099 158.452 29.7464 158.241 30.5678L157.268 34.7054C157.005 35.8737 156.781 36.8278 156.606 37.4801C156.552 37.8025 156.457 38.1167 156.323 38.4147Z" fill="#EB996E"/>
<path d="M158.738 37.0809C158.619 36.1317 158.57 35.175 158.592 34.2186C158.592 33.8292 158.533 33.4592 158.504 33.1185C158.52 32.8621 158.44 32.609 158.28 32.4078C157.949 32.1644 157.55 32.1644 157.569 32.0768C157.589 31.9892 157.657 32.0086 157.813 31.9892C158.048 31.9561 158.287 32.0005 158.494 32.1157C158.64 32.233 158.757 32.3813 158.838 32.5497C158.919 32.7181 158.961 32.9025 158.962 33.0893C159.034 33.4652 159.08 33.8459 159.098 34.2284C159.234 35.1943 159.109 36.1791 158.738 37.0809Z" fill="#EB996E"/>
<path d="M164.521 34.9099C164.521 34.9099 164.199 35.3383 163.547 35.8835C162.723 36.6138 161.807 37.2324 160.821 37.7235C159.794 38.1689 158.697 38.4292 157.579 38.4927C157.126 38.5811 156.66 38.5811 156.206 38.4927C156.627 38.3133 157.074 38.2048 157.53 38.1714C158.589 38.0117 159.623 37.7173 160.607 37.2952C161.576 36.8261 162.501 36.2722 163.372 35.6401C164.034 35.1339 164.472 34.8515 164.521 34.9099Z" fill="#EB996E"/>
<path d="M257.039 145.488C257.039 145.488 270.143 145.098 277.99 142.762C285.837 140.425 315.959 133.26 315.959 133.26L364.297 125.198L365.271 137.699C365.271 137.699 320.36 150.833 311.637 153.821C302.913 156.81 263.046 170.489 255.51 168.756L250.837 159.147L257.039 145.488Z" fill="#FFBE9D"/>
<path d="M387.536 110.498C386.747 110.322 382.834 112.104 382.834 112.104C383.207 111.652 383.417 111.087 383.431 110.501C383.445 109.915 383.262 109.342 382.912 108.872L377.538 111.51C376.117 112.951 374.619 114.313 373.049 115.589C370.577 117.867 368.298 120.345 366.234 122.998L363.022 125.987L365.017 137.816C366.423 137.933 367.837 137.747 369.165 137.271C370.83 136.502 373.264 133.377 373.264 133.377L377.849 132.987C378.383 132.948 378.892 132.748 379.309 132.413C379.723 132.01 380.04 131.518 380.238 130.976C380.435 130.433 380.507 129.852 380.448 129.278C383.369 127.623 381.665 125.52 381.665 125.52C382.588 125.406 383.431 124.943 384.021 124.225C384.272 123.836 384.392 123.378 384.366 122.916C384.34 122.454 384.168 122.013 383.875 121.655C383.33 120.681 379.124 120.983 379.124 120.983L378.901 119.747C378.901 119.747 385.326 114.645 386.767 113.535C388.208 112.425 388.276 110.663 387.536 110.498Z" fill="#FFBE9D"/>
<path d="M382.912 111.958C382.449 112.881 381.784 113.686 380.965 114.314C380.132 115.026 379.348 115.794 378.618 116.612C377.808 117.663 377.222 118.869 376.895 120.155C376.557 121.502 376.073 122.807 375.454 124.05C374.923 125.043 374.269 125.966 373.507 126.795C372.992 127.348 372.428 127.853 371.823 128.304C371.612 128.483 371.371 128.625 371.112 128.723C371.054 128.655 372.027 127.983 373.244 126.552C373.946 125.718 374.551 124.807 375.045 123.836C375.627 122.624 376.09 121.359 376.428 120.058C376.769 118.707 377.397 117.446 378.268 116.359C379.03 115.537 379.857 114.778 380.741 114.09C381.507 113.424 382.232 112.712 382.912 111.958Z" fill="#EB996E"/>
<path d="M380.546 129.249C379.892 129.692 379.168 130.021 378.404 130.222C377.578 130.5 376.722 130.677 375.853 130.748C375.338 130.787 374.82 130.787 374.305 130.748C373.717 130.707 373.149 130.512 372.66 130.183C372.406 130.002 372.198 129.763 372.056 129.485C371.914 129.207 371.84 128.899 371.842 128.587C371.951 128.027 372.254 127.523 372.699 127.165C373.054 126.826 373.489 126.581 373.964 126.455C374.393 126.338 374.782 126.25 375.142 126.182C375.905 125.951 376.703 125.859 377.499 125.909C377.499 125.968 376.622 126.143 375.22 126.523L374.091 126.854C373.685 126.978 373.317 127.202 373.02 127.506C372.681 127.794 372.442 128.183 372.339 128.616C372.341 128.845 372.398 129.07 372.507 129.272C372.616 129.474 372.772 129.646 372.962 129.774C373.842 130.232 374.839 130.415 375.824 130.3C376.66 130.251 377.489 130.114 378.297 129.891C379.689 129.531 380.517 129.171 380.546 129.249Z" fill="#EB996E"/>
<path d="M381.821 125.52C381.312 125.804 380.748 125.974 380.166 126.016C379.546 126.122 378.917 126.168 378.287 126.153C377.874 126.182 377.459 126.121 377.073 125.973C376.686 125.825 376.336 125.594 376.048 125.296C375.801 124.945 375.661 124.531 375.644 124.103C375.627 123.675 375.733 123.251 375.951 122.881C376.279 122.302 376.779 121.84 377.382 121.557C377.891 121.261 378.467 121.097 379.056 121.08C379.056 121.158 378.443 121.353 377.557 121.869C377.053 122.158 376.642 122.583 376.369 123.096C376.205 123.384 376.125 123.713 376.137 124.045C376.149 124.377 376.253 124.698 376.437 124.975C376.684 125.214 376.978 125.4 377.299 125.522C377.62 125.645 377.963 125.7 378.307 125.685C378.913 125.725 379.521 125.725 380.127 125.685C380.687 125.588 381.253 125.532 381.821 125.52Z" fill="#EB996E"/>
<path d="M378.647 132.822C378.222 133.034 377.765 133.176 377.294 133.24C376.186 133.549 375.037 133.686 373.887 133.649C373.691 133.658 373.497 133.624 373.316 133.548C373.136 133.472 372.975 133.357 372.845 133.211C372.635 132.931 372.528 132.587 372.543 132.237C372.565 131.952 372.65 131.675 372.791 131.426C372.933 131.177 373.127 130.962 373.361 130.797C374.218 130.281 374.841 130.602 374.802 130.641C374.362 130.687 373.941 130.841 373.575 131.089C373.405 131.233 373.267 131.412 373.17 131.613C373.072 131.814 373.018 132.034 373.011 132.257C373.006 132.498 373.081 132.735 373.225 132.929C373.313 133.021 373.421 133.092 373.541 133.136C373.661 133.18 373.789 133.196 373.916 133.182C375.025 133.207 376.134 133.122 377.226 132.929C377.689 132.803 378.171 132.766 378.647 132.822Z" fill="#EB996E"/>
<path d="M234.812 186.991C234.533 187.207 234.225 187.384 233.897 187.517C233.035 187.919 232.139 188.245 231.22 188.49C228.159 189.385 224.93 189.545 221.796 188.958C218.665 188.368 215.723 187.032 213.219 185.063C212.466 184.476 211.766 183.824 211.125 183.116C210.877 182.865 210.661 182.584 210.483 182.279C210.561 182.211 211.515 183.369 213.404 184.791C215.913 186.64 218.803 187.908 221.864 188.5C224.925 189.075 228.076 188.972 231.093 188.198C233.42 187.604 234.754 186.923 234.812 186.991Z" fill="#E3B76B"/>
<path d="M212.683 150.988C212.683 150.988 243.487 141.136 244.636 140.824C245.785 140.513 272.957 142.937 272.957 142.937C272.957 142.937 271.808 160.938 278.623 166.77L258.636 173.974L252.337 191.314C252.337 191.314 248.822 198.382 251.616 205.012C256.903 217.561 266.074 237.363 264.72 239.632C264.574 239.865 263.747 232.817 250.711 229.078C246.758 227.959 239.583 227.939 233.089 229.254C205.148 234.881 194.361 247.751 191.226 250C191.226 250 196.98 204.856 194.263 197.807C191.547 190.759 188.665 186.124 190.904 179.884C193.144 173.643 196.503 163.557 196.503 163.557L185.491 151.095L200.874 125.52L214.952 137.203L212.683 150.988Z" fill="#E3B76B"/>
<path d="M222.925 192.813C222.573 192.858 222.216 192.858 221.864 192.813C220.898 192.774 219.937 192.65 218.992 192.443C215.847 191.76 212.946 190.235 210.6 188.033C208.261 185.815 206.614 182.968 205.858 179.835C205.634 178.877 205.504 177.898 205.469 176.914C205.439 176.563 205.458 176.209 205.527 175.863C205.68 177.154 205.908 178.435 206.209 179.699C207.044 182.721 208.682 185.459 210.95 187.624C213.243 189.76 216.04 191.281 219.079 192.044C221.416 192.764 222.925 192.764 222.925 192.813Z" fill="#3C3C3C"/>
<path d="M194 154.649C195.2 156.18 195.943 158.02 196.142 159.955C196.507 161.867 196.332 163.842 195.636 165.66C195.826 163.789 195.826 161.904 195.636 160.033C195.274 158.188 194.726 156.384 194 154.649Z" fill="#3C3C3C"/>
<path d="M259.375 159.984C259.375 160.062 258.743 160.5 257.808 161.406C256.598 162.576 255.624 163.968 254.936 165.504C254.253 167.038 253.882 168.693 253.846 170.372C253.846 171.667 253.972 172.465 253.846 172.485C253.569 171.815 253.433 171.096 253.446 170.372C253.374 168.622 253.707 166.88 254.42 165.28C255.125 163.679 256.18 162.255 257.506 161.113C258.047 160.615 258.683 160.231 259.375 159.984Z" fill="#3C3C3C"/>
<g opacity="0.3">
<path d="M218.349 192.141C215.378 191.551 212.675 190.022 210.639 187.78C209.257 186.451 208.125 184.885 207.299 183.155C206.598 186.212 210.853 191.635 215 193.631C217.102 194.611 219.404 195.087 221.723 195.023C224.041 194.959 226.313 194.356 228.358 193.261C224.992 193.225 221.639 192.85 218.349 192.141Z" fill="black"/>
</g>
<path d="M256.075 214.514C256.075 214.572 255.267 213.959 253.67 213.238C251.398 212.258 248.951 211.748 246.476 211.739C242.794 211.717 239.148 212.456 235.766 213.91C231.664 215.758 227.751 218.002 224.084 220.608C217.323 225.295 210.112 229.296 202.558 232.554C199.637 233.79 197.262 234.676 195.597 235.251C194.769 235.553 194.117 235.757 193.65 235.893C193.43 235.979 193.201 236.041 192.968 236.078C193.175 235.961 193.394 235.866 193.621 235.796L195.509 235.066C197.155 234.433 199.52 233.508 202.393 232.223C209.891 228.888 217.062 224.859 223.811 220.19C227.505 217.559 231.455 215.309 235.601 213.472C239.046 212.019 242.757 211.306 246.495 211.379C249.011 211.42 251.49 211.994 253.768 213.063C254.594 213.45 255.369 213.937 256.075 214.514Z" fill="white"/>
<path d="M250.506 198.372C249.921 197.852 249.303 197.371 248.656 196.931C246.84 195.817 244.777 195.169 242.65 195.042C239.49 194.892 236.339 195.472 233.44 196.736C229.875 198.284 226.394 200.02 223.013 201.935C219.599 203.832 216.079 205.528 212.469 207.017C209.496 208.209 206.391 209.039 203.22 209.49C201.084 209.788 198.92 209.824 196.775 209.597C196.193 209.533 195.614 209.439 195.042 209.315C194.839 209.286 194.64 209.233 194.448 209.159C194.448 209.11 195.285 209.276 196.794 209.402C198.923 209.548 201.062 209.46 203.171 209.14C206.299 208.639 209.36 207.784 212.294 206.589C215.873 205.089 219.37 203.399 222.769 201.526C226.17 199.605 229.673 197.873 233.264 196.337C236.234 195.073 239.458 194.52 242.679 194.721C244.853 194.88 246.948 195.598 248.764 196.804C249.431 197.222 250.02 197.753 250.506 198.372Z" fill="white"/>
<path d="M209.383 186.105C209.383 186.105 209.178 186.31 208.76 186.611C208.506 186.799 208.24 186.969 207.961 187.118C207.607 187.334 207.239 187.529 206.861 187.702C205.878 188.164 204.85 188.526 203.794 188.782C202.498 189.09 201.174 189.26 199.842 189.289C198.507 189.286 197.176 189.146 195.87 188.87C194.808 188.651 193.77 188.324 192.774 187.896C192.391 187.736 192.017 187.554 191.654 187.351C191.372 187.212 191.101 187.049 190.846 186.864C190.418 186.582 190.194 186.407 190.213 186.378C190.233 186.348 191.187 186.913 192.91 187.565C193.9 187.938 194.919 188.228 195.957 188.432C197.242 188.667 198.546 188.781 199.852 188.773C201.145 188.743 202.433 188.59 203.697 188.315C204.733 188.08 205.746 187.755 206.725 187.341C208.39 186.67 209.324 186.027 209.383 186.105Z" fill="white"/>
<path d="M255.15 183.661C255.039 183.788 254.911 183.899 254.771 183.992C254.384 184.283 253.974 184.541 253.544 184.762C251.958 185.586 250.224 186.086 248.442 186.232C245.808 186.44 243.157 186.196 240.605 185.511C237.684 184.81 234.657 183.671 231.395 182.746C225.802 181.192 219.948 180.814 214.202 181.636C212.459 181.884 210.732 182.239 209.032 182.698C207.835 183.019 207.173 183.223 207.163 183.184C207.153 183.145 207.309 183.097 207.621 182.98C207.932 182.863 208.38 182.688 208.984 182.513C210.671 181.977 212.396 181.567 214.144 181.286C219.942 180.346 225.875 180.678 231.531 182.259C234.822 183.233 237.86 184.343 240.712 185.054C243.216 185.751 245.819 186.027 248.413 185.871C250.159 185.758 251.869 185.322 253.456 184.586C254.576 184.051 255.121 183.613 255.15 183.661Z" fill="white"/>
<path d="M254.342 169.048C254.139 169.103 253.93 169.136 253.719 169.145C253.31 169.145 252.746 169.262 251.918 169.321C249.704 169.375 247.49 169.215 245.307 168.844C242.542 168.396 239.31 167.578 235.747 166.614C231.927 165.482 228.019 164.668 224.064 164.18C223.025 164.095 221.982 164.062 220.939 164.083C220.423 164.083 219.917 164.083 219.41 164.132L217.921 164.307C216.024 164.576 214.161 165.043 212.362 165.699C208.896 166.926 205.868 168.337 203.21 169.233C201.129 169.996 198.955 170.474 196.746 170.654C196.147 170.708 195.544 170.708 194.945 170.654C194.732 170.66 194.52 170.641 194.312 170.596C194.523 170.58 194.734 170.58 194.945 170.596C195.54 170.599 196.135 170.563 196.726 170.489C198.906 170.236 201.045 169.71 203.093 168.922C205.712 167.997 208.711 166.556 212.206 165.29C214.029 164.612 215.919 164.126 217.843 163.839L219.372 163.655C219.888 163.655 220.404 163.655 220.929 163.655C221.988 163.634 223.047 163.666 224.103 163.752C228.093 164.243 232.034 165.073 235.883 166.234C239.437 167.208 242.64 168.084 245.385 168.571C247.543 168.972 249.733 169.181 251.928 169.194L253.719 169.126C253.923 169.076 254.132 169.049 254.342 169.048Z" fill="white"/>
<path d="M264.019 142.927C264.107 142.976 263.114 144.397 262.179 146.977C260.956 150.343 260.62 153.968 261.206 157.502C261.841 161.024 263.355 164.329 265.606 167.111C267.339 169.243 268.731 170.275 268.663 170.353C268.313 170.158 267.986 169.922 267.69 169.652C266.841 168.95 266.056 168.174 265.343 167.335C262.961 164.559 261.361 161.198 260.709 157.599C260.106 153.994 260.49 150.294 261.819 146.89C262.222 145.875 262.714 144.897 263.289 143.969C263.491 143.594 263.736 143.245 264.019 142.927Z" fill="white"/>
<path d="M212.664 146.033C212.391 146.147 212.102 146.213 211.807 146.228C211.011 146.36 210.208 146.448 209.402 146.491C208.197 146.568 206.988 146.473 205.81 146.208C204.327 145.871 202.974 145.11 201.915 144.018C200.786 142.908 199.968 141.701 199.063 140.698C198.314 139.803 197.426 139.034 196.434 138.42C195.503 137.885 194.459 137.578 193.387 137.524C193.671 137.424 193.974 137.39 194.273 137.427C195.093 137.473 195.893 137.706 196.609 138.108C197.672 138.699 198.622 139.473 199.413 140.396C200.319 141.37 201.185 142.596 202.266 143.658C203.254 144.677 204.503 145.405 205.878 145.76C207.012 146.034 208.177 146.158 209.344 146.13C211.447 146.033 212.664 145.906 212.664 146.033Z" fill="white"/>
<path d="M210.707 442.504C210.57 442.504 210.454 432.301 210.454 419.713C210.454 407.125 210.57 396.922 210.707 396.922C210.843 396.922 210.96 407.125 210.96 419.713C210.96 432.301 210.853 442.504 210.707 442.504Z" fill="#3C3C3C"/>
<path d="M215.02 430.792C214.874 430.792 214.767 420.589 214.767 408.001C214.767 395.412 214.874 385.209 215.02 385.209C215.166 385.209 215.273 395.412 215.273 408.001C215.273 420.589 215.156 430.792 215.02 430.792Z" fill="#3C3C3C"/>
<path d="M412.003 451.365C412.003 451.498 327.147 451.611 222.509 451.611C117.872 451.611 32.9973 451.498 32.9973 451.365C32.9973 451.233 117.835 451.119 222.509 451.119C327.184 451.119 412.003 451.242 412.003 451.365Z" fill="#3C3C3C"/>
</svg>
