<svg width="557" height="450" viewBox="0 0 557 450" fill="none" xmlns="http://www.w3.org/2000/svg">
<path d="M363.707 97.537C325.018 77.4737 296.594 0.531809 249.852 26.3135C221.453 41.9781 230.3 54.0991 194.422 45.6315C170.483 40.0108 153.815 25.6659 120.82 37.9336C-5.87783 85.0983 76.3513 262.76 191.917 270.788C225.693 273.134 231.229 240.766 256.329 232.628C281.857 224.368 309.218 245.996 330.811 256.223C384.494 281.65 436.967 280.111 484.21 241.169C520.186 211.526 532.956 145.178 493.277 110.501C458.267 79.8564 406.392 119.665 363.707 97.537Z" fill="#E3B76B"/>
<path opacity="0.9" d="M363.707 97.537C325.018 77.4737 296.594 0.531809 249.852 26.3135C221.453 41.9781 230.3 54.0991 194.422 45.6315C170.483 40.0108 153.815 25.6659 120.82 37.9336C-5.87783 85.0983 76.3513 262.76 191.917 270.788C225.693 273.134 231.229 240.766 256.329 232.628C281.857 224.368 309.218 245.996 330.811 256.223C384.494 281.65 436.967 280.111 484.21 241.169C520.186 211.526 532.956 145.178 493.277 110.501C458.267 79.8564 406.392 119.665 363.707 97.537Z" fill="#FFD6A9"/>
<path d="M274.794 413.369C405.65 413.369 511.73 407.177 511.73 399.537C511.73 391.898 405.65 385.706 274.794 385.706C143.938 385.706 37.8579 391.898 37.8579 399.537C37.8579 407.177 143.938 413.369 274.794 413.369Z" fill="#FBC182"/>
<path d="M200.764 302.52C232.671 301.714 253.372 326.017 253.372 326.017C250.244 335.975 248.24 343.429 248.24 343.429C230.789 340.13 210.944 338.798 194.605 334.546C179.856 330.709 178.316 310.78 179.941 302.41C181.567 294.04 189.937 292.085 198.174 289.36C207.571 286.245 225.486 286 238.329 285.951C251.869 285.951 269.661 287.173 278.875 289.25C278.875 289.25 298.428 288.383 312.957 288.627C321.438 287.198 316.33 301.017 302.863 312.796C296.213 318.686 288.339 323.028 279.809 325.51C271.278 327.993 262.304 328.554 253.531 327.153H253.421" fill="#3C3C3C"/>
<path d="M354.225 302.52C322.318 301.714 294.004 326.017 294.004 326.017C297.132 335.975 299.136 343.429 299.136 343.429C316.587 340.13 344.045 338.798 360.383 334.546C375.145 330.709 376.673 310.78 375.048 302.41C373.422 294.04 365.052 292.085 356.815 289.36C347.418 286.245 329.503 286 316.66 285.951C303.12 285.951 285.328 287.173 276.114 289.25C276.114 289.25 256.561 288.383 242.044 288.627C233.551 287.198 238.659 301.017 252.125 312.796C258.769 318.677 266.633 323.014 275.152 325.497C283.671 327.979 292.634 328.545 301.397 327.153H301.507" fill="#3C3C3C"/>
<path d="M253.518 215.962C250.757 225.379 247.844 234.746 244.781 244.065C243.254 248.733 241.702 253.388 240.089 258.031C238.475 262.674 236.911 267.281 235.127 271.973L234.907 272.559L234.614 273.268C234.418 273.732 234.198 274.172 233.978 274.612C233.535 275.43 233.046 276.221 232.512 276.983C231.536 278.348 230.427 279.613 229.2 280.758C227.048 282.754 224.693 284.519 222.174 286.025C217.609 288.721 212.797 290.976 207.803 292.757C198.273 296.192 188.43 298.685 178.414 300.198L176.544 292.281C180.992 290.692 185.575 289.006 189.986 287.173C194.398 285.34 198.772 283.508 202.939 281.381C207.006 279.426 210.902 277.133 214.585 274.527C218.031 272.083 220.781 269.016 221.062 267.195L229.225 239.178C231.987 229.806 234.822 220.434 237.779 211.074L253.518 215.962Z" fill="#CE7A63"/>
<path d="M179.734 292.672L164.813 288.884L171.925 303.229C171.925 303.229 182.043 303.669 185.367 298.036L179.734 292.672Z" fill="#CE7A63"/>
<path d="M285.364 114.094C280.012 110.22 271.213 106.97 267.669 112.872C264.126 118.773 261.07 131.2 255.168 134.206C249.266 137.212 242.239 149.272 246.101 159.865C249.962 170.459 234.699 167.6 233.881 183.692C233.062 199.784 255.975 207.922 270.443 199.98C284.912 192.037 295.091 150.591 294.175 134.206C293.258 117.82 285.364 114.094 285.364 114.094Z" fill="#3C3C3C"/>
<path d="M278.643 113.385C278.643 113.385 286.488 101.472 300.933 107.618C317.796 114.79 312.505 122.525 315.597 138.873C318.688 155.222 337.532 158.142 336.676 180.894C335.222 219.64 300.933 212.455 291.462 202.167C281.991 191.879 292.476 154.11 292.476 154.11L278.643 113.385Z" fill="#3C3C3C"/>
<path d="M152.715 294.517L159.326 306.21L171.913 303.412L164.788 289.067L152.715 294.517Z" fill="#CE7A63"/>
<path d="M243.144 193.797C236.655 195.459 232.146 222.169 232.146 222.169L250.036 234.388C250.036 234.388 267.144 207.433 262.256 200.297C256.965 192.807 252.626 191.39 243.144 193.797Z" fill="#E3B76B"/>
<path opacity="0.2" d="M242.557 203.511L256.464 206.737L257.796 220.324C255.433 225.107 252.831 229.769 249.999 234.29L239.148 226.959C239.612 220.715 240.797 207.739 242.557 203.511Z" fill="black"/>
<path d="M243.144 193.797C243.144 193.797 235.689 196.412 250.671 288.884H314.668C313.593 262.846 313.556 246.79 326.008 193.345C317.048 191.492 307.965 190.296 298.831 189.765C288.065 189.239 279.279 188.897 269.784 189.765C257.295 190.901 243.144 193.797 243.144 193.797Z" fill="#E3B76B"/>
<path opacity="0.2" d="M310.953 218.161L319.214 225.187C317.442 234.534 316.269 242.293 315.548 249.246C313.959 242.306 310.037 223.464 310.953 218.161Z" fill="black"/>
<path d="M295.959 157.055C294.126 166.402 292.293 183.521 298.831 189.765C298.831 189.765 292.721 203.767 276.529 203.767C260.337 203.767 269.784 189.765 269.784 189.765C280.207 187.321 279.938 179.538 278.118 172.28L295.959 157.055Z" fill="#CE7A63"/>
<path d="M298.831 189.765C288.065 189.239 279.279 188.897 269.771 189.765C265.274 190.168 260.57 190.803 256.39 191.451C253.629 196.448 242.667 218.919 269.564 218.919C297.768 218.919 309.523 194.212 310.99 190.816C307.214 190.376 303.035 189.972 298.831 189.765Z" fill="#CE7A63"/>
<path opacity="0.2" d="M288.688 163.262L278.13 172.267C278.572 173.958 278.87 175.683 279.022 177.424C283.006 176.849 288.48 172.475 288.896 168.308C289.133 166.628 289.062 164.918 288.688 163.262Z" fill="black"/>
<path d="M308.277 139.387C305.344 154.746 304.403 161.307 295.568 168.235C282.272 178.67 264.052 171.693 262.354 155.76C260.826 141.427 265.91 118.724 281.906 114.521C285.414 113.589 289.102 113.568 292.62 114.459C296.139 115.351 299.371 117.125 302.012 119.615C304.653 122.105 306.614 125.228 307.711 128.688C308.807 132.148 309.002 135.83 308.277 139.387Z" fill="#CE7A63"/>
<path d="M280.904 112.872C275.392 115.963 279.046 121.425 288.993 125.298C298.941 129.172 299.539 129.88 297.914 137.92C296.289 145.96 310.782 153.402 310.965 145.093C311.149 136.784 314.106 121.022 306.37 116.635C298.635 112.249 286.733 109.658 280.904 112.872Z" fill="#3C3C3C"/>
<path d="M280.073 116.745C275.185 118.321 264.077 130.381 264.895 126.41C265.714 122.439 267.792 116.941 273.657 114.912C276.429 113.813 279.341 113.11 282.309 112.823L280.073 116.745Z" fill="#3C3C3C"/>
<path d="M311.185 152.29C309.746 154.939 307.351 156.94 304.489 157.886C300.688 159.108 298.77 155.821 299.808 152.228C300.749 148.99 303.841 144.457 307.666 144.799C311.491 145.142 312.908 149.039 311.185 152.29Z" fill="#CE7A63"/>
<path d="M249.975 341.608L255.828 324.905C256.048 324.294 258.578 325.895 259.201 326.017C259.201 326.017 268.378 324.795 272.032 325.821C275.686 326.848 275.527 329.194 274.855 331.686C273.303 337.478 270.798 338.578 269.185 346.251C268.195 350.931 267.388 355.244 262.268 359.692C257.38 363.932 252.688 363.675 254.618 358.47C259.262 346.056 257.062 347.901 254.13 343.282C253.592 342.5 249.657 342.488 249.975 341.608Z" fill="#CE7A63"/>
<path d="M295.971 341.608L290.106 324.905C289.886 324.294 287.356 325.895 286.733 326.017C286.733 326.017 277.556 324.795 273.902 325.821C270.248 326.848 270.407 329.194 271.079 331.686C272.631 337.478 275.136 338.578 276.749 346.251C277.739 350.931 278.545 355.244 283.666 359.692C288.554 363.932 293.246 363.675 291.315 358.47C286.672 346.056 288.871 347.901 291.804 343.282C292.342 342.5 296.277 342.488 295.971 341.608Z" fill="#CE7A63"/>
<path d="M251.979 345.591L257.881 323.439L250.109 320.225L239.148 344.015L251.979 345.591Z" fill="#E3B76B"/>
<path d="M294.407 346.056L285.132 323.659L292.305 320.714L306.835 342.5L294.407 346.056Z" fill="#E3B76B"/>
<path d="M273.205 140.645C273.205 140.645 270.37 145.789 267.669 148.099C269.136 149.87 272.056 149.528 272.056 149.528L273.205 140.645Z" fill="#BA4D3C"/>
<path d="M275.906 156.09H276.004C278.775 156.321 281.531 155.481 283.702 153.744C283.747 153.698 283.772 153.637 283.772 153.573C283.772 153.509 283.747 153.447 283.702 153.402C283.657 153.357 283.595 153.332 283.531 153.332C283.467 153.332 283.406 153.357 283.36 153.402C281.281 155.036 278.666 155.833 276.028 155.638C275.976 155.635 275.924 155.649 275.88 155.678C275.837 155.707 275.803 155.749 275.786 155.799C275.768 155.848 275.766 155.902 275.781 155.952C275.796 156.002 275.827 156.046 275.869 156.077L275.906 156.09Z" fill="#3C3C3C"/>
<path d="M289.873 134.597C289.943 134.635 290.02 134.655 290.099 134.655C290.179 134.655 290.256 134.635 290.326 134.597C290.379 134.563 290.425 134.519 290.461 134.468C290.497 134.417 290.522 134.359 290.536 134.297C290.55 134.236 290.551 134.173 290.54 134.111C290.529 134.049 290.506 133.99 290.472 133.937C289.893 132.955 289.085 132.127 288.117 131.525C287.149 130.923 286.049 130.564 284.912 130.479C284.844 130.468 284.774 130.472 284.708 130.49C284.641 130.509 284.58 130.542 284.527 130.587C284.474 130.631 284.432 130.687 284.403 130.75C284.374 130.812 284.359 130.88 284.359 130.949C284.359 131.018 284.374 131.087 284.403 131.149C284.432 131.212 284.474 131.268 284.527 131.312C284.58 131.357 284.641 131.39 284.708 131.408C284.774 131.427 284.844 131.431 284.912 131.42C285.889 131.512 286.831 131.835 287.66 132.362C288.488 132.888 289.18 133.604 289.678 134.45C289.731 134.513 289.798 134.564 289.873 134.597Z" fill="#3C3C3C"/>
<path d="M279.205 138.886C279.105 138.866 279 138.879 278.908 138.923C278.815 138.967 278.739 139.039 278.691 139.13C278.643 139.22 278.626 139.324 278.641 139.425C278.657 139.526 278.705 139.62 278.777 139.692C279.569 140.513 280.545 141.134 281.625 141.501C282.705 141.869 283.857 141.973 284.985 141.806C285.109 141.777 285.217 141.7 285.285 141.593C285.354 141.486 285.378 141.356 285.352 141.232C285.325 141.109 285.252 141.001 285.146 140.933C285.041 140.864 284.913 140.84 284.79 140.865C283.817 141.005 282.825 140.91 281.896 140.589C280.967 140.269 280.128 139.73 279.45 139.02C279.383 138.952 279.298 138.906 279.205 138.886Z" fill="#3C3C3C"/>
<path d="M262.403 137.15C262.327 137.132 262.248 137.134 262.173 137.155C262.098 137.177 262.03 137.217 261.975 137.273C261.885 137.364 261.835 137.487 261.835 137.615C261.835 137.743 261.885 137.866 261.975 137.957C262.766 138.778 263.743 139.397 264.823 139.762C265.903 140.128 267.055 140.23 268.183 140.059C268.306 140.032 268.413 139.958 268.482 139.853C268.55 139.748 268.575 139.62 268.549 139.496C268.52 139.373 268.444 139.265 268.337 139.197C268.229 139.128 268.1 139.104 267.975 139.13C267.003 139.271 266.011 139.176 265.084 138.853C264.156 138.53 263.32 137.988 262.647 137.273C262.578 137.211 262.494 137.168 262.403 137.15Z" fill="#3C3C3C"/>
<path d="M263.796 129.917C263.87 129.961 263.954 129.984 264.04 129.984C264.126 129.984 264.211 129.961 264.285 129.917C265.039 129.283 265.935 128.841 266.896 128.628C267.858 128.416 268.857 128.438 269.808 128.695C269.928 128.735 270.059 128.726 270.173 128.672C270.287 128.617 270.375 128.52 270.419 128.402C270.44 128.342 270.45 128.279 270.446 128.217C270.443 128.154 270.427 128.092 270.4 128.035C270.373 127.978 270.334 127.927 270.287 127.886C270.24 127.844 270.185 127.811 270.126 127.791C269.027 127.482 267.87 127.44 266.752 127.67C265.633 127.899 264.586 128.393 263.698 129.11C263.648 129.149 263.606 129.197 263.575 129.251C263.543 129.306 263.523 129.366 263.515 129.429C263.507 129.491 263.512 129.555 263.528 129.615C263.545 129.676 263.574 129.733 263.613 129.783C263.659 129.844 263.723 129.891 263.796 129.917Z" fill="#3C3C3C"/>
<path d="M315.621 285.133L316.134 290.851C316.354 291.303 315.829 291.755 315.096 291.755H250.354C249.779 291.755 249.303 291.474 249.266 291.108L248.692 285.377C248.692 284.986 249.156 284.644 249.779 284.644H314.546C314.753 284.62 314.962 284.653 315.151 284.739C315.341 284.826 315.503 284.961 315.621 285.133Z" fill="#E3B76B"/>
<path opacity="0.3" d="M315.621 285.133L316.134 290.851C316.354 291.303 315.829 291.755 315.096 291.755H250.354C249.779 291.755 249.303 291.474 249.266 291.108L248.692 285.377C248.692 284.986 249.156 284.644 249.779 284.644H314.546C314.753 284.62 314.962 284.653 315.151 284.739C315.341 284.826 315.503 284.961 315.621 285.133Z" fill="black"/>
<path d="M306.92 292.378H308.656C308.998 292.378 309.267 292.195 309.242 291.975L308.423 284.534C308.423 284.314 308.106 284.143 307.751 284.143H306.016C305.674 284.143 305.405 284.314 305.43 284.534L306.248 291.975C306.273 292.195 306.566 292.378 306.92 292.378Z" fill="#3C3C3C"/>
<path d="M255.242 292.378H256.977C257.319 292.378 257.576 292.195 257.551 291.975L256.745 284.534C256.745 284.314 256.415 284.143 256.073 284.143H254.337C253.995 284.143 253.726 284.314 253.751 284.534L254.57 291.975C254.594 292.195 254.887 292.378 255.242 292.378Z" fill="#3C3C3C"/>
<path d="M281.075 292.378H282.81C283.165 292.378 283.421 292.195 283.397 291.975L282.59 284.534C282.59 284.314 282.26 284.143 281.918 284.143H280.183C279.829 284.143 279.572 284.314 279.596 284.534L280.403 291.975C280.427 292.195 280.733 292.378 281.075 292.378Z" fill="#3C3C3C"/>
<path d="M331.691 212.296L336.933 240.546C337.825 245.238 338.729 249.918 339.683 254.549C340.147 256.858 340.685 259.143 341.186 261.404L341.992 264.739L342.774 267.599C343.272 268.878 344.043 270.034 345.035 270.983C346.417 272.394 347.927 273.674 349.544 274.808C353.216 277.344 357.081 279.587 361.104 281.516C365.235 283.569 369.549 285.438 373.911 287.222C378.274 289.006 382.783 290.68 387.158 292.256L385.288 300.174C375.404 298.673 365.688 296.218 356.278 292.843C351.36 291.103 346.611 288.919 342.09 286.318C339.62 284.871 337.296 283.189 335.149 281.296C332.513 279.026 330.425 276.19 329.039 272.999L328.758 272.303L328.575 271.777L328.245 270.849L327.597 268.967L326.46 265.302C325.744 262.858 325.08 260.455 324.469 258.092C323.206 253.319 322.061 248.545 321.035 243.772C318.908 234.217 317.088 224.698 315.523 215.033L331.691 212.296Z" fill="#CE7A63"/>
<path d="M326.008 193.345C332.424 195.288 340.367 215.913 340.367 215.913L315.487 233.704C315.487 233.704 306.175 216.719 308.876 208.435C311.674 199.809 318.688 191.121 326.008 193.345Z" fill="#E3B76B"/>
<path d="M383.98 292.672L398.926 288.884L391.801 303.229C391.801 303.229 381.695 303.669 378.359 298.036L383.98 292.672Z" fill="#CE7A63"/>
<path d="M410.999 294.517L404.388 306.21L391.801 303.412L398.926 289.067L410.999 294.517Z" fill="#CE7A63"/>
</svg>
