<svg width="417" height="408" viewBox="0 0 417 408" fill="none" xmlns="http://www.w3.org/2000/svg">
<path d="M37.8281 122.45C48.6199 122.45 57.3683 113.701 57.3683 102.909C57.3683 92.1176 48.6199 83.3691 37.8281 83.3691C27.0363 83.3691 18.2878 92.1176 18.2878 102.909C18.2878 113.701 27.0363 122.45 37.8281 122.45Z" fill="#FCD3A3"/>
<path d="M28.1018 173.697C32.0607 172.165 34.0277 167.713 32.4952 163.754C30.9627 159.795 26.5111 157.828 22.5522 159.361C18.5932 160.893 16.6262 165.345 18.1587 169.304C19.6912 173.263 24.1429 175.23 28.1018 173.697Z" fill="#FCD3A3"/>
<path d="M283.876 365.133C284.812 360.962 282.189 356.821 278.018 355.884C273.846 354.948 269.705 357.57 268.768 361.742C267.832 365.914 270.454 370.055 274.626 370.991C278.798 371.928 282.939 369.305 283.876 365.133Z" fill="#EBEBEB"/>
<path d="M74.3453 83.7572C67.8198 76.257 67.5761 65.8957 71.5293 57.9893C73.5381 54.0348 76.4286 50.5946 79.9778 47.9343C83.5269 45.274 87.6399 43.4647 91.9992 42.646C99.7521 41.2651 108.399 42.9709 115.077 38.8011C123.128 33.7649 124.464 22.7989 129.266 14.6127C132.398 9.48517 136.973 5.39602 142.419 2.85768C147.865 0.319332 153.939 -0.5553 159.88 0.343379C177.299 3.27667 188.987 22.4378 187.029 39.9925C185.07 57.5471 172.01 72.4843 156.342 80.5261C140.674 88.5678 119.735 93.7214 102.081 94.0643C91.8641 94.3079 81.9457 90.6107 74.3814 83.7391" fill="#FCD3A3"/>
<path d="M306.996 344.901C310.76 351.463 319.578 356.996 324.812 358.133L324.695 358.079C334.623 361.373 345.634 360.877 355.589 357.609C367.16 353.828 377.35 346.58 386.132 338.15C398.632 326.155 408.84 310.993 411.638 293.925C414.436 276.858 408.677 257.742 394.643 247.57C389.534 243.87 383.601 241.468 377.356 240.573C371.111 239.678 364.742 240.316 358.799 242.432C352.856 244.549 347.518 248.08 343.244 252.72C338.971 257.361 335.891 262.972 334.271 269.069C331.437 279.755 333.062 291.804 327.33 301.254C322.114 309.846 311.789 314.449 306.888 323.222C305.078 326.552 304.138 330.286 304.157 334.076C304.176 337.866 305.153 341.59 306.996 344.901Z" fill="#FCD3A3"/>
<path d="M396.937 193.52C407.572 189.186 412.681 177.051 408.347 166.416C404.013 155.78 391.878 150.671 381.243 155.005C370.607 159.339 365.499 171.474 369.832 182.11C374.166 192.745 386.301 197.854 396.937 193.52Z" fill="#FCD3A3"/>
<path d="M63.9569 359.487C65.069 359.95 66.0772 360.631 66.922 361.489C67.7668 362.348 68.4311 363.367 68.8758 364.487C69.74 366.736 70.0826 369.153 69.8777 371.554C69.6069 376.202 67.2422 380.994 64.6158 384.839C60.5453 381.662 59.3359 375.814 58.9027 372.781C58.2257 368.016 59.8864 358.99 63.9569 359.487Z" fill="#DD8D34"/>
<path d="M69.5437 392.204C69.2087 390.9 69.2243 389.53 69.5888 388.233C69.9534 386.937 70.6539 385.76 71.6196 384.821C72.6026 383.907 73.7574 383.197 75.017 382.732C76.2766 382.267 77.6159 382.057 78.9573 382.113C79.5771 382.071 80.1987 382.165 80.7786 382.388C81.3585 382.611 81.8828 382.958 82.3148 383.404C82.6438 383.884 82.839 384.443 82.8802 385.024C82.9215 385.605 82.8073 386.186 82.5495 386.707C82.012 387.744 81.2123 388.622 80.2299 389.253C76.9807 391.545 73.4156 393.17 69.5437 392.24" fill="#DD8D34"/>
<path d="M65.3378 406.618C65.3352 406.297 65.3654 405.976 65.4281 405.661C65.5093 404.993 65.6176 404.118 65.753 403.08C66.0322 400.202 66.7759 397.389 67.9552 394.749C69.1813 392.108 71.0915 389.842 73.4878 388.188C74.2167 387.704 74.9978 387.304 75.8164 386.996C76.1052 386.888 76.3489 386.834 76.5024 386.789C76.5801 386.758 76.6624 386.739 76.7461 386.735C75.6505 387.181 74.6015 387.734 73.6142 388.386C71.3068 390.068 69.4625 392.307 68.253 394.894C67.0952 397.507 66.3317 400.278 65.9876 403.116C65.8162 404.199 65.6717 405.074 65.5544 405.679C65.5086 405.998 65.4361 406.312 65.3378 406.618Z" fill="#3C3C3C"/>
<path d="M63.307 366.472C63.3378 366.606 63.3589 366.742 63.3702 366.878C63.4063 367.185 63.4514 367.582 63.5056 368.07C63.6229 369.099 63.7583 370.588 63.9208 372.429C64.2457 376.121 64.6157 381.229 64.9045 386.87C65.1933 392.511 65.3197 397.628 65.3739 401.311C65.3739 403.161 65.3739 404.659 65.3739 405.688C65.3739 406.185 65.3739 406.591 65.3739 406.889C65.3854 407.027 65.3854 407.166 65.3739 407.304C65.3456 407.167 65.3305 407.028 65.3287 406.889V405.697C65.3287 404.614 65.2565 403.134 65.2024 401.311C65.085 397.61 64.9136 392.502 64.6247 386.87C64.3359 381.238 64.011 376.13 63.7222 372.429C63.5958 370.624 63.4875 369.135 63.4153 368.061C63.4153 367.573 63.3612 367.158 63.3431 366.869C63.3094 366.74 63.2972 366.606 63.307 366.472Z" fill="#3C3C3C"/>
<path d="M62.9821 395.381C62.3607 392.612 61.0887 390.03 59.2712 387.85C57.4537 385.67 55.143 383.954 52.5306 382.845C51.1948 382.294 49.4799 381.942 48.4601 382.998C47.4402 384.054 47.7831 385.706 48.3788 387.06C49.672 389.782 51.7419 392.061 54.3277 393.609C56.9135 395.157 59.8995 395.906 62.9099 395.76" fill="#DD8D34"/>
<path d="M53.3789 387.186C53.6689 387.258 53.9503 387.361 54.2183 387.493C54.489 387.61 54.814 387.745 55.175 387.944C55.536 388.143 55.9692 388.332 56.4025 388.621C56.8905 388.913 57.3634 389.229 57.8195 389.569C58.3457 389.955 58.8518 390.367 59.3357 390.805C60.4426 391.82 61.4326 392.955 62.2871 394.19C63.1122 395.439 63.7935 396.777 64.3178 398.179C64.5382 398.794 64.725 399.421 64.8774 400.056C65.018 400.606 65.1265 401.164 65.2023 401.726C65.274 402.186 65.3192 402.65 65.3377 403.116C65.3635 403.467 65.3635 403.82 65.3377 404.172C65.3628 404.472 65.3628 404.774 65.3377 405.074C65.2565 405.074 65.3377 403.784 64.9857 401.762C64.8864 401.257 64.7962 400.697 64.6247 400.119C64.4615 399.508 64.2656 398.905 64.038 398.314C63.5099 396.943 62.8351 395.633 62.0254 394.406C61.1892 393.198 60.2271 392.081 59.1552 391.076C58.6859 390.639 58.1949 390.227 57.6841 389.839C57.2445 389.49 56.7866 389.165 56.3122 388.865C54.5612 387.718 53.3789 387.249 53.3789 387.186Z" fill="#3C3C3C"/>
<path d="M58.3249 176.151C58.3249 176.151 43.5772 46.7977 176.297 43.8915C309.018 40.9853 294.974 174.698 289.351 192.867C283.728 211.035 257.031 263.636 254.224 287.635C251.417 311.633 255.126 383.72 256.931 407.286H120.303L120.818 336.047C120.818 336.047 70.9606 344.044 61.8358 321.516C52.711 298.989 53.3789 255.359 53.3789 255.359C53.3789 255.359 25.9955 255.359 23.8835 251C21.7716 246.641 58.3249 176.151 58.3249 176.151Z" fill="#F5CB82"/>
<path d="M127.893 96.6727C120.294 94.7774 110.258 90.7971 102.09 98.1078C97.9197 101.844 95.5821 110.103 95.3023 115.78C91.2247 116.073 87.2643 117.275 83.7114 119.297C80.1585 121.319 77.1031 124.111 74.7693 127.468C72.2703 130.87 70.9175 134.979 70.9064 139.201C71.0508 143.407 73.1718 147.667 76.791 149.662C74.8237 152.583 73.6863 155.985 73.5004 159.502C73.3144 163.02 74.0867 166.522 75.735 169.635C77.4301 172.665 79.9446 175.156 82.9904 176.823C86.0362 178.489 89.4899 179.264 92.9557 179.058C92.4143 182.696 92.7913 186.412 94.0524 189.867C95.3134 193.322 97.4185 196.407 100.176 198.842C102.94 201.173 106.264 202.745 109.82 203.402C113.376 204.058 117.042 203.778 120.456 202.587C127.036 212.326 142.118 214.456 150.999 206.901C152.109 205.999 153.21 204.853 154.609 204.6C155.854 204.51 157.1 204.753 158.219 205.304C164.158 207.587 170.503 209.573 176.758 208.535C183.012 207.497 189.095 202.569 189.529 196.08C196.366 199.803 204.019 201.776 211.804 201.82C220.703 201.82 231.073 197.786 232.969 188.877C235.598 190.92 238.759 192.165 242.076 192.465C245.393 192.764 248.725 192.105 251.678 190.565C254.619 188.906 257.043 186.465 258.682 183.514C260.321 180.562 261.112 177.214 260.966 173.841C268.511 175.303 274.937 167.595 276.95 160.005C278.908 152.622 278.367 144.336 274.378 137.874C270.388 131.412 262.69 127.215 255.343 128.578C257.271 125.719 258.411 122.402 258.647 118.961C258.884 115.521 258.208 112.079 256.688 108.984C255.124 105.956 252.762 103.415 249.856 101.634C246.951 99.8539 243.614 98.9028 240.207 98.884C239.376 96.1987 237.904 93.7561 235.918 91.767C233.932 89.7778 231.492 88.3019 228.808 87.4667C226.131 86.7103 223.309 86.631 220.595 87.236C217.88 87.841 215.359 89.1112 213.257 90.9325C210.971 87.1048 207.839 83.8509 204.102 81.4199C200.365 78.9888 196.121 77.4451 191.695 76.9068C187.276 76.4677 182.815 77.0535 178.659 78.6189C174.503 80.1842 170.764 82.6869 167.732 85.9324C161.703 80.6254 150.8 77.7191 143.237 80.2282C139.481 81.4121 136.094 83.5466 133.406 86.4246C130.718 89.3027 128.819 92.8266 127.893 96.6547" fill="#E3B76B"/>
<path d="M121.314 113.217C120.54 113.167 119.764 113.219 119.003 113.37C116.902 113.884 115.044 115.109 113.741 116.836C112.018 119.002 110.971 122.251 110.582 125.997C110.324 127.961 110.306 129.949 110.528 131.917C110.725 134.063 111.619 136.086 113.073 137.676L113.389 138.001L112.938 138.073C108.844 138.803 105.144 140.97 102.505 144.183C101.211 145.739 100.202 147.511 99.5262 149.418C98.6467 152.005 98.3524 154.754 98.6645 157.468C98.9767 160.183 99.8875 162.794 101.331 165.113L101.494 165.366L101.205 165.429C99.7422 165.818 98.4071 166.583 97.333 167.649C96.3684 168.595 95.5664 169.692 94.9593 170.899C94.0055 172.899 93.4185 175.054 93.2264 177.262C93.0188 179.067 92.9917 180.547 92.9556 181.54C92.9556 182 92.9556 182.379 92.9556 182.668C92.9765 182.796 92.9765 182.927 92.9556 183.056C92.9442 182.927 92.9442 182.797 92.9556 182.668C92.9556 182.37 92.9556 182 92.9556 181.531C92.9303 180.097 92.9815 178.663 93.1091 177.234C93.2642 174.987 93.8301 172.788 94.7788 170.745C95.3913 169.493 96.2089 168.352 97.1976 167.37C98.3052 166.265 99.6842 165.471 101.196 165.068L101.07 165.384C99.5816 163.011 98.6411 160.336 98.3164 157.554C97.9916 154.772 98.2908 151.952 99.1922 149.301C99.8832 147.328 100.919 145.495 102.252 143.885C104.961 140.562 108.772 138.32 112.992 137.567L112.866 137.974C111.349 136.306 110.418 134.189 110.212 131.944C109.997 129.939 110.027 127.914 110.303 125.915C110.727 122.143 111.837 118.812 113.633 116.619C114.981 114.874 116.897 113.654 119.048 113.171C119.798 113.023 120.571 113.039 121.314 113.217Z" fill="#E3B76B"/>
<path d="M140.294 169.382C139.863 169.631 139.41 169.839 138.941 170.005C137.69 170.525 136.412 170.98 135.114 171.368C133.179 171.972 131.157 172.253 129.13 172.198C127.922 172.148 126.73 171.901 125.601 171.467C124.395 170.993 123.271 170.332 122.271 169.509C120.223 168.059 118.607 166.082 117.595 163.786C116.877 161.863 116.718 159.776 117.135 157.766C117.395 156.419 117.927 155.139 118.696 154.003C118.904 153.698 119.137 153.411 119.391 153.145C119.572 152.956 119.662 152.865 119.68 152.875C119.698 152.884 119.355 153.299 118.859 154.111C118.013 155.532 117.499 157.125 117.353 158.772C117.208 160.419 117.436 162.077 118.019 163.624C119.013 165.822 120.57 167.718 122.532 169.12C124.381 170.682 126.687 171.604 129.103 171.747C131.087 171.82 133.071 171.576 134.978 171.025C136.621 170.592 137.921 170.122 138.823 169.824C139.3 169.636 139.793 169.488 140.294 169.382Z" fill="#E3B76B"/>
<path d="M222.797 152.721C222.809 152.805 222.809 152.89 222.797 152.974C222.797 153.163 222.734 153.416 222.679 153.732C222.571 154.391 222.409 155.375 222.156 156.638C221.863 158.191 221.481 159.724 221.01 161.232C220.388 163.27 219.457 165.2 218.248 166.954C216.725 169.096 214.796 170.918 212.571 172.316C210.024 174.016 207.189 175.239 204.204 175.926C202.565 176.302 200.885 176.469 199.204 176.422C197.435 176.334 195.682 176.047 193.978 175.565C190.358 174.506 186.93 172.876 183.825 170.736L184.186 170.583C183.545 174.346 182.877 178.399 180.9 182.126C180.385 183.055 179.78 183.932 179.095 184.744C178.389 185.557 177.59 186.284 176.713 186.91C174.891 188.1 172.85 188.916 170.711 189.311C167.071 190.015 163.315 189.829 159.762 188.77C156.209 187.711 152.964 185.809 150.304 183.227L150.701 183.092C150.393 185.121 149.528 187.024 148.201 188.589C146.948 190.113 145.377 191.345 143.598 192.199C140.238 193.671 136.479 193.967 132.93 193.038C129.796 192.282 126.828 190.954 124.175 189.121C121.836 187.583 119.929 185.474 118.633 182.993C118.095 181.918 117.739 180.763 117.577 179.572C117.453 178.517 117.489 177.449 117.686 176.404C117.986 174.739 118.721 173.182 119.816 171.891C120.506 171.097 121.375 170.479 122.352 170.086C122.687 169.95 123.034 169.847 123.39 169.779C123.39 169.779 123.029 169.888 122.379 170.167C121.436 170.574 120.599 171.191 119.933 171.973C118.889 173.262 118.193 174.797 117.911 176.431C117.523 178.617 117.869 180.87 118.895 182.839C120.176 185.242 122.038 187.287 124.31 188.787C126.933 190.575 129.86 191.869 132.948 192.605C136.408 193.487 140.065 193.189 143.336 191.757C145.044 190.935 146.556 189.756 147.768 188.3C149.04 186.796 149.868 184.968 150.159 183.02L150.232 182.56L150.566 182.884C153.088 185.353 156.164 187.182 159.537 188.219C163.097 189.333 166.879 189.541 170.539 188.823C172.629 188.441 174.621 187.643 176.397 186.477C177.242 185.879 178.011 185.182 178.689 184.401C179.347 183.613 179.927 182.764 180.422 181.865C182.353 178.254 183.021 174.229 183.671 170.483L183.725 170.122L184.023 170.321C187.087 172.442 190.469 174.062 194.042 175.123C195.709 175.599 197.426 175.884 199.159 175.971C200.805 176.025 202.452 175.871 204.06 175.511C207.004 174.847 209.805 173.658 212.327 172C214.53 170.637 216.443 168.856 217.959 166.756C219.168 165.035 220.106 163.139 220.739 161.133C221.229 159.638 221.632 158.116 221.948 156.575C222.228 155.321 222.418 154.346 222.553 153.687L222.707 152.947C222.728 152.869 222.759 152.793 222.797 152.721Z" fill="#E3B76B"/>
<path d="M227.364 124.228C227.57 124.221 227.776 124.24 227.977 124.282C228.176 124.282 228.429 124.327 228.718 124.381L229.719 124.625C231.825 125.23 233.776 126.28 235.442 127.702C237.92 129.806 239.915 132.419 241.29 135.365C242.104 137.104 242.747 138.918 243.213 140.78C243.468 141.771 243.604 142.79 243.619 143.813C243.583 144.855 243.49 145.895 243.339 146.927C243.068 148.981 242.409 150.966 241.398 152.775C240.413 154.437 239.106 155.886 237.554 157.035C234.969 159.003 232.026 160.447 228.889 161.286C226.772 161.796 224.594 162.012 222.418 161.927C221.651 161.927 221.055 161.855 220.613 161.819C220.408 161.811 220.206 161.78 220.008 161.729C220.212 161.707 220.418 161.707 220.622 161.729C221.028 161.729 221.614 161.729 222.427 161.729C227.818 161.819 233.073 160.032 237.292 156.674C238.784 155.552 240.042 154.148 240.992 152.541C241.965 150.779 242.598 148.85 242.861 146.855C243.763 142.73 242.319 138.84 240.884 135.582C239.552 132.682 237.624 130.096 235.225 127.991C233.607 126.575 231.719 125.5 229.674 124.832L228.7 124.553L227.968 124.399C227.762 124.362 227.559 124.304 227.364 124.228Z" fill="#E3B76B"/>
<path d="M258.836 138.434C259.071 138.769 259.257 139.137 259.386 139.526C259.782 140.573 260.01 141.675 260.063 142.793C260.15 144.462 259.892 146.13 259.305 147.694C258.615 149.633 257.403 151.345 255.803 152.64C254.971 153.293 254.061 153.842 253.095 154.274C252.204 154.697 251.26 155 250.289 155.176C248.637 155.496 246.93 155.359 245.352 154.779C244.302 154.376 243.347 153.762 242.545 152.974C242.327 152.763 242.125 152.537 241.94 152.297C241.867 152.219 241.806 152.131 241.759 152.035C242.082 152.274 242.384 152.54 242.662 152.83C243.486 153.541 244.435 154.095 245.46 154.463C246.984 154.971 248.616 155.068 250.189 154.743C251.128 154.563 252.038 154.259 252.897 153.84C253.825 153.423 254.698 152.892 255.496 152.261C257.026 151.017 258.198 149.387 258.89 147.541C259.473 146.037 259.752 144.433 259.711 142.82C259.646 141.322 259.35 139.842 258.836 138.434Z" fill="#E3B76B"/>
<path d="M241.759 99.3894C241.19 99.2517 240.61 99.1552 240.027 99.1005C239.314 99.0629 238.599 99.1084 237.897 99.2359C236.936 99.443 236.01 99.7832 235.144 100.247C232.746 101.556 230.818 103.582 229.629 106.041C228.131 108.875 227.283 112.485 226.506 116.493L226.434 116.881L226.227 116.547C224.24 113.448 221.514 110.892 218.293 109.11C214.612 107.015 210.382 106.09 206.163 106.456C201.467 106.894 197.037 108.831 193.527 111.98C191.631 113.611 190.094 115.618 189.014 117.874C187.843 120.181 187.567 122.839 188.238 125.338L188.671 126.737L187.823 125.545C185.933 122.998 183.458 120.944 180.607 119.555C177.756 118.166 174.612 117.484 171.442 117.567C170.71 117.594 169.98 117.666 169.258 117.783C167.798 118.003 166.372 118.409 165.016 118.993C163.649 119.605 162.359 120.375 161.171 121.285C159.991 122.232 158.917 123.303 157.967 124.48C156.255 126.645 154.974 129.117 154.194 131.764C153.459 134.356 153.256 137.07 153.598 139.742L153.652 140.131L153.282 140.004C150.307 138.939 147.126 138.575 143.986 138.939C140.955 139.325 138.153 140.755 136.062 142.983C135.085 144.067 134.335 145.335 133.855 146.713C133.374 148.09 133.173 149.55 133.264 151.006C133.393 153.835 134.507 156.53 136.414 158.624C138.208 160.624 140.559 162.041 143.165 162.694C145.641 163.263 148.195 163.409 150.719 163.128C153.093 162.946 155.414 162.335 157.569 161.322C159.564 160.38 161.228 158.857 162.344 156.954L162.461 156.747L162.624 156.927C164.209 158.662 166.267 159.895 168.545 160.474C170.566 161.005 172.693 160.977 174.7 160.393C176.437 159.883 177.999 158.902 179.213 157.559C180.229 156.418 181.008 155.086 181.505 153.642C182.224 151.651 182.358 149.497 181.893 147.432C181.702 146.721 181.461 146.024 181.171 145.347L181.424 145.853C181.664 146.349 181.851 146.87 181.984 147.405C182.501 149.495 182.397 151.691 181.686 153.723C181.189 155.194 180.407 156.553 179.384 157.721C178.145 159.112 176.546 160.133 174.763 160.673C172.707 161.283 170.523 161.323 168.445 160.79C166.107 160.204 163.99 158.95 162.353 157.18H162.624C161.479 159.144 159.768 160.717 157.714 161.692C155.525 162.75 153.16 163.396 150.737 163.597C148.165 163.89 145.563 163.746 143.038 163.173C140.352 162.504 137.926 161.049 136.071 158.994C134.1 156.834 132.944 154.053 132.803 151.133C132.709 149.617 132.916 148.098 133.413 146.663C133.911 145.228 134.688 143.907 135.701 142.775C137.868 140.465 140.772 138.981 143.914 138.578C147.125 138.196 150.381 138.564 153.427 139.652L153.102 139.923C152.752 137.181 152.961 134.396 153.716 131.737C154.509 129.026 155.821 126.494 157.579 124.282C158.551 123.073 159.653 121.975 160.864 121.005C162.082 120.069 163.406 119.278 164.808 118.65C166.205 118.049 167.673 117.631 169.176 117.404C169.917 117.287 170.665 117.215 171.415 117.188C172.158 117.168 172.903 117.189 173.644 117.251C176.513 117.47 179.3 118.31 181.812 119.712C184.324 121.115 186.501 123.047 188.193 125.374L187.778 125.572C187.078 122.965 187.367 120.19 188.59 117.783C189.711 115.449 191.307 113.374 193.274 111.691C196.861 108.491 201.384 106.532 206.172 106.104C210.467 105.73 214.774 106.674 218.519 108.812C221.781 110.635 224.536 113.244 226.533 116.402L226.254 116.448C227.039 112.44 227.914 108.803 229.458 105.942C230.688 103.458 232.664 101.42 235.108 100.111C235.99 99.6503 236.936 99.3219 237.915 99.1366C238.629 99.0073 239.357 98.9709 240.081 99.0283C240.521 99.0682 240.956 99.1498 241.38 99.272C241.624 99.3352 241.759 99.3894 241.759 99.3894Z" fill="#E3B76B"/>
<path d="M221.253 137.937C221.257 138.437 221.209 138.937 221.109 139.427C220.925 140.782 220.639 142.122 220.252 143.434C219.714 145.424 218.64 147.229 217.147 148.651C215.163 150.215 212.761 151.158 210.242 151.358C207.74 151.69 205.195 151.338 202.878 150.338C200.993 149.496 199.379 148.15 198.211 146.448C197.42 145.317 196.876 144.031 196.614 142.676C196.539 142.31 196.497 141.939 196.487 141.566C196.463 141.434 196.463 141.3 196.487 141.169C196.487 141.169 196.56 141.701 196.776 142.631C197.111 143.93 197.687 145.154 198.473 146.241C199.641 147.85 201.217 149.119 203.04 149.914C205.295 150.839 207.755 151.151 210.17 150.817C212.593 150.612 214.906 149.713 216.831 148.226C218.279 146.863 219.341 145.141 219.909 143.235C220.317 141.948 220.649 140.637 220.901 139.309C220.989 138.845 221.107 138.387 221.253 137.937Z" fill="#E3B76B"/>
<path d="M214.881 90.0299C214.537 90.2207 214.178 90.3837 213.807 90.5173C213.103 90.8151 212.083 91.2574 210.829 91.8711C209.309 92.541 207.888 93.4156 206.605 94.4705C205.862 95.1236 205.305 95.961 204.989 96.8983C204.807 97.3962 204.728 97.9265 204.759 98.456C204.79 98.9855 204.93 99.5029 205.17 99.976L204.782 100.229C203.257 98.1077 200.63 96.6185 197.751 95.8514C194.718 94.9736 191.565 94.5836 188.41 94.6961C185.841 94.8821 183.367 95.7481 181.243 97.2052C179.804 98.1933 178.538 99.4132 177.498 100.815C176.767 101.808 176.442 102.413 176.397 102.386C176.455 102.23 176.524 102.08 176.604 101.935C176.822 101.508 177.069 101.098 177.344 100.707C178.591 98.885 180.227 97.363 182.135 96.2516C184.043 95.1401 186.174 94.467 188.373 94.2809C189.921 94.1701 191.476 94.2246 193.013 94.4434C194.659 94.6481 196.288 94.9739 197.886 95.4181C200.82 96.2304 203.563 97.7467 205.161 99.985L204.773 100.238C204.506 99.7087 204.351 99.13 204.318 98.5382C204.286 97.9464 204.376 97.3543 204.583 96.799C204.939 95.7932 205.564 94.9038 206.388 94.2268C207.709 93.1627 209.178 92.2963 210.748 91.6545C212.029 91.0678 213.076 90.6617 213.798 90.409C214.148 90.2527 214.51 90.1259 214.881 90.0299Z" fill="#E3B76B"/>
<path d="M133.363 126.06C132.872 125.494 132.467 124.858 132.163 124.173C131.433 122.559 131.082 120.798 131.139 119.027C131.195 117.256 131.657 115.522 132.488 113.957C133.306 112.481 134.486 111.239 135.917 110.346C137.523 109.341 139.359 108.763 141.251 108.668C143.313 108.542 145.366 109.035 147.145 110.085L146.82 110.428C145.763 108.848 145.104 107.037 144.898 105.148C144.385 100.55 145.619 95.9271 148.354 92.196C150.549 89.1335 153.739 86.9288 157.38 85.9594C159.811 85.2958 162.366 85.2339 164.826 85.7789C165.491 85.9214 166.143 86.1176 166.776 86.3655C166.998 86.4436 167.213 86.5434 167.416 86.6634C167.416 86.7175 166.514 86.3023 164.79 85.9684C161.771 85.4025 158.653 85.7139 155.806 86.8656C152.958 88.0174 150.501 89.9612 148.724 92.4668C146.083 96.1187 144.896 100.623 145.394 105.102C145.581 106.913 146.2 108.653 147.199 110.175L147.822 111.077L146.919 110.509C145.221 109.508 143.265 109.031 141.296 109.137C139.478 109.219 137.711 109.762 136.161 110.716C134.777 111.577 133.634 112.776 132.84 114.2C132.157 115.435 131.716 116.789 131.54 118.189C131.275 120.213 131.549 122.271 132.334 124.155C132.894 125.41 133.408 126.033 133.363 126.06Z" fill="#E3B76B"/>
<path d="M88.1181 137.811C88.1181 137.811 88.2083 137.811 88.3889 137.811C88.6555 137.848 88.9145 137.927 89.156 138.046C90.067 138.464 90.8199 139.163 91.3041 140.04C91.6809 140.682 91.9267 141.392 92.0274 142.13C92.1281 142.867 92.0817 143.617 91.8907 144.336C91.3926 146.091 90.2855 147.611 88.7679 148.624C87.2567 149.603 85.5329 150.207 83.7407 150.384C82.3023 150.564 80.8469 150.564 79.4085 150.384C78.4284 150.255 77.4869 149.92 76.6467 149.4C76.3356 149.216 76.0629 148.974 75.8434 148.687C76.9119 149.437 78.1549 149.9 79.4536 150.032C80.8643 150.159 82.2851 150.12 83.6866 149.914C85.3964 149.72 87.0391 149.137 88.4881 148.208C89.9128 147.258 90.9626 145.841 91.4575 144.201C91.8259 142.856 91.661 141.42 90.9972 140.194C90.5685 139.353 89.8993 138.659 89.0748 138.199C88.4881 137.919 88.1 137.865 88.1181 137.811Z" fill="#E3B76B"/>
<path d="M123.056 205.845C122.791 205.714 122.548 205.543 122.334 205.34C121.724 204.806 121.181 204.2 120.718 203.535C119.163 201.377 118.196 198.851 117.911 196.206C117.738 194.755 117.78 193.286 118.038 191.847C118.254 190.677 118.618 189.54 119.121 188.462C119.483 187.421 120.104 186.49 120.926 185.755C120.784 186.007 120.627 186.251 120.456 186.486C120.057 187.157 119.712 187.861 119.427 188.589C118.978 189.657 118.653 190.775 118.462 191.919C118.243 193.317 118.216 194.738 118.381 196.143C118.658 198.723 119.549 201.199 120.98 203.363C121.611 204.24 122.305 205.069 123.056 205.845Z" fill="#E3B76B"/>
<path d="M155.304 194.32C155.623 194.875 155.825 195.489 155.9 196.125C156.155 197.683 156.069 199.278 155.647 200.8C155.229 202.323 154.48 203.734 153.454 204.934C153.061 205.457 152.559 205.888 151.983 206.197C151.928 206.134 152.479 205.647 153.183 204.717C154.092 203.505 154.765 202.134 155.169 200.674C155.569 199.205 155.7 197.676 155.557 196.161C155.44 195.552 155.356 194.937 155.304 194.32Z" fill="#E3B76B"/>
<path d="M190.63 183.336C190.8 183.616 190.928 183.92 191.009 184.238C191.296 185.055 191.516 185.895 191.668 186.747C192.173 189.574 192.044 192.479 191.289 195.249C190.522 198.02 189.133 200.579 187.227 202.732C186.655 203.383 186.03 203.987 185.359 204.537C185.129 204.759 184.863 204.942 184.574 205.078C184.52 205.006 185.585 204.176 186.956 202.515C188.744 200.351 190.057 197.836 190.81 195.132C191.547 192.422 191.722 189.59 191.325 186.811C191.018 184.626 190.567 183.363 190.63 183.336Z" fill="#E3B76B"/>
<path d="M230.766 170.357C230.766 170.357 230.947 170.565 231.191 170.998C231.535 171.599 231.836 172.223 232.093 172.866C233.91 177.132 234.504 181.82 233.808 186.404C233.707 187.095 233.565 187.779 233.384 188.453C233.339 188.707 233.251 188.952 233.122 189.175C233.041 189.175 233.275 188.092 233.465 186.359C233.956 181.858 233.384 177.305 231.795 173.065C231.181 171.395 230.694 170.42 230.766 170.357Z" fill="#E3B76B"/>
<path d="M169.691 67.4661C168.049 65.9903 166.169 64.8032 164.131 63.9552C162.148 62.9051 160.018 62.1597 157.813 61.744C151.883 60.8414 146.161 64.1357 142.199 67.9806C138.237 71.8255 135.249 76.4104 130.619 79.7138L142.587 79.5152C146.197 79.452 149.889 79.3798 153.174 78.1433C157.362 76.5819 160.548 72.728 165.097 72.2948C167.598 72.2215 170.096 72.5257 172.507 73.1973C172.222 71.0299 171.232 69.0163 169.691 67.4661ZM157.578 72.1865C157.258 72.3767 156.884 72.4589 156.513 72.4211C156.214 72.3834 155.911 72.3834 155.611 72.4211C154.889 72.5656 154.519 73.3779 153.914 73.793C153.668 73.97 153.377 74.0726 153.074 74.0887C152.772 74.1047 152.471 74.0334 152.208 73.8833C151.949 73.7164 151.753 73.4676 151.652 73.1764C151.55 72.8853 151.549 72.5686 151.649 72.2767C151.768 72.0235 151.937 71.7965 152.145 71.6088C152.664 71.1145 153.278 70.7307 153.95 70.4807C154.349 70.1635 154.823 69.9552 155.326 69.8761C155.829 69.797 156.344 69.8498 156.82 70.0294C157.434 70.2099 158.102 70.616 158.138 71.2749C158.121 71.4548 158.061 71.628 157.964 71.7803C157.867 71.9325 157.735 72.0594 157.578 72.1504V72.1865Z" fill="#455A64"/>
<path d="M145.069 72.385C145.069 72.385 145.331 72.2406 145.809 71.9337C146.287 71.6269 146.955 71.1305 147.786 70.4536C148.616 69.7766 149.591 68.8831 150.8 67.9264C152.21 66.8633 153.818 66.0931 155.53 65.661C156.524 65.4122 157.546 65.2939 158.571 65.309C159.677 65.3443 160.776 65.5017 161.847 65.7783C164.213 66.3957 166.442 67.4519 168.418 68.8922C170.609 70.4737 172.477 72.4587 173.924 74.7407C175.486 77.1642 176.744 79.7712 177.669 82.5026C179.628 88.0894 180.557 93.6491 181.64 98.6132C182.723 103.577 183.599 108.09 184.348 111.872C185.097 115.653 185.729 118.659 186.153 120.816C186.352 121.845 186.505 122.621 186.623 123.253C186.623 123.506 186.704 123.713 186.731 123.894C186.737 123.966 186.737 124.038 186.731 124.11C186.695 124.046 186.671 123.975 186.659 123.903L186.496 123.271L185.937 120.852C185.467 118.704 184.799 115.671 183.978 111.944C183.157 108.216 182.173 103.686 181.126 98.7124C180.079 93.7394 179.077 88.1977 177.137 82.6651C175.196 77.1324 172.245 72.1865 168.111 69.2622C166.186 67.8436 164.013 66.7968 161.703 66.1755C159.702 65.5971 157.588 65.535 155.557 65.995C153.887 66.3937 152.311 67.1141 150.918 68.116C149.708 69.0185 148.724 69.9211 147.858 70.5709C147.207 71.0853 146.523 71.5556 145.809 71.9789C145.624 72.0919 145.431 72.1915 145.231 72.2767L145.069 72.385Z" fill="#3C3C3C"/>
<path d="M198.753 84.9486C198.353 86.0172 198.187 87.1592 198.266 88.2974C198.346 89.4357 198.669 90.5436 199.213 91.5463C200.386 93.4146 202.489 94.3803 204.421 95.3911C207.408 96.9399 210.24 98.7714 212.878 100.861C213.446 99.6512 213.013 98.2071 212.535 96.9526C212.12 95.8605 211.686 94.7774 211.226 93.7034C210.062 90.9957 208.681 88.2339 206.397 86.4017C204.114 84.5696 201.163 83.2879 198.753 84.9486Z" fill="#455A64"/>
<path d="M205.576 90.4722C205.576 90.4722 205.251 90.057 204.674 89.3349C203.83 88.3224 202.87 87.4135 201.812 86.6273C200.25 85.4599 198.424 84.6944 196.496 84.398C194.143 84.0338 191.738 84.5444 189.736 85.833C187.818 87.2506 186.295 89.1369 185.314 91.3115C184.44 93.0621 183.689 94.8716 183.066 96.7268C182.637 97.9773 182.355 99.2737 182.227 100.59C182.146 101.492 182.173 102.043 182.128 102.043C182.086 101.921 182.064 101.793 182.065 101.664C182.039 101.3 182.039 100.935 182.065 100.572C182.123 99.2293 182.356 97.9003 182.76 96.6185C183.345 94.7224 184.072 92.873 184.935 91.0859C185.918 88.8295 187.473 86.8694 189.448 85.3998C191.547 84.0369 194.082 83.5119 196.551 83.9287C198.529 84.2557 200.392 85.0786 201.966 86.3204C203.027 87.1467 203.968 88.1156 204.764 89.1996C204.982 89.4887 205.184 89.7901 205.369 90.1021C205.531 90.3458 205.594 90.4631 205.576 90.4722Z" fill="#3C3C3C"/>
<path d="M129.509 131.277C129.037 130.836 128.471 130.508 127.854 130.317C127.237 130.125 126.584 130.076 125.946 130.172C125.307 130.269 124.698 130.508 124.165 130.873C123.632 131.238 123.188 131.718 122.866 132.278C122.459 133.21 122.221 134.206 122.162 135.221C122.022 135.969 122.022 136.737 122.162 137.486C122.294 137.849 122.402 138.22 122.487 138.596C122.519 139.06 122.461 139.526 122.316 139.968C122.073 140.69 121.939 141.445 121.919 142.206C121.911 142.587 122.001 142.964 122.179 143.3C122.358 143.636 122.619 143.922 122.939 144.129C123.228 144.222 123.495 144.372 123.724 144.571C123.896 144.839 123.976 145.156 123.949 145.474C123.949 146.701 124.013 147.929 124.04 149.156C124.883 148.54 125.536 147.701 125.927 146.732C126.318 145.764 126.43 144.706 126.251 143.678C126.079 143.061 125.964 142.429 125.908 141.791C125.908 140.392 127 139.147 126.883 137.748C126.765 136.349 125.673 135.437 125.412 134.138C125.317 133.647 125.351 133.14 125.509 132.666C125.667 132.192 125.944 131.766 126.314 131.43C126.7 131.108 127.167 130.899 127.664 130.827C128.162 130.755 128.669 130.824 129.13 131.024" fill="#455A64"/>
<path d="M179.375 91.2574C178.886 90.5765 178.228 90.0347 177.466 89.6853C176.704 89.3359 175.864 89.1909 175.029 89.2647C174.193 89.3385 173.392 89.6284 172.703 90.106C172.014 90.5836 171.461 91.2324 171.099 91.9885C170.787 92.8947 170.353 93.7541 169.808 94.5427C168.644 95.8243 166.469 95.6167 165.295 96.8803C164.904 97.3324 164.626 97.8706 164.483 98.4508C164.183 99.4957 164.102 100.591 164.244 101.669C164.387 102.747 164.751 103.784 165.313 104.714C166.135 106.041 167.38 107.16 167.741 108.695C168.201 110.68 167.109 113.081 168.373 114.652C169.845 113.125 170.865 111.221 171.321 109.15C171.776 107.079 171.65 104.922 170.954 102.918C170.725 102.429 170.602 101.897 170.593 101.357C170.756 99.5519 173.472 99.4255 174.582 97.9905C175.395 96.9435 175.178 95.4453 175.223 94.1095C175.268 92.7737 175.999 91.1491 177.308 91.2213C178.211 91.2213 179.204 92.0336 179.781 91.3657" fill="#455A64"/>
<path d="M201.027 133.064C200.63 133.731 200.233 134.616 200.702 135.239C200.91 135.519 201.244 135.672 201.469 135.934C201.984 136.565 201.668 137.504 201.397 138.271C201.126 139.038 201.045 140.076 201.749 140.483C202.173 140.699 202.652 140.555 203.139 140.618C203.547 140.707 203.92 140.911 204.216 141.205C204.512 141.499 204.717 141.872 204.809 142.279C204.987 143.1 205.011 143.948 204.881 144.779C206.226 144.093 206.605 142.324 206.686 140.789C206.803 140.042 206.618 139.279 206.172 138.668C205.955 138.443 205.684 138.298 205.486 138.055C204.989 137.441 205.224 136.538 205.423 135.771C205.621 135.004 205.675 133.966 205.016 133.587C204.574 133.316 203.915 133.398 203.618 132.973C203.184 132.36 204.114 131.502 203.437 131.168" fill="#455A64"/>
<path d="M230.902 139.833C230.039 137.293 228.548 135.014 226.568 133.205C224.587 131.397 222.182 130.119 219.575 129.489C217.427 129.011 215.062 129.056 213.212 130.32L212.788 130.482C212.49 133.298 212.255 136.376 213.807 138.713C216.271 142.432 221.93 142.414 224.746 145.889C226.795 148.443 226.696 152.207 228.158 155.122C229.838 152.996 230.967 150.488 231.445 147.821C231.924 145.154 231.737 142.41 230.902 139.833ZM218.546 137.125C218.433 137.512 218.194 137.85 217.867 138.086C217.54 138.321 217.144 138.441 216.741 138.425C216.342 138.385 215.963 138.236 215.644 137.994C215.326 137.752 215.08 137.426 214.936 137.053C214.791 136.671 214.729 136.263 214.754 135.855C214.779 135.447 214.89 135.05 215.08 134.688L215.17 134.86C215.535 134.636 215.956 134.521 216.384 134.53C216.811 134.539 217.227 134.67 217.582 134.909C217.937 135.148 218.216 135.484 218.385 135.877C218.554 136.27 218.607 136.703 218.537 137.125H218.546Z" fill="#455A64"/>
<path d="M225.504 141.06C225.379 140.935 225.272 140.792 225.189 140.636L224.358 139.354C223.361 137.786 222.218 136.314 220.947 134.959C218.949 133.07 216.574 131.625 213.979 130.717C212.473 130.135 210.881 129.805 209.268 129.742C207.545 129.7 205.842 130.114 204.331 130.943C201.199 132.675 199.087 135.509 197.39 138.082C195.881 140.393 194.585 142.837 193.518 145.383C192.816 147.104 192.213 148.864 191.713 150.654C191.343 151.927 191.18 152.64 191.135 152.631C191.136 152.451 191.161 152.272 191.208 152.098C191.262 151.755 191.37 151.25 191.523 150.609C191.972 148.788 192.545 147 193.238 145.257C194.263 142.668 195.536 140.183 197.038 137.838C198.744 135.23 200.874 132.314 204.132 130.509C205.717 129.64 207.506 129.21 209.313 129.264C210.978 129.331 212.619 129.678 214.168 130.293C216.815 131.242 219.225 132.75 221.235 134.715C222.496 136.1 223.609 137.612 224.557 139.228C224.891 139.797 225.143 140.248 225.306 140.555C225.397 140.712 225.464 140.883 225.504 141.06Z" fill="#3C3C3C"/>
<path d="M156.143 161.088C156.216 161.142 156.288 161.205 156.36 161.25L156.613 161.178L156.143 161.088Z" fill="#455A64"/>
<path d="M161.143 182.758C161.017 181.251 160.71 179.762 160.656 178.245C160.548 175.258 161.432 172.279 161.134 169.31C160.967 167.702 160.454 166.149 159.63 164.757C158.805 163.366 157.69 162.17 156.36 161.25C154.305 161.888 152.411 162.959 150.806 164.392C149.201 165.824 147.921 167.585 147.055 169.554C146.181 171.599 145.753 173.808 145.799 176.032C145.846 178.256 146.366 180.444 147.325 182.451C148.228 184.256 149.437 185.917 149.591 187.866C149.744 189.816 148.77 191.693 148.454 193.643C147.813 197.614 149.88 201.459 151.874 204.925C151.761 203.969 151.846 203 152.122 202.078C152.398 201.155 152.861 200.3 153.481 199.564C154.627 198.038 156.089 196.784 157.308 195.322C160.146 191.779 161.519 187.282 161.143 182.758ZM157.533 177.298C157.325 177.63 157.032 177.901 156.685 178.083C156.514 178.172 156.321 178.212 156.129 178.199C155.936 178.187 155.751 178.121 155.593 178.011C155.396 177.821 155.245 177.59 155.151 177.334C154.969 176.949 154.809 176.554 154.672 176.151C154.416 175.298 154.372 174.395 154.544 173.521C154.715 172.646 155.097 171.827 155.656 171.133V171.079C155.987 171.062 156.317 171.123 156.62 171.258C156.923 171.393 157.189 171.598 157.398 171.855C158.055 172.604 158.418 173.566 158.418 174.563C158.414 175.544 158.105 176.5 157.533 177.298Z" fill="#455A64"/>
<path d="M151.983 176.169C151.959 175.984 151.959 175.796 151.983 175.61C151.983 175.24 152.091 174.707 152.181 174.012C152.453 172.056 152.829 170.116 153.309 168.2C153.995 165.335 155.089 162.584 156.559 160.032C158.342 156.847 161.014 154.25 164.248 152.559C165.877 151.73 167.661 151.251 169.486 151.153C171.311 151.055 173.136 151.34 174.844 151.99C177.558 153.243 179.798 155.335 181.234 157.956C182.221 159.671 183.066 161.464 183.761 163.317C184.005 163.967 184.195 164.481 184.312 164.824C184.385 164.998 184.437 165.18 184.465 165.366C184.361 165.209 184.279 165.039 184.222 164.86C184.05 164.481 183.843 163.958 183.581 163.389C182.83 161.576 181.946 159.82 180.936 158.136C179.507 155.614 177.314 153.611 174.673 152.414C173.022 151.799 171.261 151.534 169.503 151.634C167.744 151.735 166.025 152.201 164.456 153.001C161.317 154.644 158.712 157.149 156.947 160.221C155.482 162.735 154.371 165.438 153.643 168.254C152.993 170.646 152.632 172.64 152.371 174.003C152.253 174.653 152.163 175.177 152.082 175.583C152.069 175.781 152.036 175.978 151.983 176.169Z" fill="#3C3C3C"/>
<path d="M108.019 118.966C105.166 119.621 102.504 120.931 100.243 122.791C97.983 124.652 96.1864 127.013 94.9955 129.688C93.8261 132.413 93.2892 135.368 93.4252 138.33C93.5612 141.292 94.3665 144.185 95.7807 146.791C97.3241 144.58 98.1273 141.936 99.3909 139.571C100.654 137.206 102.523 134.86 105.122 134.309C107.297 133.858 109.436 133.849 111.593 133.325C113.942 132.774 116.007 131.38 117.397 129.408C118.94 127.341 120.962 126.195 122.505 124.137C119.437 119.507 113.317 117.838 108.019 118.966ZM101.566 131.601C101.476 131.812 101.333 131.995 101.151 132.134C100.946 132.26 100.704 132.312 100.466 132.28C100.228 132.249 100.007 132.137 99.8422 131.962C99.6807 131.778 99.5706 131.554 99.5231 131.313C99.4756 131.072 99.4922 130.823 99.5714 130.591C99.6887 130.221 100.014 129.878 100.384 129.95L100.248 130.175C100.321 130.075 100.417 129.993 100.527 129.936C100.638 129.88 100.76 129.85 100.885 129.85C101.009 129.85 101.131 129.88 101.242 129.936C101.353 129.993 101.448 130.075 101.521 130.175C101.654 130.388 101.728 130.632 101.736 130.882C101.744 131.133 101.685 131.381 101.566 131.601ZM112.586 129.372C111.92 130.199 110.972 130.752 109.924 130.925C108.892 131.08 107.842 131.056 106.819 130.852C106.344 130.809 105.891 130.634 105.51 130.347C105.288 130.136 105.136 129.862 105.075 129.561C105.014 129.261 105.046 128.949 105.167 128.668C105.21 128.565 105.282 128.478 105.375 128.415C105.491 128.353 105.624 128.331 105.754 128.352C106.585 128.486 107.437 128.38 108.209 128.045C108.763 127.62 109.234 127.097 109.599 126.502C109.898 126.086 110.317 125.772 110.799 125.599C110.74 125.611 110.678 125.611 110.619 125.599H111.016C111.102 125.586 111.191 125.586 111.278 125.599C111.422 125.56 111.57 125.533 111.72 125.518C111.991 125.536 112.252 125.63 112.473 125.79C112.693 125.95 112.864 126.168 112.965 126.421C113.163 126.904 113.232 127.429 113.165 127.947C113.099 128.464 112.899 128.955 112.586 129.372Z" fill="#455A64"/>
<path d="M103.922 126.412C104.014 126.297 104.12 126.194 104.238 126.105C104.551 125.823 104.88 125.558 105.221 125.311C106.498 124.413 107.896 123.702 109.373 123.199C111.574 122.445 113.903 122.138 116.224 122.296C119.08 122.445 121.853 123.315 124.283 124.823C126.671 126.379 128.704 128.421 130.249 130.816C131.5 132.757 132.558 134.816 133.408 136.963C134.13 138.768 134.627 140.302 134.933 141.349C135.096 141.873 135.204 142.252 135.276 142.567C135.322 142.708 135.352 142.854 135.367 143.001C135.124 142.487 134.919 141.956 134.753 141.412C134.392 140.383 133.85 138.894 133.083 137.098C132.204 134.992 131.129 132.973 129.87 131.069C128.345 128.742 126.354 126.756 124.022 125.238C121.659 123.775 118.971 122.919 116.196 122.747C113.927 122.586 111.648 122.859 109.481 123.551C107.497 124.223 105.623 125.188 103.922 126.412Z" fill="#3C3C3C"/>
<path d="M244.639 106.348C245.934 107.165 247.379 107.719 248.888 107.977C250.398 108.236 251.944 108.194 253.438 107.855C255.929 107.278 258.357 105.852 260.875 106.294C262.825 106.628 264.486 108.054 266.48 108.099C269.188 108.198 271.417 105.77 274.116 105.491C275.921 105.292 277.726 106.131 279.396 106.944C279.874 104.976 278.439 103.117 277.112 101.619C274.405 98.6132 271.489 95.4452 267.608 94.5246C263.33 93.5138 258.935 95.4272 254.54 95.4272C253.513 95.3547 252.481 95.391 251.462 95.5355C249.774 95.9055 248.402 97.142 247.13 98.3334C245.919 99.2712 244.983 100.518 244.422 101.944C244.025 103.297 244.314 104.769 243.962 106.131" fill="#455A64"/>
<path d="M270.325 101.249C270.325 101.249 269.63 101.032 268.376 100.716C266.605 100.26 264.788 100.006 262.96 99.958C260.246 99.8807 257.535 100.212 254.919 100.942C251.706 101.821 248.657 103.217 245.893 105.075C240.911 108.525 236.655 112.92 233.366 118.009C232.313 119.512 231.447 121.136 230.784 122.847C230.342 124.065 230.234 124.778 230.189 124.769C230.182 124.593 230.197 124.418 230.234 124.246C230.323 123.75 230.446 123.262 230.604 122.783C231.205 121.027 232.036 119.357 233.077 117.819C236.316 112.622 240.586 108.144 245.622 104.66C248.431 102.781 251.528 101.375 254.792 100.499C257.438 99.7842 260.177 99.4798 262.915 99.5969C264.768 99.6718 266.606 99.975 268.385 100.499C268.866 100.641 269.339 100.81 269.802 101.005C269.988 101.058 270.165 101.14 270.325 101.249Z" fill="#3C3C3C"/>
<path d="M341.925 316.57L346.338 333.114C346.338 333.114 330.995 343.15 331.518 346.282L363.857 338.881L358.053 312.825L341.925 316.57Z" fill="#DD8D34"/>
<path d="M356.023 329.414C356.356 329.438 356.669 329.583 356.902 329.823C357.135 330.062 357.271 330.379 357.286 330.713C357.275 331.048 357.135 331.365 356.897 331.6C356.659 331.835 356.339 331.97 356.004 331.977C355.651 331.95 355.319 331.793 355.074 331.537C354.829 331.28 354.688 330.942 354.678 330.587C354.727 330.24 354.909 329.926 355.185 329.711C355.461 329.496 355.81 329.395 356.158 329.432" fill="#E0E0E0"/>
<g opacity="0.6">
<path d="M363.857 338.881L363.171 336.282L332.385 344.342C332.385 344.342 331.085 345.298 331.482 346.273L363.857 338.881Z" fill="white"/>
</g>
<path d="M345.806 333.06C345.851 333.213 346.654 333.105 347.548 333.439C348.441 333.773 349.01 334.342 349.145 334.242C349.28 334.143 348.829 333.286 347.737 332.907C346.645 332.527 345.706 332.925 345.806 333.06Z" fill="#3C3C3C"/>
<path d="M342.692 335.235C342.692 335.397 343.441 335.515 344.127 336.056C344.813 336.598 345.138 337.275 345.291 337.239C345.445 337.203 345.345 336.273 344.47 335.614C343.594 334.955 342.665 335.091 342.692 335.235Z" fill="#3C3C3C"/>
<path d="M341.69 339.748C341.843 339.748 341.889 338.908 341.284 338.132C340.679 337.356 339.858 337.185 339.822 337.329C339.786 337.473 340.354 337.834 340.833 338.475C341.311 339.116 341.537 339.766 341.69 339.748Z" fill="#3C3C3C"/>
<path d="M345.183 329.206C345.282 329.332 345.959 328.953 346.871 328.809C347.782 328.664 348.54 328.809 348.586 328.628C348.631 328.448 347.836 328.069 346.78 328.249C345.724 328.43 345.084 329.071 345.183 329.206Z" fill="#3C3C3C"/>
<path d="M305.344 120.292L289.234 176.901L301.887 179.374L310.245 150.835L305.344 120.292Z" fill="#F5F5F5"/>
<path d="M305.344 120.292C305.624 121.98 307.42 132.712 310.444 150.799V150.889C308.025 159.174 305.182 168.94 302.122 179.437L302.059 179.653L301.842 179.608L296.427 178.552L289.207 177.144L288.945 177.09L289.017 176.837C293.575 160.817 297.718 146.602 300.669 136.475C303.503 126.71 305.028 121.457 305.362 120.292C305.028 121.475 303.557 126.836 300.759 136.791C297.916 146.999 294.008 161.088 289.495 176.973L289.306 176.666L296.526 178.074L301.942 179.13L301.662 179.301C304.749 168.814 307.619 159.048 310.047 150.781V150.871C307.258 132.739 305.606 121.989 305.344 120.292Z" fill="#E0E0E0"/>
<path d="M378.505 217.461C378.505 217.461 377.341 222.209 370.517 223.129C349.957 225.9 337.746 241.487 337.746 241.487L343.098 224.122L362.9 210.322L375.536 214.302L378.505 217.461Z" fill="#E0E0E0"/>
<path d="M351.077 258.356C347.647 244.637 345.192 237.272 345.192 237.272C345.192 237.272 345.58 178.841 345.192 173.985C344.244 162.252 337.638 148.804 336.78 147.089L304.18 154.734L306.274 170.98L314.478 242.408L342.692 324.143L362.052 321.137C362.052 321.137 354.506 272.074 351.077 258.356Z" fill="#3C3C3C"/>
<path d="M320.534 82.8095L321.726 83.0803L333.82 85.788C333.82 85.788 336.392 116.655 336.825 120.509C337.258 124.363 331.897 132.089 331.897 132.089C331.897 132.089 336.825 135.085 338.152 138.948C339.479 142.811 338.152 149.382 338.152 149.382L330.76 155.916C327.751 158.599 324.147 160.526 320.245 161.539L304.902 165.501C304.902 165.501 303.097 131.827 298.431 118.334C295.308 109.308 303.846 89.9848 303.846 89.9848L314.406 82.7644" fill="#DD8D34"/>
<path d="M313.097 114.399C310.595 114.769 308.072 114.977 305.543 115.022C303.021 115.228 300.489 115.271 297.961 115.148C300.463 114.778 302.987 114.57 305.516 114.525C308.038 114.324 310.57 114.282 313.097 114.399Z" fill="white"/>
<path d="M315.317 131.547C313.122 132.011 310.896 132.312 308.657 132.45C306.43 132.738 304.186 132.868 301.942 132.838C304.139 132.372 306.369 132.07 308.612 131.935C310.834 131.644 313.076 131.514 315.317 131.547Z" fill="white"/>
<path d="M318.197 150.627C317.612 151.024 316.97 151.329 316.292 151.53C313.09 152.7 309.671 153.159 306.274 152.875C305.567 152.862 304.866 152.737 304.198 152.504C306.565 152.576 308.935 152.495 311.292 152.261C315.182 151.755 318.142 150.501 318.197 150.627Z" fill="white"/>
<path d="M300.75 72.8814C298.692 71.9246 297.402 69.8127 296.644 67.6736C295.885 65.5346 295.533 63.2511 294.694 61.1482C294.062 59.5687 294.757 57.0687 293.34 56.13C291.535 54.9567 291.589 51.8519 292.275 50.3085C293.015 48.6208 295.037 47.3662 295.172 46.8247C295.533 45.4257 294.27 43.9095 294.757 42.5286C295.822 39.2974 298.458 39.7216 298.458 39.7216C299.658 38.2685 301.283 36.3461 303.873 35.6601C306.734 34.9291 310.94 34.3785 313.485 35.8767C316.03 37.375 317.899 38.3678 318.72 41.2018" fill="#3C3C3C"/>
<path d="M322.736 45.164C323.459 45.2428 324.126 45.5896 324.605 46.136C325.085 46.6823 325.342 47.3885 325.327 48.1153L323.594 87.3221C323.522 91.9522 316.762 94.5426 311.806 94.4343C306.797 94.3169 306.644 91.862 306.581 87.4666C306.472 80.1108 306.481 77.3489 306.481 77.3941C306.481 77.4392 300.164 76.3291 298.873 68.0797C298.232 63.9731 298.449 57.2491 298.81 51.7526C299.126 46.8066 302.42 40.7415 307.348 41.274L322.736 45.164Z" fill="#D38D6E"/>
<path d="M300.416 57.3485C300.409 57.6279 300.512 57.8991 300.703 58.1034C300.893 58.3077 301.157 58.4288 301.436 58.4406C301.7 58.4633 301.963 58.3814 302.167 58.2126C302.371 58.0438 302.501 57.8016 302.528 57.538C302.531 57.2617 302.426 56.9951 302.236 56.7947C302.045 56.5943 301.785 56.4757 301.508 56.464C301.247 56.441 300.987 56.5204 300.784 56.6854C300.58 56.8504 300.448 57.0882 300.416 57.3485Z" fill="#3C3C3C"/>
<path d="M300.254 55.2184C300.389 55.3628 301.156 54.7672 302.33 54.7762C303.503 54.7852 304.297 55.3538 304.424 55.2094C304.55 55.065 304.351 54.9025 303.99 54.6318C303.498 54.2891 302.911 54.1092 302.312 54.1173C301.72 54.1145 301.142 54.2976 300.66 54.6408C300.317 54.9116 300.191 55.1553 300.254 55.2184Z" fill="#3C3C3C"/>
<path d="M311.418 57.3484C311.411 57.6235 311.51 57.8908 311.695 58.0943C311.88 58.2979 312.137 58.422 312.411 58.4405C312.676 58.4656 312.939 58.3847 313.144 58.2154C313.349 58.0462 313.478 57.8025 313.503 57.538C313.506 57.2616 313.401 56.9951 313.211 56.7946C313.02 56.5942 312.76 56.4756 312.483 56.4639C312.227 56.4482 311.974 56.5309 311.776 56.6953C311.578 56.8596 311.45 57.0932 311.418 57.3484Z" fill="#3C3C3C"/>
<path d="M311.445 55.453C311.572 55.5974 312.348 55.0018 313.512 55.0108C314.677 55.0198 315.489 55.5884 315.615 55.444C315.742 55.2996 315.543 55.1371 315.173 54.8754C314.685 54.5297 314.101 54.3465 313.503 54.3519C312.911 54.3473 312.333 54.5305 311.852 54.8754C311.509 55.1462 311.382 55.3989 311.445 55.453Z" fill="#3C3C3C"/>
<path d="M307.294 63.8559C306.695 63.6607 306.073 63.5454 305.444 63.5129C305.155 63.5129 304.884 63.4227 304.83 63.2241C304.799 62.9098 304.868 62.5937 305.028 62.3216C305.308 61.6176 305.588 60.8865 305.931 60.1103C306.731 58.2368 307.38 56.3022 307.871 54.325C306.923 56.1296 306.121 58.0068 305.471 59.9388C305.182 60.715 304.902 61.4551 304.64 62.1681C304.459 62.5181 304.405 62.9199 304.487 63.3053C304.528 63.4084 304.593 63.5004 304.676 63.5741C304.759 63.6477 304.858 63.7009 304.965 63.7295C305.127 63.7725 305.294 63.7967 305.462 63.8017C306.068 63.8934 306.683 63.9116 307.294 63.8559Z" fill="#3C3C3C"/>
<path d="M306.481 77.3941C310.364 77.4615 314.188 76.4492 317.529 74.4698C317.529 74.4698 314.731 80.2823 306.481 79.4971V77.3941Z" fill="#B26746"/>
<path d="M307.772 66.6356C307.985 66.368 308.262 66.1583 308.578 66.0258C308.893 65.8934 309.237 65.8423 309.577 65.8775C309.828 65.9003 310.072 65.9737 310.294 66.0931C310.515 66.2125 310.711 66.3756 310.868 66.5725C311.02 66.762 311.109 66.994 311.124 67.2365C311.138 67.479 311.077 67.72 310.949 67.9263C310.767 68.1309 310.528 68.2763 310.263 68.3439C309.997 68.4115 309.718 68.398 309.46 68.3054C308.921 68.103 308.427 67.7963 308.007 67.4028C307.881 67.3101 307.771 67.1972 307.682 67.0689C307.642 67.0054 307.62 66.9318 307.62 66.8568C307.62 66.7817 307.642 66.7081 307.682 66.6447" fill="#B26746"/>
<path d="M310.606 64.6862C310.426 64.6862 310.417 65.9047 309.361 66.7801C308.305 67.6556 306.987 67.5202 306.978 67.6827C306.969 67.8452 307.267 67.9174 307.826 67.9354C308.548 67.9452 309.25 67.7026 309.812 67.2495C310.085 67.0286 310.312 66.755 310.478 66.4449C310.644 66.1348 310.746 65.7946 310.778 65.4444C310.868 64.9841 310.723 64.6772 310.606 64.6862Z" fill="#3C3C3C"/>
<path d="M311.012 51.6714C311.121 51.9783 312.258 51.8339 313.594 51.9964C314.929 52.1588 316.003 52.5289 316.184 52.2491C316.265 52.1227 316.076 51.8339 315.642 51.527C315.064 51.1527 314.405 50.9207 313.72 50.8501C313.037 50.7649 312.344 50.8454 311.698 51.0848C311.211 51.2833 310.958 51.527 311.012 51.6714Z" fill="#3C3C3C"/>
<path d="M300.028 52.1226C300.227 52.3844 301.012 52.1226 301.96 52.1226C302.907 52.1226 303.702 52.3031 303.882 52.0324C303.963 51.906 303.837 51.6443 303.494 51.4006C303.027 51.0984 302.479 50.9471 301.924 50.9674C301.369 50.9726 300.831 51.1561 300.389 51.4909C300.055 51.7255 299.947 51.9873 300.028 52.1226Z" fill="#3C3C3C"/>
<path d="M318.206 40.6242C318.21 41.4527 318.032 42.2719 317.683 43.0236C317.334 43.7752 316.824 44.4407 316.189 44.9725C315.554 45.5043 314.809 45.8895 314.008 46.1004C313.206 46.3114 312.369 46.343 311.554 46.1929C310.29 45.9673 308.909 45.2904 307.817 46.0034C306.725 46.7164 306.626 48.4312 305.606 49.3157C304.153 50.5793 301.842 49.397 300.001 49.9475C298.575 50.3627 297.682 51.7526 296.734 52.8718C295.786 53.991 294.369 55.1101 292.943 54.6769C292.982 53.3923 293.173 52.1169 293.512 50.8771C293.85 49.6263 294.613 48.5319 295.669 47.7814C296.256 47.3933 296.941 47.1586 297.474 46.7164C298.656 45.7597 298.927 44.099 299.658 42.7632C300.14 41.9066 300.818 41.1767 301.637 40.6337C302.456 40.0908 303.393 39.7503 304.369 39.6404C305.994 39.4779 307.664 39.9653 309.243 39.5592C310.417 39.2703 311.436 38.5122 312.619 38.2866C314.929 37.8443 317.068 39.505 318.747 41.1476" fill="#3C3C3C"/>
<path d="M322.547 58.4947C322.744 58.5724 322.908 58.7171 323.009 58.9033C323.11 59.0895 323.142 59.3054 323.1 59.5131C323.058 59.7208 322.945 59.9071 322.779 60.0394C322.614 60.1717 322.407 60.2415 322.195 60.2366C319.424 60.8684 319.063 55.4531 319.677 53.9188C318.642 53.0575 317.718 52.0724 316.924 50.9855C316.042 49.2516 315.604 47.3255 315.651 45.3806C314.65 45.4438 310.399 44.0358 310.85 43.9095C311.888 43.6116 314 42.9437 314.559 42.0412C315.116 41.077 315.917 40.2771 316.883 39.7224C317.848 39.1677 318.943 38.8778 320.056 38.8823C321.178 38.9725 322.241 39.4227 323.087 40.1659C323.932 40.9091 324.516 41.9056 324.749 43.0069C326.098 43.0535 327.409 43.4639 328.543 44.1948C329.678 44.9257 330.593 45.9498 331.193 47.1586C331.821 48.4286 332.128 49.8332 332.087 51.2493C332.046 52.6655 331.659 54.05 330.959 55.2816C330.513 55.8638 330.224 56.5505 330.119 57.2762C330.119 58.1788 330.787 58.9189 331.266 59.677C331.869 60.7688 332.201 61.9892 332.236 63.236C332.271 64.4828 332.006 65.7198 331.464 66.8433C330.453 69.0997 329.74 69.8849 328.305 70.3452C325.489 71.2477 328.756 77.015 324.072 77.015" fill="#3C3C3C"/>
<path d="M322.439 60.7601C322.454 60.3552 322.572 59.9608 322.781 59.6134C322.989 59.266 323.282 58.9768 323.632 58.7726C323.982 58.5683 324.378 58.4556 324.783 58.4449C325.188 58.4342 325.589 58.5258 325.95 58.7113C326.78 59.1987 327.421 60.1644 327.339 62.0327C327.141 66.9967 322.195 65.7693 322.186 65.6429C322.177 65.5165 322.339 62.8179 322.439 60.7601Z" fill="#D38D6E"/>
<path d="M323.792 63.8017C323.792 63.8017 323.874 63.8739 324.018 63.9461C324.227 64.0268 324.459 64.0268 324.668 63.9461C324.997 63.7571 325.27 63.4833 325.457 63.153C325.644 62.8228 325.74 62.4484 325.733 62.0688C325.765 61.6417 325.7 61.2129 325.543 60.8142C325.504 60.6575 325.426 60.513 325.318 60.3934C325.209 60.2737 325.073 60.1827 324.921 60.1283C324.823 60.0961 324.717 60.1002 324.623 60.1401C324.528 60.1799 324.451 60.2527 324.406 60.3449C324.334 60.4803 324.361 60.5796 324.334 60.5886C324.307 60.5976 324.226 60.4983 324.28 60.2998C324.307 60.1745 324.381 60.0646 324.487 59.9929C324.627 59.8957 324.798 59.8568 324.966 59.8846C325.174 59.9284 325.368 60.0266 325.526 60.1693C325.685 60.3119 325.803 60.494 325.868 60.6969C326.063 61.133 326.147 61.6105 326.112 62.0868C326.119 62.5308 325.995 62.9669 325.754 63.3398C325.513 63.7126 325.166 64.0054 324.758 64.1808C324.624 64.216 324.483 64.2197 324.346 64.1915C324.21 64.1633 324.082 64.104 323.973 64.0183C323.801 63.928 323.774 63.8558 323.792 63.8017Z" fill="#B26746"/>
<path d="M329.812 56.8972C329.812 56.8972 329.975 56.6264 330.21 56.103C330.525 55.3745 330.675 54.5857 330.652 53.7924C330.62 52.6193 330.164 51.4974 329.37 50.6335C328.92 50.122 328.37 49.7075 327.755 49.4151C327.076 49.1199 326.347 48.9575 325.607 48.9367C324.072 48.8645 322.574 49.0992 321.193 48.9367C319.972 48.8059 318.809 48.3475 317.827 47.61C317.167 47.1176 316.607 46.5052 316.175 45.8049C316.002 45.5582 315.874 45.2833 315.796 44.9926C316.357 45.9324 317.1 46.7515 317.98 47.4024C318.939 48.0839 320.059 48.5039 321.229 48.6208C322.556 48.7652 324.036 48.5215 325.625 48.6208C326.412 48.6426 327.187 48.8174 327.908 49.1353C328.574 49.4407 329.168 49.8836 329.65 50.4349C330.343 51.2087 330.783 52.1759 330.91 53.2069C331.038 54.2378 330.847 55.283 330.363 56.2022C330.23 56.4698 330.043 56.7065 329.812 56.8972Z" fill="#455A64"/>
<path d="M329.812 45.8861C329.193 45.5199 328.492 45.3151 327.773 45.2904C326.997 45.2833 326.227 45.4147 325.498 45.6785C324.659 45.9493 323.765 46.3645 322.791 46.6804C321.842 47.0018 320.829 47.0885 319.839 46.9331C319.03 46.7912 318.259 46.4839 317.574 46.0305C317.116 45.7358 316.705 45.3737 316.355 44.9565C316.215 44.8145 316.104 44.6457 316.031 44.4601C316.533 44.9607 317.083 45.4111 317.673 45.8049C318.348 46.1929 319.088 46.453 319.857 46.5721C320.796 46.6938 321.75 46.5981 322.646 46.2923C323.621 45.9944 324.524 45.5792 325.354 45.3175C326.127 45.0613 326.941 44.9511 327.755 44.9926C328.307 45.0291 328.844 45.1895 329.325 45.4619C329.686 45.6966 329.821 45.8681 329.812 45.8861Z" fill="#455A64"/>
<path d="M296.445 42.0051C296.601 42.2921 296.792 42.5589 297.014 42.7994C297.34 43.0923 297.723 43.3155 298.139 43.4552C298.555 43.5948 298.995 43.6481 299.433 43.6117C300.739 43.4355 301.946 42.8176 302.853 41.8607C303.972 40.8769 305.064 39.5321 306.716 38.7379C307.522 38.3548 308.423 38.2167 309.306 38.3408C310.121 38.4741 310.897 38.782 311.581 39.2433C312.725 40.0058 313.656 41.0461 314.288 42.2669C314.725 43.0651 315.103 43.8948 315.417 44.7489C315.555 45.0551 315.658 45.3761 315.724 45.7056C315.547 45.4198 315.399 45.1176 315.281 44.803C314.92 43.9777 314.514 43.1732 314.063 42.3932C313.427 41.2206 312.513 40.2225 311.4 39.487C310.753 39.0702 310.023 38.7963 309.261 38.6837C308.444 38.5766 307.613 38.7082 306.87 39.0628C305.326 39.7939 304.234 41.1026 303.088 42.0954C302.127 43.0928 300.852 43.73 299.478 43.9005C299.01 43.9231 298.542 43.8472 298.105 43.6777C297.668 43.5083 297.272 43.249 296.941 42.9167C296.769 42.7308 296.634 42.5132 296.544 42.2759C296.494 42.193 296.46 42.101 296.445 42.0051Z" fill="#455A64"/>
<path d="M313.603 37.0411C314 37.2635 314.342 37.5719 314.604 37.9437C315.286 38.8084 315.76 39.8175 315.992 40.8937C316.223 41.9699 316.206 43.0849 315.94 44.1532C315.86 44.6008 315.678 45.0239 315.408 45.3897C315.469 44.951 315.56 44.5168 315.678 44.0901C315.867 43.0557 315.848 41.9944 315.624 40.9672C315.398 39.9407 314.979 38.9666 314.388 38.0971C314.105 37.7612 313.843 37.4086 313.603 37.0411Z" fill="#455A64"/>
<path d="M232.49 31.2377C232.49 31.2377 225.694 34.171 226.254 39.451C226.656 42.8771 227.4 46.2544 228.474 49.5325C228.474 49.5325 217.797 41.4095 207.354 44.6948L207.291 47.1136C207.291 47.1136 214.782 46.2111 221.199 49.7491C227.617 53.2871 236.028 65.995 236.028 65.995L257.121 56.5272L252.13 48.4043C252.13 48.4043 252.834 40.6875 252.951 38.5394C253.123 35.2541 249.079 22.5462 232.49 31.2377ZM250.243 36.5808C250.46 38.4582 248.872 41.2831 248.872 41.2831L246.66 36.1115L229.909 41.8969C229.909 41.8969 226.894 36.8967 233.014 33.6295C236.624 31.7071 240.55 31.5175 243.113 31.4002C244.304 31.3213 245.496 31.5438 246.578 32.047C247.66 32.5502 248.598 33.318 249.305 34.2793C249.805 34.9559 250.128 35.7472 250.243 36.5808Z" fill="#DD8D34"/>
<path d="M252.843 27.8259L243.709 27.4198L236.218 30.669C236.218 30.669 236.561 31.8423 237.274 31.752C238.703 31.4591 240.109 31.0609 241.48 30.5607L239.088 32.6546L238.989 34.1889C238.989 34.1889 241.344 37.0681 241.76 36.7612C242.114 36.371 242.393 35.918 242.581 35.4254L244.223 37.7811H246.787L247.96 36.2016L249.233 37.2125C249.233 37.2125 252.437 40.1097 254.269 39.4418C255.334 39.0537 257.283 43.8372 257.283 43.8372L264.197 39.4869L259.549 33.7467L252.843 27.8259Z" fill="#D38D6E"/>
<path d="M249.63 30.6962C249.114 30.8455 248.578 30.9185 248.041 30.9128L246.335 31.0121C246.029 31.0247 245.726 31.0763 245.433 31.1655C245.122 31.3258 244.821 31.5036 244.53 31.698C243.917 32.1042 243.348 32.5284 242.843 32.9255C242.337 33.3226 241.94 33.6566 242.057 34.0898C242.31 34.9923 242.725 35.4707 242.653 35.5158C242.581 35.5609 242.102 35.1638 241.75 34.18C241.697 34.0301 241.681 33.8692 241.705 33.7118C241.728 33.5543 241.791 33.4051 241.886 33.2775C242.09 33.0224 242.323 32.7921 242.581 32.5915C243.122 32.1293 243.692 31.7013 244.287 31.3099C244.6 31.0868 244.936 30.8963 245.288 30.7413C245.632 30.6284 245.992 30.5735 246.353 30.5789H248.095C248.61 30.5347 249.128 30.5744 249.63 30.6962Z" fill="#B26746"/>
<path d="M246.787 37.8623C246.724 37.8623 246.958 37.375 247.346 36.698C247.446 36.5266 247.545 36.337 247.644 36.1385C247.686 36.0527 247.717 35.9616 247.734 35.8677C247.734 35.8677 247.734 35.8677 247.734 35.8135C247.716 35.7741 247.691 35.7377 247.662 35.7052C247.472 35.5666 247.243 35.4919 247.008 35.4919C246.773 35.4919 246.543 35.5666 246.353 35.7052L245.974 35.8948L245.686 36.0392L245.613 35.7052L245.424 34.8027C245.352 34.5319 245.216 34.3243 245.072 34.2882L244.449 34.1619L245.027 33.9001C245.595 33.6384 246.074 33.4308 246.417 33.3045C246.554 33.2478 246.696 33.2025 246.841 33.1691C246.958 33.1691 247.012 33.1691 247.003 33.2322C246.839 33.3195 246.679 33.4159 246.525 33.5211C246.218 33.7196 245.758 33.9723 245.207 34.2792L245.162 33.8821C245.337 33.9382 245.495 34.0395 245.618 34.1758C245.742 34.312 245.827 34.4785 245.866 34.6583C245.947 34.9922 246.02 35.3171 246.101 35.6601L245.74 35.4706L246.146 35.263C246.443 35.1142 246.77 35.0369 247.103 35.0373C247.273 35.0409 247.442 35.0796 247.597 35.1511C247.752 35.2225 247.891 35.3251 248.005 35.4525C248.061 35.5137 248.107 35.5839 248.141 35.6601C248.162 35.6974 248.18 35.7367 248.195 35.7774C248.208 35.8399 248.208 35.9045 248.195 35.967C248.166 36.1069 248.114 36.2411 248.041 36.3641C247.931 36.56 247.811 36.7498 247.68 36.9327C247.166 37.5284 246.841 37.8894 246.787 37.8623Z" fill="#B26746"/>
<path d="M249.233 28.7376C247.571 28.9728 245.891 29.0544 244.214 28.9813L244.386 28.9182C244.223 29.0626 244.061 29.207 243.889 29.3424C242.662 30.3261 241.516 31.1475 240.685 31.7431C240.257 32.1031 239.784 32.4065 239.277 32.6457C239.169 32.5193 241.137 30.9038 243.574 28.9813L244.052 28.5842L244.124 28.512H244.214C245.891 28.4384 247.57 28.5139 249.233 28.7376Z" fill="#B26746"/>
<path d="M204.385 47.1586C200.942 47.2326 197.585 48.2429 194.674 50.0811C191.762 51.9193 189.406 54.516 187.859 57.5921C187.066 58.9745 186.749 60.579 186.957 62.159C187.282 63.7024 188.68 65.1104 190.251 64.957C190.793 64.8618 191.312 64.6605 191.776 64.3647C192.241 64.0689 192.643 63.6844 192.959 63.2331C195.052 60.6698 195.865 57.3304 197.101 54.2076C198.338 51.0847 200.35 48.007 203.527 47.0955" fill="#F5F5F5"/>
<path d="M204.638 61.6357C204.338 60.6399 203.97 59.6658 203.536 58.7204C202.862 57.0453 202.398 55.293 202.156 53.5037L201.722 53.9098C199.864 56.4766 199.066 59.6602 199.493 62.7999C199.57 63.5531 199.803 64.2818 200.179 64.939C200.37 65.2669 200.631 65.549 200.943 65.7657C201.255 65.9824 201.61 66.1284 201.984 66.1935C202.504 66.2312 203.023 66.1075 203.471 65.8394C203.918 65.5713 204.272 65.1718 204.484 64.6953C204.89 63.7245 204.945 62.6422 204.638 61.6357Z" fill="#F5F5F5"/>
<path d="M195.323 69.0815C194.194 69.7446 193.179 70.5858 192.318 71.5726C191.891 72.0733 191.592 72.6696 191.446 73.3108C191.3 73.952 191.311 74.619 191.478 75.255C191.68 75.8766 192.116 76.3947 192.695 76.6984C193.274 77.002 193.948 77.0671 194.574 76.8796C195.946 76.302 196.235 74.4878 195.991 73.0257C195.747 71.5636 195.17 70.0834 195.558 68.6483" fill="#F5F5F5"/>
<path d="M341.473 147.089L334.876 130.645L336.97 122.72L333.775 85.8239L325.327 80.7335L324.921 77.4482L322.601 77.8363L318.729 81.3292L286.788 67.114L265.912 38.3407L255.984 44.2975L275.154 80.6433L311.355 101.303L311.283 101.546C311.608 101.736 327.258 231.622 333.955 232.01C340.652 232.398 352.123 215.385 365.662 214.988C374.426 214.735 377.476 216.324 378.55 217.461C373.848 208.598 342.195 148.362 341.473 147.089Z" fill="#F5F5F5"/>
<path d="M341.473 147.089C341.473 147.089 341.708 147.504 342.15 148.317L344.082 151.927L351.492 165.907C357.918 178.065 367.196 195.646 378.658 217.353L379.218 218.409L378.37 217.551C377.302 216.619 376.001 215.995 374.606 215.746C373.177 215.434 371.725 215.241 370.265 215.169C367.313 215.051 364.236 214.934 361.239 215.818C358.245 216.776 355.414 218.185 352.846 219.997C350.138 221.802 347.611 223.806 345.029 225.891C343.73 226.938 342.421 227.994 341.058 229.005C339.701 230.067 338.23 230.975 336.672 231.712C335.856 232.084 334.969 232.278 334.072 232.281C333.805 232.274 333.549 232.172 333.35 231.992C333.183 231.829 333.034 231.647 332.908 231.451C332.663 231.077 332.449 230.685 332.267 230.277C331.578 228.648 331.008 226.971 330.562 225.259C328.693 218.418 327.348 211.261 325.995 203.932C323.359 189.256 321.022 173.814 318.711 157.802C316.401 141.791 314.198 125.211 311.987 108.234C311.834 107.133 311.689 106.032 311.545 104.931L311.319 103.279L311.202 102.458L311.139 102.052V101.853V101.754V101.709C311.159 101.752 311.194 101.788 311.238 101.808L311.13 101.519L311.202 101.276L311.319 101.555L275.118 80.896H275.055V80.8328L255.803 44.3968L255.704 44.2073L255.893 44.099L265.822 38.1511L266.002 38.0428L266.119 38.2143L286.959 66.9967L286.878 66.9245L318.837 81.1668L318.585 81.3653V81.266L318.657 81.1938L322.502 77.6649H322.556L324.875 77.2858H325.047V77.4663L325.444 80.7426L325.363 80.6252L333.811 85.7156L333.901 85.842C335.165 100.707 336.221 113.126 337.033 122.747V122.792C336.13 126.051 335.517 128.488 334.93 130.708V130.654C337.042 135.979 338.657 140.04 339.75 142.802C340.842 145.564 341.41 147.035 341.446 147.161L341.374 147.044L341.437 147.161L341.365 147.044L341.428 147.161C341.365 147.044 340.76 145.591 339.623 142.838L334.794 130.645V130.59C335.372 128.361 336.013 125.924 336.861 122.666C336.013 113.045 334.921 100.626 333.621 85.7698L333.702 85.9052L325.245 80.8238H325.173V80.7426L324.767 77.4573L324.966 77.6107L322.646 77.9988H322.736L318.901 81.5368L318.955 81.3653L319.027 81.6993L318.711 81.5639L286.707 67.3036H286.652L265.731 38.4761L266.029 38.5392L256.101 44.4871L256.182 44.1892L275.407 80.5259L275.307 80.4357L311.509 101.086L311.68 101.185L311.617 101.375L311.545 101.619L311.427 101.339C311.483 101.375 311.524 101.429 311.545 101.492V101.546V101.601V101.709V101.916L311.608 102.332L311.725 103.162L311.951 104.814C312.095 105.915 312.24 107.016 312.393 108.117C314.613 125.094 316.816 141.674 319.108 157.685C321.401 173.696 323.738 189.13 326.329 203.796C327.673 211.116 329.036 218.237 330.841 225.088C331.284 226.777 331.845 228.432 332.52 230.043C332.691 230.429 332.893 230.8 333.125 231.153C333.359 231.487 333.63 231.83 333.955 231.794C334.791 231.795 335.616 231.613 336.374 231.261C337.902 230.549 339.347 229.668 340.679 228.635C342.033 227.624 343.333 226.577 344.632 225.53C347.223 223.445 349.795 221.396 352.494 219.627C355.147 217.807 358.067 216.41 361.149 215.484C362.639 215.06 364.176 214.82 365.725 214.771C367.25 214.771 368.758 214.771 370.238 214.835C371.737 214.924 373.225 215.142 374.687 215.484C376.15 215.736 377.514 216.385 378.631 217.362L378.343 217.569C366.943 195.827 357.71 178.227 351.32 166.052L344.001 151.999C343.17 150.392 342.529 149.174 342.105 148.389C341.681 147.604 341.473 147.089 341.473 147.089Z" fill="#E0E0E0"/>
<path d="M323.774 106.348C323.065 106.486 322.331 106.391 321.68 106.077C320.087 105.52 318.529 104.866 317.014 104.119C315.209 103.216 313.648 102.449 312.502 101.871C311.866 101.606 311.261 101.273 310.696 100.879C311.385 101.016 312.053 101.244 312.682 101.555C313.882 102.052 315.498 102.819 317.276 103.676C319.054 104.534 320.661 105.265 321.852 105.752C322.475 106.004 323.118 106.203 323.774 106.348Z" fill="#3C3C3C"/>
<path d="M332.024 94.353C331.905 93.3869 331.73 92.4286 331.5 91.4829C330.831 89.2399 329.426 87.2877 327.511 85.9413C325.534 84.66 323.468 83.5229 321.328 82.5386C320.421 82.1462 319.563 81.6462 318.774 81.0494C319.697 81.3931 320.6 81.7847 321.482 82.2228C323.69 83.1234 325.806 84.2357 327.8 85.5441C329.804 86.9447 331.237 89.0213 331.834 91.3927C332.017 92.1 332.108 92.8281 332.105 93.5588C332.123 93.8262 332.096 94.0949 332.024 94.353Z" fill="#3C3C3C"/>
<path d="M332.953 138.361C332.918 136.988 333.082 135.617 333.441 134.291C333.644 132.935 334.051 131.617 334.65 130.383C334.524 131.74 334.279 133.084 333.919 134.399C333.724 135.748 333.401 137.075 332.953 138.361Z" fill="#3C3C3C"/>
<path d="M338.748 156.133C338.426 156.719 337.983 157.23 337.448 157.631C336.213 158.684 334.757 159.446 333.188 159.86C331.617 160.274 329.974 160.333 328.377 160.032C327.714 159.949 327.077 159.724 326.509 159.373C326.509 159.292 327.249 159.535 328.441 159.689C331.562 160.085 334.715 159.25 337.231 157.36C338.188 156.638 338.685 156.07 338.748 156.133Z" fill="#3C3C3C"/>
<path d="M365.662 204.997C365.249 205.111 364.826 205.181 364.398 205.204C363.992 205.259 363.496 205.304 362.909 205.331C362.322 205.358 361.663 205.403 360.932 205.385C359.208 205.389 357.486 205.268 355.779 205.024C351.59 204.43 347.529 203.149 343.757 201.233C342.219 200.454 340.738 199.568 339.325 198.58C338.712 198.174 338.206 197.749 337.737 197.397C337.268 197.045 336.897 196.72 336.591 196.441C336.26 196.171 335.958 195.868 335.688 195.538C335.742 195.466 337.105 196.666 339.533 198.246C340.956 199.183 342.436 200.03 343.964 200.782C347.715 202.631 351.727 203.894 355.86 204.528C357.543 204.785 359.24 204.942 360.941 204.997C363.857 205.114 365.662 204.907 365.662 204.997Z" fill="#3C3C3C"/>
<path d="M378.722 217.614C378.722 217.614 378.595 217.542 378.388 217.38C378.106 217.121 377.805 216.886 377.485 216.676C376.28 215.915 374.947 215.38 373.55 215.096C371.473 214.67 369.347 214.533 367.232 214.69C364.64 214.839 362.081 215.34 359.624 216.179C354.353 217.985 350.427 221.261 347.656 223.571L344.398 226.405C344.018 226.774 343.607 227.109 343.17 227.407C343.506 226.997 343.874 226.613 344.271 226.261C345.002 225.548 346.076 224.528 347.43 223.31C349.024 221.878 350.699 220.54 352.448 219.302C354.602 217.77 356.963 216.554 359.461 215.692C361.961 214.839 364.567 214.341 367.205 214.212C369.358 214.071 371.52 214.247 373.622 214.735C375.046 215.055 376.393 215.653 377.584 216.495C377.912 216.725 378.214 216.988 378.487 217.281C378.649 217.497 378.74 217.605 378.722 217.614Z" fill="#3C3C3C"/>
<path d="M344.47 172.938C344.47 172.938 344.47 173.037 344.353 173.209C344.213 173.455 344.056 173.69 343.883 173.913C343.226 174.74 342.409 175.428 341.482 175.935C340.103 176.689 338.538 177.033 336.97 176.927C335.037 176.736 333.222 175.911 331.807 174.581C330.395 173.288 329.283 171.701 328.549 169.933C327.956 168.504 327.508 167.02 327.213 165.501C326.96 164.211 326.816 163.164 326.726 162.442C326.657 162.066 326.627 161.685 326.635 161.304C326.769 161.66 326.863 162.029 326.915 162.405C327.06 163.118 327.258 164.165 327.556 165.429C327.892 166.91 328.363 168.357 328.964 169.752C329.692 171.449 330.772 172.972 332.132 174.22C333.472 175.476 335.181 176.267 337.006 176.476C338.502 176.601 340.003 176.304 341.338 175.619C342.561 174.959 343.629 174.045 344.47 172.938Z" fill="#3C3C3C"/>
<path d="M280.993 187.839L263.881 407.52L275 407.322L294.252 187.695L280.993 187.839Z" fill="#455A64"/>
<path d="M297.772 187.659L284.739 187.839L349.614 407.268H362.413L297.772 187.659Z" fill="#455A64"/>
<path d="M282.022 288.916H317.953L320.958 297.463H279.585L282.022 288.916Z" fill="#455A64"/>
<path d="M290.858 182.487L280.262 183.661L273.791 187.713C273.791 187.713 273.665 189.031 275.506 188.823L279.116 187.28L276.228 190.439C276.343 190.625 276.497 190.785 276.679 190.907C276.86 191.03 277.066 191.112 277.282 191.149C277.498 191.185 277.719 191.176 277.931 191.12C278.143 191.065 278.341 190.965 278.511 190.827C279.501 190.255 280.374 189.502 281.084 188.607L287.456 188.155C287.456 188.155 282.636 192.785 283.521 193.995C284.405 195.204 284.983 194.942 285.678 194.5C286.373 194.058 286.752 192.533 288.34 192.027C289.929 191.522 292.546 190.042 295.38 188.697C297.817 187.542 300.299 179.274 300.299 179.274L292.176 177.686L290.858 182.487Z" fill="#D38D6E"/>
<path d="M286.643 185.195C284.666 185.734 282.651 186.12 280.614 186.35H280.524L280.659 186.278C279.31 187.78 277.84 189.168 276.264 190.43C277.489 188.82 278.841 187.311 280.307 185.917L280.371 185.854H280.542C282.555 185.47 284.595 185.249 286.643 185.195Z" fill="#B26746"/>
<path d="M381.538 407.268C381.538 407.403 296.219 407.52 191 407.52C85.7806 407.52 0.444336 407.403 0.444336 407.268C0.444336 407.132 85.7445 407.024 191 407.024C296.256 407.024 381.538 407.132 381.538 407.268Z" fill="#3C3C3C"/>
</svg>
