<svg width="66" height="66" viewBox="0 0 66 66" fill="none" xmlns="http://www.w3.org/2000/svg">
<circle cx="33" cy="33" r="33" fill="#7A5E40"/>
<path d="M46.4168 30.1481H43.5452C43.7787 30.9886 43.8954 31.8291 43.8954 32.6695C43.8954 34.0703 43.6269 35.4011 43.0899 36.6618C42.553 37.9226 41.8175 39.0199 40.8837 39.9537C39.9498 40.8876 38.8525 41.623 37.5918 42.16C36.3311 42.697 35.0003 42.9654 33.5995 42.9654C32.1987 42.9654 30.8796 42.697 29.6422 42.16C28.4049 41.623 27.3192 40.8876 26.3854 39.9537C25.4515 39.0199 24.7161 37.9226 24.1791 36.6618C23.6421 35.4011 23.3737 34.0703 23.3737 32.6695C23.3737 31.8291 23.4904 30.9886 23.7239 30.1481H20.7822V44.2262C20.7822 44.5997 20.9106 44.9032 21.1674 45.1367C21.4242 45.3702 21.7394 45.4869 22.1129 45.4869H45.1561C45.5297 45.4869 45.8332 45.3702 46.0666 45.1367C46.3001 44.9032 46.4168 44.5997 46.4168 44.2262V30.1481ZM46.4168 21.183C46.4168 20.8094 46.3001 20.4942 46.0666 20.2374C45.8332 19.9806 45.5297 19.8522 45.1561 19.8522H41.3039C40.9304 19.8522 40.6269 19.9806 40.3934 20.2374C40.1599 20.4942 40.0432 20.8094 40.0432 21.183V24.9651C40.0432 25.3387 40.1599 25.6539 40.3934 25.9107C40.6269 26.1675 40.9304 26.2959 41.3039 26.2959H45.1561C45.5297 26.2959 45.8332 26.1675 46.0666 25.9107C46.3001 25.6539 46.4168 25.3387 46.4168 24.9651V21.183ZM33.5995 26.2959C31.8252 26.2959 30.3193 26.9146 29.0819 28.152C27.8445 29.3893 27.2259 30.8952 27.2259 32.6695C27.2259 33.5567 27.3893 34.3972 27.7161 35.191C28.043 35.9848 28.4983 36.6735 29.0819 37.2572C29.6656 37.8408 30.3426 38.2961 31.1131 38.623C31.8835 38.9498 32.7123 39.1132 33.5995 39.1132C34.4867 39.1132 35.3272 38.9498 36.121 38.623C36.9147 38.2961 37.6035 37.8408 38.1871 37.2572C38.7708 36.6735 39.2261 35.9848 39.5529 35.191C39.8798 34.3972 40.0432 33.5567 40.0432 32.6695C40.0432 31.7824 39.8798 30.9536 39.5529 30.1831C39.2261 29.4127 38.7708 28.7356 38.1871 28.152C37.6035 27.5683 36.9147 27.113 36.121 26.7862C35.3272 26.4593 34.4867 26.2959 33.5995 26.2959ZM20.7822 49.3391C19.7082 49.3391 18.8094 48.9655 18.0856 48.2185C17.3619 47.4714 17 46.5608 17 45.4869V19.8522C17 18.7783 17.3619 17.8677 18.0856 17.1206C18.8094 16.3735 19.7082 16 20.7822 16H46.4168C47.4908 16 48.4013 16.3735 49.1484 17.1206C49.8955 17.8677 50.2691 18.7783 50.2691 19.8522V45.4869C50.2691 46.5608 49.8955 47.4714 49.1484 48.2185C48.4013 48.9655 47.4908 49.3391 46.4168 49.3391H20.7822Z" fill="#FAE5CE"/>
</svg>
