<svg width="66" height="66" viewBox="0 0 66 66" fill="none" xmlns="http://www.w3.org/2000/svg">
<circle cx="33" cy="33" r="33" fill="#7A5E40"/>
<path d="M52.6154 22.737C51.4735 24.3978 50.15 25.7473 48.6449 26.7854V27.8753C48.6449 30.4704 48.1518 33.1045 47.1656 35.7774C46.1795 38.4504 44.7392 40.8639 42.8448 43.0178C40.9503 45.1718 38.6017 46.9365 35.799 48.3119C32.9963 49.6873 29.7783 50.375 26.1452 50.375C23.8615 50.375 21.7075 50.0636 19.6833 49.4408C17.6591 48.8179 15.7647 47.9356 14 46.7937C14.3114 46.8456 14.6228 46.8846 14.9342 46.9105C15.2457 46.9365 15.5571 46.9494 15.8685 46.9494C17.737 46.9494 19.5146 46.638 21.2015 46.0152C22.8883 45.3924 24.4064 44.5619 25.7559 43.5239C23.9912 43.472 22.4471 42.94 21.1236 41.9279C19.8001 40.9158 18.8788 39.6052 18.3598 37.9963C18.6193 38.1001 18.8658 38.152 19.0994 38.152H19.839C20.5657 38.152 21.2404 38.0741 21.8632 37.9184C20.0466 37.5032 18.5415 36.5819 17.3477 35.1546C16.1539 33.7273 15.5571 32.0535 15.5571 30.1331V30.0552C16.128 30.3147 16.6989 30.5353 17.2699 30.717C17.8408 30.8986 18.4636 30.9895 19.1383 30.9895C18.1003 30.2628 17.2569 29.3286 16.6081 28.1867C15.9593 27.0449 15.6349 25.7992 15.6349 24.4498C15.6349 22.9965 15.9982 21.673 16.7249 20.4792C18.6972 22.8667 21.0847 24.8001 23.8874 26.2793C26.6901 27.7585 29.7264 28.576 32.9963 28.7317C32.8406 28.1089 32.7627 27.512 32.7627 26.9411C32.7627 25.8511 32.9703 24.826 33.3855 23.8658C33.8008 22.9057 34.3717 22.0622 35.0983 21.3356C35.825 20.609 36.6684 20.038 37.6286 19.6228C38.5888 19.2076 39.6138 19 40.7038 19C41.8456 19 42.9096 19.2206 43.8958 19.6618C44.8819 20.1029 45.7383 20.7128 46.465 21.4913C47.3992 21.3356 48.2815 21.0891 49.112 20.7517C49.9424 20.4143 50.7469 20.0121 51.5254 19.545C50.9026 21.4654 49.7348 22.9446 48.022 23.9826C49.6829 23.7231 51.214 23.3079 52.6154 22.737Z" fill="#FAE5CE"/>
</svg>
