<svg width="447" height="402" viewBox="0 0 447 402" fill="none" xmlns="http://www.w3.org/2000/svg">
<path d="M376.724 91.1788L374.759 87.9419C358.19 60.5999 328.233 44.1506 296.655 46.1439C292.589 46.4003 288.547 46.9575 284.563 47.8109C255.858 53.9849 230.872 75.6909 220.517 103.518C214.427 119.888 212.726 138.727 201.127 151.719C186.092 168.627 160.586 169.156 138.103 168.477C115.62 167.798 90.0969 168.371 75.1231 185.35C65.7545 195.934 62.7844 211.096 63.5248 225.331C65.5254 263.019 91.7715 296.72 125.148 313.478C158.524 330.236 197.858 331.709 234.389 324.388C285.559 314.016 334.217 285.669 363.434 241.886C392.65 198.104 400.124 138.436 376.724 91.1788Z" fill="#FDD4A5"/>
<path d="M143.893 92.1313C160.993 92.1313 174.855 78.259 174.855 61.1466C174.855 44.0343 160.993 30.162 143.893 30.162C126.794 30.162 112.932 44.0343 112.932 61.1466C112.932 78.259 126.794 92.1313 143.893 92.1313Z" fill="#FDD4A5"/>
<path d="M408 376.447C408 376.745 324.049 377 220.511 377C116.973 377 33 376.745 33 376.447C33 376.149 116.934 376 220.5 376C324.066 376 408 376.149 408 376.447Z" fill="#263238"/>
<path d="M97.896 150.52C97.896 150.52 135.361 172.261 143.364 177.306C151.366 182.351 163.194 185.085 168.359 190.271C172.342 194.285 192.648 209.349 199.443 211.043C206.238 212.736 208.001 187.405 208.001 187.405C208.001 187.405 176.59 166.016 168.658 161.368C160.726 156.72 103.792 137.881 103.792 137.881L97.896 150.52Z" fill="#FFBE9D"/>
<path d="M77.2819 145.907C77.2819 145.907 84.077 151.843 85.9454 152.028C87.8138 152.213 98.76 150.379 98.76 150.379L104.876 138.498C104.876 138.498 94.4414 130.207 92.0266 128.919C89.6117 127.632 75.2813 123.239 75.2813 123.239C75.1059 123.301 74.9463 123.4 74.8142 123.531C74.682 123.662 74.5806 123.82 74.5173 123.995C74.4541 124.17 74.4305 124.357 74.4483 124.542C74.4661 124.727 74.5248 124.906 74.6203 125.065C74.6203 125.065 69.8346 122.031 68.3275 124.801C68.1803 124.688 68.0075 124.615 67.8248 124.586C67.642 124.557 67.455 124.574 67.2803 124.635C67.1057 124.696 66.9489 124.8 66.8241 124.936C66.6992 125.073 66.6102 125.238 66.5649 125.418C66.3946 125.841 66.3159 126.296 66.3342 126.752C66.3524 127.208 66.4671 127.655 66.6706 128.064C66.6706 128.064 64.7934 129.828 66.0801 131.539C67.3669 133.25 76.9999 140.05 76.9999 140.05L81.3536 144.557C81.3536 144.557 77.5022 141.611 75.9951 141.647C74.4881 141.682 74.726 143.455 74.726 143.455L77.2819 145.907Z" fill="#FFBE9D"/>
<path d="M80.3311 137.351C77.9016 136.012 75.5478 134.54 73.2804 132.941C70.9324 131.47 68.6669 129.872 66.4941 128.152C68.923 129.492 71.2768 130.964 73.5448 132.562C75.8922 134.034 78.1577 135.633 80.3311 137.351Z" fill="#0B0803"/>
<path d="M88.6243 147.459C87.9844 147.48 87.3459 147.388 86.7382 147.186C83.7326 146.392 81.0321 144.718 78.9825 142.379C78.5377 141.917 78.1688 141.387 77.8896 140.809C79.3376 142.381 80.9645 143.778 82.737 144.972C84.5926 146.034 86.5693 146.869 88.6243 147.459Z" fill="#0B0803"/>
<path d="M178.009 187.52L161.097 133.718C149.727 132.456 138.235 138.569 131.625 147.9C125.015 157.232 122.961 169.324 124.53 180.658C125.27 186.003 126.76 191.242 127.28 196.604C127.8 201.967 127.28 207.691 124.239 212.171C121.199 216.652 115.911 219.624 113.857 224.669C111.213 231.108 114.791 238.208 117.612 244.567C120.432 250.927 122.195 259.306 117.145 264.077C118.987 264.053 120.797 263.587 122.422 262.718C124.048 261.85 125.442 260.604 126.487 259.085C126.926 260.437 127.093 261.863 126.978 263.28C126.863 264.697 126.468 266.077 125.817 267.341C133.599 269.29 141.795 266.132 148.573 261.819C160.675 254.108 170.036 242.771 175.321 229.423C180.607 216.075 181.548 201.398 178.009 187.484V187.52Z" fill="#263238"/>
<path d="M139.83 151.79L138.455 156.129C138.376 159.657 140.121 166.193 142.095 167.657L187.043 199.268C190.114 201.426 193.808 202.514 197.557 202.364L201.532 202.196C210.628 201.817 216.515 192.079 212.249 184.027C212.053 183.632 211.81 183.262 211.527 182.924C211.25 182.614 210.956 182.319 210.645 182.042C208.659 180.089 206.473 178.351 204.123 176.856C200.281 173.813 198.694 172.587 198.73 172.614C198.765 172.64 203.683 163.379 194.323 153.448C189.67 148.509 180.759 142.061 173.303 137.016C171.803 136.08 170.146 135.423 168.412 135.076C156.055 132.209 143.655 139.698 139.83 151.79Z" fill="#FFBE9D"/>
<path d="M180.336 145.96C180.689 146.237 180.923 146.639 180.99 147.083C181.057 147.527 180.953 147.98 180.697 148.35C180.577 148.535 180.421 148.694 180.239 148.817C180.057 148.941 179.851 149.026 179.635 149.069C179.419 149.112 179.197 149.111 178.981 149.066C178.765 149.021 178.561 148.934 178.379 148.809C178.025 148.532 177.789 148.131 177.721 147.687C177.652 147.243 177.755 146.789 178.009 146.418C178.131 146.234 178.288 146.076 178.471 145.953C178.654 145.83 178.86 145.745 179.077 145.702C179.293 145.66 179.516 145.66 179.732 145.705C179.948 145.749 180.154 145.835 180.336 145.96Z" fill="#263238"/>
<path d="M176.361 142.37C176.414 142.679 174.845 143.128 173.717 144.601C172.589 146.074 172.483 147.732 172.184 147.75C172.043 147.75 171.858 147.344 171.875 146.612C171.924 145.633 172.275 144.693 172.88 143.922C173.468 143.152 174.286 142.59 175.215 142.317C175.912 142.132 176.352 142.229 176.361 142.37Z" fill="#263238"/>
<path d="M169.822 159.975C170.175 160.252 170.409 160.654 170.476 161.098C170.543 161.542 170.438 161.995 170.183 162.365C170.063 162.55 169.907 162.709 169.725 162.832C169.542 162.956 169.337 163.041 169.121 163.084C168.905 163.127 168.682 163.126 168.467 163.081C168.251 163.036 168.047 162.949 167.865 162.824C167.511 162.547 167.275 162.146 167.206 161.702C167.138 161.258 167.241 160.804 167.495 160.433C167.617 160.249 167.774 160.091 167.957 159.968C168.14 159.845 168.346 159.76 168.563 159.717C168.779 159.675 169.002 159.675 169.218 159.72C169.434 159.764 169.639 159.85 169.822 159.975Z" fill="#263238"/>
<path d="M165.477 157.073C165.521 157.382 163.952 157.823 162.833 159.304C161.714 160.786 161.599 162.427 161.299 162.444C161.158 162.444 160.973 162.047 160.991 161.307C161.05 160.343 161.4 159.42 161.996 158.661C162.587 157.895 163.404 157.336 164.331 157.064C165.019 156.808 165.459 156.923 165.477 157.073Z" fill="#263238"/>
<path d="M180.521 160.151C180.878 159.188 181.351 158.273 181.931 157.426C182.178 157.02 182.381 156.605 182.178 156.35C181.813 156.015 181.355 155.8 180.865 155.732L177.145 154.639C171.857 153.033 167.662 151.569 167.733 151.358C167.803 151.146 172.139 152.24 177.383 153.871L181.085 155.027C181.721 155.143 182.298 155.476 182.715 155.97C182.806 156.129 182.86 156.305 182.872 156.487C182.884 156.669 182.855 156.851 182.786 157.02C182.684 157.273 182.548 157.511 182.381 157.726C181.867 158.61 181.242 159.425 180.521 160.151Z" fill="#263238"/>
<path d="M178.195 165.276C178.362 165.029 179.957 166.255 182.152 165.761C184.346 165.267 185.483 163.432 185.677 163.591C185.871 163.75 185.677 164.208 185.166 164.949C184.456 165.895 183.436 166.56 182.284 166.828C181.178 167.089 180.013 166.906 179.041 166.316C178.353 165.866 178.098 165.381 178.195 165.276Z" fill="#263238"/>
<path d="M160.065 153.333C160.356 153.792 159.034 155.097 157.906 157.002C156.778 158.907 156.144 160.654 155.641 160.61C155.394 160.61 155.2 160.045 155.245 159.181C155.35 158.062 155.709 156.982 156.294 156.022C156.879 155.062 157.674 154.248 158.62 153.642C159.369 153.201 159.924 153.122 160.065 153.333Z" fill="#263238"/>
<path d="M169.593 137.828C169.734 138.348 168.597 139.098 167.645 140.306C166.693 141.514 166.129 142.732 165.6 142.696C165.345 142.696 165.142 142.247 165.168 141.559C165.241 140.655 165.595 139.797 166.182 139.107C166.75 138.4 167.523 137.885 168.394 137.634C169.064 137.466 169.54 137.59 169.593 137.828Z" fill="#263238"/>
<path d="M162.304 178.435C161.511 177.817 158.929 177.297 158.197 177.985C156.258 179.828 153.508 183.736 158.805 187.881C166.05 193.544 170.262 185.103 170.033 184.926C169.804 184.75 165.054 180.543 162.304 178.435Z" fill="#FFBE9D"/>
<path d="M165.565 185.032C165.521 185.032 165.565 185.226 165.485 185.517C165.379 185.918 165.124 186.262 164.772 186.479C163.89 187.026 162.172 186.717 160.841 185.729C160.208 185.259 159.684 184.657 159.307 183.965C159.135 183.719 159.024 183.435 158.986 183.137C158.947 182.839 158.982 182.536 159.087 182.254C159.162 182.08 159.296 181.938 159.465 181.853C159.634 181.768 159.828 181.744 160.012 181.786C160.294 181.848 160.4 182.007 160.444 181.972C160.488 181.936 160.444 181.725 160.1 181.548C159.888 181.45 159.65 181.425 159.422 181.478C159.114 181.559 158.851 181.759 158.69 182.033C158.517 182.377 158.435 182.76 158.452 183.144C158.469 183.529 158.585 183.902 158.787 184.23C159.173 185.029 159.748 185.722 160.462 186.249C161.951 187.343 163.899 187.661 165.027 186.849C165.235 186.699 165.406 186.503 165.528 186.277C165.65 186.051 165.72 185.8 165.732 185.544C165.732 185.147 165.6 184.979 165.565 185.032Z" fill="#0B0803"/>
<path d="M167.389 199.947L174.123 253.934L162.886 255.451V194.126L167.389 199.947Z" fill="#455A64"/>
<path opacity="0.3" d="M167.389 199.947L174.123 253.934L162.886 255.451V194.126L167.389 199.947Z" fill="black"/>
<path d="M153.984 190.324L153.526 272.13C153.526 272.13 154.337 273.506 158.444 272.13C162.551 270.754 165.732 275.34 165.732 275.34L164.454 197.601L162.886 183.718L153.984 190.324Z" fill="#455A64"/>
<path d="M150.353 160.495C150.353 160.495 151.234 146.101 155.474 140.924C159.713 135.746 168.843 135.155 168.843 135.155C168.843 135.155 165.168 131.539 155.738 133.497C152.804 134.006 150.019 135.157 147.582 136.867C145.144 138.578 143.114 140.806 141.637 143.393C138.993 147.803 138.473 156.129 138.473 156.129L150.353 160.495Z" fill="#455A64"/>
<path d="M192.701 186.108C192.701 186.108 230.81 181.063 239.227 187.925C247.643 194.787 270.549 213.9 278.199 226.266C281.654 231.84 286.537 252.426 285.303 267.005L240.117 268.505L237.473 246.155L206.203 230.067C206.203 230.067 184.672 220.63 183.377 206.2C182.081 191.771 192.701 186.108 192.701 186.108Z" fill="#FFBE9D"/>
<path d="M192.701 186.108C192.701 186.108 221.001 198.606 222.904 203.828C222.904 203.828 225.972 211.016 224.817 215.823L212.884 233.542L235.014 244.92L261.348 206.465L243.96 188.948C241.747 187.017 237.958 183.93 235.146 183.136C231.799 182.414 228.416 181.869 225.011 181.504C221.239 180.966 208.891 181.107 208.891 181.107L192.701 186.108Z" fill="#E3B76B"/>
<path d="M254.544 243.579C251.759 244.246 248.941 244.765 246.101 245.132C243.284 245.643 240.442 246.008 237.587 246.225C240.372 245.558 243.191 245.039 246.031 244.673C248.847 244.157 251.689 243.792 254.544 243.579Z" fill="#0B0803"/>
<path d="M255.082 200.141L228.457 241.524L235.023 244.902L261.348 206.447L255.082 200.141Z" fill="#E0E0E0"/>
<path d="M109.063 347.012L88.7919 348.776L84.2001 343.819C81.9703 341.499 80.5073 343.739 78.1894 345.971L49.8369 373.163C49.8369 373.163 51.2294 377.291 54.1731 376.17C57.1167 375.05 81.4063 368.629 81.4063 368.629L102.056 367.5L109.063 347.012Z" fill="#FAFAFA"/>
<path d="M109.063 347.012C109.038 347.129 109.003 347.245 108.957 347.356C108.878 347.611 108.763 347.955 108.622 348.396L107.274 352.445C106.066 356.017 104.339 361.168 102.188 367.553V367.659H102.074L81.4064 368.832L66.3444 372.898L58.2273 375.174C56.8525 375.571 55.4776 375.968 54.0939 376.435C53.7159 376.562 53.3147 376.603 52.9188 376.558C52.5228 376.512 52.1418 376.38 51.8024 376.171C51.1585 375.734 50.6245 375.155 50.2425 374.477C50.0085 374.078 49.8109 373.659 49.652 373.225L49.6079 373.092L49.7137 372.987L71.1741 352.427C74.4527 349.287 77.555 346.359 80.4281 343.563C80.8115 343.217 81.2572 342.948 81.7413 342.769C81.9925 342.683 82.2583 342.648 82.5232 342.666C82.788 342.684 83.0466 342.755 83.2837 342.875C83.7228 343.094 84.1174 343.393 84.447 343.757L85.39 344.78L88.9154 348.635L88.792 348.59L103.704 347.364L107.679 347.056L108.701 346.976H109.036C108.914 346.998 108.79 347.013 108.666 347.02L107.617 347.126L103.598 347.523L88.8184 348.917H88.7391L88.6862 348.855L85.108 345.027C84.5459 344.305 83.8702 343.68 83.1074 343.175C82.9104 343.077 82.6959 343.02 82.4764 343.006C82.257 342.992 82.037 343.023 81.8295 343.096C81.3916 343.265 80.9884 343.513 80.6397 343.828C77.8194 346.606 74.6995 349.569 71.4385 352.718L50.0309 373.339L50.0926 373.101C50.2385 373.505 50.4214 373.895 50.6391 374.265C50.9834 374.877 51.4627 375.402 52.0404 375.8C52.3238 375.978 52.6435 376.091 52.976 376.129C53.3085 376.167 53.6453 376.13 53.9617 376.021C55.3278 375.553 56.7291 375.139 58.104 374.759L66.221 372.493L81.3359 368.427L101.994 367.351L101.853 367.456C104.057 361.141 105.837 356.061 107.071 352.524L108.507 348.458C108.666 348.008 108.798 347.655 108.886 347.391L109.063 347.012Z" fill="#263238"/>
<path d="M76.3301 348.123C76.383 348.061 76.9646 348.555 78.0222 349.111C79.3961 349.853 80.9171 350.281 82.4759 350.365C84.0348 350.448 85.5928 350.186 87.0383 349.596C88.1576 349.155 88.8009 348.714 88.8009 348.793C88.3418 349.285 87.7787 349.668 87.1529 349.913C85.6801 350.615 84.0554 350.936 82.4267 350.848C80.7981 350.761 79.2172 350.266 77.8283 349.411C77.2426 349.094 76.7317 348.654 76.3301 348.123Z" fill="#263238"/>
<path d="M58.2452 365.154C58.7196 365.307 59.1493 365.573 59.4967 365.93C60.4172 366.736 61.082 367.794 61.4092 368.973C61.7222 370.137 61.7883 371.354 61.603 372.545C61.5698 373.042 61.4411 373.527 61.2241 373.974C61.1602 373.491 61.1602 373.002 61.2241 372.519C61.3028 371.372 61.1987 370.22 60.9156 369.106C60.5997 368.008 60.022 367.003 59.2323 366.177C58.6506 365.551 58.2011 365.216 58.2452 365.154Z" fill="#263238"/>
<path d="M237.896 257.903L239.359 265.083L232.44 271.407C232.44 271.407 214.664 281.488 216.911 302.788L192.102 331.585C192.102 331.585 152.389 337.213 141.786 338.853C132.973 340.22 98.6011 348.123 98.6011 348.123L99.8261 369.062C99.8261 369.062 183.473 366.715 188.77 366.248C199.346 365.366 207.41 367.836 216.092 360.577C222.358 355.364 265.279 312.64 265.279 312.64L264.935 254.269L237.896 257.903Z" fill="#E3B76B"/>
<path d="M90.625 154.674C90.625 154.674 128.117 176.424 136.093 181.504C144.069 186.585 155.932 189.292 161.088 194.478C165.08 198.483 185.386 213.556 192.172 215.241C198.958 216.925 200.73 191.603 200.73 191.603C200.73 191.603 169.337 170.215 161.431 165.567C153.526 160.918 96.5652 142.079 96.5652 142.079L90.625 154.674Z" fill="#FFBE9D"/>
<path d="M70.0108 150.07C70.0108 150.07 76.8059 155.997 78.6743 156.191C80.5427 156.385 91.4889 154.533 91.4889 154.533L97.6142 142.696C97.6142 142.696 87.1704 134.397 84.7555 133.109C82.3407 131.821 68.0102 127.438 68.0102 127.438C67.835 127.498 67.6756 127.597 67.5434 127.727C67.4113 127.856 67.3098 128.014 67.2465 128.188C67.1831 128.363 67.1595 128.549 67.1772 128.733C67.195 128.918 67.2537 129.096 67.3492 129.255C67.3492 129.255 62.5724 126.221 61.0653 128.99C60.917 128.868 60.74 128.786 60.5511 128.751C60.3622 128.717 60.1676 128.731 59.9858 128.793C59.804 128.855 59.641 128.962 59.5122 129.105C59.3834 129.247 59.293 129.42 59.2497 129.607C59.0797 130.031 59.0019 130.487 59.0217 130.943C59.0414 131.399 59.1582 131.846 59.3643 132.253C59.3643 132.253 57.4783 134.017 58.7738 135.729C60.0694 137.44 69.7905 144.213 69.7905 144.213L74.1355 148.72C74.1355 148.72 70.2928 145.775 68.7769 145.81C67.2611 145.845 67.5078 147.618 67.5078 147.618L70.0108 150.07Z" fill="#FFBE9D"/>
<path d="M333.953 331.647L335.116 359.562L334.975 366.319C334.975 369.538 337.619 368.965 340.792 368.965L380.055 369.159C380.055 369.159 381.924 365.216 379.033 363.972C376.142 362.729 354.25 350.495 354.25 350.495L355.678 329.857L333.953 331.647Z" fill="#FAFAFA"/>
<path d="M333.953 331.647C334.071 331.616 334.192 331.598 334.314 331.594L335.407 331.488L339.681 331.1L355.66 329.689H355.845V329.874C355.448 335.731 354.964 342.743 354.461 350.522L354.355 350.328L368.571 358.169C371.083 359.545 373.657 360.947 376.292 362.341L378.292 363.373C378.636 363.54 378.953 363.673 379.315 363.867C379.5 363.955 379.674 364.065 379.835 364.193C380.004 364.312 380.151 364.462 380.267 364.634C380.759 365.301 380.976 366.131 380.875 366.954C380.804 367.752 380.601 368.532 380.275 369.264L380.178 369.37H380.029H377.64L346.882 369.203H339.981C338.863 369.278 337.74 369.233 336.632 369.07C336.341 369.02 336.064 368.912 335.816 368.753C335.568 368.594 335.354 368.387 335.186 368.144C334.895 367.654 334.749 367.091 334.763 366.521C334.816 364.41 334.86 362.379 334.896 360.427C334.896 358.478 334.781 356.59 334.728 354.8C334.473 347.655 334.252 341.869 334.111 337.839C334.041 335.863 333.988 334.311 333.953 333.252C333.953 332.75 333.953 332.37 333.953 332.07C333.94 331.941 333.94 331.811 333.953 331.682C333.953 331.682 333.953 331.832 333.953 332.106C333.953 332.379 333.953 332.803 334.014 333.314C334.076 334.39 334.146 335.96 334.252 337.936C334.437 341.949 334.71 347.717 335.045 354.835C335.107 356.599 335.266 358.478 335.239 360.427C335.213 362.376 335.178 364.405 335.142 366.513C335.124 367.008 335.249 367.498 335.504 367.924C335.644 368.126 335.823 368.298 336.03 368.43C336.237 368.561 336.469 368.65 336.711 368.691C337.789 368.838 338.878 368.874 339.963 368.797H346.873L377.631 368.929H380.02L379.817 369.053C380.12 368.374 380.308 367.65 380.372 366.909C380.466 366.202 380.287 365.486 379.87 364.907C379.355 364.396 378.731 364.007 378.046 363.77L376.045 362.729C373.401 361.335 370.828 359.924 368.316 358.548L354.109 350.672L354.003 350.61V350.487C354.558 342.707 355.06 335.696 355.475 329.848L355.642 330.015L339.778 331.241L335.468 331.559L334.34 331.638L333.953 331.647Z" fill="#263238"/>
<path d="M343.63 368.735C343.55 368.735 343.48 367.994 343.101 366.848C342.624 365.363 341.83 363.999 340.774 362.852C339.708 361.708 338.41 360.806 336.967 360.206C335.856 359.757 335.107 359.624 335.116 359.545C335.788 359.513 336.459 359.63 337.081 359.889C338.627 360.408 340.019 361.306 341.129 362.502C342.239 363.697 343.032 365.152 343.436 366.733C343.655 367.376 343.722 368.062 343.63 368.735Z" fill="#263238"/>
<path d="M368.465 369.088C368.226 368.647 368.102 368.152 368.104 367.65C368.003 366.428 368.257 365.203 368.836 364.122C369.426 363.073 370.227 362.157 371.189 361.432C371.558 361.096 371.989 360.836 372.458 360.665C372.458 360.727 372.061 361.079 371.409 361.688C370.558 362.45 369.835 363.343 369.267 364.334C368.731 365.342 368.45 366.465 368.448 367.606C368.499 368.099 368.505 368.595 368.465 369.088Z" fill="#263238"/>
<path d="M285.25 251.544L286.052 258.009C286.052 258.009 329.942 246.772 345.128 246.772C353.879 246.772 362.966 256.757 361.23 272.721C359.308 290.361 354.761 349.455 354.761 349.455L334.754 350.848C334.754 350.848 329.643 316.195 329.255 303.22C328.993 297.392 329.356 291.552 330.339 285.801C330.339 285.801 318.882 293.827 308.984 298.149C300.955 301.677 278.446 314.184 259.92 313.072C242.294 312.023 232.44 299.163 234.309 284.654C236.415 268.267 244.779 261.81 244.779 261.81L264.962 254.358L285.25 251.544Z" fill="#E3B76B"/>
<path d="M265.306 312.64C265.09 312.705 264.869 312.749 264.645 312.772C264.012 312.89 263.374 312.969 262.732 313.01C260.372 313.191 257.999 313.04 255.681 312.561C254.076 312.228 252.501 311.758 250.975 311.158C249.231 310.459 247.557 309.593 245.978 308.574C242.303 306.273 239.273 303.074 237.173 299.279C235.073 295.483 233.972 291.215 233.974 286.877C233.95 284.997 234.103 283.118 234.433 281.267C234.742 279.659 235.187 278.081 235.763 276.549C236.582 274.324 237.713 272.228 239.121 270.322C239.497 269.802 239.903 269.304 240.337 268.831C240.477 268.654 240.63 268.489 240.796 268.337C240.682 268.53 240.552 268.713 240.408 268.884C240.161 269.246 239.712 269.766 239.271 270.427C237.931 272.352 236.852 274.446 236.063 276.654C234.874 279.925 234.309 283.389 234.397 286.868C234.418 291.136 235.511 295.331 237.577 299.065C239.642 302.8 242.613 305.955 246.216 308.239C247.769 309.25 249.412 310.115 251.125 310.823C252.627 311.419 254.174 311.894 255.752 312.243C258.043 312.743 260.39 312.942 262.732 312.834C263.561 312.834 264.204 312.702 264.636 312.675C264.858 312.644 265.082 312.633 265.306 312.64Z" fill="#263238"/>
<path d="M292.045 256.289C292.045 256.413 287.859 257.718 282.615 259.217C277.371 260.717 273.097 261.819 273.061 261.696C273.026 261.572 277.248 260.267 282.492 258.776C287.735 257.286 292.045 256.166 292.045 256.289Z" fill="#263238"/>
<path d="M338.342 271.468C338.394 271.521 337.663 272.35 336.579 273.664C335.179 275.424 333.929 277.297 332.842 279.265C331.766 281.245 330.855 283.31 330.119 285.439C329.858 286.337 329.549 287.22 329.193 288.085C329.193 287.831 329.228 287.579 329.299 287.335C329.387 286.859 329.555 286.171 329.801 285.333C331.125 280.972 333.347 276.937 336.323 273.488C336.768 272.962 337.241 272.461 337.742 271.989C338.112 271.662 338.315 271.468 338.342 271.468Z" fill="#263238"/>
</svg>
