<svg width="518" height="489" viewBox="0 0 518 489" fill="none" xmlns="http://www.w3.org/2000/svg">
<path d="M444.146 171.749C441.712 163.828 438.533 156.156 434.651 148.836C414.63 111.595 379.52 83.4984 341.116 66.876C310.625 53.6979 272.921 46.8095 240.571 58.68C224.212 64.6843 208.81 76.1772 200.042 91.5102C188.614 111.531 189.691 136.294 180.619 157.336C173.258 174.364 154.967 184.595 140.633 195.094C118.266 211.412 96.2301 230.705 88.4739 258.304C78.1323 295.094 81.1962 338.893 102.128 371.612C117.769 396.026 144.543 403.356 172.173 403.844C198.248 404.314 230.137 397.72 254.473 409.627C295.932 429.887 350.639 452.634 397.029 436.601C444.873 420.07 468.307 387.876 475.235 346.113C482.163 304.35 463.072 269.558 456.981 236.525C453.19 215.63 450.678 192.561 444.146 171.749Z" fill="#F5CB82"/>
<path opacity="0.8" d="M444.146 171.749C441.712 163.828 438.533 156.156 434.651 148.836C414.63 111.595 379.52 83.4984 341.116 66.876C310.625 53.6979 272.921 46.8095 240.571 58.68C224.212 64.6843 208.81 76.1772 200.042 91.5102C188.614 111.531 189.691 136.294 180.619 157.336C173.258 174.364 154.967 184.595 140.633 195.094C118.266 211.412 96.2301 230.705 88.4739 258.304C78.1323 295.094 81.1962 338.893 102.128 371.612C117.769 396.026 144.543 403.356 172.173 403.844C198.248 404.314 230.137 397.72 254.473 409.627C295.932 429.887 350.639 452.634 397.029 436.601C444.873 420.07 468.307 387.876 475.235 346.113C482.163 304.35 463.072 269.558 456.981 236.525C453.19 215.63 450.678 192.561 444.146 171.749Z" fill="#FCD3A3"/>
<path d="M314.085 148.693L172.008 181.106L216.472 376.358L358.549 343.946L314.085 148.693Z" fill="#FCD3A3" stroke="#263238" stroke-miterlimit="10"/>
<path d="M311.868 153.875L176.25 184.814L218.693 371.195L354.311 340.256L311.868 153.875Z" fill="white" stroke="#263238" stroke-linecap="round" stroke-linejoin="round"/>
<path d="M270.593 180.35L306.31 171.408" stroke="#263238" stroke-linecap="round" stroke-linejoin="round"/>
<path d="M192.525 199.882L208.737 195.83" stroke="#263238" stroke-linecap="round" stroke-linejoin="round"/>
<path d="M310.064 209.874L315.456 208.529" stroke="#263238" stroke-linecap="round" stroke-linejoin="round"/>
<path d="M285.479 216.026L307.074 210.62" stroke="#263238" stroke-linecap="round" stroke-linejoin="round"/>
<path d="M272.939 219.166L281.919 216.919" stroke="#263238" stroke-linecap="round" stroke-linejoin="round"/>
<path d="M247.499 225.529L268.946 220.161" stroke="#263238" stroke-linecap="round" stroke-linejoin="round"/>
<path d="M231.113 229.637L243.727 226.478" stroke="#263238" stroke-linecap="round" stroke-linejoin="round"/>
<path d="M201.67 237.004L227.12 230.631" stroke="#263238" stroke-linecap="round" stroke-linejoin="round"/>
<path d="M301.636 224.314L320.028 219.709" stroke="#263238" stroke-linecap="round" stroke-linejoin="round"/>
<path d="M263.508 233.854L297.431 225.364" stroke="#263238" stroke-linecap="round" stroke-linejoin="round"/>
<path d="M237.498 240.365L257.381 235.392" stroke="#263238" stroke-linecap="round" stroke-linejoin="round"/>
<path d="M206.234 248.184L233.864 241.277" stroke="#263238" stroke-linecap="round" stroke-linejoin="round"/>
<path d="M310.257 234.867L322.062 231.911" stroke="#263238" stroke-linecap="round" stroke-linejoin="round"/>
<path d="M277.76 242.999L306.549 235.797" stroke="#263238" stroke-linecap="round" stroke-linejoin="round"/>
<path d="M270.418 244.841L275.046 243.68" stroke="#263238" stroke-linecap="round" stroke-linejoin="round"/>
<path d="M248.539 250.311L267.143 245.66" stroke="#263238" stroke-linecap="round" stroke-linejoin="round"/>
<path d="M214.837 258.746L245.622 251.038" stroke="#263238" stroke-linecap="round" stroke-linejoin="round"/>
<path d="M208.268 260.386L212.132 259.428" stroke="#263238" stroke-linecap="round" stroke-linejoin="round"/>
<path d="M299.971 249.777L324.601 243.607" stroke="#263238" stroke-linecap="round" stroke-linejoin="round"/>
<path d="M258.853 260.063L295.555 250.882" stroke="#263238" stroke-linecap="round" stroke-linejoin="round"/>
<path d="M248.594 262.633L255.007 261.021" stroke="#263238" stroke-linecap="round" stroke-linejoin="round"/>
<path d="M210.807 272.081L243.598 263.876" stroke="#263238" stroke-linecap="round" stroke-linejoin="round"/>
<path d="M274.65 268.443L278.377 267.504" stroke="#263238" stroke-linecap="round" stroke-linejoin="round"/>
<path d="M244.435 276.004L270.942 269.364" stroke="#263238" stroke-linecap="round" stroke-linejoin="round"/>
<path d="M213.346 283.777L240.157 277.072" stroke="#263238" stroke-linecap="round" stroke-linejoin="round"/>
<path opacity="0.2" d="M367.808 342.779C366.805 330.761 359.306 303.733 349.305 300.224C343.113 298.06 327.472 304.653 316.459 310.004C317.379 305.924 318.014 301.872 318.014 301.872L287.338 269.825L287.771 273.978L298.729 302.821C298.729 302.821 294.441 307.582 295.389 309.267C296.337 310.952 302.538 312.122 302.538 312.122C302.538 312.122 300.633 312.601 301.82 315.695C302.789 317.932 304.072 320.019 305.629 321.893L305.961 321.745C306.587 322.421 307.274 323.037 308.012 323.587C314.011 328.1 315.29 328.293 315.29 328.293C315.29 328.293 317.793 327.787 318.796 340.808C319.798 353.83 315.787 358.305 322.292 366.336C328.797 374.366 376.806 428.957 376.806 428.957C376.806 428.957 368.811 354.797 367.808 342.779Z" fill="black"/>
<path d="M314.821 279.117C314.821 279.117 308.923 285.563 304.102 288.768C299.281 291.973 295.923 296.236 300.358 298.41C303.017 299.717 306.798 297.876 306.798 297.876C306.798 297.876 300.91 299.487 299.842 304.847C298.775 310.206 310.552 308.061 310.552 308.061C310.552 308.061 301.977 313.964 304.664 316.109C307.35 318.255 312.696 316.644 315.373 316.644C318.051 316.644 331.438 308.061 334.695 308.061C337.952 308.061 344.337 315.032 344.337 320.392C344.337 325.751 352.903 325.217 353.97 308.604C355.037 291.991 350.759 278.039 343.794 273.748C336.829 269.457 314.821 279.117 314.821 279.117Z" fill="white" stroke="#263238" stroke-linecap="round" stroke-linejoin="round"/>
<path d="M311.601 297.341L332.983 289.348C332.983 289.348 342.368 287.304 349.103 298.41" stroke="#263238" stroke-linecap="round" stroke-linejoin="round"/>
<path d="M315.354 303.779L334.676 300.555C334.676 300.555 343.242 300.021 348.597 310.206" stroke="#263238" stroke-linecap="round" stroke-linejoin="round"/>
<path d="M442.279 419.306C430.492 408.006 380.634 364.613 380.165 361.676C379.631 358.462 377.487 320.935 377.487 315.566C377.487 310.197 366.778 297.341 366.778 297.341C366.778 297.341 362.38 291.033 360.236 280.314C358.092 269.595 348.275 265.184 342.902 265.718C337.528 266.252 322.853 267.854 316.965 272.164C311.076 276.474 305.712 281.815 311.067 283.417C319.964 286.088 334.529 274.208 341.549 282.423C344.76 286.18 348.56 302.683 349.103 304.865C349.308 305.989 349.232 307.146 348.88 308.232C348.528 309.319 347.913 310.301 347.088 311.091C344.515 313.146 341.783 314.994 338.918 316.616C338.918 316.616 330.214 319.185 326.46 319.498C322.706 319.812 322.706 337.916 326.773 343.267C330.84 348.617 336.774 373.298 341.77 379.56C346.536 385.546 389.19 449.401 389.19 449.401" fill="white"/>
<path d="M442.279 419.306C430.492 408.006 380.634 364.613 380.165 361.676C379.631 358.462 377.487 320.935 377.487 315.566C377.487 310.197 366.778 297.341 366.778 297.341C366.778 297.341 362.38 291.033 360.236 280.314C358.092 269.595 348.275 265.184 342.902 265.718C337.528 266.252 322.853 267.854 316.965 272.164C311.076 276.474 305.712 281.815 311.067 283.417C319.964 286.088 334.529 274.208 341.549 282.423C344.76 286.18 348.56 302.683 349.103 304.865C349.308 305.989 349.232 307.146 348.88 308.232C348.528 309.319 347.913 310.301 347.088 311.091C344.515 313.146 341.783 314.994 338.918 316.616C338.918 316.616 330.214 319.185 326.46 319.498C322.706 319.812 322.706 337.916 326.773 343.267C330.84 348.617 336.774 373.298 341.77 379.56C346.536 385.546 389.19 449.401 389.19 449.401" stroke="#263238" stroke-linecap="round" stroke-linejoin="round"/>
<path d="M285.222 267.108C285.303 267.02 285.413 266.965 285.532 266.954C285.651 266.942 285.77 266.974 285.866 267.044L288.452 268.204C288.58 268.267 288.694 268.356 288.785 268.467C288.876 268.577 288.942 268.706 288.978 268.845C289.015 268.983 289.021 269.128 288.996 269.269C288.972 269.41 288.917 269.544 288.836 269.662C288.755 269.78 288.65 269.879 288.527 269.952C288.404 270.026 288.267 270.072 288.125 270.087C287.982 270.103 287.839 270.087 287.703 270.042C287.567 269.997 287.443 269.923 287.338 269.825L285.314 267.845C285.207 267.769 285.135 267.654 285.112 267.524C285.09 267.395 285.12 267.262 285.195 267.154L285.222 267.108Z" fill="#263238" stroke="#263238" stroke-linecap="round" stroke-linejoin="round"/>
<path d="M287.504 268.582C287.877 268.184 288.381 267.933 288.923 267.875C289.465 267.818 290.01 267.957 290.458 268.269L297.321 271.814L364.698 316.183C365.298 316.572 365.814 317.077 366.215 317.669C366.616 318.261 366.894 318.928 367.032 319.63C367.171 320.332 367.166 321.055 367.019 321.755C366.873 322.455 366.587 323.119 366.179 323.706C365.77 324.293 365.248 324.792 364.643 325.173C364.038 325.555 363.363 325.81 362.657 325.924C361.952 326.039 361.23 326.01 360.536 325.839C359.842 325.669 359.189 325.36 358.617 324.932L293.218 276.649L287.863 271.998C287.619 271.828 287.41 271.611 287.25 271.36C287.089 271.109 286.98 270.829 286.928 270.535C286.875 270.242 286.882 269.941 286.946 269.65C287.01 269.359 287.131 269.084 287.302 268.839C287.359 268.746 287.427 268.659 287.504 268.582Z" fill="#FCD3A3" stroke="#263238" stroke-linecap="round" stroke-linejoin="round"/>
<path d="M364.698 316.183L345.257 303.373C343.753 303.808 342.426 304.711 341.47 305.951C340.514 307.191 339.977 308.705 339.939 310.271C339.945 310.579 339.97 310.887 340.013 311.192L358.616 324.923C359.189 325.351 359.842 325.659 360.536 325.83C361.23 326 361.952 326.029 362.657 325.915C363.363 325.801 364.038 325.545 364.643 325.164C365.248 324.783 365.77 324.284 366.178 323.697C366.587 323.11 366.873 322.446 367.019 321.746C367.166 321.046 367.171 320.323 367.032 319.621C366.894 318.919 366.616 318.252 366.215 317.66C365.814 317.068 365.298 316.562 364.698 316.174V316.183Z" fill="#263238" stroke="#263238" stroke-linecap="round" stroke-linejoin="round"/>
<path d="M340.215 376.769C319.053 352.826 322.577 339.602 319.357 335.329C316.137 331.056 314.232 327.041 311.021 317.362C307.81 307.683 305.712 300.04 305.712 292C305.712 283.961 312.613 282.57 317.968 291.144C323.323 299.717 329.818 312.905 329.818 312.905C329.818 312.905 334.097 318.264 342.699 316.662" fill="white"/>
<path d="M340.215 376.769C319.053 352.826 322.577 339.602 319.357 335.329C316.137 331.056 314.232 327.041 311.021 317.362C307.81 307.683 305.712 300.04 305.712 292C305.712 283.961 312.613 282.57 317.968 291.144C323.323 299.717 329.818 312.905 329.818 312.905C329.818 312.905 334.097 318.264 342.699 316.662" stroke="#263238" stroke-linecap="round" stroke-linejoin="round"/>
<path d="M329.818 312.886C329.818 312.886 335.826 318.568 338.587 323.237" stroke="#263238" stroke-linecap="round" stroke-linejoin="round"/>
<path d="M312.429 288.62L314.214 292.203C314.214 292.203 313.809 292.203 310.957 293.842C309.247 294.813 307.81 296.2 306.78 297.876C306.78 297.876 304.019 290.168 306.467 287.746C307.062 287.125 307.844 286.717 308.693 286.585C309.45 286.496 310.215 286.644 310.885 287.008C311.554 287.373 312.093 287.936 312.429 288.62Z" fill="white" stroke="#263238" stroke-linecap="round" stroke-linejoin="round"/>
<path d="M320.074 308.134L320.939 308.033" stroke="#263238" stroke-linecap="round" stroke-linejoin="round"/>
<path d="M312.052 312.582C312.052 312.582 312.549 309.654 318.437 308.411" stroke="#263238" stroke-linecap="round" stroke-linejoin="round"/>
<path d="M318.465 310.52C318.465 310.52 318.051 311.754 313.919 313.411" stroke="#263238" stroke-linecap="round" stroke-linejoin="round"/>
<path d="M318.29 306.578C316.225 306.907 314.264 307.708 312.558 308.917" stroke="#263238" stroke-linecap="round" stroke-linejoin="round"/>
<path opacity="0.2" d="M204.513 232.224C204.513 232.224 200.759 242.658 199.26 245.163C197.76 247.668 189.755 257.135 188.219 259.677C186.682 262.218 183.711 270.193 183.711 270.193L208.01 264.042C208.01 264.042 201.219 274.172 197.217 279.2C193.215 284.228 184.75 294.689 184.75 296.227C184.75 297.765 182.754 303.733 182.754 303.733L194.255 312.242L217.762 303.733L227.257 300.215C227.257 300.215 208.249 312.232 202.25 318.237C196.251 324.241 175.237 336.259 169.735 340.265C164.233 344.271 152.732 346.26 148.242 347.282C143.752 348.304 104.226 380.333 104.226 380.333L161.27 263.194L177.776 235.659L192.295 225.143L190.795 241.654L204.513 232.224Z" fill="black"/>
<path d="M81.4263 404.645L141.47 342.806C146.555 342.122 151.56 340.938 156.412 339.27C165.613 336.277 168.373 335.467 172.716 332.207C177.058 328.947 195 319.425 202.6 314.526C210.199 309.626 223.522 304.193 225.969 302.01C228.417 299.828 226.512 297.12 219.998 295.758C213.484 294.395 206.952 296.034 198.257 299.837C189.562 303.64 180.592 306.91 180.868 305.003C181.144 303.097 182.772 293.584 184.401 290.324C186.029 287.064 202.342 269.484 202.609 268.665C202.876 267.845 204.789 267.035 208.046 264.06C211.304 261.085 216.474 257.54 217.247 252.365C218.02 247.189 213.99 249.105 212.362 249.924C210.733 250.744 199.315 255.634 196.325 257.54C193.335 259.446 175.89 277.846 175.89 277.846L188.173 252.061C189.744 250.644 191.199 249.104 192.525 247.456C194.153 245.283 203.934 234.674 204.486 232.224C204.595 231.569 204.541 230.898 204.329 230.269C204.117 229.64 203.753 229.072 203.27 228.617C202.788 228.162 202.2 227.833 201.56 227.659C200.92 227.485 200.247 227.472 199.6 227.62C196.61 228.439 187.216 236.746 184.106 239.039C177.666 243.809 167.26 261.887 167.26 261.887L178.678 240.945C178.678 240.945 187.372 233.062 189.544 230.613C191.715 228.163 194.337 222.748 191.991 220.28C189.498 217.656 184.097 222.067 180.03 226.257C176.295 230.115 170.83 234.959 170.83 234.959C170.83 234.959 174.096 231.156 173.277 227.896C172.458 224.636 166.211 229.25 164.316 229.793C162.42 230.336 146.107 244.758 143.66 246.655C141.213 248.552 136.106 264.152 136.106 264.152L116.352 305.39L57.0444 348.102" fill="white"/>
<path d="M81.4263 404.645L141.47 342.806C146.555 342.122 151.56 340.938 156.412 339.27C165.613 336.277 168.373 335.467 172.716 332.207C177.058 328.947 195 319.425 202.6 314.526C210.199 309.626 223.522 304.193 225.969 302.01C228.417 299.828 226.512 297.12 219.998 295.758C213.484 294.395 206.952 296.034 198.257 299.837C189.562 303.64 180.592 306.91 180.868 305.003C181.144 303.097 182.772 293.584 184.401 290.324C186.029 287.064 202.342 269.484 202.609 268.665C202.876 267.845 204.789 267.035 208.046 264.06C211.304 261.085 216.474 257.54 217.247 252.365C218.02 247.189 213.99 249.105 212.362 249.924C210.733 250.744 199.315 255.634 196.325 257.54C193.335 259.446 175.89 277.846 175.89 277.846L188.173 252.061C189.744 250.644 191.199 249.104 192.525 247.456C194.153 245.283 203.934 234.674 204.486 232.224C204.595 231.569 204.541 230.898 204.329 230.269C204.117 229.64 203.753 229.072 203.27 228.617C202.788 228.162 202.2 227.833 201.56 227.659C200.92 227.485 200.247 227.472 199.6 227.62C196.61 228.439 187.216 236.746 184.106 239.039C177.666 243.809 167.26 261.887 167.26 261.887L178.678 240.945C178.678 240.945 187.372 233.062 189.544 230.613C191.715 228.163 194.337 222.748 191.991 220.28C189.498 217.656 184.097 222.067 180.03 226.257C176.295 230.115 170.83 234.959 170.83 234.959C170.83 234.959 174.096 231.156 173.277 227.896C172.458 224.636 166.211 229.25 164.316 229.793C162.42 230.336 146.107 244.758 143.66 246.655C141.213 248.552 136.106 264.152 136.106 264.152L116.352 305.39L57.0444 348.102" stroke="#263238" stroke-linecap="round" stroke-linejoin="round"/>
<path d="M170.82 234.941L162.853 241.839C161.989 242.588 161.247 243.467 160.654 244.445L146.503 267.615" stroke="#263238" stroke-linecap="round" stroke-linejoin="round"/>
<path d="M225.5 297.701L221.396 297.968C221.396 297.968 224.157 300.436 221.672 303.99" stroke="#263238" stroke-linecap="round" stroke-linejoin="round"/>
<path d="M211.34 251.186C211.34 251.186 213.098 250.946 215.103 254.123C216.034 253.358 216.722 252.337 217.082 251.186" stroke="#263238" stroke-linecap="round" stroke-linejoin="round"/>
<path d="M196.297 229.83C197.978 230.209 199.579 230.883 201.027 231.819C201.763 232.39 203.115 231.386 203.676 230.65" stroke="#263238" stroke-linecap="round" stroke-linejoin="round"/>
<path d="M185.348 222.159C186.109 222.187 186.855 222.375 187.538 222.711C188.405 223.186 189.23 223.735 190.004 224.351C190.503 224.162 190.957 223.869 191.335 223.491C191.713 223.113 192.005 222.659 192.193 222.159" stroke="#263238" stroke-linecap="round" stroke-linejoin="round"/>
<path d="M167.296 228.734C167.296 228.734 169.137 228.541 170.057 229.277C171.372 230.401 170.609 230.926 170.609 230.926C170.609 230.926 172.844 230.134 173.065 229.001" stroke="#263238" stroke-linecap="round" stroke-linejoin="round"/>
<path d="M197.659 260.22C199.26 261.361 200.571 262.863 201.486 264.603" stroke="#263238" stroke-linecap="round" stroke-linejoin="round"/>
<path d="M196.021 260.763C197.087 261.98 198.277 263.082 199.572 264.051" stroke="#263238" stroke-linecap="round" stroke-linejoin="round"/>
<path d="M201.762 261.039L203.676 263.507" stroke="#263238" stroke-linecap="round" stroke-linejoin="round"/>
<path d="M206.354 300.712L208.267 303.99" stroke="#263238" stroke-linecap="round" stroke-linejoin="round"/>
<path d="M208.819 305.915L209.362 307.002" stroke="#263238" stroke-linecap="round" stroke-linejoin="round"/>
<path d="M210.696 301.532C211.181 303.778 211.364 306.079 211.239 308.374" stroke="#263238" stroke-linecap="round" stroke-linejoin="round"/>
<path d="M181.521 244.04C181.521 244.04 184.281 243.763 186.443 247.051" stroke="#263238" stroke-linecap="round" stroke-linejoin="round"/>
<path d="M182.892 247.346L185.348 248.718" stroke="#263238" stroke-linecap="round" stroke-linejoin="round"/>
<path d="M183.71 243.248L185.348 244.334" stroke="#263238" stroke-linecap="round" stroke-linejoin="round"/>
<path d="M167.021 240.227C167.933 240.016 168.883 240.031 169.789 240.27C170.695 240.509 171.529 240.965 172.219 241.599" stroke="#263238" stroke-linecap="round" stroke-linejoin="round"/>
<path d="M168.115 241.875C169.344 242.454 170.626 242.914 171.943 243.248" stroke="#263238" stroke-linecap="round" stroke-linejoin="round"/>
<path d="M171.4 238.864L173.314 239.407" stroke="#263238" stroke-linecap="round" stroke-linejoin="round"/>
<path d="M148.969 244.887C150.683 244.531 152.453 244.531 154.167 244.887" stroke="#263238" stroke-linecap="round" stroke-linejoin="round"/>
<path d="M154.71 243.248L157.452 244.334" stroke="#263238" stroke-linecap="round" stroke-linejoin="round"/>
<path d="M167.288 261.868L161.417 273.057" stroke="#263238" stroke-linecap="round" stroke-linejoin="round"/>
</svg>
