<svg width="500" height="500" viewBox="0 0 500 500" fill="none" xmlns="http://www.w3.org/2000/svg">
<path d="M430.73 186.5C428.085 177.899 424.63 169.568 420.41 161.62C398.65 121.18 360.49 90.67 318.75 72.62C285.61 58.31 244.63 50.83 209.47 63.72C191.69 70.24 174.95 82.72 165.42 99.37C153 121.11 154.17 148 144.31 170.85C136.31 189.34 116.43 200.45 100.85 211.85C76.5399 229.57 52.5899 250.52 44.1599 280.49C32.9199 320.44 36.2499 368 58.9999 403.53C75.9999 430.04 105.1 438 135.13 438.53C163.47 439.04 198.13 431.88 224.58 444.81C269.64 466.81 329.1 491.51 379.52 474.1C431.52 456.15 456.99 421.19 464.52 375.84C472.05 330.49 451.3 292.71 444.68 256.84C440.56 234.15 437.83 209.1 430.73 186.5Z" fill="#F5CB82"/>
<path opacity="0.8" d="M430.73 186.5C428.085 177.899 424.63 169.568 420.41 161.62C398.65 121.18 360.49 90.67 318.75 72.62C285.61 58.31 244.63 50.83 209.47 63.72C191.69 70.24 174.95 82.72 165.42 99.37C153 121.11 154.17 148 144.31 170.85C136.31 189.34 116.43 200.45 100.85 211.85C76.5399 229.57 52.5899 250.52 44.1599 280.49C32.9199 320.44 36.2499 368 58.9999 403.53C75.9999 430.04 105.1 438 135.13 438.53C163.47 439.04 198.13 431.88 224.58 444.81C269.64 466.81 329.1 491.51 379.52 474.1C431.52 456.15 456.99 421.19 464.52 375.84C472.05 330.49 451.3 292.71 444.68 256.84C440.56 234.15 437.83 209.1 430.73 186.5Z" fill="#FCD3A3"/>
<path d="M289.371 161.465L134.951 196.661L183.277 408.684L337.697 373.487L289.371 161.465Z" fill="#FCD3A3" stroke="#263238" stroke-miterlimit="10"/>
<path d="M286.961 167.091L139.561 200.688L185.691 403.077L333.091 369.48L286.961 167.091Z" fill="white" stroke="#263238" stroke-linecap="round" stroke-linejoin="round"/>
<path d="M242.1 195.84L280.92 186.13" stroke="#263238" stroke-linecap="round" stroke-linejoin="round"/>
<path d="M157.25 217.05L174.87 212.65" stroke="#263238" stroke-linecap="round" stroke-linejoin="round"/>
<path d="M285 227.9L290.86 226.44" stroke="#263238" stroke-linecap="round" stroke-linejoin="round"/>
<path d="M258.28 234.58L281.75 228.71" stroke="#263238" stroke-linecap="round" stroke-linejoin="round"/>
<path d="M244.65 237.99L254.41 235.55" stroke="#263238" stroke-linecap="round" stroke-linejoin="round"/>
<path d="M217 244.9L240.31 239.07" stroke="#263238" stroke-linecap="round" stroke-linejoin="round"/>
<path d="M199.19 249.36L212.9 245.93" stroke="#263238" stroke-linecap="round" stroke-linejoin="round"/>
<path d="M167.19 257.36L194.85 250.44" stroke="#263238" stroke-linecap="round" stroke-linejoin="round"/>
<path d="M275.84 243.58L295.83 238.58" stroke="#263238" stroke-linecap="round" stroke-linejoin="round"/>
<path d="M234.4 253.94L271.27 244.72" stroke="#263238" stroke-linecap="round" stroke-linejoin="round"/>
<path d="M206.13 261.01L227.74 255.61" stroke="#263238" stroke-linecap="round" stroke-linejoin="round"/>
<path d="M172.15 269.5L202.18 262" stroke="#263238" stroke-linecap="round" stroke-linejoin="round"/>
<path d="M285.21 255.04L298.04 251.83" stroke="#263238" stroke-linecap="round" stroke-linejoin="round"/>
<path d="M249.89 263.87L281.18 256.05" stroke="#263238" stroke-linecap="round" stroke-linejoin="round"/>
<path d="M241.91 265.87L246.94 264.61" stroke="#263238" stroke-linecap="round" stroke-linejoin="round"/>
<path d="M218.13 271.81L238.35 266.76" stroke="#263238" stroke-linecap="round" stroke-linejoin="round"/>
<path d="M181.5 280.97L214.96 272.6" stroke="#263238" stroke-linecap="round" stroke-linejoin="round"/>
<path d="M174.36 282.75L178.56 281.71" stroke="#263238" stroke-linecap="round" stroke-linejoin="round"/>
<path d="M274.03 271.23L300.8 264.53" stroke="#263238" stroke-linecap="round" stroke-linejoin="round"/>
<path d="M229.34 282.4L269.23 272.43" stroke="#263238" stroke-linecap="round" stroke-linejoin="round"/>
<path d="M218.19 285.19L225.16 283.44" stroke="#263238" stroke-linecap="round" stroke-linejoin="round"/>
<path d="M177.12 295.45L212.76 286.54" stroke="#263238" stroke-linecap="round" stroke-linejoin="round"/>
<path d="M246.51 291.5L250.56 290.48" stroke="#263238" stroke-linecap="round" stroke-linejoin="round"/>
<path d="M213.67 299.71L242.48 292.5" stroke="#263238" stroke-linecap="round" stroke-linejoin="round"/>
<path d="M179.88 308.15L209.02 300.87" stroke="#263238" stroke-linecap="round" stroke-linejoin="round"/>
<path opacity="0.2" d="M347.76 372.22C346.67 359.17 338.52 329.82 327.65 326.01C320.92 323.66 303.92 330.82 291.95 336.63C292.95 332.2 293.64 327.8 293.64 327.8L260.3 293L260.77 297.51L272.68 328.83C272.68 328.83 268.02 334 269.05 335.83C270.08 337.66 276.82 338.93 276.82 338.93C276.82 338.93 274.75 339.45 276.04 342.81C277.093 345.239 278.487 347.505 280.18 349.54L280.54 349.38C281.221 350.113 281.968 350.783 282.77 351.38C289.29 356.28 290.68 356.49 290.68 356.49C290.68 356.49 293.4 355.94 294.49 370.08C295.58 384.22 291.22 389.08 298.29 397.8C305.36 406.52 357.54 465.8 357.54 465.8C357.54 465.8 348.85 385.27 347.76 372.22Z" fill="black"/>
<path d="M290.17 303.09C290.17 303.09 283.76 310.09 278.52 313.57C273.28 317.05 269.63 321.68 274.45 324.04C277.34 325.46 281.45 323.46 281.45 323.46C281.45 323.46 275.05 325.21 273.89 331.03C272.73 336.85 285.53 334.52 285.53 334.52C285.53 334.52 276.21 340.93 279.13 343.26C282.05 345.59 287.86 343.84 290.77 343.84C293.68 343.84 308.23 334.52 311.77 334.52C315.31 334.52 322.25 342.09 322.25 347.91C322.25 353.73 331.56 353.15 332.72 335.11C333.88 317.07 329.23 301.92 321.66 297.26C314.09 292.6 290.17 303.09 290.17 303.09Z" fill="white" stroke="#263238" stroke-linecap="round" stroke-linejoin="round"/>
<path d="M286.67 322.88L309.91 314.2C309.91 314.2 320.11 311.98 327.43 324.04" stroke="#263238" stroke-linecap="round" stroke-linejoin="round"/>
<path d="M290.75 329.87L311.75 326.37C311.75 326.37 321.06 325.79 326.88 336.85" stroke="#263238" stroke-linecap="round" stroke-linejoin="round"/>
<path d="M428.7 455.32C415.89 443.05 361.7 395.93 361.19 392.74C360.61 389.25 358.28 348.5 358.28 342.67C358.28 336.84 346.64 322.88 346.64 322.88C346.64 322.88 341.86 316.03 339.53 304.39C337.2 292.75 326.53 287.96 320.69 288.54C314.85 289.12 298.9 290.86 292.5 295.54C286.1 300.22 280.27 306.02 286.09 307.76C295.76 310.66 311.59 297.76 319.22 306.68C322.71 310.76 326.84 328.68 327.43 331.05C327.653 332.27 327.57 333.526 327.188 334.706C326.806 335.886 326.136 336.953 325.24 337.81C322.444 340.042 319.474 342.048 316.36 343.81C316.36 343.81 306.9 346.6 302.82 346.94C298.74 347.28 298.74 366.94 303.16 372.75C307.58 378.56 314.03 405.36 319.46 412.16C324.64 418.66 371 488 371 488" fill="white"/>
<path d="M428.7 455.32C415.89 443.05 361.7 395.93 361.19 392.74C360.61 389.25 358.28 348.5 358.28 342.67C358.28 336.84 346.64 322.88 346.64 322.88C346.64 322.88 341.86 316.03 339.53 304.39C337.2 292.75 326.53 287.96 320.69 288.54C314.85 289.12 298.9 290.86 292.5 295.54C286.1 300.22 280.27 306.02 286.09 307.76C295.76 310.66 311.59 297.76 319.22 306.68C322.71 310.76 326.84 328.68 327.43 331.05C327.653 332.27 327.57 333.526 327.188 334.706C326.806 335.886 326.136 336.953 325.24 337.81C322.444 340.042 319.474 342.048 316.36 343.81C316.36 343.81 306.9 346.6 302.82 346.94C298.74 347.28 298.74 366.94 303.16 372.75C307.58 378.56 314.03 405.36 319.46 412.16C324.64 418.66 371 488 371 488" stroke="#263238" stroke-linecap="round" stroke-linejoin="round"/>
<path d="M258 290.05C258.088 289.955 258.208 289.895 258.337 289.882C258.466 289.869 258.595 289.904 258.7 289.98L261.51 291.24C261.65 291.308 261.773 291.405 261.872 291.525C261.971 291.645 262.043 291.785 262.082 291.936C262.122 292.086 262.129 292.243 262.102 292.396C262.075 292.549 262.016 292.695 261.928 292.823C261.84 292.951 261.725 293.059 261.592 293.139C261.458 293.218 261.309 293.268 261.155 293.285C261 293.302 260.844 293.285 260.696 293.236C260.549 293.187 260.414 293.106 260.3 293L258.1 290.85C257.984 290.767 257.905 290.642 257.88 290.502C257.856 290.361 257.888 290.217 257.97 290.1L258 290.05Z" fill="#263238" stroke="#263238" stroke-linecap="round" stroke-linejoin="round"/>
<path d="M260.48 291.65C260.886 291.218 261.433 290.946 262.022 290.883C262.611 290.821 263.203 290.972 263.69 291.31L271.15 295.16L344.38 343.34C345.033 343.762 345.593 344.311 346.029 344.954C346.465 345.597 346.767 346.321 346.917 347.083C347.067 347.846 347.063 348.63 346.903 349.391C346.744 350.151 346.433 350.871 345.989 351.509C345.545 352.147 344.978 352.689 344.32 353.102C343.663 353.516 342.929 353.794 342.162 353.918C341.395 354.042 340.611 354.011 339.857 353.825C339.102 353.64 338.393 353.305 337.77 352.84L266.69 300.41L260.87 295.36C260.605 295.175 260.378 294.94 260.204 294.667C260.029 294.395 259.91 294.09 259.853 293.772C259.797 293.453 259.804 293.126 259.873 292.81C259.943 292.494 260.075 292.195 260.26 291.93C260.322 291.828 260.396 291.734 260.48 291.65Z" fill="#FCD3A3" stroke="#263238" stroke-linecap="round" stroke-linejoin="round"/>
<path d="M344.38 343.34L323.25 329.43C321.616 329.902 320.174 330.882 319.134 332.229C318.095 333.576 317.512 335.219 317.47 336.92C317.477 337.255 317.504 337.589 317.55 337.92L337.77 352.83C338.392 353.295 339.102 353.63 339.857 353.815C340.611 354 341.395 354.032 342.162 353.908C342.929 353.784 343.663 353.506 344.32 353.092C344.978 352.679 345.545 352.137 345.989 351.499C346.433 350.861 346.744 350.141 346.903 349.381C347.063 348.62 347.067 347.836 346.917 347.073C346.767 346.311 346.465 345.587 346.029 344.944C345.593 344.301 345.033 343.752 344.38 343.33V343.34Z" fill="#263238" stroke="#263238" stroke-linecap="round" stroke-linejoin="round"/>
<path d="M317.77 409.13C294.77 383.13 298.6 368.77 295.1 364.13C291.6 359.49 289.53 355.13 286.04 344.62C282.55 334.11 280.27 325.81 280.27 317.08C280.27 308.35 287.77 306.84 293.59 316.15C299.41 325.46 306.47 339.78 306.47 339.78C306.47 339.78 311.12 345.6 320.47 343.86" fill="white"/>
<path d="M317.77 409.13C294.77 383.13 298.6 368.77 295.1 364.13C291.6 359.49 289.53 355.13 286.04 344.62C282.55 334.11 280.27 325.81 280.27 317.08C280.27 308.35 287.77 306.84 293.59 316.15C299.41 325.46 306.47 339.78 306.47 339.78C306.47 339.78 311.12 345.6 320.47 343.86" stroke="#263238" stroke-linecap="round" stroke-linejoin="round"/>
<path d="M306.47 339.76C306.47 339.76 313 345.93 316 351" stroke="#263238" stroke-linecap="round" stroke-linejoin="round"/>
<path d="M287.57 313.41L289.51 317.3C289.51 317.3 289.07 317.3 285.97 319.08C284.112 320.134 282.55 321.641 281.43 323.46C281.43 323.46 278.43 315.09 281.09 312.46C281.737 311.786 282.587 311.343 283.51 311.2C284.333 311.103 285.165 311.263 285.892 311.659C286.619 312.055 287.206 312.667 287.57 313.41Z" fill="white" stroke="#263238" stroke-linecap="round" stroke-linejoin="round"/>
<path d="M295.88 334.6L296.82 334.49" stroke="#263238" stroke-linecap="round" stroke-linejoin="round"/>
<path d="M287.16 339.43C287.16 339.43 287.7 336.25 294.1 334.9" stroke="#263238" stroke-linecap="round" stroke-linejoin="round"/>
<path d="M294.13 337.19C294.13 337.19 293.68 338.53 289.19 340.33" stroke="#263238" stroke-linecap="round" stroke-linejoin="round"/>
<path d="M293.94 332.91C291.696 333.268 289.564 334.137 287.71 335.45" stroke="#263238" stroke-linecap="round" stroke-linejoin="round"/>
<path opacity="0.2" d="M170.28 252.17C170.28 252.17 166.2 263.5 164.57 266.22C162.94 268.94 154.24 279.22 152.57 281.98C150.9 284.74 147.67 293.4 147.67 293.4L174.08 286.72C174.08 286.72 166.7 297.72 162.35 303.18C158 308.64 148.8 320 148.8 321.67C148.8 323.34 146.63 329.82 146.63 329.82L159.13 339.06L184.68 329.82L195 326C195 326 174.34 339.05 167.82 345.57C161.3 352.09 138.46 365.14 132.48 369.49C126.5 373.84 114 376 109.12 377.11C104.24 378.22 61.2798 413 61.2798 413L123.28 285.8L141.22 255.9L157 244.48L155.37 262.41L170.28 252.17Z" fill="black"/>
<path d="M36.5 439.4L101.76 372.25C107.286 371.507 112.726 370.221 118 368.41C128 365.16 131 364.28 135.72 360.74C140.44 357.2 159.94 346.86 168.2 341.54C176.46 336.22 190.94 330.32 193.6 327.95C196.26 325.58 194.19 322.64 187.11 321.16C180.03 319.68 172.93 321.46 163.48 325.59C154.03 329.72 144.28 333.27 144.58 331.2C144.88 329.13 146.65 318.8 148.42 315.26C150.19 311.72 167.92 292.63 168.21 291.74C168.5 290.85 170.58 289.97 174.12 286.74C177.66 283.51 183.28 279.66 184.12 274.04C184.96 268.42 180.58 270.5 178.81 271.39C177.04 272.28 164.63 277.59 161.38 279.66C158.13 281.73 139.17 301.71 139.17 301.71L152.52 273.71C154.227 272.172 155.809 270.5 157.25 268.71C159.02 266.35 169.65 254.83 170.25 252.17C170.368 251.459 170.31 250.73 170.079 250.046C169.849 249.363 169.454 248.747 168.929 248.253C168.404 247.759 167.766 247.402 167.07 247.213C166.374 247.024 165.643 247.009 164.94 247.17C161.69 248.06 151.48 257.08 148.1 259.57C141.1 264.75 129.79 284.38 129.79 284.38L142.2 261.64C142.2 261.64 151.65 253.08 154.01 250.42C156.37 247.76 159.22 241.88 156.67 239.2C153.96 236.35 148.09 241.14 143.67 245.69C139.61 249.88 133.67 255.14 133.67 255.14C133.67 255.14 137.22 251.01 136.33 247.47C135.44 243.93 128.65 248.94 126.59 249.53C124.53 250.12 106.8 265.78 104.14 267.84C101.48 269.9 95.93 286.84 95.93 286.84L74.46 331.62L10 378" fill="white"/>
<path d="M36.5 439.4L101.76 372.25C107.286 371.507 112.726 370.221 118 368.41C128 365.16 131 364.28 135.72 360.74C140.44 357.2 159.94 346.86 168.2 341.54C176.46 336.22 190.94 330.32 193.6 327.95C196.26 325.58 194.19 322.64 187.11 321.16C180.03 319.68 172.93 321.46 163.48 325.59C154.03 329.72 144.28 333.27 144.58 331.2C144.88 329.13 146.65 318.8 148.42 315.26C150.19 311.72 167.92 292.63 168.21 291.74C168.5 290.85 170.58 289.97 174.12 286.74C177.66 283.51 183.28 279.66 184.12 274.04C184.96 268.42 180.58 270.5 178.81 271.39C177.04 272.28 164.63 277.59 161.38 279.66C158.13 281.73 139.17 301.71 139.17 301.71L152.52 273.71C154.227 272.172 155.809 270.5 157.25 268.71C159.02 266.35 169.65 254.83 170.25 252.17C170.368 251.459 170.31 250.73 170.079 250.046C169.849 249.363 169.454 248.747 168.929 248.253C168.404 247.759 167.766 247.402 167.07 247.213C166.374 247.024 165.643 247.009 164.94 247.17C161.69 248.06 151.48 257.08 148.1 259.57C141.1 264.75 129.79 284.38 129.79 284.38L142.2 261.64C142.2 261.64 151.65 253.08 154.01 250.42C156.37 247.76 159.22 241.88 156.67 239.2C153.96 236.35 148.09 241.14 143.67 245.69C139.61 249.88 133.67 255.14 133.67 255.14C133.67 255.14 137.22 251.01 136.33 247.47C135.44 243.93 128.65 248.94 126.59 249.53C124.53 250.12 106.8 265.78 104.14 267.84C101.48 269.9 95.93 286.84 95.93 286.84L74.46 331.62L10 378" stroke="#263238" stroke-linecap="round" stroke-linejoin="round"/>
<path d="M133.66 255.12L125 262.61C124.062 263.424 123.255 264.379 122.61 265.44L107.23 290.6" stroke="#263238" stroke-linecap="round" stroke-linejoin="round"/>
<path d="M193.09 323.27L188.63 323.56C188.63 323.56 191.63 326.24 188.93 330.1" stroke="#263238" stroke-linecap="round" stroke-linejoin="round"/>
<path d="M177.7 272.76C177.7 272.76 179.61 272.5 181.79 275.95C182.802 275.119 183.549 274.01 183.94 272.76" stroke="#263238" stroke-linecap="round" stroke-linejoin="round"/>
<path d="M161.35 249.57C163.177 249.982 164.917 250.713 166.49 251.73C167.29 252.35 168.76 251.26 169.37 250.46" stroke="#263238" stroke-linecap="round" stroke-linejoin="round"/>
<path d="M149.45 241.24C150.277 241.271 151.088 241.475 151.83 241.84C152.773 242.355 153.669 242.951 154.51 243.62C155.053 243.415 155.547 243.097 155.957 242.687C156.367 242.276 156.686 241.783 156.89 241.24" stroke="#263238" stroke-linecap="round" stroke-linejoin="round"/>
<path d="M129.83 248.38C129.83 248.38 131.83 248.17 132.83 248.97C134.26 250.19 133.43 250.76 133.43 250.76C133.43 250.76 135.86 249.9 136.1 248.67" stroke="#263238" stroke-linecap="round" stroke-linejoin="round"/>
<path d="M162.83 282.57C164.57 283.809 165.995 285.44 166.99 287.33" stroke="#263238" stroke-linecap="round" stroke-linejoin="round"/>
<path d="M161.05 283.16C162.209 284.481 163.502 285.678 164.91 286.73" stroke="#263238" stroke-linecap="round" stroke-linejoin="round"/>
<path d="M167.29 283.46L169.37 286.14" stroke="#263238" stroke-linecap="round" stroke-linejoin="round"/>
<path d="M172.28 326.54L174.36 330.1" stroke="#263238" stroke-linecap="round" stroke-linejoin="round"/>
<path d="M174.96 332.19L175.55 333.37" stroke="#263238" stroke-linecap="round" stroke-linejoin="round"/>
<path d="M177 327.43C177.527 329.869 177.725 332.368 177.59 334.86" stroke="#263238" stroke-linecap="round" stroke-linejoin="round"/>
<path d="M145.29 265C145.29 265 148.29 264.7 150.64 268.27" stroke="#263238" stroke-linecap="round" stroke-linejoin="round"/>
<path d="M146.78 268.59L149.45 270.08" stroke="#263238" stroke-linecap="round" stroke-linejoin="round"/>
<path d="M147.67 264.14L149.45 265.32" stroke="#263238" stroke-linecap="round" stroke-linejoin="round"/>
<path d="M129.53 260.86C130.522 260.631 131.555 260.647 132.539 260.907C133.523 261.166 134.43 261.662 135.18 262.35" stroke="#263238" stroke-linecap="round" stroke-linejoin="round"/>
<path d="M130.72 262.65C132.056 263.278 133.449 263.777 134.88 264.14" stroke="#263238" stroke-linecap="round" stroke-linejoin="round"/>
<path d="M134.29 259.38L136.37 259.97" stroke="#263238" stroke-linecap="round" stroke-linejoin="round"/>
<path d="M109.91 265.92C111.774 265.534 113.697 265.534 115.56 265.92" stroke="#263238" stroke-linecap="round" stroke-linejoin="round"/>
<path d="M116.15 264.14L119.13 265.32" stroke="#263238" stroke-linecap="round" stroke-linejoin="round"/>
<path d="M129.82 284.36L123.44 296.51" stroke="#263238" stroke-linecap="round" stroke-linejoin="round"/>
</svg>
