<svg width="500" height="474" viewBox="0 0 500 474" fill="none" xmlns="http://www.w3.org/2000/svg">
<path d="M77.5099 117.46L79.5099 113.92C95.9899 84.05 127.43 65.05 161.51 65.58C165.899 65.6477 170.277 66.032 174.61 66.73C205.84 71.82 233.82 93.65 246.36 122.73C253.73 139.81 256.5 159.73 269.59 172.97C286.59 190.18 314.15 189.46 338.3 187.58C362.45 185.7 390 185 406.93 202.3C417.55 213.13 421.51 229.04 421.4 244.2C421.12 284.35 394.54 321.48 359.4 340.97C324.26 360.46 282.05 363.97 242.4 358.03C186.76 349.64 133 322 99.2699 276.92C65.5399 231.84 54.6599 168.86 77.5099 117.46Z" fill="#FCD3A3"/>
<path d="M197.76 221.14L189.76 225.43L172.05 239.06C172.05 239.06 117.82 246.26 115.74 247.82C113.66 249.38 86.7399 262.19 83.0399 279.38C79.3399 296.57 71.8999 408.68 71.8999 408.68L81.7399 441.8L279.25 442.11L325.57 441.45C325.57 441.45 343.36 399.88 343.36 388.45C343.36 377.02 338.16 291.08 338.16 291.08L282.61 251.91L197.76 221.14Z" fill="#E3B76B"/>
<path d="M171.55 238.25C171.477 238.413 171.387 238.567 171.28 238.71C171.04 239.05 170.76 239.47 170.41 239.98C169.63 241.06 168.57 242.68 167.34 244.71C166.74 245.71 166.06 246.85 165.43 248.1C164.8 249.35 164.12 250.68 163.43 252.1C162.033 255.215 160.834 258.414 159.84 261.68C158.127 267.64 156.843 273.716 156 279.86C155.66 282.16 155.39 284.05 155.19 285.45C155.1 286.06 155.03 286.56 154.97 286.97C154.956 287.148 154.915 287.323 154.85 287.49C154.828 287.314 154.828 287.136 154.85 286.96C154.85 286.55 154.93 286.04 154.98 285.42C155.1 284.09 155.32 282.17 155.62 279.81C156.381 273.622 157.638 267.506 159.38 261.52C160.383 258.24 161.602 255.029 163.03 251.91C163.71 250.47 164.37 249.12 165.03 247.91C165.69 246.7 166.38 245.55 167.03 244.53C168.32 242.53 169.42 240.92 170.25 239.87L171.2 238.66C171.301 238.51 171.418 238.373 171.55 238.25Z" fill="#3C3C3C"/>
<g opacity="0.3">
<path d="M172.78 271.21C172.45 270.15 172.03 268.96 171 268.55C170.2 268.22 170.52 268.74 169.72 269.08C162.22 272.17 158.6 279.08 155.42 286.92L155.6 286.73C155.374 287.386 155.372 288.098 155.594 288.755C155.817 289.412 156.252 289.977 156.83 290.36C158.52 291.36 160.69 290.81 162.43 289.91C164.17 289.01 165.76 287.76 167.66 287.28C171.76 286.22 175.85 289.03 178.75 292.13C181.65 295.23 184.25 298.91 188.21 300.44C181.329 291.718 176.1 281.812 172.78 271.21Z" fill="black"/>
</g>
<path d="M154.83 287.49C155.732 285.295 156.795 283.169 158.01 281.13C159.394 278.715 160.987 276.427 162.77 274.29C163.898 272.958 165.151 271.736 166.51 270.64C168.043 269.389 169.854 268.521 171.79 268.11H171.94L172 268.26C173.25 271.53 174.57 275.1 176.1 278.86C177.661 282.859 179.53 286.73 181.69 290.44C184.078 294.493 186.967 298.229 190.29 301.56C193.869 305.084 197.815 308.215 202.06 310.9C203.51 311.75 204.91 312.66 206.36 313.46L210.69 315.77H210.43L217.65 310.77L221.15 308.36C222.31 307.57 223.44 306.78 224.51 305.94C228.542 302.762 232.29 299.239 235.71 295.41C239.794 292.32 243.281 288.511 246 284.17C248.084 280.838 249.646 277.205 250.63 273.4C251.26 270.957 251.655 268.459 251.81 265.94C251.87 265.06 251.81 264.39 251.88 263.94C251.95 263.49 251.88 263.26 251.88 263.26C251.88 263.26 251.88 263.49 251.88 263.94C251.88 264.39 251.88 265.07 251.88 265.94C251.787 268.477 251.432 270.997 250.82 273.46C249.868 277.307 248.327 280.984 246.25 284.36C243.552 288.741 240.078 292.594 236 295.73C232.57 299.594 228.809 303.151 224.76 306.36C223.68 307.21 222.55 308.01 221.39 308.8L217.89 311.22L210.67 316.22L210.55 316.31L210.41 316.24L206.06 313.92C204.6 313.12 203.19 312.21 201.74 311.35C197.453 308.65 193.473 305.492 189.87 301.93C186.524 298.567 183.618 294.793 181.22 290.7C179.075 286.95 177.226 283.038 175.69 279C174.17 275.22 172.87 271.64 171.64 268.37L171.85 268.49C169.972 268.884 168.214 269.716 166.72 270.92C165.371 271.991 164.126 273.187 163 274.49C161.211 276.602 159.602 278.86 158.19 281.24C157.02 283.24 156.19 284.78 155.66 285.85L155.05 287.08C154.995 287.226 154.921 287.364 154.83 287.49Z" fill="#3C3C3C"/>
<path d="M266.6 262.87C266.752 267.964 266.511 273.063 265.88 278.12C265.254 283.642 264.235 289.113 262.83 294.49C261.104 301.104 258.891 307.582 256.21 313.87L255.83 314.77L255.71 313.77C255.64 313.19 255.59 312.56 255.49 311.92C255.019 308.331 254.185 304.8 253 301.38C252.43 299.72 251.78 298.12 251.08 296.58C250.73 295.81 250.36 295.06 249.98 294.32C249.635 293.592 249.227 292.896 248.76 292.24C248.322 291.603 247.711 291.103 247 290.8C246.663 290.678 246.3 290.65 245.948 290.716C245.596 290.783 245.269 290.943 245 291.18C244.453 291.681 243.945 292.222 243.48 292.8L242.03 294.45L236.74 300.45L229.05 309.16L227 311.56L226.44 312.16L226.24 312.35C226.286 312.269 226.34 312.192 226.4 312.12L226.92 311.49L228.92 309.07L236.48 300.25L241.72 294.17C242.2 293.62 242.72 293.07 243.16 292.5C243.644 291.901 244.172 291.34 244.74 290.82C245.065 290.537 245.46 290.346 245.883 290.265C246.306 290.184 246.743 290.217 247.15 290.36C247.934 290.696 248.606 291.248 249.09 291.95C249.579 292.628 250.008 293.347 250.37 294.1C250.75 294.84 251.13 295.6 251.48 296.37C252.19 297.92 252.85 299.54 253.48 301.21C254.676 304.67 255.521 308.241 256 311.87C256.1 312.51 256.15 313.15 256.22 313.74L255.72 313.67C258.392 307.404 260.611 300.954 262.36 294.37C263.778 289.018 264.831 283.575 265.51 278.08C266.09 273.4 266.33 269.59 266.43 266.96C266.5 265.64 266.5 264.62 266.53 263.96C266.53 263.64 266.53 263.38 266.53 263.17C266.53 262.96 266.6 262.87 266.6 262.87Z" fill="#3C3C3C"/>
<path d="M192 235.24C192 235.24 192 235.32 191.85 235.44L191.37 235.98C190.93 236.44 190.37 237.17 189.62 238.12C187.64 240.901 186.026 243.926 184.82 247.12C182.989 251.815 181.782 256.731 181.23 261.74C180.527 267.871 180.797 274.074 182.03 280.12C182.662 283.248 183.6 286.306 184.83 289.25C185.972 291.991 187.368 294.619 189 297.1C191.757 301.316 195.127 305.098 199 308.32C200.61 309.74 202.25 310.8 203.62 311.82C204.99 312.84 206.31 313.54 207.35 314.13L209.78 315.47L210.41 315.83C210.486 315.866 210.557 315.913 210.62 315.97C210.62 315.97 210.54 315.97 210.39 315.88L209.74 315.56L207.25 314.31C206.19 313.74 204.94 312.94 203.46 312.06C201.98 311.18 200.46 310.06 198.77 308.6C194.826 305.391 191.393 301.601 188.59 297.36C186.951 294.831 185.555 292.152 184.42 289.36C183.174 286.39 182.222 283.306 181.58 280.15C180.335 274.047 180.078 267.784 180.82 261.6C181.4 256.556 182.651 251.612 184.54 246.9C185.795 243.708 187.477 240.701 189.54 237.96C190.109 237.223 190.727 236.525 191.39 235.87L191.9 235.36L192 235.24Z" fill="#3C3C3C"/>
<path d="M106.94 331.33C106.94 331.33 107.02 331.41 107.14 331.61L107.67 332.54H107.52C106.81 329.18 104.87 318.88 102.66 306.69C101.34 299.19 100.14 292.4 99.25 287.39C98.85 284.97 98.52 282.99 98.25 281.53C98.16 280.88 98.08 280.36 98.02 279.93C97.9787 279.746 97.9619 279.558 97.97 279.37C98.0388 279.548 98.0891 279.732 98.12 279.92C98.21 280.33 98.32 280.86 98.45 281.5C98.74 282.94 99.12 284.92 99.59 287.33C100.52 292.33 101.77 299.1 103.16 306.6C105.36 318.78 107.16 329.12 107.66 332.51L107.74 333.02L107.51 332.56L107.04 331.56C107 331.486 106.967 331.409 106.94 331.33Z" fill="#3C3C3C"/>
<path d="M104.53 329.27C104.4 329.33 101.88 324.27 98.8999 317.96C95.9199 311.65 93.6199 306.48 93.7499 306.42C93.8799 306.36 96.3999 311.42 99.3799 317.73C102.36 324.04 104.66 329.21 104.53 329.27Z" fill="#3C3C3C"/>
<g opacity="0.3">
<path d="M103.5 439.22C109.77 442.37 124.31 436.81 129.59 429.88C134.87 422.95 136.4 413.93 137.59 405.29C139.317 392.27 140.55 379.2 141.29 366.08C152.169 373.988 165.402 377.985 178.84 377.42C187.32 377.03 196.99 373.66 199.62 365.59C202.25 357.52 196.62 349.38 190.82 343.31C185.294 337.527 179.271 332.24 172.82 327.51C168.59 324.41 163.95 321.51 158.73 320.9C153.1 320.29 147.41 322.59 143.13 326.3C138.85 330.01 135.86 335.01 133.67 340.23C126.98 356.18 127.34 374.03 125.97 391.23C124.6 408.43 122.78 426.32 107.51 437.54" fill="black"/>
</g>
<path d="M103.91 439.28C104.047 439.2 104.191 439.133 104.34 439.08L105.6 438.53C107.133 437.715 108.569 436.729 109.88 435.59C114.454 431.419 118.351 426.56 121.43 421.19V421.27C122.34 414.42 123.43 406.42 124.54 397.92C126.38 384.44 128 372.24 129.31 363.42C130.12 359.07 130.77 355.54 131.24 353.04C131.47 351.85 131.65 350.91 131.79 350.22L131.94 349.49C131.953 349.407 131.977 349.327 132.01 349.25C132.025 349.333 132.025 349.417 132.01 349.5C132.01 349.7 131.94 349.94 131.9 350.24L131.45 353.08C131.02 355.58 130.45 359.08 129.68 363.48C128.5 372.35 126.87 384.48 125.07 397.99C123.91 406.49 122.82 414.48 121.89 421.33V421.38C118.758 426.776 114.781 431.634 110.11 435.77C108.77 436.9 107.295 437.861 105.72 438.63C105.16 438.86 104.72 439.01 104.42 439.11C104.262 439.198 104.089 439.255 103.91 439.28Z" fill="#3C3C3C"/>
<path d="M200.17 441.45C200.124 441.351 200.09 441.247 200.07 441.14C200.01 440.9 199.94 440.59 199.85 440.2C199.67 439.37 199.34 438.2 199.08 436.58C198.28 432.094 197.818 427.555 197.7 423C197.541 416.256 197.902 409.509 198.78 402.82C199.7 395.26 201.23 387.03 203.01 378.43C204.79 369.83 206.86 361.72 208.6 354.33C210.251 347.81 211.326 341.158 211.81 334.45C212.069 329.924 211.901 325.384 211.31 320.89C211.14 319.29 210.87 318.07 210.75 317.23L210.61 316.28C210.597 316.17 210.597 316.06 210.61 315.95C210.65 316.053 210.677 316.16 210.69 316.27C210.74 316.51 210.81 316.82 210.89 317.21C211.03 318.04 211.34 319.21 211.54 320.86C212.209 325.364 212.433 329.922 212.21 334.47C211.777 341.217 210.736 347.91 209.1 354.47C207.38 361.88 205.25 369.96 203.55 378.57C201.85 387.18 200.23 395.37 199.28 402.91C198.375 409.567 197.97 416.282 198.07 423C198.154 427.533 198.558 432.054 199.28 436.53C199.51 438.12 199.81 439.33 199.95 440.17C200.02 440.56 200.08 440.88 200.12 441.12C200.16 441.36 200.17 441.45 200.17 441.45Z" fill="#3C3C3C"/>
<path d="M217 328.69C216.88 328.61 218.6 325.86 220.52 322.35C222.44 318.84 223.83 315.91 223.97 315.97C223.824 316.667 223.582 317.34 223.25 317.97C222.73 319.18 221.94 320.82 220.98 322.59C220.02 324.36 219.05 325.9 218.31 326.99C217.953 327.614 217.513 328.186 217 328.69Z" fill="#3C3C3C"/>
<g opacity="0.3">
<path d="M220.22 324.54C225.432 318.439 231.077 312.721 237.11 307.43C238.76 305.98 240.55 304.51 242.72 304.15C245.36 303.71 248.05 305.07 249.88 307.03C251.605 309.086 252.983 311.41 253.96 313.91C256.58 307.47 253.86 300.21 251.16 293.8C250.28 291.71 248.76 289.23 246.52 289.57C245.348 289.897 244.328 290.626 243.64 291.63C234.973 301.692 226.957 312.297 219.64 323.38" fill="black"/>
</g>
<g opacity="0.3">
<path d="M308.14 276.91L308.51 273.74C304.7 274.1 300.02 274.55 296.98 276.87C293.43 279.58 291.98 284.19 290.84 288.49C288.12 298.27 295.84 348.62 295.44 358.77C298.81 357.34 301.19 335.77 301.79 332.11C303.27 323.3 300.28 317.8 301.19 315.34C302.1 312.88 302.07 310.21 302.14 307.6C302.47 295.91 303.63 287.69 308.14 276.91Z" fill="black"/>
</g>
<path d="M258.43 115.31C253.59 109.31 255.18 99.72 260.72 94.31C266.26 88.9 274.72 87.4 282.29 88.68C287.807 89.6614 293.013 91.9356 297.482 95.3163C301.95 98.697 305.555 103.088 308 108.13C310.6 113.58 312 120.02 316.77 123.72C320.95 126.98 326.71 127.26 331.47 129.6C337.85 132.72 341.97 139.41 343.47 146.36C344.97 153.31 344.05 160.55 342.58 167.51C341.23 173.89 339.43 180.79 342.17 186.7C344.91 192.61 351.08 195.62 355.17 200.48C362.91 209.61 361.17 225.15 351.58 232.33C348.53 234.62 344.67 236.33 343.21 239.89C341.88 243.11 343.01 246.76 342.94 250.24C342.77 259.24 332.88 266.59 324.23 264.24C319.87 263.04 315.85 259.82 311.36 260.43C306.87 261.04 303.93 265.16 300.36 267.83C296.707 270.369 292.291 271.573 287.855 271.239C283.419 270.906 279.233 269.056 276 266C273.38 263.39 271.27 259.84 267.69 258.89C264.11 257.94 260.36 259.99 256.69 259.49C251.9 258.84 248.75 254.08 247.33 249.49C245.91 244.9 245.54 239.85 243.15 235.65C240 230.09 234 227 229 223.1C223.447 218.808 218.88 213.374 215.609 207.164C212.338 200.955 210.439 194.115 210.041 187.108C209.643 180.101 210.754 173.09 213.301 166.55C215.847 160.01 219.769 154.093 224.8 149.2" fill="#3C3C3C"/>
<path d="M191.36 235.27C186.611 240.816 183.247 247.411 181.547 254.511C179.847 261.612 179.858 269.015 181.58 276.11C185.15 290.22 196.95 310.85 210.58 315.97C219.42 309.49 230.78 300.44 239.02 293.22C244.35 288.55 247.18 281.72 249.82 275.14C251.34 271.34 252.89 267.24 251.94 263.26C251.23 260.33 249.25 257.89 247.16 255.72C240.371 248.786 232.029 243.567 222.823 240.496C213.617 237.425 203.812 236.59 194.22 238.06" fill="#EF9D78"/>
<path d="M231.83 133.68C234.29 128.692 238.389 124.7 243.441 122.373C248.492 120.047 254.19 119.526 259.58 120.9L293.69 129.6C310.74 135.09 324.09 161.48 314.04 184.6C306.1 202.85 297.97 225.78 289.82 238.38C273.42 263.7 251 257.91 251 257.91L238.9 284.91L189.43 238.52L231.83 133.68Z" fill="#EF9D78"/>
<path d="M289.43 191.73C290.07 191.49 291.75 194.73 295.43 196.46C299.11 198.19 302.75 197.7 302.93 198.35C303.03 198.65 302.2 199.25 300.6 199.53C298.457 199.858 296.265 199.508 294.33 198.53C292.4 197.61 290.816 196.096 289.81 194.21C289.11 192.83 289.12 191.83 289.43 191.73Z" fill="#3C3C3C"/>
<path d="M250.8 174.14C251.52 174 253.18 177.55 257.16 180.02C261.14 182.49 265.16 182.56 265.33 183.25C265.42 183.57 264.47 184.04 262.68 184.06C260.244 184.012 257.867 183.296 255.81 181.99C253.767 180.742 252.126 178.933 251.08 176.78C250.38 175.21 250.45 174.19 250.8 174.14Z" fill="#3C3C3C"/>
<path d="M267.17 211.86C267.25 211.64 269.76 212.27 273.76 213.47C274.76 213.79 275.76 214.01 276.21 213.42C276.66 212.83 276.8 211.62 276.83 210.29C276.96 207.57 277.1 204.72 277.23 201.72C277.91 189.57 278.84 179.72 279.33 179.77C279.82 179.82 279.68 189.68 279.01 201.84C278.823 204.833 278.643 207.687 278.47 210.4C278.35 211.65 278.42 213.17 277.3 214.4C277.009 214.676 276.658 214.883 276.276 215.004C275.893 215.126 275.487 215.158 275.09 215.1C274.495 215.01 273.914 214.846 273.36 214.61C269.46 213.11 267.09 212.08 267.17 211.86Z" fill="#3C3C3C"/>
<path d="M251 258C251 258 231.25 250.6 217.92 231.63C217.92 231.63 218.67 254.79 247.98 264.79L251 258Z" fill="#D37A57"/>
<path d="M253.9 161.32C254.52 160.32 258.43 161.68 263.27 162.11C268.11 162.54 272.2 162.06 272.62 163.17C272.8 163.7 271.92 164.59 270.16 165.32C267.83 166.183 265.335 166.505 262.862 166.261C260.39 166.016 258.006 165.212 255.89 163.91C254.31 162.84 253.62 161.8 253.9 161.32Z" fill="#3C3C3C"/>
<path d="M297.49 172.32C298.75 172.32 300.31 175.43 303.01 178.4C305.71 181.37 308.5 183.4 308.32 184.66C308.2 185.23 307.15 185.48 305.49 184.99C303.296 184.231 301.345 182.898 299.84 181.13C298.285 179.419 297.224 177.317 296.77 175.05C296.51 173.35 296.9 172.36 297.49 172.32Z" fill="#3C3C3C"/>
<path d="M258.5 222.31C258.5 222.31 260.82 221.1 259.74 216.64C258.66 212.18 253 208.15 249.41 211.82C249.41 211.82 245.79 212.09 247.21 216.27C248.63 220.45 256.89 226.35 258.43 222.99" fill="#D37A57"/>
<path d="M257.15 225.72C256.49 225.6 257.49 221.25 254.49 217.3C251.49 213.35 246.75 212.75 246.86 212.13C246.86 211.84 248.09 211.53 250.06 211.93C252.613 212.486 254.887 213.928 256.48 216C258.016 217.991 258.716 220.502 258.43 223C258.18 224.85 257.44 225.81 257.15 225.72Z" fill="#3C3C3C"/>
<path d="M202.66 119.47C200.017 121.533 197.897 124.19 196.472 127.225C195.048 130.26 194.358 133.589 194.46 136.94C194.61 140.68 195.52 145.09 192.77 147.63C190.02 150.17 185.55 148.82 181.77 148.84C178.44 148.95 175.255 150.228 172.773 152.452C170.292 154.675 168.673 157.702 168.2 161C167.93 163.36 168.2 165.91 167.04 168C165.88 170.09 163.27 171.09 161.15 172.38C158.505 173.981 156.328 176.25 154.836 178.958C153.344 181.666 152.591 184.719 152.651 187.81C152.71 190.901 153.581 193.922 155.177 196.571C156.772 199.219 159.035 201.402 161.74 202.9C164.19 204.25 167.05 205.1 168.84 207.25C170.84 209.72 170.96 213.25 171.97 216.25C172.941 219.194 174.811 221.759 177.317 223.585C179.823 225.41 182.838 226.404 185.938 226.426C189.038 226.448 192.067 225.498 194.599 223.708C197.13 221.918 199.037 219.38 200.05 216.45" fill="#3C3C3C"/>
<path d="M258 109.9C256.993 112.834 256.645 115.953 256.981 119.037C257.316 122.12 258.327 125.092 259.942 127.74C261.556 130.389 263.734 132.649 266.321 134.36C268.909 136.071 271.841 137.191 274.91 137.64C279.65 138.33 285.31 137.73 288.37 141.42C291.59 145.3 289.68 151.48 292.23 155.84C295.86 162.05 302.07 167.01 307.95 171.17C312.5 174.38 307.3 183.31 309.28 188.51C311.26 193.71 319.41 205.58 324.97 205.79C326.19 201.14 333.11 180.71 333.23 175.91C333.35 171.11 332.23 166.11 329.29 162.33C327.66 160.26 325.52 158.61 324.11 156.39C321.06 151.58 322.11 145.39 321.11 139.76C320.439 136.131 318.909 132.716 316.647 129.8C314.385 126.884 311.458 124.552 308.11 123C302.56 120.46 296.05 120.18 290.92 116.87C287.13 114.42 284.42 110.51 280.49 108.29C272.84 103.97 263.26 107.29 255.35 111.09" fill="#3C3C3C"/>
<path d="M221.13 168C220.34 167.47 215.13 171.44 220.27 174.61C229.34 180.15 237.13 161.41 236.8 155.18C241.42 153.18 246.09 151.25 250.16 148.18C254.23 145.11 260.31 135 261.4 129.86C264.87 131.27 281.64 131.4 280.18 130.39C276.87 128.1 270.18 123.19 269.29 119.39C267.36 111.04 261.43 103.77 253.59 101.59C249.502 100.557 245.189 100.876 241.298 102.498C237.406 104.12 234.144 106.959 232 110.59C222.67 107.51 211.61 110.28 204.17 117.59C200.456 121.333 197.708 125.923 196.163 130.965C194.617 136.007 194.321 141.348 195.3 146.53C195.84 149.19 196.74 151.97 195.89 154.61C194.83 157.87 191.55 159.61 188.94 161.75C181.83 167.52 178.77 177.75 179.64 186.92C180.51 196.09 182.09 199.78 186.64 203.11C195.55 209.61 177.03 226.23 193.64 231.85" fill="#3C3C3C"/>
<path d="M345 231.55C345 231.49 345.59 231.14 346.56 230.23C347.991 228.913 349.132 227.312 349.91 225.53C351.17 222.734 351.496 219.606 350.84 216.61C350.06 213.12 347.43 209.8 343.91 206.97C340.39 204.14 336 201.41 332.82 196.78C329.64 192.15 329.07 185.78 330.09 179.78C331.11 173.78 333.63 167.78 335.25 161.47C336.122 158.292 336.536 155.005 336.48 151.71C336.449 148.36 335.546 145.075 333.86 142.18C332.041 139.368 329.461 137.132 326.42 135.73C323.439 134.334 320.273 133.371 317.02 132.87C313.78 132.489 310.571 131.874 307.42 131.03C305.839 130.609 304.361 129.87 303.076 128.857C301.792 127.844 300.728 126.579 299.95 125.14C298.5 122.28 298.18 119.25 297.55 116.5C297.06 113.833 295.95 111.319 294.31 109.16C291.244 105.295 286.862 102.696 282 101.86C277.992 101.179 273.873 101.672 270.14 103.28C267.314 104.497 264.716 106.188 262.46 108.28C260.576 110.129 258.875 112.155 257.38 114.33C257.38 114.33 257.43 114.15 257.6 113.85C257.834 113.394 258.091 112.95 258.37 112.52C259.43 110.844 260.682 109.297 262.1 107.91C264.354 105.704 266.977 103.91 269.85 102.61C273.704 100.871 277.981 100.29 282.16 100.94C287.265 101.778 291.879 104.479 295.11 108.52C296.866 110.798 298.064 113.456 298.61 116.28C299.27 119.09 299.61 122.05 300.96 124.62C301.674 125.909 302.644 127.038 303.81 127.939C304.975 128.84 306.313 129.494 307.74 129.86C310.836 130.678 313.988 131.27 317.17 131.63C320.553 132.16 323.842 133.17 326.94 134.63C330.209 136.136 332.983 138.539 334.94 141.56C336.743 144.652 337.709 148.161 337.74 151.74C337.8 155.157 337.369 158.565 336.46 161.86C334.77 168.29 332.23 174.16 331.24 180.05C330.25 185.94 330.72 191.87 333.68 196.22C336.64 200.57 341.02 203.28 344.47 206.3C347.92 209.32 350.76 212.76 351.47 216.49C352.098 219.634 351.68 222.896 350.28 225.78C349.434 227.594 348.194 229.196 346.65 230.47C346.155 230.907 345.599 231.271 345 231.55Z" fill="#455A64"/>
<path d="M314.29 171.17C314.4 171.22 313.8 172.6 313.19 175.22C312.353 178.92 312.235 182.746 312.84 186.49C313.244 189.06 314.005 191.56 315.1 193.92C316.424 196.609 318.07 199.127 320 201.42C321.051 202.743 321.947 204.183 322.67 205.71C323.436 207.366 323.76 209.192 323.61 211.01C323.32 214.73 321.49 218.01 320.13 221.4C318.77 224.79 317.9 228.29 319.21 231.4C320.52 234.51 322.9 236.84 325.15 239.08C327.459 241.149 329.442 243.557 331.03 246.22C332.366 248.681 332.723 251.557 332.03 254.27C331.571 256.193 330.69 257.989 329.452 259.53C328.214 261.071 326.649 262.318 324.87 263.18C323.902 263.617 322.874 263.904 321.82 264.03C321.455 264.083 321.085 264.083 320.72 264.03C322.071 263.731 323.387 263.296 324.65 262.73C326.283 261.828 327.704 260.588 328.82 259.093C329.936 257.598 330.72 255.882 331.12 254.06C331.702 251.577 331.346 248.966 330.12 246.73C328.551 244.194 326.609 241.909 324.36 239.95C322.1 237.72 319.47 235.32 318.07 231.86C317.377 230.101 317.146 228.194 317.4 226.32C317.688 224.455 318.219 222.636 318.98 220.91C320.39 217.46 322.13 214.25 322.39 210.91C322.65 207.57 320.98 204.64 319.09 202.13C317.132 199.752 315.48 197.138 314.17 194.35C311.487 188.283 310.989 181.473 312.76 175.08C313.035 174.053 313.393 173.049 313.83 172.08C313.936 171.755 314.091 171.448 314.29 171.17Z" fill="#455A64"/>
<path d="M164.25 202.56C164.25 202.56 164.03 202.44 163.68 202.14C163.149 201.697 162.66 201.204 162.22 200.67C160.53 198.618 159.388 196.172 158.9 193.56C158.477 191.519 158.476 189.413 158.898 187.372C159.319 185.33 160.154 183.397 161.35 181.69C162.941 179.466 165.059 177.671 167.515 176.469C169.971 175.266 172.687 174.693 175.42 174.8L174.87 175.54C173.583 172.227 173.007 168.68 173.18 165.13C173.283 163.173 173.816 161.262 174.74 159.534C175.665 157.805 176.959 156.302 178.53 155.13C180.22 153.862 182.268 153.162 184.38 153.13C186.496 153.258 188.56 153.841 190.43 154.84C192.187 155.794 194.059 156.52 196 157C196.943 157.181 197.916 157.132 198.836 156.859C199.757 156.586 200.598 156.096 201.29 155.43C203.334 153.313 204.505 150.502 204.57 147.56C204.8 144.62 204.52 141.63 204.83 138.64C205.455 132.887 208.056 127.529 212.19 123.48C215.876 119.885 220.626 117.581 225.73 116.91C230.033 116.305 234.419 116.854 238.44 118.5L237.88 118.73C239.32 115.851 241.769 113.601 244.76 112.41C246.952 111.51 249.333 111.166 251.69 111.41C253.156 111.557 254.583 111.971 255.9 112.63C256.358 112.854 256.784 113.137 257.17 113.47C255.447 112.597 253.574 112.06 251.65 111.89C249.38 111.751 247.11 112.159 245.03 113.08C242.247 114.256 239.989 116.407 238.68 119.13L238.5 119.5L238.11 119.35C234.222 117.838 230.006 117.366 225.88 117.98C221.026 118.682 216.523 120.918 213.03 124.36C209.127 128.228 206.679 133.325 206.1 138.79C205.81 141.62 206.1 144.6 205.87 147.7C205.786 150.968 204.467 154.084 202.18 156.42C201.339 157.217 200.322 157.804 199.212 158.134C198.102 158.464 196.929 158.528 195.79 158.32C193.723 157.824 191.73 157.061 189.86 156.05C188.163 155.125 186.288 154.576 184.36 154.44C182.516 154.47 180.729 155.078 179.25 156.18C177.809 157.243 176.623 158.612 175.775 160.189C174.928 161.767 174.441 163.512 174.35 165.3C174.167 168.683 174.688 172.068 175.88 175.24L176.16 176.02H175.33C172.77 175.899 170.219 176.412 167.904 177.512C165.59 178.613 163.582 180.268 162.06 182.33C160.898 183.934 160.073 185.757 159.635 187.689C159.197 189.621 159.154 191.621 159.51 193.57C159.932 196.111 160.961 198.512 162.51 200.57C163.56 201.88 164.3 202.5 164.25 202.56Z" fill="#455A64"/>
<path d="M257.55 117.43C257.61 117.66 255.55 117.33 253.04 119.18C250.53 121.03 248.27 125.36 247.62 130.92L247.57 131.39H247.09C244.328 131.21 241.562 131.672 239.009 132.739C236.455 133.806 234.183 135.449 232.37 137.54C231.361 138.73 230.559 140.083 230 141.54C229.521 143.12 229.186 144.74 229 146.38C228.789 148.145 228.455 149.892 228 151.61C227.504 153.493 226.396 155.157 224.85 156.34C221.53 158.93 217.45 159.34 213.85 159.94C210.396 160.242 207.016 161.118 203.85 162.53C198.552 165.069 194.416 169.527 192.28 175C190.874 178.715 190.403 182.72 190.91 186.66C191.27 189.46 191.91 190.94 191.74 190.98C191.523 190.658 191.358 190.303 191.25 189.93C190.886 188.891 190.605 187.824 190.41 186.74C189.687 182.702 190.031 178.544 191.41 174.68C193.509 168.872 197.778 164.105 203.32 161.38C206.584 159.885 210.076 158.949 213.65 158.61C217.21 158.04 221.08 157.54 223.98 155.25C226.84 153.25 227.15 149.45 227.7 146.12C227.916 144.4 228.288 142.703 228.81 141.05C229.437 139.465 230.322 137.995 231.43 136.7C233.378 134.488 235.818 132.763 238.553 131.664C241.288 130.565 244.243 130.122 247.18 130.37L246.65 130.81C247.45 125.02 249.89 120.54 252.73 118.72C253.774 118.001 254.98 117.551 256.24 117.41C256.675 117.351 257.117 117.357 257.55 117.43Z" fill="#455A64"/>
<path d="M223.06 170.87C225.91 165.29 222.06 158.26 215.81 158.27C212.36 158.27 208.66 160.15 205.58 166.05C197.37 181.79 214.87 186.79 215.13 186.35C215.29 186.08 219.72 177.42 223.06 170.87Z" fill="#EF9D78"/>
<path d="M213.43 177.88C213.43 177.79 213.06 177.93 212.43 177.88C211.637 177.826 210.895 177.468 210.36 176.88C209.02 175.4 208.99 172.03 210.36 169.16C211.015 167.785 211.977 166.577 213.17 165.63C213.577 165.22 214.076 164.915 214.627 164.741C215.177 164.567 215.762 164.529 216.33 164.63C216.689 164.711 217.009 164.916 217.234 165.208C217.458 165.5 217.574 165.862 217.56 166.23C217.56 166.78 217.28 167.04 217.34 167.11C217.4 167.18 217.82 167.02 218.03 166.31C218.167 165.882 218.157 165.421 218 165C217.871 164.725 217.688 164.479 217.463 164.275C217.239 164.07 216.976 163.912 216.69 163.81C215.977 163.599 215.222 163.575 214.497 163.739C213.772 163.904 213.102 164.252 212.55 164.75C211.172 165.766 210.061 167.101 209.31 168.64C207.76 171.87 207.84 175.64 209.77 177.53C210.129 177.871 210.559 178.127 211.03 178.281C211.5 178.435 211.999 178.482 212.49 178.42C213.21 178.24 213.47 177.94 213.43 177.88Z" fill="#D37A57"/>
<path d="M207.38 389.49C205.98 386.91 202.38 385.32 202.38 385.32L199.38 377.97C200.098 376.114 200.098 374.056 199.38 372.2C198.19 369.02 189.44 350.55 189.64 349.95L187.38 349.82C187.38 349.82 195.44 369.37 196.23 370.37C197.02 371.37 198.23 377.18 196.23 377.97C194.23 378.76 190.02 376.62 188.23 374.83C186.44 373.04 180.75 359.59 179.76 356.83C178.77 354.07 180.53 350.18 180.53 350.18L182.12 346.41H180C179.129 348.948 178.398 351.532 177.81 354.15C177.02 357.93 185.96 374.42 187.35 376.21C188.74 378 193.51 379.39 196.09 381.21C198.67 383.03 198.28 388.57 198.28 388.57C196.935 390.512 196.112 392.768 195.89 395.12C195.69 398.7 203.64 415.59 209 419.12C214.36 422.65 220.73 420.12 221.32 420.32C221.91 420.52 223.32 417.53 223.32 417.53C223.32 417.53 208.77 392.07 207.38 389.49ZM214.7 419C211.773 418.605 209.121 417.071 207.32 414.73C206.67 413.87 199.71 401.73 198.81 399.51C197.25 395.58 198.33 393.4 198.9 391.1C199.73 387.75 204.9 389.71 204.9 389.71C204.9 389.71 220.12 416.01 219.77 416.81C219.42 417.61 217.56 419.25 214.7 419Z" fill="#3C3C3C"/>
<path d="M223.27 417.5C223.27 417.5 267.58 400.64 269.65 398.73C271.72 396.82 279.2 385.84 279.2 385.84C279.2 385.84 282.86 386.47 282.38 387.43C281.9 388.39 274.9 399.37 267.38 402.55C259.86 405.73 221.24 420.29 221.24 420.29L223.27 417.5Z" fill="#3C3C3C"/>
<path d="M83.0499 278.55L64.7999 383.81C64.7999 383.81 58.0799 404.29 59.0399 408.81C59.9999 413.33 63.3899 432.61 73.6299 438.69C83.8699 444.77 104.15 440.8 108.31 436.69C112.47 432.58 120.67 424.91 121.63 421.39C122.59 417.87 129.32 364.39 129.32 364.39L131.99 349.39C131.99 349.39 122.07 352.59 115.99 348.39C109.91 344.19 101.91 326.31 101.91 326.31L92.9999 340L83.0499 278.55Z" fill="#E3B76B"/>
<path d="M101.91 326.21C101.82 326.419 101.706 326.617 101.57 326.8L100.48 328.45C99.5399 329.87 98.1799 331.94 96.5499 334.52C93.2699 339.68 88.8899 346.89 84.0999 354.9C79.3099 362.91 74.9999 370.16 71.7699 375.37C70.1699 377.97 68.8499 380.06 67.9199 381.5C67.4699 382.17 67.0999 382.72 66.8299 383.14C66.7076 383.334 66.5706 383.517 66.4199 383.69C66.4999 383.474 66.6075 383.269 66.7399 383.08L67.7399 381.39L71.4599 375.18L83.6499 354.63C88.4399 346.63 92.8799 339.43 96.2399 334.32C97.9199 331.76 99.3199 329.72 100.32 328.32L101.48 326.73C101.607 326.544 101.751 326.37 101.91 326.21Z" fill="#3C3C3C"/>
<path d="M129.7 362.16C129.588 362.316 129.461 362.46 129.32 362.59C129.05 362.86 128.69 363.29 128.15 363.76C126.647 365.144 124.945 366.294 123.1 367.17C121.829 367.768 120.484 368.195 119.1 368.44C117.497 368.742 115.856 368.783 114.24 368.56C112.458 368.331 110.715 367.86 109.06 367.16C107.304 366.401 105.629 365.466 104.06 364.37C102.514 363.226 101.096 361.918 99.8299 360.47C96.6994 356.775 94.6018 352.317 93.7499 347.55C93.3776 345.549 93.24 343.512 93.3399 341.48C93.3399 340.76 93.4599 340.21 93.4899 339.83C93.5075 339.638 93.5409 339.447 93.5899 339.26C93.6276 340.003 93.6276 340.747 93.5899 341.49C93.5725 343.504 93.7636 345.515 94.1599 347.49C94.7435 350.417 95.7828 353.235 97.2399 355.84C98.108 357.361 99.1121 358.8 100.24 360.14C101.49 361.554 102.884 362.835 104.4 363.96C105.944 365.035 107.593 365.953 109.32 366.7C110.918 367.385 112.599 367.856 114.32 368.1C115.876 368.308 117.454 368.274 119 368C120.378 367.779 121.722 367.383 123 366.82C124.83 365.986 126.533 364.899 128.06 363.59C129.1 362.68 129.67 362.12 129.7 362.16Z" fill="#3C3C3C"/>
<path d="M101.91 326.21L115.57 317.43C115.57 317.43 151.97 302.64 155.67 301.79C159.37 300.94 163.67 299.23 165.67 301.79C167.67 304.35 188.42 319.42 188.42 319.42C188.42 319.42 200.65 342.42 200.65 345.59C200.65 348.76 204.06 352.72 200.65 353.85L197.2 355C197.2 355 196.06 360.58 191.79 361.2C187.52 361.82 186.1 361.2 186.1 361.2C186.1 361.2 185.82 366.78 182.41 366.44C179 366.1 173.31 361.2 173.31 361.2C173.31 361.2 170.75 364.1 168.76 364.1C166.77 364.1 160.51 359.84 160.51 359.84L148.41 349.31L137.75 345.62L132 349.25C132 349.25 119.7 350.3 117.85 349.25C116 348.2 101.91 326.21 101.91 326.21Z" fill="#EF9D78"/>
<path d="M171.82 362.16C171.564 361.639 171.353 361.097 171.19 360.54C171.01 360.02 170.78 359.38 170.47 358.65C170.16 357.92 169.86 357.08 169.42 356.19C168.98 355.3 168.55 354.3 167.99 353.29C167.43 352.28 166.8 351.19 166.13 350.06C164.613 347.66 162.918 345.377 161.06 343.23C159.169 341.112 157.127 339.133 154.95 337.31C153.95 336.5 152.95 335.7 151.95 335.05C150.95 334.4 150.1 333.77 149.26 333.25C148.42 332.73 147.63 332.25 146.95 331.89C146.27 331.53 145.67 331.17 145.17 330.89C144.643 330.652 144.135 330.374 143.65 330.06C144.205 330.228 144.744 330.446 145.26 330.71C145.885 330.971 146.496 331.265 147.09 331.59C147.79 331.96 148.6 332.36 149.45 332.89C150.3 333.42 151.24 333.97 152.2 334.66C153.16 335.35 154.2 336.09 155.2 336.9C159.674 340.51 163.493 344.864 166.49 349.77C167.16 350.91 167.81 351.98 168.32 353.05C168.83 354.12 169.32 355.05 169.71 356.05C170.1 357.05 170.42 357.82 170.71 358.56C171 359.3 171.19 359.95 171.34 360.49C171.543 361.033 171.704 361.592 171.82 362.16Z" fill="#D37A57"/>
<path d="M186.08 361.81C186.08 361.81 185.96 361.67 185.77 361.37C185.58 361.07 185.3 360.64 184.99 360.05C184.12 358.382 183.378 356.65 182.77 354.87C181.98 352.63 181.21 349.87 180.31 346.87C179.411 343.61 178.122 340.471 176.47 337.52C174.718 334.629 172.39 332.131 169.63 330.18C167.11 328.35 164.68 326.87 162.83 325.35C161.327 324.204 160.023 322.819 158.97 321.25C158.695 320.816 158.455 320.361 158.25 319.89C158.163 319.733 158.099 319.565 158.06 319.39C158.11 319.39 158.39 320.05 159.14 321.14C160.24 322.638 161.562 323.96 163.06 325.06C164.92 326.52 167.35 327.96 169.91 329.8C172.743 331.761 175.129 334.3 176.91 337.25C178.586 340.237 179.883 343.422 180.77 346.73C181.65 349.73 182.38 352.47 183.12 354.73C183.678 356.503 184.346 358.24 185.12 359.93C185.474 360.538 185.795 361.166 186.08 361.81Z" fill="#D37A57"/>
<path d="M196.34 355.21C196.264 355.055 196.211 354.89 196.18 354.72C196.09 354.33 195.98 353.86 195.84 353.28C195.7 352.7 195.53 351.89 195.28 351.02C195.03 350.15 194.79 349.13 194.4 348.02C194.01 346.91 193.66 345.75 193.15 344.5C192.64 343.25 192.08 341.93 191.47 340.55C188.684 334.605 184.971 329.14 180.47 324.36C179.41 323.28 178.42 322.23 177.41 321.36C176.4 320.49 175.48 319.63 174.59 318.9C173.7 318.17 172.88 317.56 172.16 317C171.44 316.44 170.8 316 170.27 315.64L169.05 314.8C168.78 314.6 168.64 314.49 168.65 314.47C168.812 314.532 168.966 314.613 169.11 314.71L170.38 315.48C170.93 315.81 171.59 316.23 172.33 316.77C173.07 317.31 173.94 317.88 174.83 318.62C175.72 319.36 176.71 320.12 177.7 321.05C178.69 321.98 179.7 322.97 180.81 324.05C183.081 326.456 185.167 329.03 187.05 331.75C188.888 334.495 190.513 337.377 191.91 340.37C192.52 341.77 193.12 343.09 193.56 344.37C194 345.65 194.43 346.83 194.76 347.94C195.09 349.05 195.34 350.05 195.57 350.94C195.768 351.695 195.928 352.459 196.05 353.23C196.15 353.81 196.23 354.3 196.3 354.69C196.339 354.86 196.352 355.036 196.34 355.21Z" fill="#D37A57"/>
<path d="M142.76 316.39C142.76 316.47 142.05 316.58 141 317.04C139.63 317.614 138.436 318.539 137.538 319.723C136.641 320.906 136.072 322.306 135.89 323.78C135.74 324.92 135.83 325.64 135.75 325.65C135.509 325.048 135.433 324.392 135.53 323.75C135.617 322.176 136.172 320.663 137.123 319.405C138.074 318.148 139.379 317.202 140.87 316.69C141.464 316.43 142.115 316.327 142.76 316.39Z" fill="#D37A57"/>
<path d="M152.9 306.75C152.98 306.89 151.22 308 149.48 309.86C147.74 311.72 146.7 313.52 146.56 313.45C147.755 310.499 150.019 308.107 152.9 306.75Z" fill="#D37A57"/>
<path d="M295.61 188C293.88 188.72 293.53 190.79 293.56 192.66C293.56 195 294.18 195.38 296.09 199.3C299.22 205.71 302.96 217.87 302.96 217.87C302.96 217.87 299.89 248.57 301.96 255.78C302.524 257.692 303.549 259.436 304.943 260.86C306.338 262.285 308.06 263.345 309.96 263.95L307.16 287.66H340.65C340.65 287.66 339.46 264.66 338.74 257.66C337.98 250.26 338.48 205.51 338.48 205.51L335.19 181.62L327.44 168.2C326.264 168.969 325.393 170.123 324.975 171.464C324.557 172.805 324.619 174.249 325.15 175.55C326.9 180.46 328.05 189.89 328.05 189.89L308.66 160.71C308.66 160.71 304.85 161.62 304.66 168.71C304.66 168.71 299.02 172.38 302.66 178.34C306.58 185 310.8 205 309.32 205L297.32 187.33L295.61 188Z" fill="#EF9D78"/>
<path d="M307.08 287.66C307.08 287.66 307.08 287.13 307.23 286.09C307.38 285.05 307.52 283.5 307.74 281.5C308.2 277.45 308.88 271.5 309.74 263.93L309.83 264.07C308.271 263.566 306.824 262.765 305.57 261.71C304.189 260.567 303.094 259.119 302.37 257.48C301.65 255.701 301.25 253.808 301.19 251.89C301.076 249.89 301.03 247.857 301.05 245.79C301.14 237.41 301.79 228.03 302.74 217.85V217.93C301.17 212.99 299.43 207.78 297.25 202.5C296.7 201.18 296.12 199.87 295.46 198.57C294.727 197.283 294.086 195.946 293.54 194.57C293.356 193.821 293.275 193.051 293.3 192.28C293.3 191.501 293.415 190.726 293.64 189.98C293.86 189.19 294.357 188.505 295.04 188.05C295.381 187.853 295.739 187.685 296.11 187.55L297.17 187.11L297.35 187.04L297.46 187.2L310 205.59L309.54 205.69C309.704 204.15 309.684 202.595 309.48 201.06C309.306 199.485 309.039 197.923 308.68 196.38C307.955 193.224 307.019 190.121 305.88 187.09C304.78 184 303.39 181 302.04 177.91C301.323 176.314 301.133 174.531 301.5 172.82C301.91 171.086 302.924 169.555 304.36 168.5L304.25 168.69C304.413 167.148 304.769 165.633 305.31 164.18C305.608 163.421 306.005 162.705 306.49 162.05C306.983 161.341 307.681 160.8 308.49 160.5L308.65 160.45L308.76 160.61L308.99 160.95L328.15 189.8L327.68 189.97C327.212 186.124 326.528 182.308 325.63 178.54C325.4 177.61 325.14 176.7 324.84 175.81C324.5 174.889 324.337 173.912 324.36 172.93C324.415 171.95 324.7 170.997 325.192 170.148C325.683 169.298 326.368 168.576 327.19 168.04L327.4 167.9L327.53 168.13L335.28 181.55C336.42 189.91 337.51 197.877 338.55 205.45C338.41 217.83 338.34 229.16 338.36 239.18C338.36 244.18 338.36 248.88 338.51 253.18C338.57 255.34 338.69 257.4 338.89 259.38C339.09 261.36 339.18 263.25 339.3 265.04C339.77 272.2 340.05 277.82 340.25 281.65C340.34 283.56 340.41 285.02 340.45 286.02C340.49 287.02 340.5 287.52 340.5 287.52C340.5 287.52 340.45 287.01 340.39 286.02C340.33 285.03 340.23 283.56 340.12 281.66C339.88 277.83 339.55 272.21 339.05 265.05C338.92 263.26 338.79 261.38 338.62 259.4C338.45 257.42 338.27 255.35 338.21 253.19C338.07 248.85 338.03 244.19 338 239.19C337.95 229.19 338 217.84 338.12 205.46C337.073 197.9 335.97 189.937 334.81 181.57V181.65L327.04 168.25L327.38 168.34C326.632 168.836 326.009 169.499 325.559 170.276C325.11 171.053 324.847 171.924 324.79 172.82C324.78 173.74 324.936 174.655 325.25 175.52C325.563 176.427 325.833 177.347 326.06 178.28C326.963 182.072 327.654 185.911 328.13 189.78L328.27 190.87L327.66 189.95L308.49 161.11L308.27 160.77L308.54 160.88C307.853 161.158 307.262 161.631 306.84 162.24C306.385 162.854 306.015 163.527 305.74 164.24C305.226 165.653 304.89 167.124 304.74 168.62V168.73L304.64 168.81C303.313 169.789 302.374 171.206 301.99 172.81C301.655 174.418 301.837 176.091 302.51 177.59C303.84 180.64 305.25 183.68 306.35 186.78C307.497 189.834 308.439 192.961 309.17 196.14C309.545 197.742 309.822 199.365 310 201C310.21 202.582 310.23 204.183 310.06 205.77L309.97 206.41L309.6 205.87C305.27 199.49 301.05 193.29 297.07 187.44L297.36 187.52C296.67 187.83 295.88 188.09 295.29 188.42C294.699 188.815 294.272 189.413 294.09 190.1C293.878 190.8 293.77 191.528 293.77 192.26C293.746 192.983 293.82 193.707 293.99 194.41C294.524 195.785 295.152 197.121 295.87 198.41C296.53 199.72 297.12 201.05 297.67 202.41C299.85 207.72 301.58 212.93 303.14 217.89V217.97C302.14 228.14 301.5 237.51 301.38 245.88C301.38 247.967 301.42 249.99 301.5 251.95C301.546 253.833 301.929 255.692 302.63 257.44C303.321 258.962 304.324 260.324 305.572 261.436C306.821 262.549 308.288 263.388 309.88 263.9H309.99V264C309.06 271.59 308.34 277.51 307.85 281.55L307.28 286.14C307.17 287.13 307.08 287.66 307.08 287.66Z" fill="#D37A57"/>
<path d="M321.88 207.55C321.713 207.011 321.593 206.459 321.52 205.9C321.33 204.83 321.01 203.29 320.58 201.39C319.412 196.47 317.754 191.679 315.63 187.09C313.461 182.513 310.936 178.113 308.08 173.93C307 172.32 306.08 171.03 305.47 170.14C305.129 169.688 304.818 169.214 304.54 168.72C304.94 169.121 305.305 169.556 305.63 170.02C306.31 170.87 307.26 172.13 308.39 173.72C311.351 177.862 313.931 182.263 316.1 186.87C318.247 191.488 319.871 196.331 320.94 201.31C321.32 203.22 321.6 204.78 321.72 205.87C321.823 206.424 321.877 206.986 321.88 207.55Z" fill="#D37A57"/>
<path d="M332.28 200.1C331.308 198.444 330.488 196.704 329.83 194.9C328.996 193.17 328.326 191.365 327.83 189.51C328.795 191.164 329.612 192.901 330.27 194.7C331.1 196.436 331.773 198.244 332.28 200.1Z" fill="#D37A57"/>
<path d="M304.41 277.84C298.53 329.72 290.88 384.94 282.08 442.3H350.25C363.07 413.92 355.25 389.16 351.81 353.87L340.57 273.74L304.41 277.84Z" fill="#E3B76B"/>
<path d="M282.08 442.3C282.069 442.19 282.069 442.08 282.08 441.97L282.2 440.97C282.33 440.08 282.5 438.81 282.72 437.2C283.2 433.89 283.89 429.2 284.72 423.32C286.44 411.58 288.82 395.42 291.44 377.56C294.06 359.7 296.19 343.48 297.62 331.73C298.35 325.85 298.9 321.1 299.27 317.81C299.46 316.19 299.61 314.92 299.72 314.02L299.84 313.02C299.853 312.908 299.876 312.797 299.91 312.69C299.91 312.69 299.91 312.8 299.91 313.02L299.83 314.02C299.75 314.92 299.63 316.2 299.48 317.82C299.17 321.11 298.68 325.88 297.99 331.76C296.66 343.52 294.54 359.76 291.99 377.63C289.44 395.5 286.93 411.63 285.11 423.37C284.2 429.19 283.45 433.91 282.93 437.22C282.67 438.82 282.46 440.08 282.32 440.98C282.25 441.38 282.19 441.71 282.15 441.98C282.136 442.088 282.113 442.196 282.08 442.3Z" fill="#3C3C3C"/>
<path d="M429.78 441.85H235.39L260.47 305.42C260.901 303.081 262.137 300.965 263.963 299.441C265.789 297.916 268.091 297.077 270.47 297.07H445.17C446.67 297.073 448.15 297.406 449.506 298.047C450.862 298.687 452.06 299.619 453.015 300.775C453.97 301.932 454.658 303.284 455.031 304.737C455.403 306.19 455.451 307.707 455.17 309.18L429.78 441.85Z" fill="#455A64"/>
<path d="M235.39 441.85H161.65L161.95 441.63C168.527 436.688 176.468 433.895 184.69 433.63L237.41 432.08L235.39 441.85Z" fill="#455A64"/>
<path d="M282.08 297.25C282.08 297.3 281.54 297.15 280.51 297.14C279.006 297.163 277.528 297.532 276.19 298.22C274.071 299.296 272.282 300.923 271.01 302.93C269.403 305.643 268.324 308.636 267.83 311.75C267.2 315.2 266.64 319.03 265.95 323.12C265.26 327.21 264.5 331.57 263.64 336.12C261.95 345.29 259.94 355.35 257.76 365.88C253.37 386.95 249.3 406 246.65 419.88C245.31 426.8 244.28 432.41 243.58 436.29C243.23 438.19 242.96 439.68 242.77 440.75C242.67 441.23 242.6 441.61 242.54 441.91C242.519 442.043 242.485 442.173 242.44 442.3C242.44 442.3 242.44 442.17 242.44 441.9C242.44 441.63 242.54 441.21 242.6 440.73C242.77 439.65 242.99 438.15 243.28 436.24C243.89 432.35 244.85 426.72 246.12 419.78C248.65 405.91 252.64 386.83 257.03 365.78C259.21 355.25 261.23 345.21 262.96 336.05C263.84 331.48 264.61 327.12 265.34 323.05C266.07 318.98 266.64 315.16 267.34 311.68C267.87 308.514 269.004 305.479 270.68 302.74C272.013 300.694 273.881 299.052 276.08 297.99C277.455 297.297 278.98 296.954 280.52 296.99C281.05 297.002 281.575 297.089 282.08 297.25Z" fill="#3C3C3C"/>
<path d="M364.18 366.39C364.18 368.249 363.629 370.067 362.596 371.612C361.563 373.158 360.095 374.363 358.377 375.074C356.66 375.786 354.769 375.972 352.946 375.609C351.123 375.247 349.448 374.351 348.133 373.037C346.818 371.722 345.923 370.047 345.561 368.224C345.198 366.4 345.384 364.51 346.095 362.793C346.807 361.075 348.012 359.607 349.558 358.574C351.103 357.541 352.921 356.99 354.78 356.99C357.273 356.99 359.664 357.98 361.427 359.743C363.19 361.506 364.18 363.897 364.18 366.39Z" fill="#F5F5F5"/>
<path d="M477.62 442C477.62 442.14 375.25 442.26 249.01 442.26C122.77 442.26 20.3799 442.15 20.3799 442C20.3799 441.85 122.72 441.74 249.01 441.74C375.3 441.74 477.62 441.86 477.62 442Z" fill="#3C3C3C"/>
<path d="M206.58 83.81L203.91 58.7L191.1 61.59L180.06 42.09L186.94 68.45L199.93 65.47L206.58 83.81Z" fill="#E3B76B"/>
<path d="M201.36 88.55L189.46 76.3L183.85 83.19L169.84 77.42L184.5 88.58L190.17 81.57L201.36 88.55Z" fill="#E3B76B"/>
<path d="M330 99.38L340.82 79.7L350.33 86.47L366.08 74.27L351.39 93.53L341.75 86.63L330 99.38Z" fill="#E3B76B"/>
<path d="M349.85 110.61L361.04 105.84L362.83 111.9L373.62 111.97L360.92 115.26L359.12 109.1L349.85 110.61Z" fill="#E3B76B"/>
<path d="M272.23 34.15C272.23 34.15 272.68 33.86 273.58 33.32C274.924 32.5353 276.317 31.8372 277.75 31.23C283.329 28.8393 289.376 27.7354 295.44 28C296.46 28.0307 297.478 28.1141 298.49 28.25C299.564 28.3537 300.628 28.5477 301.67 28.83C302.771 29.1169 303.83 29.5473 304.82 30.11C305.875 30.6978 306.761 31.5487 307.39 32.58C308.024 33.6878 308.244 34.9851 308.01 36.24C307.717 37.5304 307.077 38.7163 306.16 39.67C304.208 41.6359 301.805 43.0949 299.16 43.92C293.386 46.0437 287.228 46.9263 281.09 46.51C274.143 46.0834 267.395 44.028 261.39 40.51L261.25 40.42L261.34 40.28C263.904 36.2451 267.484 32.9552 271.72 30.74C276.203 28.3678 281.131 26.9577 286.19 26.6C291.521 26.2642 296.873 26.6986 302.08 27.89C304.76 28.46 307.44 29.17 310.08 30C312.835 30.7462 315.514 31.7507 318.08 33C320.735 34.3015 322.96 36.3392 324.49 38.87C325.249 40.1725 325.722 41.621 325.88 43.12C326.017 44.6454 325.762 46.1805 325.14 47.58C323.735 50.3364 321.451 52.5461 318.65 53.86C315.874 55.2554 312.93 56.2873 309.89 56.93C297.26 59.9967 284.122 60.3376 271.35 57.93C270.52 57.79 269.71 57.59 268.88 57.42C268.05 57.25 267.24 57.06 266.42 56.85C264.761 56.4785 263.133 55.9804 261.55 55.36C259.939 54.7286 258.437 53.8478 257.1 52.75C255.71 51.6274 254.758 50.0525 254.41 48.3C254.115 46.5161 254.516 44.6871 255.53 43.19C256.527 41.7228 257.793 40.4572 259.26 39.46C260.716 38.4573 262.263 37.5935 263.88 36.88C264.66 36.48 265.48 36.13 266.29 35.79C267.1 35.45 267.92 35.1 268.76 34.79C275.511 32.2552 282.649 30.9021 289.86 30.79C293.522 30.729 297.182 30.9833 300.8 31.55C301.71 31.69 302.62 31.84 303.53 32.05C304.44 32.26 305.34 32.41 306.23 32.66C308.048 33.0742 309.825 33.6498 311.54 34.38C313.287 35.1014 314.907 36.0972 316.34 37.33C317.809 38.5798 318.857 40.2526 319.34 42.12L319.49 42.83L319.55 43.56C319.585 44.0427 319.585 44.5273 319.55 45.01C319.423 45.9698 319.139 46.9022 318.71 47.77C317.83 49.4891 316.597 51.0023 315.09 52.21C313.616 53.4408 312.006 54.4978 310.29 55.36C309.44 55.81 308.56 56.19 307.68 56.56C306.8 56.93 305.92 57.31 305.02 57.65C301.433 59.0346 297.75 60.1543 294 61C286.39 62.7618 278.565 63.4085 270.77 62.92C266.786 62.7726 262.883 61.7483 259.34 59.92C257.546 58.9712 256.011 57.598 254.87 55.92C253.776 54.1781 253.271 52.1307 253.43 50.08C253.58 48.4186 254.117 46.8155 255 45.4C255.888 44.0082 256.973 42.7519 258.22 41.67C260.702 39.555 263.516 37.8655 266.55 36.67C272.48 34.1542 278.785 32.6338 285.21 32.17C288.38 31.9382 291.564 31.9616 294.73 32.24C296.31 32.38 297.88 32.58 299.44 32.85C301.009 33.0895 302.552 33.4745 304.05 34C305.56 34.4948 306.988 35.2091 308.29 36.12C309.633 37.0156 310.694 38.2745 311.35 39.75C311.983 41.2504 312.037 42.9324 311.5 44.47C310.966 45.9731 310.053 47.3129 308.85 48.36C306.45 50.48 303.35 51.36 300.4 52.09C297.45 52.82 294.47 53.5 291.51 54.15C285.66 55.5105 279.722 56.4628 273.74 57C267.856 57.5346 261.926 57.252 256.12 56.16C250.422 55.0869 245 52.8725 240.18 49.65L239.92 49.48L240.15 49.27C248.285 42.2512 258.276 37.7363 268.92 36.27C279.017 34.7099 289.348 36.0018 298.75 40C299.87 40.5321 300.919 41.2041 301.87 42C302.841 42.7953 303.588 43.829 304.04 45C304.437 46.2135 304.373 47.5308 303.86 48.7C303.318 49.8179 302.507 50.7835 301.5 51.51C299.518 52.8562 297.329 53.8696 295.02 54.51C292.788 55.2252 290.505 55.7668 288.19 56.13C283.664 56.8349 279.056 56.8349 274.53 56.13C273.398 56.0262 272.311 55.6375 271.37 55C270.916 54.6243 270.57 54.1344 270.368 53.5809C270.166 53.0273 270.115 52.4299 270.22 51.85C270.516 50.7437 271.136 49.7512 272 49C272.806 48.246 273.715 47.6097 274.7 47.11C282.318 43.7024 290.702 42.374 299 43.26C300.974 43.4413 302.915 43.8887 304.77 44.59C306.616 45.2662 308.234 46.4479 309.44 48C310.62 49.544 311.177 51.4749 311 53.41C310.7 55.2736 309.698 56.9516 308.2 58.1C306.808 59.2055 305.315 60.1765 303.74 61C302.207 61.843 300.624 62.591 299 63.24C295.907 64.4738 292.688 65.3625 289.4 65.89C283.41 66.8634 277.283 66.598 271.4 65.11H271.21L271.32 64.96C273.846 61.541 277.325 58.9427 281.32 57.49C284.803 56.1811 288.568 55.8087 292.24 56.41C293.89 56.6382 295.469 57.2327 296.86 58.15C297.504 58.594 298.058 59.1575 298.49 59.81C298.893 60.4484 299.146 61.1698 299.23 61.92C299.336 63.3216 298.947 64.7161 298.13 65.86C297.427 66.8898 296.555 67.7926 295.55 68.53C293.842 69.6788 291.98 70.581 290.02 71.21C288.638 71.7076 287.294 72.3059 286 73C285.214 73.4353 284.482 73.9623 283.82 74.57C283.6 74.77 283.45 74.94 283.34 75.05L283.18 75.21C283.375 74.9762 283.582 74.7525 283.8 74.54C284.452 73.9209 285.178 73.3836 285.96 72.94C287.245 72.2265 288.582 71.6114 289.96 71.1C291.904 70.4536 293.751 69.5452 295.45 68.4C296.439 67.6688 297.295 66.7723 297.98 65.75C298.776 64.6391 299.151 63.2819 299.04 61.92C298.958 61.2066 298.711 60.522 298.32 59.92C297.903 59.2819 297.363 58.7344 296.73 58.31C295.363 57.4132 293.811 56.8357 292.19 56.62C288.553 56.0321 284.826 56.4079 281.38 57.71C277.431 59.157 273.995 61.734 271.5 65.12L271.43 64.92C277.277 66.3821 283.362 66.6339 289.31 65.66C292.598 65.1271 295.817 64.2351 298.91 63C300.512 62.3588 302.074 61.6242 303.59 60.8C305.156 59.9772 306.639 59.0061 308.02 57.9C309.448 56.7998 310.406 55.1988 310.7 53.42C310.844 51.5747 310.295 49.7421 309.16 48.28C308.004 46.777 306.448 45.63 304.67 44.97C302.851 44.2639 300.943 43.813 299 43.63C290.754 42.7334 282.419 44.0484 274.85 47.44C273.9 47.9186 273.025 48.5316 272.25 49.26C271.458 49.9639 270.891 50.8856 270.62 51.91C270.526 52.4174 270.569 52.9407 270.745 53.4259C270.921 53.911 271.223 54.3405 271.62 54.67C272.501 55.3184 273.534 55.7283 274.62 55.86C279.1 56.5549 283.66 56.5549 288.14 55.86C290.434 55.4918 292.697 54.9502 294.91 54.24C297.177 53.5962 299.323 52.5825 301.26 51.24C302.207 50.5568 302.969 49.6498 303.48 48.6C303.947 47.5314 304.004 46.328 303.64 45.22C303.236 44.116 302.546 43.1393 301.64 42.39C300.732 41.5947 299.723 40.9223 298.64 40.39C289.302 36.4032 279.035 35.1078 269 36.65C258.44 38.1385 248.538 42.6537 240.49 49.65V49.26C245.263 52.4365 250.626 54.6198 256.26 55.68C262.02 56.7671 267.902 57.0498 273.74 56.52C279.699 55.9703 285.614 55.008 291.44 53.64C294.44 52.99 297.36 52.29 300.32 51.58C303.28 50.87 306.32 49.99 308.55 47.97C309.672 46.9649 310.516 45.687 311 44.26C311.487 42.8341 311.434 41.2791 310.85 39.89C310.231 38.5068 309.233 37.3277 307.97 36.49C306.706 35.6126 305.321 34.9221 303.86 34.44C302.388 33.9349 300.871 33.57 299.33 33.35C297.79 33.08 296.23 32.88 294.67 32.74C291.526 32.4699 288.367 32.4499 285.22 32.68C278.857 33.1412 272.613 34.6481 266.74 37.14C263.752 38.3128 260.981 39.9756 258.54 42.06C256.18 44.16 254.14 46.93 253.88 50.13C253.731 52.0649 254.208 53.9964 255.24 55.64C256.336 57.2443 257.804 58.5586 259.52 59.47C262.996 61.2604 266.823 62.2642 270.73 62.41C278.478 62.8952 286.255 62.2552 293.82 60.51C297.563 59.6542 301.24 58.5279 304.82 57.14C305.707 56.8 306.587 56.44 307.46 56.06C308.34 55.69 309.2 55.31 310.04 54.87C311.718 54.024 313.295 52.9908 314.74 51.79C316.189 50.6263 317.378 49.1717 318.23 47.52C318.631 46.7012 318.898 45.8234 319.02 44.92C319.055 44.4673 319.055 44.0127 319.02 43.56L318.96 42.88L318.82 42.21C318.368 40.4458 317.384 38.8639 316 37.68C314.604 36.4855 313.028 35.5201 311.33 34.82C309.64 34.0995 307.89 33.5306 306.1 33.12C305.21 32.88 304.31 32.7 303.41 32.51C302.51 32.32 301.62 32.16 300.71 32.02C290.014 30.3322 279.064 31.4345 268.92 35.22C268.09 35.51 267.28 35.84 266.47 36.22C265.66 36.6 264.86 36.9 264.08 37.3C262.488 38.0034 260.964 38.8537 259.53 39.84C258.114 40.798 256.892 42.0163 255.93 43.43C254.979 44.8258 254.6 46.5329 254.87 48.2C255.204 49.8414 256.098 51.3156 257.4 52.37C258.697 53.4366 260.155 54.2905 261.72 54.9C263.282 55.5161 264.89 56.0077 266.53 56.37C267.34 56.58 268.15 56.78 268.97 56.94C269.79 57.1 270.6 57.31 271.42 57.45C284.129 59.8425 297.202 59.5016 309.77 56.45C312.774 55.8291 315.685 54.8207 318.43 53.45C321.08 52.05 323.55 50.09 324.75 47.38C325.338 46.0485 325.579 44.5898 325.45 43.14C325.3 41.6783 324.836 40.2662 324.09 39C322.595 36.5425 320.43 34.5619 317.85 33.29C315.321 32.0509 312.683 31.0466 309.97 30.29C307.3 29.46 304.63 28.75 301.97 28.18C296.796 26.9905 291.478 26.5526 286.18 26.88C281.171 27.2396 276.294 28.643 271.86 31C267.671 33.1782 264.129 36.42 261.59 40.4L261.53 40.17C267.14 43.4803 273.413 45.5106 279.899 46.1156C286.385 46.7207 292.924 45.8856 299.05 43.67C301.674 42.8619 304.06 41.4233 306 39.48C306.888 38.5577 307.512 37.4149 307.81 36.17C308.038 34.9671 307.829 33.7221 307.22 32.66C306.613 31.657 305.755 30.8298 304.73 30.26C303.758 29.7003 302.715 29.2732 301.63 28.99C300.598 28.7076 299.544 28.5103 298.48 28.4C297.48 28.26 296.48 28.19 295.48 28.14C289.434 27.872 283.405 28.9549 277.83 31.31C276.399 31.8955 275.004 32.5633 273.65 33.31C272.7 33.89 272.23 34.15 272.23 34.15Z" fill="#3C3C3C"/>
</svg>
